# Blender v3.3.0 OBJ File: ''
# www.blender.org
o cabinet_thick_Cube.056
v 0.500000 0.500000 -0.250000
v 0.500000 0.437500 0.500000
v 0.500000 0.437500 -0.250000
v -0.437500 0.500000 0.500000
v -0.500000 0.437500 0.500000
v -0.437500 0.437500 0.500000
v -0.500000 0.500000 -0.312500
v -0.500000 0.437500 -0.375000
v -0.500000 0.437500 -0.312500
v 0.500000 0.500000 -0.375000
v 0.437500 0.500000 -0.437500
v 0.437500 0.500000 -0.375000
v -0.500000 -0.500000 -0.312500
v -0.437500 -0.500000 -0.375000
v -0.437500 -0.500000 -0.312500
v 0.500000 0.500000 -0.312500
v 0.437500 0.500000 -0.312500
v 0.500000 0.500000 0.500000
v 0.437500 0.500000 -0.250000
v 0.437500 0.500000 0.500000
v -0.500000 -0.500000 0.500000
v -0.437500 -0.500000 -0.250000
v -0.437500 -0.500000 0.500000
v -0.500000 0.500000 0.500000
v -0.500000 0.437500 -0.250000
v 0.500000 0.437500 -0.312500
v 0.500000 0.375000 -0.312500
v 0.500000 -0.500000 -0.250000
v 0.500000 -0.500000 -0.312500
v -0.500000 0.375000 0.500000
v -0.500000 -0.500000 -0.250000
v 0.437500 0.375000 -0.375000
v 0.500000 -0.500000 -0.375000
v 0.437500 -0.500000 -0.375000
v -0.500000 0.375000 -0.312500
v -0.500000 -0.500000 -0.375000
v -0.437500 0.375000 0.500000
v 0.500000 0.375000 -0.250000
v 0.500000 -0.500000 0.500000
v 0.500000 0.437500 -0.437500
v 0.437500 0.437500 -0.437500
v 0.500000 0.375000 -0.375000
v 0.500000 0.437500 -0.375000
v -0.500000 0.500000 -0.375000
v -0.500000 0.437500 -0.437500
v -0.500000 0.375000 -0.375000
v -0.437500 0.375000 -0.437500
v -0.437500 0.375000 -0.375000
v -0.375000 0.375000 -0.375000
v 0.375000 0.375000 -0.437500
v 0.375000 0.375000 -0.375000
v -0.437500 0.500000 -0.437500
v -0.375000 0.437500 -0.437500
v -0.437500 0.437500 -0.437500
v 0.375000 0.375000 0.500000
v -0.375000 -0.500000 0.500000
v 0.375000 -0.500000 0.500000
v -0.375000 -0.500000 -0.375000
v 0.375000 -0.500000 -0.250000
v -0.375000 0.500000 0.500000
v -0.437500 0.500000 -0.250000
v -0.375000 0.500000 -0.312500
v -0.437500 0.500000 -0.375000
v -0.437500 0.500000 -0.312500
v -0.375000 -0.500000 -0.312500
v 0.375000 -0.500000 -0.375000
v 0.375000 -0.500000 -0.312500
v -0.375000 0.500000 -0.375000
v 0.375000 0.500000 0.500000
v -0.375000 0.437500 0.500000
v 0.375000 0.437500 0.500000
v 0.437500 0.437500 0.500000
v 0.437500 -0.500000 -0.312500
v 0.437500 -0.500000 -0.250000
v 0.437500 -0.500000 0.500000
v 0.437500 0.375000 0.500000
v 0.437500 0.375000 -0.437500
v -0.375000 0.500000 -0.437500
v 0.375000 0.437500 -0.437500
v -0.375000 0.500000 -0.250000
v 0.375000 0.500000 -0.312500
v 0.375000 0.500000 -0.375000
v -0.375000 0.375000 -0.437500
v -0.375000 0.375000 0.500000
v -0.500000 0.375000 -0.437500
v 0.500000 0.500000 -0.437500
v 0.500000 0.375000 -0.437500
v -0.500000 0.375000 -0.250000
v 0.500000 0.375000 0.500000
v 0.375000 0.500000 -0.250000
v -0.375000 -0.500000 -0.250000
v -0.500000 0.500000 -0.250000
v -0.500000 0.500000 -0.437500
v 0.375000 0.500000 -0.437500
v -0.125000 0.312500 -0.437500
v 0.125000 0.250000 -0.437500
v -0.125000 0.250000 -0.437500
v -0.125000 0.312500 -0.375000
v -0.375000 0.250000 -0.375000
v -0.125000 0.250000 -0.375000
v 0.125000 0.250000 -0.375000
v 0.375000 0.312500 -0.375000
v 0.125000 0.312500 -0.375000
v -0.375000 0.312500 -0.437500
v -0.375000 0.250000 -0.437500
v -0.375000 0.000000 -0.375000
v -0.125000 0.000000 -0.437500
v -0.125000 0.000000 -0.375000
v -0.375000 0.312500 -0.375000
v 0.125000 0.187500 -0.375000
v 0.125000 0.000000 -0.375000
v -0.375000 0.187500 -0.437500
v -0.375000 0.000000 -0.437500
v -0.375000 0.187500 -0.375000
v 0.375000 0.000000 -0.375000
v 0.375000 0.187500 -0.375000
v 0.375000 0.250000 -0.375000
v -0.125000 0.187500 -0.375000
v 0.125000 0.312500 -0.437500
v 0.125000 0.000000 -0.437500
v 0.375000 0.000000 -0.437500
v 0.375000 0.187500 -0.437500
v 0.375000 0.312500 -0.437500
v 0.375000 0.250000 -0.437500
v -0.125000 0.187500 -0.437500
v 0.125000 0.187500 -0.437500
v -0.125000 0.250000 -0.500000
v 0.125000 0.187500 -0.500000
v -0.125000 0.187500 -0.500000
v 0.125000 0.250000 -0.500000
v -0.125000 -0.062500 -0.437500
v 0.125000 -0.125000 -0.437500
v -0.125000 -0.125000 -0.437500
v -0.125000 -0.062500 -0.375000
v -0.375000 -0.125000 -0.375000
v -0.125000 -0.125000 -0.375000
v 0.125000 -0.125000 -0.375000
v 0.375000 -0.062500 -0.375000
v 0.125000 -0.062500 -0.375000
v -0.375000 -0.062500 -0.437500
v -0.375000 -0.125000 -0.437500
v -0.375000 -0.375000 -0.375000
v -0.125000 -0.375000 -0.437500
v -0.125000 -0.375000 -0.375000
v -0.375000 -0.062500 -0.375000
v 0.125000 -0.187500 -0.375000
v 0.125000 -0.375000 -0.375000
v -0.375000 -0.187500 -0.437500
v -0.375000 -0.375000 -0.437500
v -0.375000 -0.187500 -0.375000
v 0.375000 -0.375000 -0.375000
v 0.375000 -0.187500 -0.375000
v 0.375000 -0.125000 -0.375000
v -0.125000 -0.187500 -0.375000
v 0.125000 -0.062500 -0.437500
v 0.125000 -0.375000 -0.437500
v 0.375000 -0.375000 -0.437500
v 0.375000 -0.187500 -0.437500
v 0.375000 -0.062500 -0.437500
v 0.375000 -0.125000 -0.437500
v -0.125000 -0.187500 -0.437500
v 0.125000 -0.187500 -0.437500
v -0.125000 -0.125000 -0.500000
v 0.125000 -0.187500 -0.500000
v -0.125000 -0.187500 -0.500000
v 0.125000 -0.125000 -0.500000
vt 0.749999 1.000000
vt -0.000001 0.937501
vt 0.749999 0.937501
vt 0.937499 1.000000
vt 1.000001 0.937501
vt 0.937499 0.937501
vt 0.812501 1.000000
vt 0.875000 0.937501
vt 0.812501 0.937501
vt -0.000001 0.124999
vt 0.062501 0.062500
vt 0.062501 0.124999
vt 1.000001 0.187501
vt 0.937499 0.124999
vt 0.937499 0.187501
vt -0.000001 0.187501
vt 0.062501 0.187501
vt -0.000001 1.000000
vt 0.062501 0.250000
vt 0.062501 1.000000
vt 1.000001 1.000000
vt 0.937499 0.250000
vt 0.937499 1.000000
vt -0.000001 1.000000
vt 0.749999 0.937501
vt -0.000001 0.937501
vt 0.812501 1.000000
vt 0.812501 0.937501
vt 1.000001 0.874999
vt 0.937499 0.000001
vt 1.000001 0.000001
vt -0.000001 0.874999
vt 0.749999 0.000001
vt -0.000001 0.000001
vt 0.062501 0.874999
vt -0.000001 0.000001
vt 0.062501 0.000001
vt -0.000001 0.874999
vt 0.062501 0.000001
vt -0.000001 0.000001
vt 0.937499 0.874999
vt 1.000001 0.000001
vt 0.937499 0.000001
vt 0.749999 0.874999
vt -0.000001 0.000001
vt 0.749999 0.000001
vt 0.062501 1.000000
vt -0.000001 0.937501
vt 0.062501 0.937501
vt 0.875000 0.000001
vt 0.937499 0.062500
vt 0.875000 0.062500
vt 0.875000 1.000000
vt 0.937499 0.937501
vt 1.000001 0.124999
vt 0.937499 0.062500
vt 0.937499 0.124999
vt 0.875000 0.062500
vt 0.125000 0.000001
vt 0.125000 0.062500
vt 0.062501 1.000000
vt -0.000001 0.937501
vt 0.062501 0.937501
vt 0.125000 0.874999
vt 0.875000 0.000001
vt 0.125000 0.000001
vt 0.062501 0.874999
vt -0.000001 0.000001
vt 0.062501 0.000001
vt 0.875000 1.000000
vt 0.125000 0.250000
vt 0.125000 1.000000
vt -0.000001 1.000000
vt 0.062501 0.250000
vt 0.062501 1.000000
vt -0.000001 0.187501
vt 0.062501 0.124999
vt 0.062501 0.187501
vt 0.875000 1.000000
vt 0.125000 0.937501
vt 0.125000 1.000000
vt -0.000001 0.124999
vt 0.062501 0.062500
vt 0.125000 1.000000
vt 0.875000 0.937501
vt 0.125000 0.937501
vt 0.937499 1.000000
vt 1.000001 0.937501
vt 0.937499 0.937501
vt 1.000001 0.187501
vt 0.937499 0.124999
vt 0.937499 0.187501
vt 1.000001 1.000000
vt 0.937499 0.250000
vt 0.937499 1.000000
vt 0.937499 0.874999
vt 1.000001 0.000001
vt 0.937499 0.000001
vt 0.062501 0.000001
vt 0.062501 0.062500
vt 0.875000 1.000000
vt 0.125000 0.937501
vt 0.875000 0.937501
vt 0.875000 0.874999
vt 0.125000 0.000001
vt 0.875000 0.000001
vt 0.875000 0.250000
vt 0.875000 1.000000
vt 0.125000 1.000000
vt 0.875000 0.937501
vt 0.875000 1.000000
vt 0.125000 0.062500
vt 0.875000 0.000001
vt 0.875000 0.062500
vt 0.875000 0.062500
vt 0.875000 0.000001
vt 0.937499 1.000000
vt 1.000001 0.937501
vt 0.937499 0.937501
vt 0.125000 0.062500
vt 0.875000 0.000001
vt 0.125000 0.000001
vt -0.000001 0.874999
vt 0.062501 0.874999
vt 0.875000 0.062500
vt 0.937499 0.000001
vt 0.875000 0.000001
vt 0.875000 0.937501
vt 0.937499 1.000000
vt 0.875000 1.000000
vt -0.000001 0.874999
vt 0.062501 0.874999
vt 0.812501 0.062500
vt 0.749999 0.000001
vt 0.812501 0.000001
vt -0.000001 0.062500
vt 0.749999 0.000001
vt -0.000001 0.000001
vt 0.812501 0.062500
vt 0.812501 0.000001
vt 1.000001 0.874999
vt 0.749999 0.062500
vt -0.000001 0.000001
vt 0.749999 0.062500
vt 0.125000 0.250000
vt 0.875000 0.187501
vt 1.000001 1.000000
vt 0.937499 0.937501
vt 0.937499 1.000000
vt 0.875000 0.062500
vt 0.125000 0.000001
vt 0.125000 0.062500
vt -0.000001 0.250000
vt 0.937499 0.874999
vt 1.000001 0.000001
vt 0.937499 0.000001
vt 0.062501 0.874999
vt -0.000001 0.000001
vt 0.062501 0.000001
vt -0.000001 0.250000
vt 1.000001 0.250000
vt 0.749999 1.000000
vt 0.062501 0.062500
vt -0.000001 0.000001
vt -0.000001 0.062500
vt 0.937499 0.250000
vt 1.000001 0.187501
vt 1.000001 0.250000
vt -0.000001 0.062500
vt 0.062501 0.000001
vt -0.000001 0.000001
vt 1.000001 0.937501
vt 0.937499 0.874999
vt 1.000001 0.874999
vt 0.937499 0.124999
vt 1.000001 0.062500
vt 1.000001 0.124999
vt 0.937499 0.187501
vt 1.000001 1.000000
vt 1.000001 0.874999
vt 0.937499 0.000001
vt 1.000001 0.000001
vt 1.000001 1.000000
vt 0.937499 0.937501
vt 0.937499 0.062500
vt -0.000001 0.874999
vt 0.062501 0.000001
vt -0.000001 0.000001
vt 0.062501 1.000000
vt -0.000001 0.250000
vt -0.000001 1.000000
vt 0.062501 0.187501
vt -0.000001 0.124999
vt -0.000001 0.187501
vt 0.062501 0.937501
vt -0.000001 0.937501
vt 0.937499 0.250000
vt 1.000001 0.187501
vt 1.000001 0.250000
vt 0.062501 0.250000
vt -0.000001 0.187501
vt -0.000001 0.250000
vt 1.000001 0.937501
vt 0.937499 0.874999
vt 1.000001 0.874999
vt 0.062501 0.874999
vt -0.000001 0.874999
vt 0.062501 0.124999
vt -0.000001 0.062500
vt -0.000001 0.124999
vt 0.062501 0.000001
vt 0.062501 1.000000
vt -0.000001 1.000000
vt 0.062501 0.187501
vt -0.000001 0.124999
vt 0.062501 0.937501
vt 1.000001 1.000000
vt 0.937499 0.937501
vt 1.000001 0.874999
vt 0.937499 0.000001
vt 1.000001 0.000001
vt 1.000001 1.000000
vt 0.937499 1.000000
vt 1.000001 0.937501
vt 1.000001 1.000000
vt 0.937499 0.124999
vt 1.000001 0.062500
vt 1.000001 0.124999
vt 0.625001 1.000000
vt 0.374999 0.937501
vt 0.625001 0.937501
vt 0.625001 0.812500
vt 0.875000 0.750001
vt 0.625001 0.750001
vt 0.374999 0.750001
vt 0.125000 0.812500
vt 0.374999 0.812500
vt 1.000001 1.000000
vt 0.749999 0.937501
vt 1.000001 0.937501
vt 0.875000 0.124999
vt 0.625001 0.062500
vt 0.625001 0.124999
vt 0.625001 1.000000
vt 0.875000 0.937501
vt 0.875000 1.000000
vt 0.374999 0.687499
vt 0.625001 0.499999
vt 0.374999 0.499999
vt 1.000001 0.187501
vt 0.749999 0.000001
vt 1.000001 0.000001
vt 0.937499 0.187501
vt 0.937499 0.000001
vt 0.125000 0.499999
vt 0.125000 0.687499
vt 0.125000 0.750001
vt 0.625001 0.687499
vt 0.875000 0.499999
vt 0.374999 0.937501
vt 0.625001 0.937501
vt 0.374999 0.062500
vt 0.125000 0.124999
vt 0.374999 0.124999
vt -0.000001 0.187501
vt 0.062501 0.000001
vt 0.062501 0.187501
vt 0.937499 1.000000
vt 0.875000 0.937501
vt 0.937499 0.937501
vt 1.000001 0.250000
vt 0.749999 0.187501
vt 0.250001 1.000000
vt -0.000001 0.937501
vt 0.250001 0.937501
vt -0.000001 0.187501
vt 0.250001 0.000001
vt 0.250001 0.187501
vt 0.374999 1.000000
vt 0.125000 0.937501
vt 0.374999 0.187501
vt 0.625001 0.000001
vt 0.625001 0.187501
vt 0.875000 0.687499
vt 0.374999 0.062500
vt 0.625001 0.000001
vt 0.625001 0.062500
vt 0.250001 0.250000
vt 0.937499 0.250000
vt 0.062501 0.250000
vt 0.937499 0.937501
vt 0.937499 1.000000
vt 0.625001 0.062500
vt 0.374999 0.000001
vt 0.625001 0.000001
vt 0.625001 0.062500
vt 0.374999 0.062500
vt 0.937499 0.687499
vt 1.000001 0.750001
vt 0.937499 0.750001
vt 0.937499 0.750001
vt 1.000001 0.687499
vt 0.937499 0.687499
vt 0.625001 1.000000
vt 0.374999 0.937501
vt 0.625001 0.937501
vt 0.625001 0.812500
vt 0.875000 0.750001
vt 0.625001 0.750001
vt 0.374999 0.750001
vt 0.125000 0.812500
vt 0.374999 0.812500
vt 1.000001 1.000000
vt 0.749999 0.937501
vt 1.000001 0.937501
vt 0.875000 0.124999
vt 0.625001 0.062500
vt 0.625001 0.124999
vt 0.625001 1.000000
vt 0.875000 0.937501
vt 0.875000 1.000000
vt 0.374999 0.687499
vt 0.625001 0.499999
vt 0.374999 0.499999
vt 1.000001 0.187501
vt 0.749999 0.000001
vt 1.000001 0.000001
vt 0.937499 0.187501
vt 0.937499 0.000001
vt 0.125000 0.499999
vt 0.125000 0.687499
vt 0.125000 0.750001
vt 0.625001 0.687499
vt 0.875000 0.499999
vt 0.374999 0.937501
vt 0.625001 0.937501
vt 0.374999 0.062500
vt 0.125000 0.124999
vt 0.374999 0.124999
vt -0.000001 0.187501
vt 0.062501 0.000001
vt 0.062501 0.187501
vt 0.937499 1.000000
vt 0.875000 0.937501
vt 0.937499 0.937501
vt 1.000001 0.250000
vt 0.749999 0.187501
vt 0.250001 1.000000
vt -0.000001 0.937501
vt 0.250001 0.937501
vt -0.000001 0.187501
vt 0.250001 0.000001
vt 0.250001 0.187501
vt 0.374999 1.000000
vt 0.125000 0.937501
vt 0.374999 0.187501
vt 0.625001 0.000001
vt 0.625001 0.187501
vt 0.875000 0.687499
vt 0.374999 0.062500
vt 0.625001 0.000001
vt 0.625001 0.062500
vt 0.250001 0.250000
vt 0.937499 0.250000
vt 0.062501 0.250000
vt 0.937499 0.937501
vt 0.937499 1.000000
vt 0.625001 0.062500
vt 0.374999 0.000001
vt 0.625001 0.000001
vt 0.625001 0.062500
vt 0.374999 0.062500
vt 0.937499 0.687499
vt 1.000001 0.750001
vt 0.937499 0.750001
vt 0.937499 0.750001
vt 1.000001 0.687499
vt 0.937499 0.687499
vt -0.000001 0.062500
vt 1.000001 0.124999
vt 0.937499 0.874999
vt 0.749999 0.874999
vt -0.000001 0.874999
vt 0.062501 0.874999
vt -0.000001 1.000000
vt 0.937499 0.000001
vt 0.937499 1.000000
vt 1.000001 0.062500
vt -0.000001 1.000000
vt 0.875000 0.874999
vt -0.000001 0.874999
vt 0.875000 0.250000
vt 0.875000 0.937501
vt -0.000001 0.062500
vt 1.000001 0.124999
vt 1.000001 0.250000
vt 1.000001 0.874999
vt 0.125000 1.000000
vt 0.125000 0.874999
vt 0.125000 0.937501
vt 0.125000 0.000001
vt 0.125000 0.062500
vt 1.000001 1.000000
vt 0.875000 0.062500
vt 0.937499 0.062500
vt 0.937499 0.937501
vt -0.000001 0.062500
vt 0.125000 0.187501
vt 1.000001 0.937501
vt 0.875000 0.000001
vt 1.000001 0.874999
vt -0.000001 0.874999
vt 0.062501 0.000001
vt 0.062501 0.062500
vt 0.937499 0.062500
vt 0.937499 0.874999
vt 0.937499 1.000000
vt 0.937499 0.000001
vt 0.062501 0.874999
vt 0.062501 0.250000
vt 0.062501 0.124999
vt 0.937499 0.187501
vt 0.062501 0.062500
vt 0.062501 0.124999
vt 0.937499 1.000000
vt 0.937499 0.874999
vt 0.937499 0.937501
vt 0.937499 0.062500
vt 0.374999 1.000000
vt 0.875000 0.812500
vt 0.749999 1.000000
vt 0.875000 0.062500
vt 0.125000 0.062500
vt -0.000001 0.000001
vt 0.875000 1.000000
vt 0.749999 0.250000
vt -0.000001 1.000000
vt -0.000001 0.000001
vt 0.125000 1.000000
vt 0.374999 0.000001
vt 0.374999 0.000001
vt -0.000001 0.250000
vt -0.000001 0.250000
vt 0.875000 0.937501
vt 0.374999 0.062500
vt 1.000001 0.687499
vt 1.000001 0.750001
vt 0.374999 1.000000
vt 0.875000 0.812500
vt 0.749999 1.000000
vt 0.875000 0.062500
vt 0.125000 0.062500
vt -0.000001 0.000001
vt 0.875000 1.000000
vt 0.749999 0.250000
vt -0.000001 1.000000
vt -0.000001 0.000001
vt 0.125000 1.000000
vt 0.374999 0.000001
vt 0.374999 0.000001
vt -0.000001 0.250000
vt -0.000001 0.250000
vt 0.875000 0.937501
vt 0.374999 0.062500
vt 1.000001 0.687499
vt 1.000001 0.750001
vn 1.0000 0.0000 -0.0000
vn 0.0000 0.0000 1.0000
vn -1.0000 0.0000 0.0000
vn 0.0000 1.0000 0.0000
vn 0.0000 -1.0000 -0.0000
vn 0.0000 0.0000 -1.0000
s 1
f 1/1/1 2/2/1 3/3/1
f 4/4/2 5/5/2 6/6/2
f 7/7/3 8/8/3 9/9/3
f 10/10/4 11/11/4 12/12/4
f 13/13/5 14/14/5 15/15/5
f 16/16/4 12/12/4 17/17/4
f 18/18/4 19/19/4 20/20/4
f 21/21/5 22/22/5 23/23/5
f 24/24/3 25/25/3 5/26/3
f 16/27/1 3/3/1 26/28/1
f 27/29/1 28/30/1 29/31/1
f 30/32/3 31/33/3 21/34/3
f 32/35/6 33/36/6 34/37/6
f 35/38/3 36/39/3 13/40/3
f 37/41/2 21/42/2 23/43/2
f 38/44/1 39/45/1 28/46/1
f 11/47/6 40/48/6 41/49/6
f 42/50/1 40/51/1 43/52/1
f 44/53/3 45/54/3 8/8/3
f 46/55/5 47/56/5 48/57/5
f 49/58/5 50/59/5 51/60/5
f 52/61/6 53/62/6 54/63/6
f 55/64/2 56/65/2 57/66/2
f 48/67/6 58/68/6 14/69/6
f 56/70/5 59/71/5 57/72/5
f 60/73/4 61/74/4 4/75/4
f 62/76/4 63/77/4 64/78/4
f 65/79/5 66/80/5 67/81/5
f 68/82/4 52/83/4 63/77/4
f 69/84/2 70/85/2 71/86/2
f 20/87/2 71/88/2 72/89/2
f 67/90/5 34/91/5 73/92/5
f 57/93/5 74/94/5 75/95/5
f 76/96/2 57/97/2 75/98/2
f 51/60/5 77/99/5 32/100/5
f 78/101/6 79/102/6 53/103/6
f 49/104/6 66/105/6 58/106/6
f 69/84/4 80/107/4 60/108/4
f 81/109/4 68/110/4 62/111/4
f 82/112/4 78/113/4 68/114/4
f 53/115/6 50/59/6 83/116/6
f 72/117/2 55/118/2 76/119/2
f 71/120/2 84/121/2 55/122/2
f 54/63/6 83/123/6 47/124/6
f 8/125/3 85/126/3 46/127/3
f 43/128/1 86/129/1 10/130/1
f 41/49/6 87/131/6 77/132/6
f 26/133/1 38/134/1 27/135/1
f 5/136/3 88/137/3 30/138/3
f 9/139/3 46/127/3 35/140/3
f 6/6/2 30/141/2 37/41/2
f 3/142/1 89/143/1 38/134/1
f 25/144/3 35/140/3 88/137/3
f 43/52/1 27/135/1 42/50/1
f 90/145/4 62/146/4 80/107/4
f 59/147/5 73/148/5 74/149/5
f 91/150/5 67/151/5 59/152/5
f 80/153/4 64/78/4 61/74/4
f 88/154/3 13/155/3 31/156/3
f 42/157/1 29/158/1 33/159/1
f 10/130/1 26/28/1 43/128/1
f 1/160/4 17/17/4 19/19/4
f 31/161/5 15/15/5 22/22/5
f 92/162/3 9/9/3 25/25/3
f 22/163/5 65/164/5 91/165/5
f 61/166/4 7/167/4 92/168/4
f 70/169/2 37/170/2 84/171/2
f 45/172/6 47/173/6 85/174/6
f 63/175/4 93/176/4 44/177/4
f 64/178/4 44/177/4 7/167/4
f 4/4/4 92/168/4 24/179/4
f 46/180/6 14/181/6 36/182/6
f 93/183/6 54/184/6 45/172/6
f 48/185/5 83/116/5 49/58/5
f 84/186/2 23/187/2 56/188/2
f 23/189/5 91/190/5 56/191/5
f 15/192/5 58/193/5 65/194/5
f 60/73/2 6/195/2 70/196/2
f 19/197/4 81/198/4 90/199/4
f 74/200/5 29/201/5 28/202/5
f 79/203/6 77/204/6 50/205/6
f 2/2/2 76/206/2 89/207/2
f 32/208/5 87/209/5 42/210/5
f 89/207/2 75/211/2 39/45/2
f 75/212/5 28/202/5 39/213/5
f 73/214/5 33/215/5 29/201/5
f 18/18/2 72/216/2 2/2/2
f 94/217/6 41/218/6 79/203/6
f 51/219/6 34/220/6 66/221/6
f 20/87/4 90/199/4 69/222/4
f 17/223/4 82/224/4 81/225/4
f 12/226/4 94/227/4 82/228/4
f 95/229/6 96/230/6 97/231/6
f 98/232/2 99/233/2 100/234/2
f 101/235/2 102/236/2 103/237/2
f 104/238/6 97/239/6 105/240/6
f 106/241/5 107/242/5 108/243/5
f 98/244/4 104/245/4 109/246/4
f 110/247/2 108/248/2 111/249/2
f 112/250/6 107/251/6 113/252/6
f 114/253/3 113/252/3 106/254/3
f 110/247/2 115/255/2 116/256/2
f 110/247/2 117/257/2 101/235/2
f 118/258/2 106/259/2 108/248/2
f 98/244/4 119/260/4 95/261/4
f 118/258/2 101/235/2 100/234/2
f 120/262/5 115/263/5 111/264/5
f 116/265/1 121/266/1 122/267/1
f 107/242/5 111/264/5 108/243/5
f 123/268/1 117/269/1 124/270/1
f 105/271/6 125/272/6 112/250/6
f 119/273/6 124/274/6 96/275/6
f 122/276/6 120/277/6 126/278/6
f 103/279/4 123/280/4 119/260/4
f 126/281/6 107/282/6 125/283/6
f 100/234/2 103/237/2 98/232/2
f 100/234/2 114/284/2 118/258/2
f 96/285/4 127/286/4 97/287/4
f 96/288/6 122/276/6 126/278/6
f 112/250/3 99/289/3 105/271/3
f 124/290/1 116/265/1 122/267/1
f 105/291/3 109/246/3 104/292/3
f 127/293/6 128/294/6 129/295/6
f 125/296/5 128/294/5 126/297/5
f 126/298/1 130/299/1 96/300/1
f 97/301/3 129/302/3 125/303/3
f 131/304/6 132/305/6 133/306/6
f 134/307/2 135/308/2 136/309/2
f 137/310/2 138/311/2 139/312/2
f 140/313/6 133/314/6 141/315/6
f 142/316/5 143/317/5 144/318/5
f 134/319/4 140/320/4 145/321/4
f 146/322/2 144/323/2 147/324/2
f 148/325/6 143/326/6 149/327/6
f 150/328/3 149/327/3 142/329/3
f 146/322/2 151/330/2 152/331/2
f 146/322/2 153/332/2 137/310/2
f 154/333/2 142/334/2 144/323/2
f 134/319/4 155/335/4 131/336/4
f 154/333/2 137/310/2 136/309/2
f 156/337/5 151/338/5 147/339/5
f 152/340/1 157/341/1 158/342/1
f 143/317/5 147/339/5 144/318/5
f 159/343/1 153/344/1 160/345/1
f 141/346/6 161/347/6 148/325/6
f 155/348/6 160/349/6 132/350/6
f 158/351/6 156/352/6 162/353/6
f 139/354/4 159/355/4 155/335/4
f 162/356/6 143/357/6 161/358/6
f 136/309/2 139/312/2 134/307/2
f 136/309/2 150/359/2 154/333/2
f 132/360/4 163/361/4 133/362/4
f 132/363/6 158/351/6 162/353/6
f 148/325/3 135/364/3 141/346/3
f 160/365/1 152/340/1 158/342/1
f 141/366/3 145/321/3 140/367/3
f 163/368/6 164/369/6 165/370/6
f 161/371/5 164/369/5 162/372/5
f 162/373/1 166/374/1 132/375/1
f 133/376/3 165/377/3 161/378/3
f 1/1/1 18/18/1 2/2/1
f 4/4/2 24/179/2 5/5/2
f 7/7/3 44/53/3 8/8/3
f 10/10/4 86/379/4 11/11/4
f 13/13/5 36/380/5 14/14/5
f 16/16/4 10/10/4 12/12/4
f 18/18/4 1/160/4 19/19/4
f 21/21/5 31/161/5 22/22/5
f 24/24/3 92/162/3 25/25/3
f 16/27/1 1/1/1 3/3/1
f 27/29/1 38/381/1 28/30/1
f 30/32/3 88/382/3 31/33/3
f 32/35/6 42/383/6 33/36/6
f 35/38/3 46/384/3 36/39/3
f 37/41/2 30/141/2 21/42/2
f 38/44/1 89/207/1 39/45/1
f 11/47/6 86/385/6 40/48/6
f 42/50/1 87/386/1 40/51/1
f 44/53/3 93/387/3 45/54/3
f 46/55/5 85/388/5 47/56/5
f 49/58/5 83/116/5 50/59/5
f 52/61/6 78/389/6 53/62/6
f 55/64/2 84/390/2 56/65/2
f 48/67/6 49/391/6 58/68/6
f 56/70/5 91/392/5 59/71/5
f 60/73/4 80/153/4 61/74/4
f 62/76/4 68/82/4 63/77/4
f 65/79/5 58/393/5 66/80/5
f 68/82/4 78/394/4 52/83/4
f 69/84/2 60/108/2 70/85/2
f 20/87/2 69/222/2 71/88/2
f 67/90/5 66/395/5 34/91/5
f 57/93/5 59/396/5 74/94/5
f 76/96/2 55/397/2 57/97/2
f 51/60/5 50/59/5 77/99/5
f 78/101/6 94/398/6 79/102/6
f 49/104/6 51/399/6 66/105/6
f 69/84/4 90/145/4 80/107/4
f 81/109/4 82/400/4 68/110/4
f 82/112/4 94/401/4 78/113/4
f 53/115/6 79/402/6 50/59/6
f 72/117/2 71/403/2 55/118/2
f 71/120/2 70/404/2 84/121/2
f 54/63/6 53/62/6 83/123/6
f 8/125/3 45/405/3 85/126/3
f 43/128/1 40/406/1 86/129/1
f 41/49/6 40/48/6 87/131/6
f 26/133/1 3/142/1 38/134/1
f 5/136/3 25/144/3 88/137/3
f 9/139/3 8/125/3 46/127/3
f 6/6/2 5/5/2 30/141/2
f 3/142/1 2/407/1 89/143/1
f 25/144/3 9/139/3 35/140/3
f 43/52/1 26/133/1 27/135/1
f 90/145/4 81/408/4 62/146/4
f 59/147/5 67/409/5 73/148/5
f 91/150/5 65/410/5 67/151/5
f 80/153/4 62/76/4 64/78/4
f 88/154/3 35/411/3 13/155/3
f 42/157/1 27/412/1 29/158/1
f 10/130/1 16/27/1 26/28/1
f 1/160/4 16/16/4 17/17/4
f 31/161/5 13/13/5 15/15/5
f 92/162/3 7/7/3 9/9/3
f 22/163/5 15/413/5 65/164/5
f 61/166/4 64/178/4 7/167/4
f 70/169/2 6/414/2 37/170/2
f 45/172/6 54/184/6 47/173/6
f 63/175/4 52/415/4 93/176/4
f 64/178/4 63/175/4 44/177/4
f 4/4/4 61/166/4 92/168/4
f 46/180/6 48/416/6 14/181/6
f 93/183/6 52/417/6 54/184/6
f 48/185/5 47/418/5 83/116/5
f 84/186/2 37/419/2 23/187/2
f 23/189/5 22/420/5 91/190/5
f 15/192/5 14/421/5 58/193/5
f 60/73/2 4/75/2 6/195/2
f 19/197/4 17/422/4 81/198/4
f 74/200/5 73/214/5 29/201/5
f 79/203/6 41/218/6 77/204/6
f 2/2/2 72/216/2 76/206/2
f 32/208/5 77/423/5 87/209/5
f 89/207/2 76/206/2 75/211/2
f 75/212/5 74/200/5 28/202/5
f 73/214/5 34/424/5 33/215/5
f 18/18/2 20/20/2 72/216/2
f 94/217/6 11/425/6 41/218/6
f 51/219/6 32/426/6 34/220/6
f 20/87/4 19/197/4 90/199/4
f 17/223/4 12/427/4 82/224/4
f 12/226/4 11/428/4 94/227/4
f 95/229/6 119/429/6 96/230/6
f 98/232/2 109/430/2 99/233/2
f 101/235/2 117/257/2 102/236/2
f 104/238/6 95/431/6 97/239/6
f 106/241/5 113/432/5 107/242/5
f 98/244/4 95/261/4 104/245/4
f 110/247/2 118/258/2 108/248/2
f 112/250/6 125/272/6 107/251/6
f 114/253/3 112/250/3 113/252/3
f 110/247/2 111/249/2 115/255/2
f 110/247/2 116/256/2 117/257/2
f 118/258/2 114/284/2 106/259/2
f 98/244/4 103/279/4 119/260/4
f 118/258/2 110/247/2 101/235/2
f 120/262/5 121/433/5 115/263/5
f 116/265/1 115/434/1 121/266/1
f 107/242/5 120/262/5 111/264/5
f 123/268/1 102/435/1 117/269/1
f 105/271/6 97/436/6 125/272/6
f 119/273/6 123/437/6 124/274/6
f 122/276/6 121/438/6 120/277/6
f 103/279/4 102/439/4 123/280/4
f 126/281/6 120/440/6 107/282/6
f 100/234/2 101/235/2 103/237/2
f 100/234/2 99/233/2 114/284/2
f 96/285/4 130/441/4 127/286/4
f 96/288/6 124/442/6 122/276/6
f 112/250/3 114/253/3 99/289/3
f 124/290/1 117/443/1 116/265/1
f 105/291/3 99/444/3 109/246/3
f 127/293/6 130/445/6 128/294/6
f 125/296/5 129/295/5 128/294/5
f 126/298/1 128/446/1 130/299/1
f 97/301/3 127/447/3 129/302/3
f 131/304/6 155/448/6 132/305/6
f 134/307/2 145/449/2 135/308/2
f 137/310/2 153/332/2 138/311/2
f 140/313/6 131/450/6 133/314/6
f 142/316/5 149/451/5 143/317/5
f 134/319/4 131/336/4 140/320/4
f 146/322/2 154/333/2 144/323/2
f 148/325/6 161/347/6 143/326/6
f 150/328/3 148/325/3 149/327/3
f 146/322/2 147/324/2 151/330/2
f 146/322/2 152/331/2 153/332/2
f 154/333/2 150/359/2 142/334/2
f 134/319/4 139/354/4 155/335/4
f 154/333/2 146/322/2 137/310/2
f 156/337/5 157/452/5 151/338/5
f 152/340/1 151/453/1 157/341/1
f 143/317/5 156/337/5 147/339/5
f 159/343/1 138/454/1 153/344/1
f 141/346/6 133/455/6 161/347/6
f 155/348/6 159/456/6 160/349/6
f 158/351/6 157/457/6 156/352/6
f 139/354/4 138/458/4 159/355/4
f 162/356/6 156/459/6 143/357/6
f 136/309/2 137/310/2 139/312/2
f 136/309/2 135/308/2 150/359/2
f 132/360/4 166/460/4 163/361/4
f 132/363/6 160/461/6 158/351/6
f 148/325/3 150/328/3 135/364/3
f 160/365/1 153/462/1 152/340/1
f 141/366/3 135/463/3 145/321/3
f 163/368/6 166/464/6 164/369/6
f 161/371/5 165/370/5 164/369/5
f 162/373/1 164/465/1 166/374/1
f 133/376/3 163/466/3 165/377/3
