# Blender v3.3.0 OBJ File: ''
# www.blender.org
o storage_cabinet_spliced_Cube.048
v 0.500000 0.500000 0.062500
v 0.500000 0.437500 0.500000
v 0.500000 0.437500 0.062500
v 0.500000 0.500000 0.500000
v -0.500000 0.437500 0.500000
v -0.500000 0.500000 0.062500
v -0.500000 0.437500 -0.375000
v -0.500000 0.437500 0.062500
v -0.500000 0.500000 -0.375000
v -0.500000 0.437500 -0.437500
v -0.500000 -0.437500 0.062500
v 0.500000 -0.437500 -0.375000
v 0.500000 -0.437500 0.062500
v -0.500000 0.375000 -0.375000
v -0.500000 -0.437500 -0.375000
v -0.500000 0.375000 0.062500
v 0.500000 0.375000 0.500000
v -0.500000 -0.437500 0.500000
v 0.500000 -0.437500 0.500000
v 0.500000 0.375000 0.062500
v -0.500000 0.500000 -0.437500
v 0.500000 0.437500 -0.437500
v 0.500000 0.500000 -0.375000
v 0.500000 0.375000 -0.437500
v 0.500000 0.375000 -0.375000
v 0.500000 0.437500 -0.375000
v 0.437500 0.312500 -0.437500
v 0.437500 0.187500 -0.375000
v 0.437500 0.187500 -0.437500
v -0.000000 0.312500 -0.375000
v -0.437500 0.187500 -0.375000
v -0.000000 0.187500 -0.375000
v -0.437500 0.312500 -0.375000
v -0.437500 0.187500 -0.437500
v -0.000000 0.312500 -0.437500
v -0.000000 0.187500 -0.437500
v -0.437500 0.062500 -0.375000
v -0.000000 0.062500 -0.437500
v -0.000000 0.062500 -0.375000
v 0.437500 0.312500 -0.375000
v 0.437500 -0.062500 -0.437500
v 0.437500 -0.250000 -0.375000
v 0.437500 -0.250000 -0.437500
v -0.000000 -0.062500 -0.375000
v -0.437500 -0.250000 -0.375000
v -0.000000 -0.250000 -0.375000
v -0.437500 -0.062500 -0.375000
v -0.437500 -0.250000 -0.437500
v -0.000000 -0.062500 -0.437500
v -0.000000 -0.250000 -0.437500
v -0.437500 -0.375000 -0.375000
v -0.000000 -0.375000 -0.437500
v -0.000000 -0.375000 -0.375000
v 0.437500 -0.062500 -0.375000
v -0.312500 -0.437500 -0.312500
v -0.312500 -0.500000 -0.187500
v -0.312500 -0.500000 -0.312500
v -0.312500 -0.437500 -0.187500
v -0.437500 -0.500000 -0.187500
v -0.437500 -0.437500 -0.187500
v -0.437500 -0.500000 -0.312500
v -0.437500 -0.437500 -0.312500
v -0.312500 -0.437500 0.312500
v -0.312500 -0.500000 0.437500
v -0.312500 -0.500000 0.312500
v -0.312500 -0.437500 0.437500
v -0.437500 -0.500000 0.437500
v -0.437500 -0.437500 0.437500
v -0.437500 -0.500000 0.312500
v -0.437500 -0.437500 0.312500
v 0.437500 -0.437500 -0.312500
v 0.437500 -0.500000 -0.187500
v 0.437500 -0.500000 -0.312500
v 0.437500 -0.437500 -0.187500
v 0.312500 -0.500000 -0.187500
v 0.312500 -0.437500 -0.187500
v 0.312500 -0.500000 -0.312500
v 0.312500 -0.437500 -0.312500
v 0.437500 -0.437500 0.312500
v 0.437500 -0.500000 0.437500
v 0.437500 -0.500000 0.312500
v 0.437500 -0.437500 0.437500
v 0.312500 -0.500000 0.437500
v 0.312500 -0.437500 0.437500
v 0.312500 -0.500000 0.312500
v 0.312500 -0.437500 0.312500
v 0.125000 0.250000 -0.500000
v 0.125000 0.187500 -0.437500
v 0.125000 0.187500 -0.500000
v 0.125000 0.250000 -0.437500
v -0.125000 0.187500 -0.437500
v -0.125000 0.250000 -0.437500
v -0.125000 0.187500 -0.500000
v -0.125000 0.250000 -0.500000
v 0.125000 -0.125000 -0.500000
v 0.125000 -0.187500 -0.437500
v 0.125000 -0.187500 -0.500000
v 0.125000 -0.125000 -0.437500
v -0.125000 -0.187500 -0.437500
v -0.125000 -0.125000 -0.437500
v -0.125000 -0.187500 -0.500000
v -0.125000 -0.125000 -0.500000
v 0.437500 0.062500 -0.437500
v -0.437500 0.062500 -0.437500
v 0.437500 0.062500 -0.375000
v -0.437500 0.312500 -0.437500
v 0.437500 -0.375000 -0.437500
v -0.437500 -0.375000 -0.437500
v 0.437500 -0.375000 -0.375000
v -0.437500 -0.062500 -0.437500
v 0.500000 0.500000 -0.437500
v -0.500000 0.375000 -0.437500
v -0.500000 0.375000 0.500000
v -0.500000 0.500000 0.500000
vt 0.437501 1.000001
vt -0.000001 0.937502
vt 0.437501 0.937502
vt -0.000001 1.000001
vt 1.000001 0.937502
vt 0.562499 1.000001
vt 1.000001 0.937502
vt 0.562499 0.937502
vt 0.937499 0.937502
vt 1.000001 0.875000
vt 0.937499 0.875000
vt 1.000001 0.562502
vt -0.000001 0.125000
vt -0.000001 0.562502
vt -0.000001 0.562502
vt 1.000001 0.125000
vt 1.000001 0.562502
vt 1.000001 0.812501
vt -0.000001 0.000002
vt 1.000001 0.000002
vt 0.562499 0.812501
vt 0.562499 0.000002
vt -0.000001 0.812501
vt 1.000001 0.000002
vt -0.000001 0.000002
vt 0.437501 0.812501
vt 0.437501 0.000002
vt 1.000001 0.062501
vt -0.000001 0.000002
vt 1.000001 0.000002
vt -0.000001 0.062501
vt 1.000001 0.000002
vt 1.000001 0.062501
vt 1.000001 0.062501
vt -0.000001 0.000002
vt -0.000001 0.062501
vt 0.937499 0.812501
vt 1.000001 0.875000
vt 0.937499 0.875000
vt 0.062501 0.812501
vt -0.000001 0.687500
vt 0.062501 0.687500
vt 0.500000 0.812501
vt 0.937499 0.687500
vt 0.500000 0.687500
vt 0.937499 0.812501
vt 1.000001 0.687500
vt 0.437501 1.000001
vt -0.000001 0.875000
vt 0.437501 0.875000
vt 0.937499 0.062501
vt 0.500000 0.000002
vt 0.500000 0.062501
vt 0.062501 1.000001
vt 0.500000 0.937502
vt 0.500000 1.000001
vt 0.062501 0.437501
vt -0.000001 0.250001
vt 0.062501 0.250001
vt 0.500000 0.437501
vt 0.937499 0.281252
vt 0.500000 0.281252
vt 0.937499 0.437501
vt 1.000001 0.250001
vt 0.937499 0.250001
vt 0.437501 1.000001
vt -0.000001 0.812501
vt 0.437501 0.812501
vt 0.937499 0.062501
vt 0.500000 0.000002
vt 0.500000 0.062501
vt 0.062501 1.000001
vt 0.500000 0.937502
vt 0.500000 1.000001
vt 0.812501 0.062501
vt 0.687500 0.000002
vt 0.812501 0.000002
vt 0.812501 0.062501
vt 0.937499 0.000002
vt 0.812501 0.000002
vt 0.687500 0.062501
vt 0.812501 0.000002
vt 0.687500 0.000002
vt 0.937499 0.062501
vt 0.937499 0.000002
vt 1.062500 0.062501
vt 0.937499 -0.062500
vt 0.937499 0.062501
vt 0.812501 0.312500
vt 0.937499 0.187502
vt 0.937499 0.312500
vt 0.187499 0.062501
vt 0.062501 0.000002
vt 0.187499 0.000002
vt 0.812501 0.062501
vt 0.937499 0.000002
vt 0.812501 0.000002
vt 0.062501 0.062501
vt 0.187499 0.000002
vt 0.062501 0.000002
vt 0.937499 0.062501
vt 0.812501 0.000002
vt 0.937499 0.000002
vt 1.062500 1.062500
vt 0.937499 0.937502
vt 0.937499 1.062500
vt 0.812501 0.937502
vt 0.937499 0.812501
vt 0.937499 0.937502
vt 0.812501 0.062501
vt 0.687500 0.000002
vt 0.812501 0.000002
vt 0.062501 0.062501
vt 0.187499 0.000002
vt 0.062501 0.000002
vt 0.687500 0.062501
vt 0.812501 0.000002
vt 0.687500 0.000002
vt 0.187499 0.062501
vt 0.062501 0.000002
vt 0.187499 0.000002
vt 0.062501 0.062501
vt -0.062500 -0.062500
vt -0.062500 0.062501
vt 0.062501 0.312500
vt 0.187499 0.187502
vt 0.187499 0.312500
vt 0.187499 0.062501
vt 0.062501 0.000002
vt 0.187499 0.000002
vt 0.062501 0.062501
vt 0.187499 0.000002
vt 0.062501 0.062501
vt 0.187499 0.000002
vt 0.062501 0.000002
vt 0.187499 0.062501
vt 0.062501 0.000002
vt 0.062501 1.062500
vt -0.062500 0.937502
vt -0.062500 1.062500
vt 0.062501 0.937502
vt 0.187499 0.812501
vt 0.187499 0.937502
vt 1.000001 0.750002
vt 0.937499 0.687500
vt 1.000001 0.687500
vt 0.374999 0.750002
vt 0.625001 0.687500
vt 0.374999 0.687500
vt 0.937499 0.750002
vt 1.000001 0.687500
vt 0.937499 0.687500
vt 0.625001 0.062501
vt 0.374999 0.000002
vt 0.625001 0.000002
vt 0.625001 0.062501
vt 0.374999 0.062501
vt 0.374999 0.062501
vt 0.625001 0.000002
vt 0.625001 0.062501
vt 1.000001 0.375002
vt 0.937499 0.312500
vt 1.000001 0.312500
vt 0.374999 0.375002
vt 0.625001 0.312500
vt 0.374999 0.312500
vt 0.937499 0.375002
vt 1.000001 0.312500
vt 0.937499 0.312500
vt 0.625001 0.062501
vt 0.374999 0.000002
vt 0.625001 0.000002
vt 0.625001 0.062501
vt 0.374999 0.062501
vt 0.374999 0.062501
vt 0.625001 0.000002
vt 0.625001 0.062501
vt 0.437501 0.125000
vt -0.000001 0.000002
vt 0.437501 0.000002
vt 1.000001 0.562502
vt 0.937499 0.562502
vt 0.500000 0.562502
vt -0.000001 0.562502
vt 0.062501 0.562502
vt 0.062501 0.687500
vt 0.062501 0.562502
vt 1.000001 0.125000
vt 0.562499 0.000002
vt 1.000001 0.000002
vt 0.937499 0.937502
vt 0.937499 1.000001
vt 0.062501 0.000002
vt 0.062501 0.062501
vt 1.000001 1.000001
vt 0.562499 0.875000
vt 1.000001 0.875000
vt 0.062501 0.812501
vt 0.437501 0.125000
vt -0.000001 0.000002
vt 0.437501 0.000002
vt 1.000001 0.125000
vt 0.937499 0.125000
vt 0.500000 0.125000
vt -0.000001 0.125000
vt 0.062501 0.125000
vt 0.062501 0.281252
vt 0.062501 0.125000
vt 1.000001 0.125000
vt 0.562499 0.000002
vt 1.000001 0.000002
vt 0.937499 0.937502
vt 0.937499 1.000001
vt 0.062501 0.000002
vt 0.062501 0.062501
vt 1.000001 1.000001
vt 0.562499 0.812501
vt 1.000001 0.812501
vt 0.062501 0.437501
vt 1.000001 0.937502
vt 0.937499 0.937502
vt 0.937499 1.000001
vt 0.937499 0.000002
vt 1.000001 0.812501
vt 0.937499 0.812501
vt 1.000001 0.875000
vt 0.562499 0.875000
vt 1.000001 0.875000
vt -0.000001 0.875000
vt 0.437501 0.875000
vt 1.000001 0.937502
vt 0.562499 0.875000
vt 1.000001 0.875000
vt -0.000001 0.937502
vt 0.437501 0.875000
vt -0.000001 0.875000
vt 1.000001 0.812501
vt 0.562499 0.000002
vt 1.000001 0.000002
vt -0.000001 0.812501
vt 0.437501 0.000002
vt -0.000001 0.000002
vt 1.000001 1.000001
vt 1.000001 1.000001
vt -0.000001 1.000001
vt 0.125000 1.000001
vt 0.125000 0.937502
vt 1.000001 1.000001
vt 0.562499 0.937502
vt 1.000001 1.000001
vt 1.000001 0.937502
vt 1.000001 0.125000
vt -0.000001 0.125000
vt -0.000001 0.812501
vt 1.000001 0.812501
vt -0.000001 0.062501
vt -0.000001 0.000002
vt 1.000001 0.000002
vt 1.000001 0.812501
vt -0.000001 0.812501
vt 1.000001 0.812501
vt -0.000001 1.000001
vt 0.937499 0.000002
vt 0.062501 0.937502
vt -0.000001 0.437501
vt 1.000001 0.437501
vt -0.000001 1.000001
vt 0.937499 0.000002
vt 0.062501 0.937502
vt 0.687500 0.062501
vt 0.937499 0.062501
vt 0.812501 0.062501
vt 1.062500 -0.062500
vt 0.812501 0.187502
vt 0.062501 0.062501
vt 0.937499 0.062501
vt 0.187499 0.062501
vt 0.812501 0.062501
vt 1.062500 0.937502
vt 0.812501 0.812501
vt 0.687500 0.062501
vt 0.187499 0.062501
vt 0.812501 0.062501
vt 0.062501 0.062501
vt 0.062501 -0.062500
vt 0.062501 0.187502
vt 0.187499 0.062501
vt 0.062501 0.062501
vt 0.062501 0.937502
vt 0.062501 0.812501
vt 0.937499 0.750002
vt 0.625001 0.750002
vt 1.000001 0.750002
vt 0.374999 0.062501
vt 0.374999 0.000002
vt 0.937499 0.375002
vt 0.625001 0.375002
vt 1.000001 0.375002
vt 0.374999 0.062501
vt 0.374999 0.000002
vt -0.000001 0.125000
vt 0.562499 0.125000
vt 0.562499 1.000001
vt -0.000001 0.125000
vt 0.562499 0.125000
vt 0.562499 1.000001
vt 1.000001 1.000001
vt 0.437501 0.937502
vt 0.562499 0.812501
vt 0.437501 0.812501
vt 0.562499 1.000001
vn 1.0000 0.0000 -0.0000
vn 0.0000 0.0000 1.0000
vn -1.0000 -0.0000 0.0000
vn -0.0000 -1.0000 -0.0000
vn 0.0000 1.0000 0.0000
vn -0.0000 0.0000 -1.0000
s 1
f 1/1/1 2/2/1 3/3/1
f 4/4/2 5/5/2 2/2/2
f 6/6/3 7/7/3 8/8/3
f 9/9/3 10/10/3 7/11/3
f 11/12/4 12/13/4 13/14/4
f 1/15/5 9/16/5 6/17/5
f 14/18/6 12/19/6 15/20/6
f 16/21/3 15/20/3 11/22/3
f 17/23/2 18/24/2 19/25/2
f 20/26/1 19/25/1 13/27/1
f 21/28/6 22/29/6 10/30/6
f 23/31/5 21/32/5 9/33/5
f 14/34/4 24/35/4 25/36/4
f 25/37/1 22/38/1 26/39/1
f 27/40/1 28/41/1 29/42/1
f 30/43/2 31/44/2 32/45/2
f 33/46/3 34/47/3 31/44/3
f 35/48/6 29/49/6 36/50/6
f 37/51/4 38/52/4 39/53/4
f 40/54/5 35/55/5 30/56/5
f 41/57/1 42/58/1 43/59/1
f 44/60/2 45/61/2 46/62/2
f 47/63/3 48/64/3 45/65/3
f 49/66/6 43/67/6 50/68/6
f 51/69/4 52/70/4 53/71/4
f 54/72/5 49/73/5 44/74/5
f 55/75/1 56/76/1 57/77/1
f 58/78/2 59/79/2 56/80/2
f 60/81/3 61/82/3 59/83/3
f 62/84/6 57/77/6 61/85/6
f 59/86/4 57/87/4 56/88/4
f 58/89/5 62/90/5 60/91/5
f 63/92/1 64/93/1 65/94/1
f 66/95/2 67/96/2 64/97/2
f 68/98/3 69/99/3 67/100/3
f 70/101/6 65/102/6 69/103/6
f 67/104/4 65/105/4 64/106/4
f 66/107/5 70/108/5 68/109/5
f 71/110/1 72/111/1 73/112/1
f 74/113/2 75/114/2 72/115/2
f 76/116/3 77/117/3 75/118/3
f 78/119/6 73/120/6 77/121/6
f 75/122/4 73/123/4 72/124/4
f 74/125/5 78/126/5 76/127/5
f 79/128/1 80/129/1 81/130/1
f 82/131/2 83/132/2 80/129/2
f 84/133/3 85/134/3 83/135/3
f 86/136/6 81/137/6 85/134/6
f 83/138/4 81/139/4 80/140/4
f 82/141/5 86/142/5 84/143/5
f 87/144/1 88/145/1 89/146/1
f 90/147/2 91/148/2 88/149/2
f 92/150/3 93/151/3 91/152/3
f 94/153/6 89/154/6 93/155/6
f 91/156/4 89/154/4 88/157/4
f 90/158/5 94/159/5 92/160/5
f 95/161/1 96/162/1 97/163/1
f 98/164/2 99/165/2 96/166/2
f 100/167/3 101/168/3 99/169/3
f 102/170/6 97/171/6 101/172/6
f 99/173/4 97/171/4 96/174/4
f 98/175/5 102/176/5 100/177/5
f 36/178/6 103/179/6 38/180/6
f 31/44/3 104/181/3 37/182/3
f 32/45/2 37/182/2 39/183/2
f 29/42/1 105/184/1 103/185/1
f 28/186/2 39/183/2 105/187/2
f 34/188/6 38/189/6 104/190/6
f 30/56/5 106/191/5 33/192/5
f 39/53/4 103/193/4 105/194/4
f 106/195/6 36/196/6 34/197/6
f 40/198/2 32/45/2 28/186/2
f 50/199/6 107/200/6 52/201/6
f 45/65/3 108/202/3 51/203/3
f 46/62/2 51/203/2 53/204/2
f 43/59/1 109/205/1 107/206/1
f 42/207/2 53/204/2 109/208/2
f 48/209/6 52/210/6 108/211/6
f 44/74/5 110/212/5 47/213/5
f 53/71/4 107/214/4 109/215/4
f 110/216/6 50/217/6 48/218/6
f 54/219/2 46/62/2 42/207/2
f 26/39/1 111/220/1 23/221/1
f 10/30/6 24/222/6 112/223/6
f 7/11/3 112/224/3 14/225/3
f 8/8/3 14/226/3 16/227/3
f 2/2/2 113/228/2 17/229/2
f 3/3/1 17/229/1 20/230/1
f 26/231/1 20/232/1 25/233/1
f 5/234/3 16/235/3 113/236/3
f 25/237/1 13/238/1 12/239/1
f 113/240/3 11/241/3 18/242/3
f 4/4/5 6/17/5 114/243/5
f 18/244/4 13/14/4 19/245/4
f 114/246/3 8/8/3 5/247/3
f 23/248/1 3/249/1 26/231/1
f 1/1/1 4/4/1 2/2/1
f 4/4/2 114/243/2 5/5/2
f 6/6/3 9/250/3 7/7/3
f 9/9/3 21/251/3 10/10/3
f 11/12/4 15/252/4 12/13/4
f 1/15/5 23/253/5 9/16/5
f 14/18/6 25/254/6 12/19/6
f 16/21/3 14/18/3 15/20/3
f 17/23/2 113/255/2 18/24/2
f 20/26/1 17/23/1 19/25/1
f 21/28/6 111/256/6 22/29/6
f 23/31/5 111/257/5 21/32/5
f 14/34/4 112/258/4 24/35/4
f 25/37/1 24/259/1 22/38/1
f 27/40/1 40/260/1 28/41/1
f 30/43/2 33/46/2 31/44/2
f 33/46/3 106/261/3 34/47/3
f 35/48/6 27/262/6 29/49/6
f 37/51/4 104/263/4 38/52/4
f 40/54/5 27/264/5 35/55/5
f 41/57/1 54/265/1 42/58/1
f 44/60/2 47/63/2 45/61/2
f 47/63/3 110/266/3 48/64/3
f 49/66/6 41/267/6 43/67/6
f 51/69/4 108/268/4 52/70/4
f 54/72/5 41/269/5 49/73/5
f 55/75/1 58/270/1 56/76/1
f 58/78/2 60/271/2 59/79/2
f 60/81/3 62/272/3 61/82/3
f 62/84/6 55/75/6 57/77/6
f 59/86/4 61/273/4 57/87/4
f 58/89/5 55/274/5 62/90/5
f 63/92/1 66/275/1 64/93/1
f 66/95/2 68/276/2 67/96/2
f 68/98/3 70/277/3 69/99/3
f 70/101/6 63/278/6 65/102/6
f 67/104/4 69/279/4 65/105/4
f 66/107/5 63/280/5 70/108/5
f 71/110/1 74/281/1 72/111/1
f 74/113/2 76/282/2 75/114/2
f 76/116/3 78/283/3 77/117/3
f 78/119/6 71/284/6 73/120/6
f 75/122/4 77/285/4 73/123/4
f 74/125/5 71/286/5 78/126/5
f 79/128/1 82/131/1 80/129/1
f 82/131/2 84/287/2 83/132/2
f 84/133/3 86/136/3 85/134/3
f 86/136/6 79/288/6 81/137/6
f 83/138/4 85/289/4 81/139/4
f 82/141/5 79/290/5 86/142/5
f 87/144/1 90/291/1 88/145/1
f 90/147/2 92/292/2 91/148/2
f 92/150/3 94/293/3 93/151/3
f 94/153/6 87/294/6 89/154/6
f 91/156/4 93/155/4 89/154/4
f 90/158/5 87/295/5 94/159/5
f 95/161/1 98/296/1 96/162/1
f 98/164/2 100/297/2 99/165/2
f 100/167/3 102/298/3 101/168/3
f 102/170/6 95/299/6 97/171/6
f 99/173/4 101/172/4 97/171/4
f 98/175/5 95/300/5 102/176/5
f 36/178/6 29/301/6 103/179/6
f 31/44/3 34/47/3 104/181/3
f 32/45/2 31/44/2 37/182/2
f 29/42/1 28/41/1 105/184/1
f 28/186/2 32/45/2 39/183/2
f 34/188/6 36/302/6 38/189/6
f 30/56/5 35/55/5 106/191/5
f 39/53/4 38/52/4 103/193/4
f 106/195/6 35/303/6 36/196/6
f 40/198/2 30/43/2 32/45/2
f 50/199/6 43/304/6 107/200/6
f 45/65/3 48/64/3 108/202/3
f 46/62/2 45/61/2 51/203/2
f 43/59/1 42/58/1 109/205/1
f 42/207/2 46/62/2 53/204/2
f 48/209/6 50/305/6 52/210/6
f 44/74/5 49/73/5 110/212/5
f 53/71/4 52/70/4 107/214/4
f 110/216/6 49/306/6 50/217/6
f 54/219/2 44/60/2 46/62/2
f 26/39/1 22/38/1 111/220/1
f 10/30/6 22/307/6 24/222/6
f 7/11/3 10/10/3 112/224/3
f 8/8/3 7/7/3 14/226/3
f 2/2/2 5/5/2 113/228/2
f 3/3/1 2/2/1 17/229/1
f 26/231/1 3/249/1 20/232/1
f 5/234/3 8/308/3 16/235/3
f 25/237/1 20/309/1 13/238/1
f 113/240/3 16/310/3 11/241/3
f 4/4/5 1/15/5 6/17/5
f 18/244/4 11/12/4 13/14/4
f 114/246/3 6/6/3 8/8/3
f 23/248/1 1/311/1 3/249/1
