# Blender v3.3.0 OBJ File: 'models.blend'
# www.blender.org
o storage_cabinet_spliced_Cube.048
v 0.500000 -0.437500 -0.375000
v 0.500000 0.500000 -0.375000
v 0.500000 -0.437500 0.500000
v 0.500000 0.500000 0.500000
v -0.500000 -0.437500 -0.375000
v -0.500000 0.500000 -0.375000
v -0.500000 -0.437500 0.500000
v -0.500000 0.500000 0.500000
v 0.500000 0.375000 -0.375000
v 0.500000 0.375000 0.500000
v -0.500000 0.375000 0.500000
v -0.500000 0.375000 -0.375000
v 0.500000 0.500000 -0.437500
v -0.500000 0.500000 -0.437500
v 0.500000 0.375000 -0.437500
v -0.500000 0.375000 -0.437500
v 0.437500 0.062500 -0.437500
v 0.437500 0.312500 -0.437500
v 0.437500 0.062500 -0.375000
v 0.437500 0.312500 -0.375000
v -0.437500 0.062500 -0.437500
v -0.437500 0.312500 -0.437500
v -0.437500 0.062500 -0.375000
v -0.437500 0.312500 -0.375000
v 0.437500 -0.375000 -0.437500
v 0.437500 -0.062500 -0.437500
v 0.437500 -0.375000 -0.375000
v 0.437500 -0.062500 -0.375000
v -0.437500 -0.375000 -0.437500
v -0.437500 -0.062500 -0.437500
v -0.437500 -0.375000 -0.375000
v -0.437500 -0.062500 -0.375000
v -0.312500 -0.500000 -0.312500
v -0.312500 -0.437500 -0.312500
v -0.312500 -0.500000 -0.187500
v -0.312500 -0.437500 -0.187500
v -0.437500 -0.500000 -0.312500
v -0.437500 -0.437500 -0.312500
v -0.437500 -0.500000 -0.187500
v -0.437500 -0.437500 -0.187500
v -0.312500 -0.500000 0.312500
v -0.312500 -0.437500 0.312500
v -0.312500 -0.500000 0.437500
v -0.312500 -0.437500 0.437500
v -0.437500 -0.500000 0.312500
v -0.437500 -0.437500 0.312500
v -0.437500 -0.500000 0.437500
v -0.437500 -0.437500 0.437500
v 0.437500 -0.500000 -0.312500
v 0.437500 -0.437500 -0.312500
v 0.437500 -0.500000 -0.187500
v 0.437500 -0.437500 -0.187500
v 0.312500 -0.500000 -0.312500
v 0.312500 -0.437500 -0.312500
v 0.312500 -0.500000 -0.187500
v 0.312500 -0.437500 -0.187500
v 0.437500 -0.500000 0.312500
v 0.437500 -0.437500 0.312500
v 0.437500 -0.500000 0.437500
v 0.437500 -0.437500 0.437500
v 0.312500 -0.500000 0.312500
v 0.312500 -0.437500 0.312500
v 0.312500 -0.500000 0.437500
v 0.312500 -0.437500 0.437500
v 0.125000 0.187500 -0.500000
v 0.125000 0.250000 -0.500000
v 0.125000 0.187500 -0.437500
v 0.125000 0.250000 -0.437500
v -0.125000 0.187500 -0.500000
v -0.125000 0.250000 -0.500000
v -0.125000 0.187500 -0.437500
v -0.125000 0.250000 -0.437500
v 0.125000 -0.187500 -0.500000
v 0.125000 -0.125000 -0.500000
v 0.125000 -0.187500 -0.437500
v 0.125000 -0.125000 -0.437500
v -0.125000 -0.187500 -0.500000
v -0.125000 -0.125000 -0.500000
v -0.125000 -0.187500 -0.437500
v -0.125000 -0.125000 -0.437500
v 0.437500 0.187500 -0.437500
v 0.437500 0.187500 -0.375000
v -0.437500 0.187500 -0.375000
v -0.437500 0.187500 -0.437500
v 0.000000 0.062500 -0.375000
v 0.000000 0.312500 -0.375000
v 0.000000 0.062500 -0.437500
v 0.000000 0.312500 -0.437500
v 0.000000 0.187500 -0.437500
v 0.000000 0.187500 -0.375000
v 0.437500 -0.250000 -0.437500
v 0.437500 -0.250000 -0.375000
v -0.437500 -0.250000 -0.375000
v -0.437500 -0.250000 -0.437500
v 0.000000 -0.375000 -0.375000
v 0.000000 -0.062500 -0.375000
v 0.000000 -0.375000 -0.437500
v 0.000000 -0.062500 -0.437500
v 0.000000 -0.250000 -0.437500
v 0.000000 -0.250000 -0.375000
v 0.500000 0.437500 -0.375000
v 0.500000 0.437500 0.500000
v -0.500000 0.437500 0.500000
v -0.500000 0.437500 -0.375000
v 0.500000 0.437500 -0.437500
v -0.500000 0.437500 -0.437500
v 0.500000 -0.437500 0.062500
v 0.500000 0.500000 0.062500
v -0.500000 -0.437500 0.062500
v -0.500000 0.500000 0.062500
v -0.500000 0.375000 0.062500
v 0.500000 0.375000 0.062500
v -0.500000 0.437500 0.062500
v 0.500000 0.437500 0.062500
vt 0.479167 1.000000
vt 0.333333 0.979167
vt 0.479167 0.979167
vt 0.333333 1.000000
vt 0.666667 0.979167
vt 0.520833 1.000000
vt 0.666667 0.979167
vt 0.520833 0.979167
vt 0.645833 0.979167
vt 0.666667 0.958333
vt 0.645833 0.958333
vt 0.666667 0.854167
vt 0.333333 0.708333
vt 0.333333 0.854167
vt 0.333333 0.854167
vt 0.666667 0.708333
vt 0.666667 0.854167
vt 0.666667 0.937500
vt 0.333333 0.666667
vt 0.666667 0.666667
vt 0.520833 0.937500
vt 0.520833 0.666667
vt 0.333333 0.937500
vt 0.666667 0.666667
vt 0.333333 0.666667
vt 0.479167 0.937500
vt 0.479167 0.666667
vt 0.666667 0.687500
vt 0.333333 0.666667
vt 0.666667 0.666667
vt 0.333333 0.687500
vt 0.666667 0.666667
vt 0.666667 0.687500
vt 0.666667 0.687500
vt 0.333333 0.666667
vt 0.333333 0.687500
vt 0.645833 0.937500
vt 0.666667 0.958333
vt 0.645833 0.958333
vt 0.354167 0.937500
vt 0.333333 0.895833
vt 0.354167 0.895833
vt 0.500000 0.937500
vt 0.645833 0.895833
vt 0.500000 0.895833
vt 0.645833 0.937500
vt 0.666667 0.895833
vt 0.479167 1.000000
vt 0.333333 0.958333
vt 0.479167 0.958333
vt 0.645833 0.687500
vt 0.500000 0.666667
vt 0.500000 0.687500
vt 0.354167 1.000000
vt 0.500000 0.979167
vt 0.500000 1.000000
vt 0.354167 0.812500
vt 0.333333 0.750000
vt 0.354167 0.750000
vt 0.500000 0.812500
vt 0.645833 0.760417
vt 0.500000 0.760417
vt 0.645833 0.812500
vt 0.666667 0.750000
vt 0.645833 0.750000
vt 0.479167 1.000000
vt 0.333333 0.937500
vt 0.479167 0.937500
vt 0.645833 0.687500
vt 0.500000 0.666667
vt 0.500000 0.687500
vt 0.354167 1.000000
vt 0.500000 0.979167
vt 0.500000 1.000000
vt 0.604167 0.687500
vt 0.562500 0.666667
vt 0.604167 0.666667
vt 0.604167 0.687500
vt 0.645833 0.666667
vt 0.604167 0.666667
vt 0.562500 0.687500
vt 0.604167 0.666667
vt 0.562500 0.666667
vt 0.645833 0.687500
vt 0.645833 0.666667
vt 0.687500 0.687500
vt 0.645833 0.645833
vt 0.645833 0.687500
vt 0.604167 0.770833
vt 0.645833 0.729167
vt 0.645833 0.770833
vt 0.395833 0.687500
vt 0.354167 0.666667
vt 0.395833 0.666667
vt 0.604167 0.687500
vt 0.645833 0.666667
vt 0.604167 0.666667
vt 0.354167 0.687500
vt 0.395833 0.666667
vt 0.354167 0.666667
vt 0.645833 0.687500
vt 0.604167 0.666667
vt 0.645833 0.666667
vt 0.687500 1.020833
vt 0.645833 0.979167
vt 0.645833 1.020833
vt 0.604167 0.979167
vt 0.645833 0.937500
vt 0.645833 0.979167
vt 0.604167 0.687500
vt 0.562500 0.666667
vt 0.604167 0.666667
vt 0.354167 0.687500
vt 0.395833 0.666667
vt 0.354167 0.666667
vt 0.562500 0.687500
vt 0.604167 0.666667
vt 0.562500 0.666667
vt 0.395833 0.687500
vt 0.354167 0.666667
vt 0.395833 0.666667
vt 0.354167 0.687500
vt 0.312500 0.645833
vt 0.312500 0.687500
vt 0.354167 0.770833
vt 0.395833 0.729167
vt 0.395833 0.770833
vt 0.395833 0.687500
vt 0.354167 0.666667
vt 0.395833 0.666667
vt 0.354167 0.687500
vt 0.395833 0.666667
vt 0.354167 0.687500
vt 0.395833 0.666667
vt 0.354167 0.666667
vt 0.395833 0.687500
vt 0.354167 0.666667
vt 0.354167 1.020833
vt 0.312500 0.979167
vt 0.312500 1.020833
vt 0.354167 0.979167
vt 0.395833 0.937500
vt 0.395833 0.979167
vt 0.666667 0.916667
vt 0.645833 0.895833
vt 0.666667 0.895833
vt 0.458333 0.916667
vt 0.541667 0.895833
vt 0.458333 0.895833
vt 0.645833 0.916667
vt 0.666667 0.895833
vt 0.645833 0.895833
vt 0.541667 0.687500
vt 0.458333 0.666667
vt 0.541667 0.666667
vt 0.541667 0.687500
vt 0.458333 0.687500
vt 0.458333 0.687500
vt 0.541667 0.666667
vt 0.541667 0.687500
vt 0.666667 0.791667
vt 0.645833 0.770833
vt 0.666667 0.770833
vt 0.458333 0.791667
vt 0.541667 0.770833
vt 0.458333 0.770833
vt 0.645833 0.791667
vt 0.666667 0.770833
vt 0.645833 0.770833
vt 0.541667 0.687500
vt 0.458333 0.666667
vt 0.541667 0.666667
vt 0.541667 0.687500
vt 0.458333 0.687500
vt 0.458333 0.687500
vt 0.541667 0.666667
vt 0.541667 0.687500
vt 0.479167 0.708333
vt 0.333333 0.666667
vt 0.479167 0.666667
vt 0.666667 0.854167
vt 0.645833 0.854167
vt 0.500000 0.854167
vt 0.333333 0.854167
vt 0.354167 0.854167
vt 0.354167 0.895833
vt 0.354167 0.854167
vt 0.666667 0.708333
vt 0.520833 0.666667
vt 0.666667 0.666667
vt 0.645833 0.979167
vt 0.645833 1.000000
vt 0.354167 0.666667
vt 0.354167 0.687500
vt 0.666667 1.000000
vt 0.520833 0.958333
vt 0.666667 0.958333
vt 0.354167 0.937500
vt 0.479167 0.708333
vt 0.333333 0.666667
vt 0.479167 0.666667
vt 0.666667 0.708333
vt 0.645833 0.708333
vt 0.500000 0.708333
vt 0.333333 0.708333
vt 0.354167 0.708333
vt 0.354167 0.760417
vt 0.354167 0.708333
vt 0.666667 0.708333
vt 0.520833 0.666667
vt 0.666667 0.666667
vt 0.645833 0.979167
vt 0.645833 1.000000
vt 0.354167 0.666667
vt 0.354167 0.687500
vt 0.666667 1.000000
vt 0.520833 0.937500
vt 0.666667 0.937500
vt 0.354167 0.812500
vt 0.666667 0.979167
vt 0.645833 0.979167
vt 0.645833 1.000000
vt 0.645833 0.666667
vt 0.666667 0.937500
vt 0.645833 0.937500
vt 0.666667 0.958333
vt 0.520833 0.958333
vt 0.666667 0.958333
vt 0.333333 0.958333
vt 0.479167 0.958333
vt 0.666667 0.979167
vt 0.520833 0.958333
vt 0.666667 0.958333
vt 0.333333 0.979167
vt 0.479167 0.958333
vt 0.333333 0.958333
vt 0.666667 0.937500
vt 0.520833 0.666667
vt 0.666667 0.666667
vt 0.333333 0.937500
vt 0.479167 0.666667
vt 0.333333 0.666667
vt 0.666667 1.000000
vt 0.666667 1.000000
vt 0.333333 1.000000
vt 0.375000 1.000000
vt 0.375000 0.979167
vt 0.666667 1.000000
vt 0.520833 0.979167
vt 0.666667 1.000000
vt 0.666667 0.979167
vt 0.666667 0.708333
vt 0.333333 0.708333
vt 0.333333 0.937500
vt 0.666667 0.937500
vt 0.333333 0.687500
vt 0.333333 0.666667
vt 0.666667 0.666667
vt 0.666667 0.937500
vt 0.333333 0.937500
vt 0.666667 0.937500
vt 0.333333 1.000000
vt 0.645833 0.666667
vt 0.354167 0.979167
vt 0.333333 0.812500
vt 0.666667 0.812500
vt 0.333333 1.000000
vt 0.645833 0.666667
vt 0.354167 0.979167
vt 0.562500 0.687500
vt 0.645833 0.687500
vt 0.604167 0.687500
vt 0.687500 0.645833
vt 0.604167 0.729167
vt 0.354167 0.687500
vt 0.645833 0.687500
vt 0.395833 0.687500
vt 0.604167 0.687500
vt 0.687500 0.979167
vt 0.604167 0.937500
vt 0.562500 0.687500
vt 0.395833 0.687500
vt 0.604167 0.687500
vt 0.354167 0.687500
vt 0.354167 0.645833
vt 0.354167 0.729167
vt 0.395833 0.687500
vt 0.354167 0.687500
vt 0.354167 0.979167
vt 0.354167 0.937500
vt 0.645833 0.916667
vt 0.541667 0.916667
vt 0.666667 0.916667
vt 0.458333 0.687500
vt 0.458333 0.666667
vt 0.645833 0.791667
vt 0.541667 0.791667
vt 0.666667 0.791667
vt 0.458333 0.687500
vt 0.458333 0.666667
vt 0.333333 0.708333
vt 0.520833 0.708333
vt 0.520833 1.000000
vt 0.333333 0.708333
vt 0.520833 0.708333
vt 0.520833 1.000000
vt 0.666667 1.000000
vt 0.479167 0.979167
vt 0.520833 0.937500
vt 0.479167 0.937500
vt 0.520833 1.000000
vn 1.0000 0.0000 0.0000
vn 0.0000 0.0000 1.0000
vn -1.0000 0.0000 0.0000
vn 0.0000 -1.0000 0.0000
vn 0.0000 1.0000 0.0000
vn 0.0000 0.0000 -1.0000
s off
f 108/1/1 102/2/1 114/3/1
f 4/4/2 103/5/2 102/2/2
f 110/6/3 104/7/3 113/8/3
f 6/9/3 106/10/3 104/11/3
f 109/12/4 1/13/4 107/14/4
f 108/15/5 6/16/5 110/17/5
f 12/18/6 1/19/6 5/20/6
f 111/21/3 5/20/3 109/22/3
f 10/23/2 7/24/2 3/25/2
f 112/26/1 3/25/1 107/27/1
f 14/28/6 105/29/6 106/30/6
f 2/31/5 14/32/5 6/33/5
f 12/34/4 15/35/4 9/36/4
f 9/37/1 105/38/1 101/39/1
f 18/40/1 82/41/1 81/42/1
f 86/43/2 83/44/2 90/45/2
f 24/46/3 84/47/3 83/44/3
f 88/48/6 81/49/6 89/50/6
f 23/51/4 87/52/4 85/53/4
f 20/54/5 88/55/5 86/56/5
f 26/57/1 92/58/1 91/59/1
f 96/60/2 93/61/2 100/62/2
f 32/63/3 94/64/3 93/65/3
f 98/66/6 91/67/6 99/68/6
f 31/69/4 97/70/4 95/71/4
f 28/72/5 98/73/5 96/74/5
f 34/75/1 35/76/1 33/77/1
f 36/78/2 39/79/2 35/80/2
f 40/81/3 37/82/3 39/83/3
f 38/84/6 33/77/6 37/85/6
f 39/86/4 33/87/4 35/88/4
f 36/89/5 38/90/5 40/91/5
f 42/92/1 43/93/1 41/94/1
f 44/95/2 47/96/2 43/97/2
f 48/98/3 45/99/3 47/100/3
f 46/101/6 41/102/6 45/103/6
f 47/104/4 41/105/4 43/106/4
f 44/107/5 46/108/5 48/109/5
f 50/110/1 51/111/1 49/112/1
f 52/113/2 55/114/2 51/115/2
f 56/116/3 53/117/3 55/118/3
f 54/119/6 49/120/6 53/121/6
f 55/122/4 49/123/4 51/124/4
f 52/125/5 54/126/5 56/127/5
f 58/128/1 59/129/1 57/130/1
f 60/131/2 63/132/2 59/129/2
f 64/133/3 61/134/3 63/135/3
f 62/136/6 57/137/6 61/134/6
f 63/138/4 57/139/4 59/140/4
f 60/141/5 62/142/5 64/143/5
f 66/144/1 67/145/1 65/146/1
f 68/147/2 71/148/2 67/149/2
f 72/150/3 69/151/3 71/152/3
f 70/153/6 65/154/6 69/155/6
f 71/156/4 65/154/4 67/157/4
f 68/158/5 70/159/5 72/160/5
f 74/161/1 75/162/1 73/163/1
f 76/164/2 79/165/2 75/166/2
f 80/167/3 77/168/3 79/169/3
f 78/170/6 73/171/6 77/172/6
f 79/173/4 73/171/4 75/174/4
f 76/175/5 78/176/5 80/177/5
f 89/178/6 17/179/6 87/180/6
f 83/44/3 21/181/3 23/182/3
f 90/45/2 23/182/2 85/183/2
f 81/42/1 19/184/1 17/185/1
f 82/186/2 85/183/2 19/187/2
f 84/188/6 87/189/6 21/190/6
f 86/56/5 22/191/5 24/192/5
f 85/53/4 17/193/4 19/194/4
f 22/195/6 89/196/6 84/197/6
f 20/198/2 90/45/2 82/186/2
f 99/199/6 25/200/6 97/201/6
f 93/65/3 29/202/3 31/203/3
f 100/62/2 31/203/2 95/204/2
f 91/59/1 27/205/1 25/206/1
f 92/207/2 95/204/2 27/208/2
f 94/209/6 97/210/6 29/211/6
f 96/74/5 30/212/5 32/213/5
f 95/71/4 25/214/4 27/215/4
f 30/216/6 99/217/6 94/218/6
f 28/219/2 100/62/2 92/207/2
f 101/39/1 13/220/1 2/221/1
f 106/30/6 15/222/6 16/223/6
f 104/11/3 16/224/3 12/225/3
f 113/8/3 12/226/3 111/227/3
f 102/2/2 11/228/2 10/229/2
f 114/3/1 10/229/1 112/230/1
f 101/231/1 112/232/1 9/233/1
f 103/234/3 111/235/3 11/236/3
f 9/237/1 107/238/1 1/239/1
f 11/240/3 109/241/3 7/242/3
f 4/4/5 110/17/5 8/243/5
f 7/244/4 107/14/4 3/245/4
f 8/246/3 113/8/3 103/247/3
f 2/248/1 114/249/1 101/231/1
f 108/1/1 4/4/1 102/2/1
f 4/4/2 8/243/2 103/5/2
f 110/6/3 6/250/3 104/7/3
f 6/9/3 14/251/3 106/10/3
f 109/12/4 5/252/4 1/13/4
f 108/15/5 2/253/5 6/16/5
f 12/18/6 9/254/6 1/19/6
f 111/21/3 12/18/3 5/20/3
f 10/23/2 11/255/2 7/24/2
f 112/26/1 10/23/1 3/25/1
f 14/28/6 13/256/6 105/29/6
f 2/31/5 13/257/5 14/32/5
f 12/34/4 16/258/4 15/35/4
f 9/37/1 15/259/1 105/38/1
f 18/40/1 20/260/1 82/41/1
f 86/43/2 24/46/2 83/44/2
f 24/46/3 22/261/3 84/47/3
f 88/48/6 18/262/6 81/49/6
f 23/51/4 21/263/4 87/52/4
f 20/54/5 18/264/5 88/55/5
f 26/57/1 28/265/1 92/58/1
f 96/60/2 32/63/2 93/61/2
f 32/63/3 30/266/3 94/64/3
f 98/66/6 26/267/6 91/67/6
f 31/69/4 29/268/4 97/70/4
f 28/72/5 26/269/5 98/73/5
f 34/75/1 36/270/1 35/76/1
f 36/78/2 40/271/2 39/79/2
f 40/81/3 38/272/3 37/82/3
f 38/84/6 34/75/6 33/77/6
f 39/86/4 37/273/4 33/87/4
f 36/89/5 34/274/5 38/90/5
f 42/92/1 44/275/1 43/93/1
f 44/95/2 48/276/2 47/96/2
f 48/98/3 46/277/3 45/99/3
f 46/101/6 42/278/6 41/102/6
f 47/104/4 45/279/4 41/105/4
f 44/107/5 42/280/5 46/108/5
f 50/110/1 52/281/1 51/111/1
f 52/113/2 56/282/2 55/114/2
f 56/116/3 54/283/3 53/117/3
f 54/119/6 50/284/6 49/120/6
f 55/122/4 53/285/4 49/123/4
f 52/125/5 50/286/5 54/126/5
f 58/128/1 60/131/1 59/129/1
f 60/131/2 64/287/2 63/132/2
f 64/133/3 62/136/3 61/134/3
f 62/136/6 58/288/6 57/137/6
f 63/138/4 61/289/4 57/139/4
f 60/141/5 58/290/5 62/142/5
f 66/144/1 68/291/1 67/145/1
f 68/147/2 72/292/2 71/148/2
f 72/150/3 70/293/3 69/151/3
f 70/153/6 66/294/6 65/154/6
f 71/156/4 69/155/4 65/154/4
f 68/158/5 66/295/5 70/159/5
f 74/161/1 76/296/1 75/162/1
f 76/164/2 80/297/2 79/165/2
f 80/167/3 78/298/3 77/168/3
f 78/170/6 74/299/6 73/171/6
f 79/173/4 77/172/4 73/171/4
f 76/175/5 74/300/5 78/176/5
f 89/178/6 81/301/6 17/179/6
f 83/44/3 84/47/3 21/181/3
f 90/45/2 83/44/2 23/182/2
f 81/42/1 82/41/1 19/184/1
f 82/186/2 90/45/2 85/183/2
f 84/188/6 89/302/6 87/189/6
f 86/56/5 88/55/5 22/191/5
f 85/53/4 87/52/4 17/193/4
f 22/195/6 88/303/6 89/196/6
f 20/198/2 86/43/2 90/45/2
f 99/199/6 91/304/6 25/200/6
f 93/65/3 94/64/3 29/202/3
f 100/62/2 93/61/2 31/203/2
f 91/59/1 92/58/1 27/205/1
f 92/207/2 100/62/2 95/204/2
f 94/209/6 99/305/6 97/210/6
f 96/74/5 98/73/5 30/212/5
f 95/71/4 97/70/4 25/214/4
f 30/216/6 98/306/6 99/217/6
f 28/219/2 96/60/2 100/62/2
f 101/39/1 105/38/1 13/220/1
f 106/30/6 105/307/6 15/222/6
f 104/11/3 106/10/3 16/224/3
f 113/8/3 104/7/3 12/226/3
f 102/2/2 103/5/2 11/228/2
f 114/3/1 102/2/1 10/229/1
f 101/231/1 114/249/1 112/232/1
f 103/234/3 113/308/3 111/235/3
f 9/237/1 112/309/1 107/238/1
f 11/240/3 111/310/3 109/241/3
f 4/4/5 108/15/5 110/17/5
f 7/244/4 109/12/4 107/14/4
f 8/246/3 110/6/3 113/8/3
f 2/248/1 108/311/1 114/249/1
