# Blender v3.3.1 OBJ File: 'models.blend'
# www.blender.org
o Plane.005_Plane.021
v 0.250000 0.062500 -0.187500
v -0.250000 0.062500 -0.187500
v 0.250000 0.062500 0.375000
v -0.250000 0.062500 0.375000
v 0.000000 0.062500 -0.187500
v 0.000000 0.062500 0.375000
v 0.250000 0.062500 -0.125000
v -0.250000 0.062500 -0.125000
v 0.000000 0.062500 -0.125000
v 0.250000 -0.062500 -0.062500
v -0.250000 -0.062500 -0.062500
v 0.250000 0.062500 -0.062500
v -0.250000 0.062500 -0.062500
v 0.000000 -0.062500 -0.062500
v 0.000000 0.062500 -0.062500
v 0.125000 0.062500 -0.062500
v 0.125000 -0.062500 -0.062500
v -0.125000 -0.062500 -0.062500
v -0.125000 0.062500 -0.062500
v -0.250000 -0.500000 -0.062500
v -0.125000 -0.500000 -0.062500
v 0.250000 -0.500000 -0.062500
v 0.125000 -0.500000 -0.062500
v -0.187500 -0.062500 -0.062500
v -0.187500 0.062500 -0.062500
v -0.187500 -0.500000 -0.062500
v 0.187500 0.062500 -0.062500
v 0.187500 -0.062500 -0.062500
v 0.187500 -0.500000 -0.062500
v 0.250000 0.000000 -0.062500
v -0.250000 0.000000 -0.062500
v 0.000000 0.000000 -0.062500
v 0.125000 0.000000 -0.062500
v -0.125000 0.000000 -0.062500
v -0.187500 0.000000 -0.062500
v 0.187500 0.000000 -0.062500
v 0.250000 0.000000 0.375000
v 0.125000 0.000000 0.375000
v 0.250000 0.625000 0.375000
v 0.125000 0.625000 0.375000
v -0.125000 0.000000 0.375000
v -0.250000 0.000000 0.375000
v -0.250000 0.500000 0.375000
v -0.250000 0.625000 0.375000
v -0.312500 0.062500 0.375000
v -0.312500 0.062500 -0.125000
v 0.312500 0.062500 0.375000
v 0.312500 0.062500 -0.125000
v -0.125000 0.375000 0.375000
v -0.250000 0.375000 0.375000
v 0.250000 0.375000 0.375000
v 0.125000 0.375000 0.375000
v -0.125000 0.625000 0.375000
v 0.125000 0.500000 0.375000
v 0.125000 0.687500 0.375000
v -0.125000 0.687500 0.375000
v -0.187500 0.000000 0.375000
v -0.187500 0.625000 0.375000
v -0.187500 0.375000 0.375000
v 0.187500 0.000000 0.375000
v 0.187500 0.625000 0.375000
v 0.187500 0.375000 0.375000
v 0.000000 0.375000 0.375000
v 0.000000 0.625000 0.375000
v 0.000000 0.687500 0.375000
v 0.250000 0.500000 0.375000
v -0.187500 0.500000 0.375000
v 0.187500 0.500000 0.375000
v 0.000000 0.500000 0.375000
v -0.125000 0.500000 0.375000
v -0.250000 0.187500 0.375000
v -0.125000 0.187500 0.375000
v -0.187500 0.187500 0.375000
v 0.250000 0.187500 0.375000
v 0.125000 0.187500 0.375000
v 0.187500 0.187500 0.375000
v -0.250000 0.062500 0.125000
v 0.000000 0.062500 0.125000
v 0.250000 0.062500 0.125000
v -0.312500 0.062500 0.125000
v 0.312500 0.062500 0.125000
v -0.187500 -0.062500 -0.125000
v -0.187500 -0.062500 0.375000
v -0.187500 0.062500 -0.125000
v -0.187500 0.062500 0.375000
v -0.187500 -0.062500 0.125000
v -0.187500 0.062500 0.125000
v -0.187500 0.062500 0.000000
v -0.187500 -0.062500 0.000000
v -0.187500 -0.062500 0.250000
v -0.187500 0.062500 0.250000
v -0.187500 -0.500000 0.375000
v -0.187500 -0.500000 0.250000
v -0.187500 -0.500000 -0.125000
v -0.187500 -0.500000 0.000000
v -0.187500 -0.062500 0.312500
v -0.187500 0.062500 0.312500
v -0.187500 -0.500000 0.312500
v -0.187500 0.062500 -0.062500
v -0.187500 -0.062500 -0.062500
v -0.187500 -0.500000 -0.062500
v -0.187500 0.000000 -0.125000
v -0.187500 0.000000 0.375000
v -0.187500 0.000000 0.125000
v -0.187500 0.000000 0.000000
v -0.187500 0.000000 0.250000
v -0.187500 0.000000 0.312500
v -0.187500 0.000000 -0.062500
v 0.187500 0.000000 0.312500
v -0.187500 0.000000 0.312500
v -0.125000 0.000000 0.312500
v 0.125000 0.000000 0.312500
v 0.000000 0.000000 0.312500
v -0.250000 0.000000 0.312500
v 0.250000 0.000000 0.312500
v 0.187500 -0.500000 0.312500
v 0.187500 -0.062500 0.312500
v 0.187500 0.062500 0.312500
v -0.187500 -0.500000 0.312500
v -0.187500 0.062500 0.312500
v -0.187500 -0.062500 0.312500
v 0.125000 -0.500000 0.312500
v 0.250000 -0.500000 0.312500
v -0.125000 -0.500000 0.312500
v -0.250000 -0.500000 0.312500
v -0.125000 0.062500 0.312500
v -0.125000 -0.062500 0.312500
v 0.125000 -0.062500 0.312500
v 0.125000 0.062500 0.312500
v 0.000000 0.062500 0.312500
v 0.000000 -0.062500 0.312500
v -0.250000 0.062500 0.312500
v 0.250000 0.062500 0.312500
v -0.250000 -0.062500 0.312500
v 0.250000 -0.062500 0.312500
v 0.187500 -0.062500 0.375000
v 0.187500 -0.062500 -0.125000
v 0.187500 0.062500 0.375000
v 0.187500 0.062500 -0.125000
v 0.187500 -0.062500 0.125000
v 0.187500 0.062500 0.125000
v 0.187500 0.062500 0.250000
v 0.187500 -0.062500 0.250000
v 0.187500 -0.062500 0.000000
v 0.187500 0.062500 0.000000
v 0.187500 -0.500000 -0.125000
v 0.187500 -0.500000 0.000000
v 0.187500 -0.500000 0.375000
v 0.187500 -0.500000 0.250000
v 0.187500 -0.062500 -0.062500
v 0.187500 0.062500 -0.062500
v 0.187500 -0.500000 -0.062500
v 0.187500 0.062500 0.312500
v 0.187500 -0.062500 0.312500
v 0.187500 -0.500000 0.312500
v 0.187500 0.000000 0.375000
v 0.187500 0.000000 -0.125000
v 0.187500 0.000000 0.125000
v 0.187500 0.000000 0.250000
v 0.187500 0.000000 0.000000
v 0.187500 0.000000 -0.062500
v 0.187500 0.000000 0.312500
vt 0.750000 0.750000
vt 0.500000 1.000000
vt 0.500000 0.750000
vt 0.250000 1.000000
vt 0.250000 0.750000
vt 0.250000 0.000000
vt -0.000000 0.062500
vt -0.000000 0.000000
vt 1.000000 0.000000
vt 0.750000 0.062500
vt 0.750000 0.000000
vt 1.000000 0.937500
vt 0.937500 1.000000
vt 0.937500 0.937500
vt 0.500000 0.937500
vt 0.375000 1.000000
vt 0.375000 0.937500
vt 0.312500 1.000000
vt 0.312500 0.937500
vt 0.625000 0.937500
vt 0.500000 1.000000
vt 0.000000 0.437500
vt 0.062500 0.000000
vt 0.062500 0.437500
vt 0.000000 0.437500
vt 0.062500 0.000000
vt 0.062500 0.437500
vt 0.937500 0.437500
vt 1.000000 0.000000
vt 1.000000 0.437500
vt 0.687500 0.937500
vt 0.625000 1.000000
vt 0.937500 0.437500
vt 1.000000 0.000000
vt 1.000000 0.437500
vt 0.062500 0.937500
vt 0.000000 1.000000
vt 0.000000 0.937500
vt 0.000000 0.500000
vt 0.687500 0.437500
vt 0.625000 0.500000
vt 0.625000 0.437500
vt 0.625000 0.000000
vt 0.500000 0.062500
vt 0.500000 0.000000
vt 0.375000 0.437500
vt 0.312500 0.500000
vt 0.312500 0.437500
vt 0.375000 0.062500
vt 0.375000 0.000000
vt 0.937500 0.500000
vt 0.375000 0.875000
vt 0.312500 1.000000
vt 0.312500 0.875000
vt 1.000000 0.875000
vt 0.937500 1.000000
vt 0.937500 0.875000
vt 0.937500 0.000000
vt 1.000000 0.250000
vt 0.937500 0.250000
vt 0.062500 1.000000
vt -0.000000 0.750000
vt 0.062500 0.750000
vt 1.000000 0.687500
vt 0.937500 0.875000
vt 0.937500 0.687500
vt 1.000000 0.687500
vt 0.937500 0.875000
vt 0.937500 0.687500
vt 0.500000 -0.000000
vt 0.625000 0.125000
vt 0.500000 0.125000
vt 0.625000 0.937500
vt 0.500000 1.000000
vt 0.500000 0.937500
vt 0.062500 0.687500
vt 0.000000 0.875000
vt 0.000000 0.687500
vt 0.687500 0.875000
vt 0.625000 1.000000
vt 0.625000 0.875000
vt 0.062500 0.687500
vt 0.000000 0.875000
vt 0.000000 0.687500
vt 0.062500 0.875000
vt -0.000000 1.000000
vt -0.000000 0.875000
vt 0.375000 1.000000
vt 0.375000 0.937500
vt 0.375000 -0.000000
vt 0.375000 0.125000
vt 0.375000 0.500000
vt 0.500000 0.625000
vt 0.375000 0.625000
vt 0.062500 0.875000
vt 0.000000 1.000000
vt 0.687500 0.625000
vt 0.625000 0.750000
vt 0.625000 0.625000
vt 0.500000 0.500000
vt 0.625000 0.625000
vt 1.000000 0.875000
vt 0.937500 1.000000
vt 0.375000 0.625000
vt 0.312500 0.750000
vt 0.312500 0.625000
vt 0.062500 0.000000
vt 0.000000 0.187500
vt 0.000000 0.000000
vt 1.000000 0.000000
vt 0.937500 0.187500
vt 0.937500 0.000000
vt 0.062500 0.000000
vt 0.000000 0.187500
vt 0.000000 0.000000
vt 1.000000 0.000000
vt 0.937500 0.187500
vt 0.937500 0.000000
vt 0.062500 0.250000
vt -0.000000 0.000000
vt 0.062500 0.000000
vt 0.937500 0.750000
vt 1.000000 1.000000
vt 0.937500 1.000000
vt 0.500000 0.375000
vt 0.250000 0.625000
vt 0.250000 0.375000
vt 0.750000 0.375000
vt 0.500000 0.625000
vt 1.000000 0.937500
vt 0.937500 1.000000
vt 0.937500 0.937500
vt 0.500000 0.937500
vt 0.375000 1.000000
vt 0.375000 0.937500
vt 0.312500 1.000000
vt 0.312500 0.937500
vt 0.625000 0.937500
vt 0.500000 1.000000
vt 0.000000 0.437500
vt 0.062500 0.000000
vt 0.062500 0.437500
vt 0.000000 0.437500
vt 0.062500 0.000000
vt 0.062500 0.437500
vt 0.937500 0.437500
vt 1.000000 0.000000
vt 1.000000 0.437500
vt 0.687500 0.937500
vt 0.625000 1.000000
vt 0.937500 0.437500
vt 1.000000 0.000000
vt 1.000000 0.437500
vt 0.062500 0.937500
vt 0.000000 1.000000
vt 0.000000 0.937500
vt 0.000000 0.500000
vt 0.687500 0.437500
vt 0.625000 0.500000
vt 0.625000 0.437500
vt 0.625000 0.000000
vt 0.500000 0.062500
vt 0.500000 0.000000
vt 0.375000 0.437500
vt 0.312500 0.500000
vt 0.312500 0.437500
vt 0.375000 0.062500
vt 0.375000 0.000000
vt 0.937500 0.500000
vt 0.062500 0.437500
vt 0.000000 0.500000
vt 0.000000 0.437500
vt 0.937500 0.437500
vt 1.000000 0.000000
vt 1.000000 0.437500
vt 0.062500 0.000000
vt 0.687500 0.937500
vt 0.625000 1.000000
vt 0.625000 0.937500
vt 0.375000 0.937500
vt 0.312500 1.000000
vt 0.312500 0.937500
vt 0.500000 0.000000
vt 0.375000 0.062500
vt 0.375000 0.000000
vt 0.625000 0.000000
vt 0.500000 0.062500
vt 1.000000 0.937500
vt 0.937500 1.000000
vt 0.937500 0.937500
vt 0.500000 1.000000
vt 0.500000 0.937500
vt 0.687500 0.437500
vt 0.625000 0.500000
vt 0.625000 0.437500
vt 0.937500 0.500000
vt 0.375000 1.000000
vt 0.937500 0.437500
vt 1.000000 0.000000
vt 1.000000 0.437500
vt 0.000000 0.437500
vt 0.062500 0.000000
vt 0.062500 0.437500
vt 0.062500 0.937500
vt 0.000000 1.000000
vt 0.000000 0.937500
vt 0.375000 0.437500
vt 0.312500 0.500000
vt 0.312500 0.437500
vt 1.000000 0.937500
vt 0.937500 1.000000
vt 0.937500 0.937500
vt 0.500000 0.937500
vt 0.375000 1.000000
vt 0.375000 0.937500
vt 0.312500 1.000000
vt 0.312500 0.937500
vt 0.625000 0.937500
vt 0.500000 1.000000
vt 0.000000 0.437500
vt 0.062500 0.000000
vt 0.062500 0.437500
vt 0.000000 0.437500
vt 0.062500 0.000000
vt 0.062500 0.437500
vt 0.937500 0.437500
vt 1.000000 0.000000
vt 1.000000 0.437500
vt 0.687500 0.937500
vt 0.625000 1.000000
vt 0.937500 0.437500
vt 1.000000 0.000000
vt 1.000000 0.437500
vt 0.062500 0.937500
vt 0.000000 1.000000
vt 0.000000 0.937500
vt 0.000000 0.500000
vt 0.687500 0.437500
vt 0.625000 0.500000
vt 0.625000 0.437500
vt 0.625000 0.000000
vt 0.500000 0.062500
vt 0.500000 0.000000
vt 0.375000 0.437500
vt 0.312500 0.500000
vt 0.312500 0.437500
vt 0.375000 0.062500
vt 0.375000 0.000000
vt 0.937500 0.500000
vt 0.750000 1.000000
vt 0.250000 0.062500
vt 1.000000 0.062500
vt 1.000000 1.000000
vt 0.000000 0.000000
vt 0.000000 0.000000
vt 0.937500 0.000000
vt 0.687500 1.000000
vt 0.937500 0.000000
vt 0.062500 1.000000
vt 0.062500 0.500000
vt 0.687500 0.500000
vt 0.625000 0.062500
vt 0.375000 0.500000
vt 1.000000 0.500000
vt 0.375000 1.000000
vt 1.000000 1.000000
vt 1.000000 0.000000
vt -0.000000 1.000000
vt 1.000000 0.875000
vt 0.625000 -0.000000
vt 0.625000 1.000000
vt 0.062500 0.875000
vt 0.687500 1.000000
vt 0.062500 1.000000
vt 0.062500 1.000000
vt 0.687500 0.750000
vt 0.625000 0.500000
vt 1.000000 1.000000
vt 0.375000 0.750000
vt 0.062500 0.187500
vt 1.000000 0.187500
vt 0.062500 0.187500
vt 1.000000 0.187500
vt -0.000000 0.250000
vt 1.000000 0.750000
vt 0.750000 0.625000
vt 1.000000 1.000000
vt 0.000000 0.000000
vt 0.000000 0.000000
vt 0.937500 0.000000
vt 0.687500 1.000000
vt 0.937500 0.000000
vt 0.062500 1.000000
vt 0.062500 0.500000
vt 0.687500 0.500000
vt 0.625000 0.062500
vt 0.375000 0.500000
vt 1.000000 0.500000
vt 0.062500 0.500000
vt 0.937500 0.000000
vt 0.000000 0.000000
vt 0.687500 1.000000
vt 0.625000 0.062500
vt 1.000000 1.000000
vt 0.687500 0.500000
vt 1.000000 0.500000
vt 0.937500 0.000000
vt 0.000000 0.000000
vt 0.062500 1.000000
vt 0.375000 0.500000
vt 1.000000 1.000000
vt 0.000000 0.000000
vt 0.000000 0.000000
vt 0.937500 0.000000
vt 0.687500 1.000000
vt 0.937500 0.000000
vt 0.062500 1.000000
vt 0.062500 0.500000
vt 0.687500 0.500000
vt 0.625000 0.062500
vt 0.375000 0.500000
vt 1.000000 0.500000
vn 0.0000 1.0000 0.0000
vn 0.0000 0.0000 -1.0000
vn -1.0000 0.0000 -0.0000
vn 1.0000 0.0000 -0.0000
g Plane.005_Plane.021_UV_TEST3
s off
f 77/1/1 6/2/1 78/3/1
f 78/3/1 3/4/1 79/5/1
f 5/6/1 7/7/1 1/8/1
f 2/9/1 9/10/1 5/11/1
f 31/12/2 25/13/2 35/14/2
f 32/15/2 16/16/2 33/17/2
f 33/17/2 27/18/2 36/19/2
f 34/20/2 15/21/2 32/15/2
f 18/22/2 26/23/2 24/24/2
f 10/25/2 29/26/2 28/27/2
f 24/28/2 20/29/2 11/30/2
f 35/31/2 19/32/2 34/20/2
f 28/33/2 23/34/2 17/35/2
f 36/36/2 12/37/2 30/38/2
f 28/27/2 30/39/2 10/25/2
f 24/40/2 34/41/2 18/42/2
f 18/43/2 32/44/2 14/45/2
f 17/46/2 36/47/2 28/48/2
f 14/45/2 33/49/2 17/50/2
f 11/30/2 35/51/2 24/28/2
f 54/52/2 61/53/2 68/54/2
f 43/55/2 58/56/2 67/57/2
f 8/58/1 80/59/1 77/60/1
f 3/61/1 81/62/1 79/63/1
f 71/64/2 59/65/2 73/66/2
f 75/67/2 62/68/2 76/69/2
f 63/70/2 70/71/2 69/72/2
f 53/73/2 65/74/2 64/75/2
f 73/76/2 49/77/2 72/78/2
f 67/79/2 53/80/2 70/81/2
f 76/82/2 51/83/2 74/84/2
f 68/85/2 39/86/2 66/87/2
f 64/75/2 55/88/2 40/89/2
f 52/90/2 69/72/2 54/91/2
f 54/92/2 64/93/2 40/94/2
f 62/95/2 66/96/2 51/83/2
f 59/97/2 70/98/2 49/99/2
f 69/100/2 53/101/2 64/93/2
f 50/102/2 67/103/2 59/65/2
f 52/104/2 68/105/2 62/106/2
f 57/107/2 72/108/2 41/109/2
f 42/110/2 73/111/2 57/112/2
f 60/113/2 74/114/2 37/115/2
f 38/116/2 76/117/2 60/118/2
f 79/119/1 48/120/1 7/121/1
f 77/122/1 45/123/1 4/124/1
f 9/125/1 79/126/1 7/127/1
f 8/128/1 78/129/1 9/125/1
f 103/130/3 97/131/3 107/132/3
f 104/133/3 88/134/3 105/135/3
f 105/135/3 99/136/3 108/137/3
f 106/138/3 87/139/3 104/133/3
f 90/140/3 98/141/3 96/142/3
f 82/143/3 101/144/3 100/145/3
f 96/146/3 92/147/3 83/148/3
f 107/149/3 91/150/3 106/138/3
f 100/151/3 95/152/3 89/153/3
f 108/154/3 84/155/3 102/156/3
f 100/145/3 102/157/3 82/143/3
f 96/158/3 106/159/3 90/160/3
f 90/161/3 104/162/3 86/163/3
f 89/164/3 108/165/3 100/166/3
f 86/163/3 105/167/3 89/168/3
f 83/148/3 107/169/3 96/146/3
f 117/170/2 115/171/2 135/172/2
f 121/173/2 125/174/2 134/175/2
f 135/172/2 116/176/2 117/170/2
f 110/177/2 126/178/2 111/179/2
f 112/180/2 118/181/2 109/182/2
f 131/183/2 112/184/2 128/185/2
f 127/186/2 113/187/2 131/183/2
f 114/188/2 120/189/2 110/190/2
f 111/179/2 130/191/2 113/192/2
f 121/193/2 111/194/2 127/195/2
f 134/175/2 110/196/2 121/173/2
f 113/192/2 129/197/2 112/180/2
f 117/198/2 122/199/2 128/200/2
f 127/201/2 119/202/2 121/203/2
f 109/204/2 133/205/2 115/206/2
f 128/207/2 109/208/2 117/209/2
f 157/210/4 151/211/4 161/212/4
f 158/213/4 142/214/4 159/215/4
f 159/215/4 153/216/4 162/217/4
f 160/218/4 141/219/4 158/213/4
f 144/220/4 152/221/4 150/222/4
f 136/223/4 155/224/4 154/225/4
f 150/226/4 146/227/4 137/228/4
f 161/229/4 145/230/4 160/218/4
f 154/231/4 149/232/4 143/233/4
f 162/234/4 138/235/4 156/236/4
f 154/225/4 156/237/4 136/223/4
f 150/238/4 160/239/4 144/240/4
f 144/241/4 158/242/4 140/243/4
f 143/244/4 162/245/4 154/246/4
f 140/243/4 159/247/4 143/248/4
f 137/228/4 161/249/4 150/226/4
f 77/1/1 4/250/1 6/2/1
f 78/3/1 6/2/1 3/4/1
f 5/6/1 9/251/1 7/7/1
f 2/9/1 8/252/1 9/10/1
f 31/12/2 13/253/2 25/13/2
f 32/15/2 15/21/2 16/16/2
f 33/17/2 16/16/2 27/18/2
f 34/20/2 19/32/2 15/21/2
f 18/22/2 21/254/2 26/23/2
f 10/25/2 22/255/2 29/26/2
f 24/28/2 26/256/2 20/29/2
f 35/31/2 25/257/2 19/32/2
f 28/33/2 29/258/2 23/34/2
f 36/36/2 27/259/2 12/37/2
f 28/27/2 36/260/2 30/39/2
f 24/40/2 35/261/2 34/41/2
f 18/43/2 34/262/2 32/44/2
f 17/46/2 33/263/2 36/47/2
f 14/45/2 32/44/2 33/49/2
f 11/30/2 31/264/2 35/51/2
f 54/52/2 40/265/2 61/53/2
f 43/55/2 44/266/2 58/56/2
f 8/58/1 46/267/1 80/59/1
f 3/61/1 47/268/1 81/62/1
f 71/64/2 50/102/2 59/65/2
f 75/67/2 52/269/2 62/68/2
f 63/70/2 49/270/2 70/71/2
f 53/73/2 56/271/2 65/74/2
f 73/76/2 59/272/2 49/77/2
f 67/79/2 58/273/2 53/80/2
f 76/82/2 62/95/2 51/83/2
f 68/85/2 61/274/2 39/86/2
f 64/75/2 65/74/2 55/88/2
f 52/90/2 63/70/2 69/72/2
f 54/92/2 69/100/2 64/93/2
f 62/95/2 68/275/2 66/96/2
f 59/97/2 67/276/2 70/98/2
f 69/100/2 70/277/2 53/101/2
f 50/102/2 43/278/2 67/103/2
f 52/104/2 54/279/2 68/105/2
f 57/107/2 73/280/2 72/108/2
f 42/110/2 71/281/2 73/111/2
f 60/113/2 76/282/2 74/114/2
f 38/116/2 75/283/2 76/117/2
f 79/119/1 81/284/1 48/120/1
f 77/122/1 80/285/1 45/123/1
f 9/125/1 78/129/1 79/126/1
f 8/128/1 77/286/1 78/129/1
f 103/130/3 85/287/3 97/131/3
f 104/133/3 87/139/3 88/134/3
f 105/135/3 88/134/3 99/136/3
f 106/138/3 91/150/3 87/139/3
f 90/140/3 93/288/3 98/141/3
f 82/143/3 94/289/3 101/144/3
f 96/146/3 98/290/3 92/147/3
f 107/149/3 97/291/3 91/150/3
f 100/151/3 101/292/3 95/152/3
f 108/154/3 99/293/3 84/155/3
f 100/145/3 108/294/3 102/157/3
f 96/158/3 107/295/3 106/159/3
f 90/161/3 106/296/3 104/162/3
f 89/164/3 105/297/3 108/165/3
f 86/163/3 104/162/3 105/167/3
f 83/148/3 103/298/3 107/169/3
f 117/170/2 109/299/2 115/171/2
f 121/173/2 119/300/2 125/174/2
f 135/172/2 123/301/2 116/176/2
f 110/177/2 120/302/2 126/178/2
f 112/180/2 129/197/2 118/181/2
f 131/183/2 113/187/2 112/184/2
f 127/186/2 111/303/2 113/187/2
f 114/188/2 132/304/2 120/189/2
f 111/179/2 126/178/2 130/191/2
f 121/193/2 110/305/2 111/194/2
f 134/175/2 114/306/2 110/196/2
f 113/192/2 130/191/2 129/197/2
f 117/198/2 116/307/2 122/199/2
f 127/201/2 124/308/2 119/202/2
f 109/204/2 118/309/2 133/205/2
f 128/207/2 112/310/2 109/208/2
f 157/210/4 139/311/4 151/211/4
f 158/213/4 141/219/4 142/214/4
f 159/215/4 142/214/4 153/216/4
f 160/218/4 145/230/4 141/219/4
f 144/220/4 147/312/4 152/221/4
f 136/223/4 148/313/4 155/224/4
f 150/226/4 152/314/4 146/227/4
f 161/229/4 151/315/4 145/230/4
f 154/231/4 155/316/4 149/232/4
f 162/234/4 153/317/4 138/235/4
f 154/225/4 162/318/4 156/237/4
f 150/238/4 161/319/4 160/239/4
f 144/241/4 160/320/4 158/242/4
f 143/244/4 159/321/4 162/245/4
f 140/243/4 158/242/4 159/247/4
f 137/228/4 157/322/4 161/249/4
