# Blender v3.5.0 OBJ File: 'models.blend'
# www.blender.org
o cooking_pot_small_Cube.137
v 0.125000 -0.500000 0.187500
v 0.125000 -0.437500 0.187500
v 0.125000 -0.500000 0.437500
v 0.125000 -0.437500 0.437500
v -0.125000 -0.500000 0.187500
v -0.125000 -0.437500 0.187500
v -0.125000 -0.500000 0.437500
v -0.125000 -0.437500 0.437500
v 0.125000 -0.500000 0.125000
v 0.125000 -0.437500 0.125000
v -0.125000 -0.437500 0.125000
v -0.125000 -0.500000 0.125000
v 0.125000 -0.437500 0.500000
v 0.125000 -0.500000 0.500000
v -0.125000 -0.500000 0.500000
v -0.125000 -0.437500 0.500000
v -0.187500 -0.437500 0.437500
v -0.187500 -0.500000 0.437500
v -0.187500 -0.500000 0.187500
v -0.187500 -0.437500 0.187500
v -0.187500 -0.437500 0.125000
v -0.187500 -0.500000 0.125000
v -0.187500 -0.437500 0.500000
v -0.187500 -0.500000 0.500000
v 0.187500 -0.500000 0.437500
v 0.187500 -0.500000 0.187500
v 0.187500 -0.437500 0.187500
v 0.187500 -0.437500 0.437500
v 0.187500 -0.500000 0.125000
v 0.187500 -0.437500 0.125000
v 0.187500 -0.437500 0.500000
v 0.187500 -0.500000 0.500000
v 0.125000 -0.187500 0.187500
v 0.125000 -0.187500 0.437500
v -0.125000 -0.187500 0.437500
v -0.187500 -0.187500 0.500000
v -0.125000 -0.187500 0.500000
v -0.125000 -0.187500 0.187500
v -0.187500 -0.187500 0.437500
v -0.125000 -0.187500 0.125000
v 0.125000 -0.187500 0.125000
v 0.125000 -0.187500 0.500000
v -0.187500 -0.187500 0.187500
v -0.187500 -0.187500 0.125000
v 0.187500 -0.187500 0.187500
v 0.187500 -0.187500 0.437500
v 0.187500 -0.187500 0.125000
v 0.187500 -0.187500 0.500000
v -0.187500 -0.250000 0.187500
v -0.125000 -0.250000 0.125000
v -0.187500 -0.250000 0.437500
v -0.187500 -0.250000 0.500000
v -0.125000 -0.250000 0.500000
v 0.125000 -0.250000 0.500000
v 0.187500 -0.250000 0.125000
v 0.125000 -0.250000 0.125000
v 0.187500 -0.250000 0.437500
v 0.187500 -0.250000 0.500000
v 0.187500 -0.250000 0.187500
v -0.187500 -0.250000 0.125000
v -0.062500 -0.500000 0.437500
v -0.062500 -0.437500 0.437500
v -0.062500 -0.500000 0.187500
v -0.062500 -0.437500 0.187500
v -0.062500 -0.500000 0.125000
v -0.062500 -0.437500 0.125000
v -0.062500 -0.500000 0.500000
v -0.062500 -0.437500 0.500000
v -0.062500 -0.187500 0.437500
v -0.062500 -0.187500 0.187500
v -0.062500 -0.187500 0.125000
v -0.062500 -0.187500 0.500000
v -0.062500 -0.250000 0.500000
v -0.062500 -0.250000 0.125000
v 0.062500 -0.500000 0.437500
v 0.062500 -0.437500 0.187500
v 0.062500 -0.437500 0.125000
v 0.062500 -0.500000 0.500000
v 0.062500 -0.187500 0.187500
v 0.062500 -0.187500 0.125000
v 0.062500 -0.250000 0.125000
v 0.062500 -0.437500 0.437500
v 0.062500 -0.500000 0.187500
v 0.062500 -0.500000 0.125000
v 0.062500 -0.437500 0.500000
v 0.062500 -0.187500 0.437500
v 0.062500 -0.187500 0.500000
v 0.062500 -0.250000 0.500000
v -0.062500 -0.250000 -0.375000
v -0.062500 -0.187500 -0.375000
v 0.062500 -0.187500 -0.375000
v 0.062500 -0.250000 -0.375000
v 0.000000 -0.187500 0.125000
v 0.000000 -0.250000 0.125000
v 0.000000 -0.187500 -0.375000
v 0.000000 -0.250000 -0.375000
v 0.000000 -0.187500 -0.437500
v 0.062500 -0.187500 -0.437500
v 0.000000 -0.250000 -0.437500
v 0.062500 -0.250000 -0.437500
v 0.000000 -0.187500 -0.500000
v 0.062500 -0.187500 -0.500000
v 0.000000 -0.250000 -0.500000
v 0.062500 -0.250000 -0.500000
v -0.062500 -0.250000 -0.437500
v -0.062500 -0.187500 -0.437500
v -0.062500 -0.250000 -0.500000
v -0.062500 -0.187500 -0.500000
v 0.125000 -0.500000 0.312500
v 0.125000 -0.437500 0.312500
v -0.125000 -0.500000 0.312500
v -0.125000 -0.437500 0.312500
v -0.187500 -0.500000 0.312500
v -0.187500 -0.437500 0.312500
v 0.187500 -0.500000 0.312500
v 0.187500 -0.437500 0.312500
v 0.125000 -0.187500 0.312500
v -0.125000 -0.187500 0.312500
v -0.187500 -0.187500 0.312500
v 0.187500 -0.187500 0.312500
v -0.187500 -0.250000 0.312500
v 0.187500 -0.250000 0.312500
v -0.062500 -0.437500 0.312500
v -0.062500 -0.500000 0.312500
v 0.062500 -0.500000 0.312500
v 0.062500 -0.437500 0.312500
vt 0.062500 0.687500
vt 0.000000 0.812500
vt 0.062500 0.812500
vt 0.062500 -0.062500
vt 0.125000 0.000000
vt 0.125000 -0.062500
vt -0.062500 0.687500
vt 0.000000 0.625000
vt -0.062500 0.625000
vt 0.687500 0.000000
vt 0.812500 0.062500
vt 0.812500 0.000000
vt 0.437500 0.812500
vt 0.375000 0.687500
vt 0.375000 0.812500
vt 0.062500 0.812500
vt 0.125000 0.687500
vt 0.125000 0.812500
vt 0.125000 0.062500
vt 0.062500 0.000000
vt 0.125000 0.000000
vt -0.062500 0.000000
vt 0.000000 0.062500
vt -0.062500 0.062500
vt -0.062500 0.000000
vt 0.000000 0.062500
vt 0.000000 0.000000
vt -0.125000 0.625000
vt -0.125000 0.687500
vt -0.125000 0.062500
vt -0.062500 0.000000
vt -0.125000 0.000000
vt 0.687500 0.062500
vt 0.812500 0.312500
vt 0.812500 0.062500
vt 0.000000 0.000000
vt 0.062500 0.000000
vt -0.062500 0.000000
vt -0.187500 0.062500
vt -0.187500 0.000000
vt 0.812500 0.062500
vt 0.687500 0.000000
vt 0.812500 0.000000
vt 1.000000 0.062500
vt 0.937500 0.000000
vt 1.000000 0.000000
vt -0.062500 0.000000
vt 0.000000 0.062500
vt -0.062500 0.062500
vt -0.062500 -0.062500
vt 0.000000 -0.187500
vt -0.062500 -0.187500
vt 0.000000 -0.062500
vt -0.062500 0.062500
vt 0.000000 0.000000
vt -0.062500 0.000000
vt -0.125000 0.062500
vt -0.125000 0.000000
vt 0.000000 0.000000
vt -0.062500 0.062500
vt -0.187500 0.062500
vt -0.062500 0.000000
vt -0.187500 0.000000
vt 1.000000 0.000000
vt 0.937500 0.062500
vt 1.000000 0.062500
vt -0.062500 0.062500
vt 0.000000 0.062500
vt 0.062500 0.062500
vt 0.062500 0.000000
vt 0.125000 0.062500
vt 0.125000 0.000000
vt 0.062500 0.000000
vt 0.000000 0.062500
vt 0.000000 0.000000
vt 0.062500 0.062500
vt 0.000000 0.000000
vt 0.062500 0.625000
vt 0.000000 0.687500
vt 0.062500 0.062500
vt 0.125000 0.000000
vt 0.125000 0.062500
vt 0.062500 -0.062500
vt 0.000000 -0.187500
vt 0.062500 -0.187500
vt -0.062500 -0.062500
vt -0.125000 0.000000
vt -0.125000 -0.062500
vt 0.000000 0.000000
vt -0.062500 0.000000
vt -0.062500 0.687500
vt 0.000000 0.812500
vt -0.062500 0.812500
vt -0.062500 0.625000
vt 0.000000 0.687500
vt 0.062500 0.000000
vt 0.000000 -0.062500
vt 0.000000 0.000000
vt 0.062500 0.000000
vt 0.437500 0.062500
vt 0.312500 0.312500
vt 0.312500 0.062500
vt 0.000000 0.000000
vt -0.062500 0.062500
vt 1.000000 0.000000
vt 0.937500 0.062500
vt 0.937500 0.000000
vt 0.062500 0.062500
vt 0.125000 0.312500
vt 0.125000 0.062500
vt 0.937500 0.000000
vt 1.000000 0.062500
vt 1.000000 0.000000
vt -0.062500 0.062500
vt -0.125000 0.312500
vt -0.125000 0.062500
vt 0.062500 0.062500
vt -0.062500 0.000000
vt 0.000000 0.062500
vt 0.000000 0.250000
vt 0.062500 0.250000
vt 1.000000 0.250000
vt 0.937500 0.250000
vt 0.937500 0.062500
vt -0.062500 0.250000
vt 0.000000 0.250000
vt 0.000000 0.062500
vt 0.125000 0.250000
vt 0.125000 0.062500
vt -0.062500 0.250000
vt 0.437500 0.062500
vt 0.375000 0.250000
vt 0.375000 0.062500
vt 0.437500 0.062500
vt 0.312500 0.250000
vt 0.312500 0.062500
vt 0.000000 0.250000
vt 0.687500 0.062500
vt 0.812500 0.250000
vt 0.812500 0.062500
vt 0.375000 0.062500
vt 0.437500 0.250000
vt 0.437500 0.062500
vt 0.750000 0.062500
vt 0.750000 0.250000
vt 0.687500 0.250000
vt -0.125000 0.062500
vt -0.062500 0.312500
vt -0.062500 0.062500
vt 0.750000 0.062500
vt 0.625000 0.312500
vt 0.625000 0.062500
vt -0.062500 0.687500
vt 0.000000 0.625000
vt 0.000000 0.687500
vt -0.125000 0.000000
vt -0.062500 0.062500
vt 0.375000 0.625000
vt 0.312500 0.125000
vt 0.312500 0.625000
vt 0.250000 -0.062500
vt 0.125000 0.000000
vt 0.125000 -0.062500
vt 0.250000 0.000000
vt -0.125000 0.000000
vt 0.375000 0.812500
vt 0.437500 0.687500
vt 0.437500 0.812500
vt 0.250000 0.687500
vt 0.125000 0.625000
vt 0.125000 0.687500
vt -0.125000 -0.062500
vt 0.125000 0.812500
vt 0.125000 0.000000
vt 0.062500 0.062500
vt 0.125000 0.062500
vt 0.062500 0.312500
vt 0.062500 0.062500
vt 0.062500 0.250000
vt 0.750000 0.812500
vt 0.625000 0.687500
vt 0.625000 0.812500
vt 0.625000 0.062500
vt 0.750000 0.250000
vt 0.750000 0.062500
vt 0.625000 0.062500
vt 0.750000 0.312500
vt 0.750000 0.062500
vt 0.125000 0.562500
vt 0.125000 0.500000
vt 0.187500 0.500000
vt 0.250000 0.062500
vt 0.250000 0.000000
vt 0.250000 0.062500
vt 0.250000 0.000000
vt 0.625000 0.812500
vt 0.750000 0.687500
vt 0.750000 0.812500
vt -0.125000 0.000000
vt -0.187500 0.062500
vt -0.187500 0.000000
vt 0.625000 0.000000
vt 0.125000 0.062500
vt 0.625000 0.062500
vt 0.625000 0.062500
vt 0.125000 0.000000
vt 0.625000 0.000000
vt 0.625000 0.625000
vt 0.687500 0.125000
vt 0.687500 0.625000
vt 0.312500 0.625000
vt 0.375000 0.125000
vt 0.375000 0.625000
vt 0.125000 0.000000
vt 0.062500 0.062500
vt 0.687500 0.625000
vt 0.625000 0.125000
vt 0.625000 0.625000
vt 0.062500 0.000000
vt 0.000000 0.062500
vt 0.125000 0.062500
vt 0.062500 0.000000
vt 0.125000 0.000000
vt 0.125000 0.125000
vt 0.187500 0.062500
vt 0.187500 0.125000
vt 0.187500 0.125000
vt 0.125000 0.062500
vt 0.125000 0.125000
vt 0.187500 0.000000
vt 0.125000 0.062500
vt 0.125000 0.000000
vt 0.125000 0.062500
vt 0.187500 0.000000
vt -0.187500 0.062500
vt -0.125000 0.000000
vt -0.187500 0.000000
vt 0.187500 0.062500
vt 0.062500 0.062500
vt 0.000000 0.000000
vt 0.062500 0.000000
vt -0.125000 0.062500
vt -0.187500 0.062500
vt -0.187500 0.062500
vt -0.125000 0.000000
vt -0.187500 0.000000
vt -0.187500 0.000000
vt -0.125000 0.062500
vt 0.250000 -0.062500
vt 0.625000 -0.062500
vt 0.750000 -0.187500
vt 0.750000 -0.062500
vt 0.750000 -0.062500
vt 0.625000 -0.187500
vt 0.625000 -0.062500
vt 0.062500 -0.187500
vt 0.375000 -0.062500
vt 0.437500 -0.187500
vt 0.437500 -0.062500
vt 0.312500 0.062500
vt 0.437500 0.250000
vt 0.437500 0.062500
vt 0.687500 0.250000
vt 0.687500 0.062500
vt 0.812500 0.062500
vt 0.687500 0.312500
vt 0.687500 0.062500
vt -0.062500 -0.187500
vt 0.000000 -0.062500
vt 0.062500 0.187500
vt 0.000000 0.062500
vt 0.812500 0.000000
vt 0.687500 0.000000
vt -0.062500 0.812500
vt 0.000000 0.687500
vt -0.187500 0.000000
vt 0.812500 0.000000
vt 0.687500 0.062500
vt 0.687500 0.000000
vt 0.312500 0.062500
vt 0.437500 0.312500
vt 0.437500 0.062500
vt 0.062500 -0.062500
vt 0.125000 -0.187500
vt 0.125000 -0.062500
vt 0.437500 -0.062500
vt 0.375000 -0.187500
vt 0.375000 -0.062500
vt -0.187500 0.000000
vt -0.062500 0.062500
vt 0.000000 -0.062500
vt 0.687500 0.062500
vt 0.437500 0.687500
vt 0.062500 0.687500
vt 0.000000 0.000000
vt 0.687500 0.312500
vt 0.937500 0.000000
vt 0.000000 0.625000
vt 0.000000 0.625000
vt 0.000000 0.000000
vt 0.437500 0.312500
vt 0.000000 0.062500
vt 1.000000 0.062500
vt 0.062500 0.312500
vt 0.937500 0.062500
vt -0.062500 0.312500
vt -0.062500 0.250000
vt 0.937500 0.250000
vt 1.000000 0.250000
vt 0.000000 0.250000
vt 0.437500 0.250000
vt 0.437500 0.250000
vt -0.062500 0.250000
vt 0.687500 0.250000
vt 0.375000 0.250000
vt 0.625000 0.250000
vt 0.625000 0.062500
vt -0.125000 0.312500
vt 0.750000 0.312500
vt -0.062500 0.625000
vt -0.125000 0.062500
vt 0.375000 0.125000
vt 0.250000 0.000000
vt 0.250000 0.062500
vt -0.125000 0.062500
vt 0.375000 0.687500
vt 0.250000 0.625000
vt 0.125000 0.062500
vt 0.125000 0.312500
vt 0.125000 0.250000
vt 0.750000 0.687500
vt 0.625000 0.250000
vt 0.625000 0.312500
vt 0.250000 0.500000
vt 0.250000 0.562500
vt 0.625000 0.687500
vt -0.125000 0.062500
vt 0.125000 0.062500
vt 0.625000 0.125000
vt 0.312500 0.125000
vt 0.687500 0.125000
vt 0.000000 0.000000
vt 0.062500 0.062500
vt 0.187500 0.062500
vt 0.125000 0.000000
vt -0.125000 0.062500
vt 0.000000 0.062500
vt -0.125000 0.000000
vt 0.625000 -0.187500
vt 0.750000 -0.187500
vt 0.125000 -0.187500
vt 0.375000 -0.187500
vt 0.312500 0.250000
vt 0.812500 0.250000
vt 0.812500 0.312500
vt 0.000000 -0.187500
vt 0.000000 0.187500
vt 0.000000 0.812500
vt -0.187500 0.062500
vt 0.812500 0.062500
vt 0.312500 0.312500
vt 0.062500 -0.187500
vt 0.437500 -0.187500
vt -0.187500 0.062500
vt 0.000000 -0.187500
vn 0.0000 -1.0000 0.0000
vn 1.0000 0.0000 0.0000
vn 0.0000 1.0000 0.0000
vn 0.0000 0.0000 -1.0000
vn 0.0000 0.0000 1.0000
vn -1.0000 0.0000 0.0000
g cooking_pot_small_Cube.137_UV_steel
s off
f 1/1/1 115/2/1 109/3/1
f 3/4/1 78/5/1 75/6/1
f 5/7/1 22/8/1 12/9/1
f 59/10/2 120/11/2 122/12/2
f 111/13/1 63/14/1 124/15/1
f 110/16/3 76/17/3 126/18/3
f 77/19/4 9/20/4 84/21/4
f 12/22/4 21/23/4 11/24/4
f 57/25/2 48/26/2 58/27/2
f 5/7/1 65/28/1 63/29/1
f 68/30/5 15/31/5 67/32/5
f 6/33/2 118/34/2 112/35/2
f 3/4/1 32/36/1 14/37/1
f 51/38/6 119/39/6 121/40/6
f 114/41/6 19/42/6 113/43/6
f 20/44/6 22/45/6 19/46/6
f 18/47/6 23/48/6 17/49/6
f 7/50/1 113/51/1 111/52/1
f 15/31/1 18/53/1 7/50/1
f 16/54/5 24/55/5 15/31/5
f 50/56/4 71/57/4 74/58/4
f 52/59/6 39/60/6 51/38/6
f 116/61/2 25/62/2 115/63/2
f 26/64/2 30/65/2 27/66/2
f 28/67/2 32/36/2 25/62/2
f 14/37/5 31/68/5 13/69/5
f 54/70/5 87/71/5 88/72/5
f 56/73/4 47/74/4 55/75/4
f 10/76/4 29/77/4 9/20/4
f 9/78/1 26/79/1 1/1/1
f 33/80/3 80/81/3 79/82/3
f 34/83/3 120/84/3 117/85/3
f 35/86/3 72/87/3 69/88/3
f 35/86/3 36/89/3 37/90/3
f 38/91/3 119/92/3 118/93/3
f 40/94/3 43/95/3 38/91/3
f 42/96/3 46/97/3 34/83/3
f 33/80/3 47/98/3 41/99/3
f 4/100/6 117/101/6 110/102/6
f 60/103/4 40/104/4 50/56/4
f 49/105/6 44/106/6 60/107/6
f 2/108/5 79/109/5 76/110/5
f 55/111/2 45/112/2 59/113/2
f 8/114/4 69/115/4 62/116/4
f 58/27/5 42/117/5 54/70/5
f 53/118/5 36/119/5 52/59/5
f 16/54/5 52/120/5 23/48/5
f 31/68/5 54/121/5 13/69/5
f 30/65/2 59/122/2 27/66/2
f 20/44/6 60/123/6 21/124/6
f 21/23/4 50/125/4 11/24/4
f 10/76/4 55/126/4 30/127/4
f 13/69/5 88/128/5 85/129/5
f 23/48/6 51/130/6 17/49/6
f 11/131/4 74/132/4 66/133/4
f 17/134/6 121/135/6 114/136/6
f 28/67/2 58/137/2 31/68/2
f 27/138/2 122/139/2 116/140/2
f 68/141/5 53/142/5 16/143/5
f 66/144/4 74/145/4 94/146/4
f 64/147/5 38/148/5 6/149/5
f 62/150/4 86/151/4 82/152/4
f 70/153/3 40/154/3 38/155/3
f 73/156/5 37/157/5 53/118/5
f 74/158/1 96/159/1 94/160/1
f 69/161/3 87/162/3 86/163/3
f 85/129/5 67/164/5 78/5/5
f 11/24/4 65/165/4 12/22/4
f 123/166/3 6/167/3 112/168/3
f 63/169/1 84/170/1 83/171/1
f 61/172/1 15/31/1 7/50/1
f 125/173/1 1/1/1 109/3/1
f 83/171/1 9/78/1 1/1/1
f 13/69/5 78/5/5 14/37/5
f 81/174/4 41/175/4 56/73/4
f 86/163/3 42/96/3 34/83/3
f 82/176/4 34/177/4 4/178/4
f 77/19/4 56/179/4 10/76/4
f 124/180/1 83/181/1 125/182/1
f 85/183/5 73/184/5 68/185/5
f 76/186/5 70/187/5 64/188/5
f 79/189/3 80/190/3 93/191/3
f 88/72/5 72/192/5 73/193/5
f 66/194/4 84/21/4 65/195/4
f 126/196/3 64/197/3 123/198/3
f 89/199/4 95/200/4 96/201/4
f 81/202/2 91/203/2 80/204/2
f 71/205/6 89/206/6 74/207/6
f 80/208/3 95/209/3 93/210/3
f 93/211/3 90/212/3 71/213/3
f 92/214/2 98/215/2 91/203/2
f 94/216/1 92/217/1 81/218/1
f 100/219/2 102/220/2 98/215/2
f 95/221/6 99/222/6 96/223/6
f 91/224/3 97/225/3 95/226/3
f 96/227/1 100/228/1 92/229/1
f 103/230/4 102/231/4 104/232/4
f 98/233/3 101/234/3 97/225/3
f 99/235/1 107/236/1 103/237/1
f 99/238/1 104/232/1 100/228/1
f 106/239/6 107/240/6 105/241/6
f 103/237/4 108/242/4 101/243/4
f 97/244/5 105/245/5 99/246/5
f 101/247/3 106/248/3 97/244/3
f 75/6/1 67/164/1 61/249/1
f 82/250/3 123/251/3 62/252/3
f 61/253/1 125/254/1 75/255/1
f 75/6/1 109/256/1 3/4/1
f 62/257/3 112/258/3 8/259/3
f 116/260/2 57/261/2 28/262/2
f 114/41/6 49/263/6 20/264/6
f 110/265/6 33/266/6 2/267/6
f 118/268/3 39/269/3 35/86/3
f 117/270/3 45/271/3 33/80/3
f 27/138/2 115/272/2 26/273/2
f 111/274/1 19/275/1 5/7/1
f 17/49/6 113/276/6 18/47/6
f 121/277/6 43/278/6 49/279/6
f 112/280/2 35/281/2 8/282/2
f 4/283/3 126/284/3 82/285/3
f 7/286/1 124/287/1 61/288/1
f 122/289/2 46/290/2 57/25/2
f 109/256/1 25/291/1 3/4/1
f 1/1/1 26/79/1 115/2/1
f 3/4/1 14/37/1 78/5/1
f 5/7/1 19/275/1 22/8/1
f 59/10/2 45/292/2 120/11/2
f 111/13/1 5/293/1 63/14/1
f 110/16/3 2/294/3 76/17/3
f 77/19/4 10/76/4 9/20/4
f 12/22/4 22/295/4 21/23/4
f 57/25/2 46/290/2 48/26/2
f 5/7/1 12/9/1 65/28/1
f 68/30/5 16/54/5 15/31/5
f 6/33/2 38/296/2 118/34/2
f 3/4/1 25/291/1 32/36/1
f 51/38/6 39/60/6 119/39/6
f 114/41/6 20/264/6 19/42/6
f 20/44/6 21/124/6 22/45/6
f 18/47/6 24/55/6 23/48/6
f 7/50/1 18/53/1 113/51/1
f 15/31/1 24/55/1 18/53/1
f 16/54/5 23/48/5 24/55/5
f 50/56/4 40/104/4 71/57/4
f 52/59/6 36/119/6 39/60/6
f 116/61/2 28/67/2 25/62/2
f 26/64/2 29/297/2 30/65/2
f 28/67/2 31/68/2 32/36/2
f 14/37/5 32/36/5 31/68/5
f 54/70/5 42/117/5 87/71/5
f 56/73/4 41/175/4 47/74/4
f 10/76/4 30/127/4 29/77/4
f 9/78/1 29/298/1 26/79/1
f 33/80/3 41/99/3 80/81/3
f 34/83/3 46/97/3 120/84/3
f 35/86/3 37/90/3 72/87/3
f 35/86/3 39/269/3 36/89/3
f 38/91/3 43/95/3 119/92/3
f 40/94/3 44/299/3 43/95/3
f 42/96/3 48/300/3 46/97/3
f 33/80/3 45/271/3 47/98/3
f 4/100/6 34/301/6 117/101/6
f 60/103/4 44/302/4 40/104/4
f 49/105/6 43/303/6 44/106/6
f 2/108/5 33/304/5 79/109/5
f 55/111/2 47/305/2 45/112/2
f 8/114/4 35/306/4 69/115/4
f 58/27/5 48/26/5 42/117/5
f 53/118/5 37/157/5 36/119/5
f 16/54/5 53/307/5 52/120/5
f 31/68/5 58/137/5 54/121/5
f 30/65/2 55/308/2 59/122/2
f 20/44/6 49/309/6 60/123/6
f 21/23/4 60/310/4 50/125/4
f 10/76/4 56/179/4 55/126/4
f 13/69/5 54/121/5 88/128/5
f 23/48/6 52/120/6 51/130/6
f 11/131/4 50/311/4 74/132/4
f 17/134/6 51/312/6 121/135/6
f 28/67/2 57/313/2 58/137/2
f 27/138/2 59/314/2 122/139/2
f 68/141/5 73/315/5 53/142/5
f 81/316/4 77/317/4 94/146/4
f 77/317/4 66/144/4 94/146/4
f 64/147/5 70/318/5 38/148/5
f 62/150/4 69/319/4 86/151/4
f 70/153/3 71/320/3 40/154/3
f 73/156/5 72/321/5 37/157/5
f 74/158/1 89/322/1 96/159/1
f 69/161/3 72/323/3 87/162/3
f 85/129/5 68/324/5 67/164/5
f 11/24/4 66/325/4 65/165/4
f 123/166/3 64/326/3 6/167/3
f 63/169/1 65/327/1 84/170/1
f 61/172/1 67/32/1 15/31/1
f 125/173/1 83/171/1 1/1/1
f 83/171/1 84/170/1 9/78/1
f 13/69/5 85/129/5 78/5/5
f 81/174/4 80/328/4 41/175/4
f 86/163/3 87/162/3 42/96/3
f 82/176/4 86/329/4 34/177/4
f 77/19/4 81/330/4 56/179/4
f 124/180/1 63/331/1 83/181/1
f 85/183/5 88/332/5 73/184/5
f 76/186/5 79/333/5 70/187/5
f 71/334/3 70/335/3 93/191/3
f 70/335/3 79/189/3 93/191/3
f 88/72/5 87/71/5 72/192/5
f 66/194/4 77/19/4 84/21/4
f 126/196/3 76/336/3 64/197/3
f 89/199/4 90/337/4 95/200/4
f 81/202/2 92/214/2 91/203/2
f 71/205/6 90/338/6 89/206/6
f 80/208/3 91/339/3 95/209/3
f 93/211/3 95/340/3 90/212/3
f 92/214/2 100/219/2 98/215/2
f 94/216/1 96/341/1 92/217/1
f 100/219/2 104/342/2 102/220/2
f 95/221/6 97/343/6 99/222/6
f 91/224/3 98/233/3 97/225/3
f 96/227/1 99/238/1 100/228/1
f 103/230/4 101/344/4 102/231/4
f 98/233/3 102/345/3 101/234/3
f 99/235/1 105/346/1 107/236/1
f 99/238/1 103/230/1 104/232/1
f 106/239/6 108/347/6 107/240/6
f 103/237/4 107/236/4 108/242/4
f 97/244/5 106/248/5 105/245/5
f 101/247/3 108/348/3 106/248/3
f 75/6/1 78/5/1 67/164/1
f 82/250/3 126/349/3 123/251/3
f 61/253/1 124/350/1 125/254/1
f 75/6/1 125/351/1 109/256/1
f 62/257/3 123/352/3 112/258/3
f 116/260/2 122/353/2 57/261/2
f 114/41/6 121/354/6 49/263/6
f 110/265/6 117/355/6 33/266/6
f 118/268/3 119/356/3 39/269/3
f 117/270/3 120/357/3 45/271/3
f 27/138/2 116/140/2 115/272/2
f 111/274/1 113/358/1 19/275/1
f 17/49/6 114/359/6 113/276/6
f 121/277/6 119/360/6 43/278/6
f 112/280/2 118/361/2 35/281/2
f 4/283/3 110/362/3 126/284/3
f 7/286/1 111/363/1 124/287/1
f 122/289/2 120/364/2 46/290/2
f 109/256/1 115/365/1 25/291/1
