# Blender v3.5.0 OBJ File: 'models.blend'
# www.blender.org
o pan_Cube.140
v 0.187500 -0.500000 0.062500
v 0.187500 -0.437500 0.062500
v 0.187500 -0.500000 0.437500
v 0.187500 -0.437500 0.437500
v -0.187500 -0.500000 0.062500
v -0.187500 -0.437500 0.062500
v -0.187500 -0.500000 0.437500
v -0.187500 -0.437500 0.437500
v 0.187500 -0.500000 0.500000
v 0.187500 -0.437500 0.500000
v -0.187500 -0.500000 0.500000
v -0.187500 -0.437500 0.500000
v 0.187500 -0.500000 0.000000
v 0.187500 -0.437500 0.000000
v -0.187500 -0.500000 0.000000
v -0.187500 -0.437500 0.000000
v -0.250000 -0.500000 0.062500
v -0.250000 -0.437500 0.062500
v -0.250000 -0.500000 0.437500
v -0.250000 -0.437500 0.437500
v -0.250000 -0.500000 0.500000
v -0.250000 -0.437500 0.500000
v -0.250000 -0.500000 0.000000
v -0.250000 -0.437500 0.000000
v 0.250000 -0.500000 0.062500
v 0.250000 -0.437500 0.062500
v 0.250000 -0.500000 0.437500
v 0.250000 -0.437500 0.437500
v 0.250000 -0.500000 0.500000
v 0.250000 -0.437500 0.500000
v 0.250000 -0.500000 0.000000
v 0.250000 -0.437500 0.000000
v 0.187500 -0.375000 0.062500
v 0.187500 -0.375000 0.437500
v -0.187500 -0.375000 0.437500
v -0.187500 -0.375000 0.062500
v 0.187500 -0.375000 0.500000
v -0.187500 -0.375000 0.500000
v -0.187500 -0.375000 0.000000
v 0.187500 -0.375000 0.000000
v -0.250000 -0.375000 0.437500
v -0.250000 -0.375000 0.062500
v -0.250000 -0.375000 0.500000
v -0.250000 -0.375000 0.000000
v 0.250000 -0.375000 0.062500
v 0.250000 -0.375000 0.437500
v 0.250000 -0.375000 0.500000
v 0.250000 -0.375000 0.000000
v -0.062500 -0.500000 0.437500
v -0.062500 -0.437500 0.437500
v -0.062500 -0.500000 0.062500
v -0.062500 -0.437500 0.062500
v -0.062500 -0.500000 0.500000
v -0.062500 -0.437500 0.500000
v -0.062500 -0.500000 0.000000
v -0.062500 -0.437500 0.000000
v -0.062500 -0.375000 0.437500
v -0.062500 -0.375000 0.062500
v -0.062500 -0.375000 0.500000
v -0.062500 -0.375000 0.000000
v 0.062500 -0.500000 0.437500
v 0.062500 -0.437500 0.062500
v 0.062500 -0.500000 0.500000
v 0.062500 -0.437500 0.000000
v 0.062500 -0.375000 0.062500
v 0.062500 -0.375000 0.000000
v 0.062500 -0.437500 0.437500
v 0.062500 -0.500000 0.062500
v 0.062500 -0.437500 0.500000
v 0.062500 -0.500000 0.000000
v 0.062500 -0.375000 0.437500
v 0.062500 -0.375000 0.500000
v -0.062500 -0.437500 -0.375000
v -0.062500 -0.375000 -0.375000
v 0.062500 -0.437500 -0.375000
v 0.062500 -0.375000 -0.375000
v 0.000000 -0.437500 0.000000
v 0.000000 -0.375000 0.000000
v 0.000000 -0.437500 -0.375000
v 0.000000 -0.375000 -0.375000
v 0.000000 -0.437500 -0.437500
v 0.062500 -0.437500 -0.437500
v 0.000000 -0.375000 -0.437500
v 0.062500 -0.375000 -0.437500
v 0.000000 -0.437500 -0.500000
v 0.062500 -0.437500 -0.500000
v 0.000000 -0.375000 -0.500000
v 0.062500 -0.375000 -0.500000
v -0.062500 -0.437500 -0.437500
v -0.062500 -0.375000 -0.437500
v -0.062500 -0.437500 -0.500000
v -0.062500 -0.375000 -0.500000
v 0.187500 -0.500000 0.250000
v 0.187500 -0.437500 0.250000
v -0.187500 -0.500000 0.250000
v -0.187500 -0.437500 0.250000
v -0.250000 -0.500000 0.250000
v -0.250000 -0.437500 0.250000
v 0.250000 -0.500000 0.250000
v 0.250000 -0.437500 0.250000
v 0.187500 -0.375000 0.250000
v -0.187500 -0.375000 0.250000
v -0.250000 -0.375000 0.250000
v 0.250000 -0.375000 0.250000
v -0.062500 -0.437500 0.250000
v -0.062500 -0.500000 0.250000
v 0.062500 -0.500000 0.250000
v 0.062500 -0.437500 0.250000
vt 0.062500 0.000000
vt 0.000000 0.062500
vt 0.062500 0.062500
vt 0.062500 -0.062500
vt 0.187500 0.000000
vt 0.187500 -0.062500
vt 0.000000 -0.062500
vt -0.062500 0.000000
vt -0.062500 -0.062500
vt 0.062500 -0.062500
vt 0.000000 0.000000
vt 0.000000 -0.062500
vt -0.062500 0.750000
vt -0.187500 0.562500
vt -0.187500 0.750000
vt 0.062500 0.750000
vt 0.187500 0.562500
vt 0.187500 0.750000
vt -0.187500 0.062500
vt -0.062500 0.000000
vt -0.187500 0.000000
vt 0.062500 -0.062500
vt 0.000000 0.000000
vt -0.062500 -0.062500
vt -0.250000 0.000000
vt -0.250000 -0.062500
vt 0.187500 0.000000
vt 0.187500 -0.062500
vt 0.187500 0.062500
vt 0.062500 0.000000
vt 0.187500 0.000000
vt -0.062500 0.062500
vt -0.187500 0.000000
vt -0.187500 0.062500
vt 0.562500 -0.062500
vt 0.750000 0.000000
vt 0.750000 -0.062500
vt -0.062500 -0.062500
vt 0.000000 -0.250000
vt -0.062500 -0.250000
vt 0.750000 0.062500
vt 0.562500 0.000000
vt 0.750000 0.000000
vt -0.062500 0.000000
vt 0.000000 0.062500
vt -0.062500 0.062500
vt 0.562500 0.062500
vt 0.500000 0.000000
vt -0.062500 0.000000
vt 0.000000 0.062500
vt -0.062500 0.062500
vt 0.000000 -0.062500
vt 0.500000 -0.062500
vt 0.562500 0.000000
vt 0.000000 0.000000
vt -0.062500 0.062500
vt 0.000000 0.000000
vt -0.250000 0.062500
vt -0.062500 0.000000
vt -0.250000 0.000000
vt 0.562500 0.000000
vt 0.500000 0.062500
vt 0.562500 0.062500
vt -0.062500 0.062500
vt 0.000000 -0.062500
vt -0.062500 0.000000
vt -0.062500 -0.062500
vt 0.000000 0.062500
vt 0.062500 0.062500
vt -0.187500 0.000000
vt -0.187500 -0.062500
vt 0.062500 0.562500
vt 0.000000 0.750000
vt 0.062500 0.750000
vt 0.062500 0.062500
vt 0.000000 0.000000
vt -0.062500 -0.062500
vt -0.187500 0.000000
vt -0.187500 -0.062500
vt 0.000000 0.000000
vt -0.062500 0.000000
vt 0.062500 0.062500
vt 0.062500 0.000000
vt 0.000000 0.062500
vt -0.062500 0.062500
vt 0.187500 0.000000
vt 0.187500 0.062500
vt -0.062500 0.562500
vt 0.000000 0.750000
vt -0.062500 0.750000
vt 0.062500 0.000000
vt 0.000000 -0.062500
vt 0.062500 -0.062500
vt 0.000000 -0.250000
vt 0.062500 -0.250000
vt -0.062500 -0.062500
vt 0.000000 -0.062500
vt 0.062500 -0.062500
vt -0.062500 -0.062500
vt 0.000000 0.000000
vt -0.062500 -0.062500
vt -0.187500 0.000000
vt -0.187500 -0.062500
vt 0.187500 0.000000
vt 0.187500 -0.062500
vt 0.562500 -0.062500
vt 0.500000 0.000000
vt 0.500000 -0.062500
vt -0.250000 0.000000
vt -0.250000 -0.062500
vt 0.562500 -0.062500
vt 0.750000 0.000000
vt 0.750000 -0.062500
vt -0.187500 -0.062500
vt -0.187500 0.062500
vt 0.312500 -0.062500
vt 0.187500 0.000000
vt 0.187500 -0.062500
vt 0.500000 -0.062500
vt 0.125000 0.000000
vt 0.500000 0.000000
vt 0.312500 -0.062500
vt 0.187500 -0.062500
vt -0.187500 -0.062500
vt 0.312500 0.062500
vt 0.187500 0.062500
vt -0.187500 0.750000
vt -0.062500 0.562500
vt -0.062500 0.750000
vt 0.187500 0.062500
vt 0.312500 0.000000
vt -0.187500 -0.062500
vt -0.062500 0.000000
vt -0.062500 -0.062500
vt 0.187500 0.750000
vt 0.187500 -0.062500
vt 0.062500 0.000000
vt 0.062500 -0.062500
vt 0.312500 0.750000
vt 0.187500 0.562500
vt 0.312500 0.000000
vt 0.312500 -0.062500
vt 0.187500 -0.062500
vt 0.250000 -0.062500
vt 0.250000 0.062500
vt 0.312500 -0.062500
vt 0.312500 0.562500
vt 0.312500 0.750000
vt -0.187500 -0.062500
vt -0.250000 0.000000
vt -0.250000 -0.062500
vt 0.187500 0.625000
vt 0.250000 0.250000
vt 0.250000 0.625000
vt 0.500000 0.000000
vt 0.125000 -0.062500
vt 0.500000 -0.062500
vt -0.187500 0.625000
vt -0.250000 0.250000
vt -0.250000 0.625000
vt 0.250000 0.625000
vt 0.187500 0.250000
vt 0.187500 0.625000
vt -0.250000 0.625000
vt -0.187500 0.250000
vt -0.187500 0.625000
vt 0.187500 0.125000
vt 0.250000 0.062500
vt 0.250000 0.125000
vt -0.250000 0.000000
vt -0.187500 -0.062500
vt -0.250000 -0.062500
vt 0.125000 0.000000
vt 0.062500 -0.062500
vt 0.125000 -0.062500
vt 0.125000 -0.062500
vt 0.062500 0.000000
vt 0.250000 0.125000
vt 0.187500 0.062500
vt 0.187500 0.125000
vt 0.250000 -0.062500
vt 0.187500 0.000000
vt 0.187500 -0.062500
vt 0.187500 0.062500
vt 0.250000 0.000000
vt 0.062500 -0.062500
vt 0.000000 0.000000
vt 0.250000 0.062500
vt 0.187500 0.000000
vt 0.062500 0.000000
vt 0.000000 -0.062500
vt 0.062500 -0.062500
vt -0.250000 0.000000
vt -0.187500 0.062500
vt -0.250000 0.062500
vt -0.250000 0.062500
vt -0.187500 0.000000
vt -0.250000 0.000000
vt -0.250000 -0.062500
vt -0.187500 0.000000
vt 0.312500 0.000000
vt 0.312500 -0.062500
vt 0.187500 -0.562500
vt 0.312500 -0.750000
vt 0.312500 -0.562500
vt 0.312500 -0.562500
vt 0.187500 -0.750000
vt 0.187500 -0.562500
vt 0.062500 -0.750000
vt 0.062500 -0.562500
vt -0.187500 -0.562500
vt -0.062500 -0.750000
vt -0.062500 -0.562500
vt -0.250000 -0.062500
vt -0.062500 0.000000
vt 0.750000 -0.062500
vt 0.562500 0.000000
vt 0.062500 0.750000
vt 0.000000 0.562500
vt 0.062500 0.562500
vt -0.062500 -0.250000
vt 0.000000 -0.062500
vt 0.062500 -0.250000
vt 0.000000 -0.062500
vt 0.750000 0.000000
vt -0.250000 0.000000
vt 0.000000 0.562500
vt -0.062500 0.562500
vt -0.250000 -0.062500
vt -0.062500 0.000000
vt 0.750000 -0.062500
vt 0.562500 0.000000
vt 0.562500 -0.062500
vt 0.062500 -0.562500
vt 0.187500 -0.750000
vt -0.062500 -0.562500
vt -0.187500 -0.750000
vt -0.187500 -0.562500
vt 0.062500 0.000000
vt 0.062500 0.562500
vt -0.062500 0.000000
vt 0.500000 0.062500
vt 0.500000 0.000000
vt 0.000000 0.062500
vt 0.500000 0.000000
vt 0.000000 0.000000
vt 0.000000 0.562500
vt 0.000000 0.062500
vt 0.000000 0.062500
vt 0.000000 0.562500
vt 0.562500 0.000000
vt 0.312500 0.000000
vt -0.187500 0.062500
vt 0.312500 0.000000
vt -0.187500 0.562500
vt 0.312500 0.062500
vt -0.187500 0.000000
vt 0.312500 0.562500
vt 0.312500 -0.062500
vt 0.312500 0.062500
vt -0.187500 0.000000
vt 0.187500 0.250000
vt 0.125000 0.000000
vt -0.187500 0.250000
vt 0.250000 0.250000
vt -0.250000 0.250000
vt -0.187500 0.000000
vt 0.062500 0.000000
vt 0.000000 -0.062500
vt 0.250000 0.000000
vt 0.000000 0.000000
vt -0.187500 0.062500
vt -0.187500 -0.062500
vt 0.312500 -0.750000
vt -0.187500 -0.750000
vt -0.250000 0.000000
vt 0.750000 0.000000
vt 0.000000 0.750000
vt 0.000000 -0.250000
vt 0.000000 -0.250000
vt 0.750000 0.062500
vt -0.250000 0.062500
vt 0.000000 0.750000
vt -0.250000 0.000000
vt 0.750000 0.000000
vt 0.062500 -0.750000
vt -0.062500 -0.750000
vn 0.0000 0.0000 1.0000
vn -1.0000 0.0000 0.0000
vn 0.0000 0.0000 -1.0000
vn 0.0000 -1.0000 0.0000
vn 0.0000 1.0000 0.0000
vn 1.0000 0.0000 0.0000
g pan_Cube.140_UV_steel
s off
f 9/1/1 30/2/1 10/3/1
f 2/4/1 65/5/1 62/6/1
f 22/7/2 41/8/2 20/9/2
f 14/10/3 48/11/3 32/12/3
f 95/13/4 51/14/4 106/15/4
f 94/16/5 62/17/5 108/18/5
f 54/19/1 11/20/1 53/21/1
f 3/22/4 29/23/4 9/1/4
f 4/24/2 101/25/2 94/26/2
f 3/22/4 63/27/4 61/28/4
f 64/29/3 13/30/3 70/31/3
f 5/32/4 55/33/4 51/34/4
f 26/35/6 104/36/6 100/37/6
f 7/38/4 97/39/4 95/40/4
f 98/41/2 17/42/2 97/43/2
f 19/44/2 22/45/2 20/46/2
f 18/47/2 23/48/2 17/42/2
f 15/49/3 24/50/3 16/51/3
f 11/20/4 19/52/4 7/38/4
f 32/53/6 45/54/6 26/35/6
f 5/32/4 23/55/4 15/49/4
f 12/56/1 21/57/1 11/20/1
f 100/58/6 27/59/6 99/60/6
f 25/61/6 32/62/6 26/63/6
f 28/64/6 29/23/6 27/59/6
f 24/65/3 39/66/3 16/67/3
f 13/30/4 25/68/4 1/69/4
f 16/67/3 60/70/3 56/71/3
f 1/72/4 99/73/4 93/74/4
f 14/75/3 31/76/3 13/30/3
f 35/77/5 59/78/5 57/79/5
f 35/77/5 43/80/5 38/81/5
f 33/82/5 48/11/5 40/83/5
f 39/66/5 42/84/5 36/85/5
f 33/82/5 66/86/5 65/87/5
f 36/88/5 103/89/5 102/90/5
f 37/91/5 46/92/5 34/93/5
f 34/93/5 104/94/5 101/95/5
f 12/96/1 43/80/1 22/7/1
f 30/97/1 37/91/1 10/98/1
f 28/99/6 47/100/6 30/97/6
f 8/101/3 57/102/3 50/103/3
f 10/98/1 72/104/1 69/105/1
f 18/106/2 44/107/2 24/108/2
f 20/9/2 103/109/2 98/110/2
f 6/111/6 102/112/6 96/113/6
f 54/114/1 38/81/1 12/96/1
f 58/115/5 39/66/5 36/85/5
f 50/116/3 71/117/3 67/118/3
f 64/119/6 76/120/6 66/121/6
f 57/122/5 72/104/5 71/123/5
f 16/51/3 55/33/3 15/49/3
f 49/124/4 11/20/4 7/38/4
f 51/125/4 70/31/4 68/126/4
f 105/127/5 6/128/5 96/129/5
f 69/130/1 53/131/1 63/27/1
f 52/132/1 36/133/1 6/134/1
f 107/135/4 1/72/4 93/74/4
f 10/3/1 63/27/1 9/1/1
f 68/126/4 13/30/4 1/69/4
f 64/136/3 40/83/3 14/10/3
f 71/123/5 37/91/5 34/93/5
f 67/118/3 34/137/3 4/138/3
f 106/139/4 68/140/4 107/135/4
f 69/105/1 59/141/1 54/142/1
f 65/5/5 66/143/5 78/144/5
f 77/145/3 64/29/3 70/31/3
f 61/28/4 53/131/4 49/146/4
f 108/18/5 52/147/5 105/148/5
f 73/149/3 80/150/3 79/151/3
f 66/152/5 80/153/5 78/154/5
f 60/155/2 73/156/2 56/157/2
f 56/158/4 79/159/4 77/160/4
f 77/161/4 75/162/4 64/163/4
f 78/164/5 74/165/5 60/166/5
f 76/167/5 83/168/5 80/169/5
f 83/170/1 89/171/1 81/172/1
f 80/173/2 81/174/2 79/175/2
f 75/176/6 84/177/6 76/120/6
f 79/178/4 82/179/4 75/180/4
f 85/181/3 88/182/3 86/183/3
f 84/184/5 87/185/5 83/168/5
f 82/186/6 88/187/6 84/177/6
f 81/188/4 86/189/4 82/179/4
f 90/190/2 91/191/2 89/192/2
f 87/193/5 90/194/5 83/195/5
f 81/196/4 91/197/4 85/198/4
f 85/199/3 92/200/3 87/193/3
f 62/6/1 58/201/1 52/202/1
f 67/203/5 105/204/5 50/205/5
f 49/206/4 107/207/4 61/208/4
f 61/208/4 93/209/4 3/210/4
f 50/211/5 96/212/5 8/213/5
f 96/214/6 35/215/6 8/101/6
f 98/216/2 42/217/2 18/106/2
f 101/218/5 45/219/5 33/220/5
f 102/221/5 41/222/5 35/77/5
f 93/223/4 27/224/4 3/22/4
f 26/63/6 99/225/6 25/61/6
f 20/46/2 97/226/2 19/44/2
f 95/13/4 17/227/4 5/228/4
f 100/229/6 46/230/6 28/99/6
f 94/231/2 33/232/2 2/233/2
f 4/234/5 108/235/5 67/203/5
f 7/236/4 106/237/4 49/238/4
f 9/1/1 29/23/1 30/2/1
f 2/4/1 33/239/1 65/5/1
f 22/7/2 43/80/2 41/8/2
f 14/10/3 40/83/3 48/11/3
f 95/13/4 5/228/4 51/14/4
f 94/16/5 2/240/5 62/17/5
f 54/19/1 12/56/1 11/20/1
f 3/22/4 27/224/4 29/23/4
f 4/24/2 34/241/2 101/25/2
f 3/22/4 9/1/4 63/27/4
f 64/29/3 14/75/3 13/30/3
f 5/32/4 15/49/4 55/33/4
f 26/35/6 45/54/6 104/36/6
f 7/38/4 19/52/4 97/39/4
f 98/41/2 18/47/2 17/42/2
f 19/44/2 21/57/2 22/45/2
f 18/47/2 24/242/2 23/48/2
f 15/49/3 23/55/3 24/50/3
f 11/20/4 21/57/4 19/52/4
f 32/53/6 48/243/6 45/54/6
f 5/32/4 17/244/4 23/55/4
f 12/56/1 22/45/1 21/57/1
f 100/58/6 28/64/6 27/59/6
f 25/61/6 31/245/6 32/62/6
f 28/64/6 30/2/6 29/23/6
f 24/65/3 44/246/3 39/66/3
f 13/30/4 31/76/4 25/68/4
f 16/67/3 39/66/3 60/70/3
f 1/72/4 25/247/4 99/73/4
f 14/75/3 32/248/3 31/76/3
f 35/77/5 38/81/5 59/78/5
f 35/77/5 41/222/5 43/80/5
f 33/82/5 45/249/5 48/11/5
f 39/66/5 44/246/5 42/84/5
f 33/82/5 40/83/5 66/86/5
f 36/88/5 42/250/5 103/89/5
f 37/91/5 47/100/5 46/92/5
f 34/93/5 46/92/5 104/94/5
f 12/96/1 38/81/1 43/80/1
f 30/97/1 47/100/1 37/91/1
f 28/99/6 46/230/6 47/100/6
f 8/101/3 35/215/3 57/102/3
f 10/98/1 37/91/1 72/104/1
f 18/106/2 42/217/2 44/107/2
f 20/9/2 41/8/2 103/109/2
f 6/111/6 36/251/6 102/112/6
f 54/114/1 59/78/1 38/81/1
f 58/115/5 60/70/5 39/66/5
f 50/116/3 57/252/3 71/117/3
f 64/119/6 75/176/6 76/120/6
f 57/122/5 59/141/5 72/104/5
f 16/51/3 56/253/3 55/33/3
f 49/124/4 53/21/4 11/20/4
f 51/125/4 55/254/4 70/31/4
f 105/127/5 52/255/5 6/128/5
f 69/130/1 54/256/1 53/131/1
f 52/132/1 58/257/1 36/133/1
f 107/135/4 68/140/4 1/72/4
f 10/3/1 69/130/1 63/27/1
f 68/126/4 70/31/4 13/30/4
f 64/136/3 66/86/3 40/83/3
f 71/123/5 72/104/5 37/91/5
f 67/118/3 71/117/3 34/137/3
f 106/139/4 51/258/4 68/140/4
f 69/105/1 72/104/1 59/141/1
f 60/259/5 58/201/5 78/144/5
f 58/201/5 65/5/5 78/144/5
f 70/31/3 55/254/3 77/145/3
f 55/254/3 56/260/3 77/145/3
f 61/28/4 63/27/4 53/131/4
f 108/18/5 62/17/5 52/147/5
f 73/149/3 74/261/3 80/150/3
f 66/152/5 76/262/5 80/153/5
f 60/155/2 74/263/2 73/156/2
f 56/158/4 73/264/4 79/159/4
f 77/161/4 79/265/4 75/162/4
f 78/164/5 80/266/5 74/165/5
f 76/167/5 84/184/5 83/168/5
f 83/170/1 90/267/1 89/171/1
f 80/173/2 83/268/2 81/174/2
f 75/176/6 82/186/6 84/177/6
f 79/178/4 81/188/4 82/179/4
f 85/181/3 87/185/3 88/182/3
f 84/184/5 88/182/5 87/185/5
f 82/186/6 86/269/6 88/187/6
f 81/188/4 85/270/4 86/189/4
f 90/190/2 92/271/2 91/191/2
f 87/193/5 92/200/5 90/194/5
f 81/196/4 89/272/4 91/197/4
f 85/199/3 91/273/3 92/200/3
f 62/6/1 65/5/1 58/201/1
f 67/203/5 108/235/5 105/204/5
f 49/206/4 106/274/4 107/207/4
f 61/208/4 107/207/4 93/209/4
f 50/211/5 105/275/5 96/212/5
f 96/214/6 102/276/6 35/215/6
f 98/216/2 103/277/2 42/217/2
f 101/218/5 104/278/5 45/219/5
f 102/221/5 103/279/5 41/222/5
f 93/223/4 99/280/4 27/224/4
f 26/63/6 100/281/6 99/225/6
f 20/46/2 98/282/2 97/226/2
f 95/13/4 97/283/4 17/227/4
f 100/229/6 104/284/6 46/230/6
f 94/231/2 101/285/2 33/232/2
f 4/234/5 94/286/5 108/235/5
f 7/236/4 95/287/4 106/237/4
