# Blender v3.5.0 OBJ File: 'models.blend'
# www.blender.org
o gas_street_lantern_Cube.125
v 0.125000 -0.500000 -0.125000
v 0.125000 -0.375000 -0.125000
v 0.125000 -0.500000 0.125000
v 0.125000 -0.375000 0.125000
v -0.125000 -0.500000 -0.125000
v -0.125000 -0.375000 -0.125000
v -0.125000 -0.500000 0.125000
v -0.125000 -0.375000 0.125000
v 0.187500 -0.375000 -0.187500
v 0.187500 -0.312500 -0.187500
v 0.187500 -0.375000 0.187500
v 0.187500 -0.312500 0.187500
v -0.187500 -0.375000 -0.187500
v -0.187500 -0.312500 -0.187500
v -0.187500 -0.375000 0.187500
v -0.187500 -0.312500 0.187500
v -0.250000 -0.375000 -0.187500
v -0.250000 -0.312500 -0.187500
v -0.250000 -0.375000 0.187500
v -0.250000 -0.312500 0.187500
v 0.250000 -0.375000 -0.187500
v 0.250000 -0.312500 -0.187500
v 0.250000 -0.375000 0.187500
v 0.250000 -0.312500 0.187500
v 0.187500 -0.375000 0.250000
v 0.187500 -0.312500 0.250000
v -0.187500 -0.375000 0.250000
v -0.187500 -0.312500 0.250000
v 0.187500 -0.375000 -0.250000
v 0.187500 -0.312500 -0.250000
v -0.187500 -0.375000 -0.250000
v -0.187500 -0.312500 -0.250000
v 0.187500 -0.312500 -0.187500
v -0.187500 -0.312500 -0.187500
v 0.187500 0.500000 -0.187500
v -0.187500 0.500000 -0.187500
v 0.187500 0.062500 0.000000
v 0.187500 0.062500 -0.187500
v 0.187500 0.062500 0.187500
v 0.187500 0.500000 0.000000
v 0.187500 -0.312500 0.000000
v 0.187500 0.500000 -0.187500
v 0.187500 0.500000 0.187500
v 0.187500 -0.312500 -0.187500
v 0.187500 -0.312500 0.187500
v -0.187500 -0.312500 0.187500
v 0.187500 -0.312500 0.187500
v -0.187500 0.500000 0.187500
v -0.187500 0.500000 -0.187500
v -0.187500 -0.312500 -0.187500
v 0.187500 0.500000 0.187500
v 0.187500 -0.312500 0.187500
v 0.125000 -0.437500 -0.125000
v 0.125000 -0.437500 0.125000
v -0.125000 -0.437500 0.125000
v -0.125000 -0.437500 -0.125000
v 0.125000 -0.500000 0.000000
v 0.125000 -0.375000 0.000000
v -0.125000 -0.500000 0.000000
v -0.125000 -0.375000 0.000000
v -0.125000 -0.437500 0.000000
v 0.125000 -0.437500 0.000000
v 0.000000 -0.500000 0.125000
v 0.000000 -0.375000 0.125000
v 0.000000 -0.500000 -0.125000
v 0.000000 -0.375000 -0.125000
v 0.000000 -0.437500 -0.125000
v 0.000000 -0.437500 0.125000
v 0.000000 -0.375000 0.000000
v 0.000000 -0.500000 0.000000
v 0.000000 -0.375000 0.187500
v 0.000000 -0.312500 0.187500
v 0.000000 -0.375000 -0.187500
v 0.000000 -0.312500 -0.187500
v 0.000000 -0.375000 0.250000
v 0.000000 -0.312500 0.250000
v 0.000000 -0.375000 -0.250000
v 0.000000 -0.312500 -0.250000
v 0.187500 -0.375000 0.000000
v 0.187500 -0.312500 0.000000
v -0.187500 -0.375000 0.000000
v -0.187500 -0.312500 0.000000
v -0.250000 -0.375000 0.000000
v -0.250000 -0.312500 0.000000
v 0.250000 -0.375000 0.000000
v 0.250000 -0.312500 0.000000
v 0.000000 -0.312500 0.000000
v 0.000000 -0.375000 0.000000
v 0.187500 0.500000 0.187500
v -0.000000 -0.312500 0.187500
v 0.000000 -0.312500 -0.187500
v 0.000000 0.500000 -0.187500
v -0.000000 0.500000 0.187500
v -0.187500 0.062500 0.187500
v 0.187500 0.062500 0.187500
v -0.000000 0.062500 0.187500
v -0.187500 0.062500 -0.000000
v -0.187500 0.062500 0.187500
v -0.187500 0.062500 -0.187500
v -0.187500 0.500000 -0.000000
v -0.187500 -0.312500 -0.000000
v -0.187500 0.500000 0.187500
v 0.187500 0.062500 -0.187500
v -0.187500 0.062500 -0.187500
v 0.000000 0.062500 -0.187500
v -0.187500 0.500000 -0.187500
v -0.187500 -0.312500 0.187500
v -0.187500 -0.312500 -0.187500
v -0.187500 0.500000 0.187500
v -0.187500 -0.312500 0.187500
v 0.187500 0.500000 -0.187500
v 0.187500 -0.312500 -0.187500
vt 0.500000 1.000000
vt 0.375000 0.937500
vt 0.500000 0.937500
vt 0.500000 1.000000
vt 0.625000 0.937500
vt 0.500000 0.937500
vt 0.500000 1.000000
vt 0.625000 0.937500
vt 0.500000 0.937500
vt 0.500000 1.000000
vt 0.375000 0.937500
vt 0.500000 0.937500
vt 1.000000 0.125000
vt 0.875000 0.000000
vt 0.875000 0.125000
vt 0.000000 0.125000
vt 0.125000 0.000000
vt 0.125000 0.125000
vt 0.062500 0.937500
vt 0.000000 0.750000
vt 0.062500 0.750000
vt 0.062500 -0.000000
vt -0.000000 0.062500
vt 0.062500 0.062500
vt 0.937500 0.062500
vt 1.000000 0.250000
vt 0.937500 0.250000
vt 0.937500 0.062500
vt 0.750000 0.000000
vt 0.750000 0.062500
vt 0.937500 0.250000
vt 0.750000 0.250000
vt 0.062500 0.250000
vt 0.250000 0.062500
vt 0.250000 0.250000
vt 0.500000 0.062500
vt 0.687500 -0.000000
vt 0.500000 -0.000000
vt 0.937500 1.000000
vt 1.000000 0.937500
vt 0.937500 0.937500
vt 0.937500 -0.000000
vt 1.000000 0.062500
vt 1.000000 0.750000
vt 0.937500 0.750000
vt 0.500000 1.000000
vt 0.312500 0.937500
vt 0.500000 0.937500
vt 0.062500 0.062500
vt 0.000000 0.250000
vt 0.062500 0.250000
vt 0.062500 0.937500
vt 0.000000 1.000000
vt 0.062500 1.000000
vt 0.062500 0.062500
vt 0.000000 -0.000000
vt 0.062500 -0.000000
vt 0.750000 1.000000
vt 0.937500 0.937500
vt 0.750000 0.937500
vt 0.250000 1.000000
vt 0.250000 0.937500
vt 0.937500 0.937500
vt 0.750000 0.937500
vt 0.312500 1.000000
vt 0.250000 0.937500
vt 0.312500 0.937500
vt 0.250000 0.062500
vt 0.062500 -0.000000
vt 0.250000 -0.000000
vt 0.250000 0.000000
vt 0.687500 0.062500
vt 0.750000 -0.000000
vt 0.687500 -0.000000
vt 0.937500 0.937500
vt 1.000000 1.000000
vt 0.937500 1.000000
vt 0.500000 0.062500
vt 0.375000 0.000000
vt 0.500000 0.000000
vt 0.500000 0.062500
vt 0.625000 0.000000
vt 0.500000 0.000000
vt 0.500000 0.062500
vt 0.625000 0.000000
vt 0.500000 0.000000
vt 0.500000 0.062500
vt 0.375000 0.000000
vt 0.500000 0.000000
vt 0.625000 0.062500
vt 0.625000 0.000000
vt 0.375000 0.062500
vt 0.375000 0.000000
vt 0.000000 1.000000
vt 0.125000 0.875000
vt 0.125000 1.000000
vt 1.000000 1.000000
vt 0.875000 0.875000
vt 0.875000 1.000000
vt 0.375000 1.000000
vt 0.375000 0.937500
vt 0.625000 1.000000
vt 0.625000 0.937500
vt 0.125000 1.000000
vt 0.000000 0.875000
vt 0.000000 1.000000
vt 0.875000 1.000000
vt 1.000000 0.875000
vt 1.000000 1.000000
vt 0.375000 0.062500
vt 0.625000 0.062500
vt 0.875000 0.125000
vt 1.000000 0.000000
vt 1.000000 0.125000
vt 0.125000 0.125000
vt 0.000000 0.000000
vt 0.000000 0.125000
vt 0.625000 1.000000
vt 0.375000 1.000000
vt 0.750000 0.062500
vt 0.937500 0.000000
vt 0.937500 0.062500
vt 0.937500 -0.000000
vt 0.250000 0.937500
vt 0.062500 1.000000
vt 0.750000 0.937500
vt 0.937500 1.000000
vt 0.250000 0.937500
vt 0.062500 0.937500
vt 0.750000 0.250000
vt 0.250000 0.250000
vt 0.250000 0.062500
vt 0.062500 0.750000
vt 0.937500 0.750000
vt 0.000000 0.937500
vt 0.687500 1.000000
vt 0.687500 0.937500
vt 1.000000 0.062500
vt 0.312500 0.062500
vt 0.312500 -0.000000
vt 0.250000 0.750000
vt 0.750000 0.750000
vt 1.000000 0.937500
vt 0.000000 0.062500
vt 0.625000 1.000000
vt 0.375000 1.000000
vt 1.000000 0.000000
vt 0.000000 0.000000
vt 0.000000 0.937500
vt -0.000000 -0.000000
vt 0.687500 0.062500
vt 1.000000 1.000000
vt 1.000000 -0.000000
vt 0.312500 1.000000
vt 0.000000 0.062500
vt 0.937500 1.000000
vt 0.062500 1.000000
vt 0.250000 1.000000
vt 0.062500 0.062500
vt 0.062500 0.000000
vt 0.750000 0.062500
vt 1.000000 0.937500
vt 0.375000 0.062500
vt 0.625000 0.062500
vt 0.000000 0.875000
vt 1.000000 0.875000
vt 0.125000 0.875000
vt 0.875000 0.875000
vt 0.875000 0.000000
vt 0.125000 0.000000
vt 0.750000 0.000000
vt 0.750000 0.062500
vt 0.250000 1.000000
vt 0.750000 1.000000
vt 0.250000 0.750000
vt 0.750000 0.750000
vt 0.000000 0.750000
vt 1.000000 0.250000
vt 1.000000 0.750000
vt 0.000000 0.250000
vt 1.000000 0.562500
vt 0.812500 1.000000
vt 0.812500 0.562500
vt 1.000000 0.562500
vt 0.812500 1.000000
vt 0.812500 0.562500
vt 1.000000 0.562500
vt 0.812500 1.000000
vt 0.812500 0.562500
vt 1.000000 0.562500
vt 0.812500 1.000000
vt 0.812500 0.562500
vt 0.187500 0.562500
vt -0.000000 1.000000
vt -0.000000 0.562500
vt 0.187500 0.562500
vt -0.000000 1.000000
vt -0.000000 0.562500
vt 0.187500 0.562500
vt -0.000000 1.000000
vt -0.000000 0.562500
vt 0.187500 0.562500
vt -0.000000 1.000000
vt -0.000000 0.562500
vt 0.187500 0.000000
vt -0.000000 0.375000
vt -0.000000 0.000000
vt 1.000000 0.000000
vt 0.812500 0.375000
vt 0.812500 0.000000
vt 1.000000 0.000000
vt 0.812500 0.375000
vt 0.812500 0.000000
vt 0.187500 0.000000
vt -0.000000 0.375000
vt -0.000000 0.000000
vt 0.187500 0.000000
vt -0.000000 0.375000
vt -0.000000 0.000000
vt 1.000000 0.000000
vt 0.812500 0.375000
vt 0.812500 0.000000
vt 1.000000 0.000000
vt 0.812500 0.375000
vt 0.812500 0.000000
vt 0.187500 0.000000
vt -0.000000 0.375000
vt -0.000000 0.000000
vt 1.000000 1.000000
vt 1.000000 1.000000
vt 1.000000 1.000000
vt 1.000000 1.000000
vt 0.187500 1.000000
vt 0.187500 1.000000
vt 0.187500 1.000000
vt 0.187500 1.000000
vt 0.187500 0.375000
vt 1.000000 0.375000
vt 1.000000 0.375000
vt 0.187500 0.375000
vt 0.187500 0.375000
vt 1.000000 0.375000
vt 1.000000 0.375000
vt 0.187500 0.375000
vt 0.687500 0.062500
vt 0.312500 0.875000
vt 0.687500 0.875000
vt 0.687500 0.062500
vt 0.312500 0.875000
vt 0.687500 0.875000
vt 0.312500 0.062500
vt 0.312500 0.062500
vn 1.0000 0.0000 0.0000
vn 0.0000 0.0000 1.0000
vn -1.0000 0.0000 0.0000
vn 0.0000 0.0000 -1.0000
vn 0.0000 -1.0000 0.0000
vn 0.0000 1.0000 0.0000
vn -0.7071 -0.0000 0.7071
vn 0.7071 -0.0000 0.7071
g gas_street_lantern_Cube.125_UV_steel
s off
f 58/1/1 54/2/1 62/3/1
f 64/4/2 55/5/2 68/6/2
f 60/7/3 56/8/3 61/9/3
f 66/10/4 53/11/4 67/12/4
f 59/13/5 65/14/5 70/15/5
f 58/16/6 66/17/6 69/18/6
f 12/19/6 86/20/6 80/21/6
f 15/22/3 28/23/3 16/24/3
f 14/25/6 84/26/6 82/27/6
f 13/28/5 77/29/5 73/30/5
f 81/31/5 73/30/5 88/32/5
f 80/33/6 74/34/6 87/35/6
f 84/36/3 17/37/3 83/38/3
f 16/39/2 19/40/2 15/41/2
f 13/42/4 18/43/4 14/25/4
f 15/41/5 83/44/5 81/45/5
f 86/46/1 23/47/1 85/48/1
f 9/49/5 85/50/5 79/51/5
f 11/52/2 24/53/2 12/54/2
f 10/55/4 21/56/4 9/57/4
f 76/58/2 27/59/2 75/60/2
f 11/52/5 75/61/5 71/62/5
f 16/63/6 76/58/6 72/64/6
f 12/65/1 25/66/1 11/67/1
f 78/68/4 29/69/4 77/70/4
f 10/55/6 78/71/6 74/34/6
f 14/72/3 31/73/3 13/74/3
f 9/75/1 30/76/1 10/77/1
f 67/78/4 1/79/4 65/80/4
f 61/81/3 5/82/3 59/83/3
f 68/84/2 7/85/2 63/86/2
f 62/87/1 3/88/1 57/89/1
f 53/90/1 57/89/1 1/91/1
f 55/92/3 59/83/3 7/93/3
f 4/94/6 69/95/6 64/96/6
f 7/97/5 70/98/5 63/99/5
f 8/100/3 61/9/3 55/101/3
f 2/102/1 62/3/1 53/103/1
f 63/104/5 57/105/5 3/106/5
f 64/107/6 60/108/6 8/109/6
f 54/110/2 63/86/2 3/88/2
f 56/111/4 65/80/4 5/82/4
f 69/112/6 6/113/6 60/114/6
f 70/115/5 1/116/5 57/117/5
f 6/118/4 67/12/4 56/8/4
f 4/119/2 68/6/2 54/2/2
f 74/120/6 32/121/6 14/25/6
f 32/122/4 77/29/4 31/123/4
f 72/124/6 26/125/6 12/19/6
f 71/126/5 27/127/5 15/41/5
f 26/125/2 75/128/2 25/129/2
f 87/130/6 14/25/6 82/27/6
f 88/131/5 9/49/5 79/51/5
f 73/132/5 29/69/5 9/49/5
f 71/62/5 79/133/5 11/52/5
f 72/64/6 82/134/6 16/63/6
f 79/133/5 23/135/5 11/52/5
f 22/136/1 85/48/1 21/137/1
f 81/31/5 17/138/5 13/28/5
f 20/139/3 83/38/3 19/140/3
f 12/19/6 87/141/6 72/124/6
f 15/41/5 88/142/5 71/126/5
f 82/134/6 20/143/6 16/63/6
f 80/33/6 22/144/6 10/55/6
f 58/1/1 4/119/1 54/2/1
f 64/4/2 8/145/2 55/5/2
f 60/7/3 6/118/3 56/8/3
f 66/10/4 2/146/4 53/11/4
f 59/13/5 5/147/5 65/14/5
f 58/16/6 2/148/6 66/17/6
f 12/19/6 24/149/6 86/20/6
f 15/22/3 27/150/3 28/23/3
f 14/25/6 18/43/6 84/26/6
f 13/28/5 31/123/5 77/29/5
f 81/31/5 13/28/5 73/30/5
f 80/33/6 10/55/6 74/34/6
f 84/36/3 18/151/3 17/37/3
f 16/39/2 20/152/2 19/40/2
f 13/42/4 17/153/4 18/43/4
f 15/41/5 19/40/5 83/44/5
f 86/46/1 24/154/1 23/47/1
f 9/49/5 21/155/5 85/50/5
f 11/52/2 23/135/2 24/53/2
f 10/55/4 22/144/4 21/56/4
f 76/58/2 28/156/2 27/59/2
f 11/52/5 25/157/5 75/61/5
f 16/63/6 28/156/6 76/58/6
f 12/65/1 26/158/1 25/66/1
f 78/68/4 30/159/4 29/69/4
f 10/55/6 30/160/6 78/71/6
f 14/72/3 32/161/3 31/73/3
f 9/75/1 29/162/1 30/76/1
f 67/78/4 53/163/4 1/79/4
f 61/81/3 56/111/3 5/82/3
f 68/84/2 55/164/2 7/85/2
f 62/87/1 54/110/1 3/88/1
f 53/90/1 62/87/1 57/89/1
f 55/92/3 61/81/3 59/83/3
f 4/94/6 58/165/6 69/95/6
f 7/97/5 59/166/5 70/98/5
f 8/100/3 60/7/3 61/9/3
f 2/102/1 58/1/1 62/3/1
f 63/104/5 70/167/5 57/105/5
f 64/107/6 69/168/6 60/108/6
f 54/110/2 68/84/2 63/86/2
f 56/111/4 67/78/4 65/80/4
f 69/112/6 66/169/6 6/113/6
f 70/115/5 65/170/5 1/116/5
f 6/118/4 66/10/4 67/12/4
f 4/119/2 64/4/2 68/6/2
f 74/120/6 78/171/6 32/121/6
f 32/122/4 78/172/4 77/29/4
f 72/124/6 76/173/6 26/125/6
f 71/126/5 75/174/5 27/127/5
f 26/125/2 76/173/2 75/128/2
f 87/130/6 74/120/6 14/25/6
f 88/131/5 73/132/5 9/49/5
f 73/132/5 77/70/5 29/69/5
f 71/62/5 88/175/5 79/133/5
f 72/64/6 87/176/6 82/134/6
f 79/133/5 85/177/5 23/135/5
f 22/136/1 86/46/1 85/48/1
f 81/31/5 83/178/5 17/138/5
f 20/139/3 84/36/3 83/38/3
f 12/19/6 80/21/6 87/141/6
f 15/41/5 81/45/5 88/142/5
f 82/134/6 84/179/6 20/143/6
f 80/33/6 86/180/6 22/144/6
g gas_street_lantern_Cube.125_UV_glass
f 104/181/4 92/182/4 105/183/4
f 38/184/1 40/185/1 37/186/1
f 95/187/2 93/188/2 96/189/2
f 98/190/3 100/191/3 97/192/3
f 97/193/3 106/194/3 99/195/3
f 105/196/4 35/197/4 103/198/4
f 37/199/1 43/200/1 39/201/1
f 96/202/2 48/203/2 94/204/2
f 90/205/2 94/206/2 46/207/2
f 47/208/2 96/209/2 90/210/2
f 44/211/1 37/212/1 41/213/1
f 41/214/1 39/215/1 45/216/1
f 91/217/4 103/218/4 33/219/4
f 34/220/4 105/221/4 91/222/4
f 107/223/3 97/224/3 101/225/3
f 101/226/3 99/227/3 108/228/3
f 104/181/4 36/229/4 92/182/4
f 38/184/1 42/230/1 40/185/1
f 95/187/2 89/231/2 93/188/2
f 98/190/3 102/232/3 100/191/3
f 97/193/3 100/233/3 106/194/3
f 105/196/4 92/234/4 35/197/4
f 37/199/1 40/235/1 43/200/1
f 96/202/2 93/236/2 48/203/2
f 90/205/2 96/237/2 94/206/2
f 47/208/2 95/238/2 96/209/2
f 44/211/1 38/239/1 37/212/1
f 41/214/1 37/240/1 39/215/1
f 91/217/4 105/241/4 103/218/4
f 34/220/4 104/242/4 105/221/4
f 107/223/3 98/243/3 97/224/3
f 101/226/3 97/244/3 99/227/3
g gas_street_lantern_Cube.125_UV_TEST
f 50/245/7 51/246/7 49/247/7
f 110/248/8 111/249/8 109/250/8
f 50/245/7 52/251/7 51/246/7
f 110/248/8 112/252/8 111/249/8
