# Blender v3.3.0 OBJ File: 'models.blend'
# www.blender.org
o cabinet_half_Cube.049
v 0.500000 0.500000 -0.375000
v 0.500000 0.500000 0.500000
v -0.500000 0.500000 -0.375000
v -0.500000 0.500000 0.500000
v 0.500000 0.375000 -0.375000
v 0.500000 0.375000 0.500000
v -0.500000 0.375000 0.500000
v -0.500000 0.375000 -0.375000
v 0.500000 0.500000 -0.437500
v -0.500000 0.500000 -0.437500
v 0.500000 0.375000 -0.437500
v -0.500000 0.375000 -0.437500
v 0.437500 0.062500 -0.437500
v 0.437500 0.312500 -0.437500
v 0.437500 0.062500 -0.375000
v 0.437500 0.312500 -0.375000
v -0.437500 0.062500 -0.437500
v -0.437500 0.312500 -0.437500
v -0.437500 0.062500 -0.375000
v -0.437500 0.312500 -0.375000
v 0.125000 0.187500 -0.500000
v 0.125000 0.250000 -0.500000
v 0.125000 0.187500 -0.437500
v 0.125000 0.250000 -0.437500
v -0.125000 0.187500 -0.500000
v -0.125000 0.250000 -0.500000
v -0.125000 0.187500 -0.437500
v -0.125000 0.250000 -0.437500
v 0.437500 0.187500 -0.437500
v 0.437500 0.187500 -0.375000
v -0.437500 0.187500 -0.375000
v -0.437500 0.187500 -0.437500
v 0.000000 0.062500 -0.375000
v 0.000000 0.312500 -0.375000
v 0.000000 0.062500 -0.437500
v 0.000000 0.312500 -0.437500
v 0.000000 0.187500 -0.437500
v 0.000000 0.187500 -0.375000
v 0.500000 0.437500 -0.375000
v 0.500000 0.437500 0.500000
v -0.500000 0.437500 0.500000
v -0.500000 0.437500 -0.375000
v 0.500000 0.437500 -0.437500
v -0.500000 0.437500 -0.437500
v 0.500000 0.500000 0.062500
v -0.500000 0.500000 0.062500
v -0.500000 0.375000 0.062500
v 0.500000 0.375000 0.062500
v -0.500000 0.437500 0.062500
v 0.500000 0.437500 0.062500
v -0.500000 0.000000 0.500000
v -0.500000 0.000000 0.062500
v 0.500000 -0.125000 -0.375000
v 0.500000 -0.125000 0.500000
v -0.500000 -0.125000 -0.375000
v -0.500000 -0.125000 0.500000
v 0.500000 0.000000 -0.375000
v 0.500000 0.000000 0.500000
v -0.500000 0.000000 -0.375000
v 0.500000 -0.125000 -0.437500
v -0.500000 -0.125000 -0.437500
v 0.500000 0.000000 -0.437500
v -0.500000 0.000000 -0.437500
v 0.500000 -0.062500 -0.375000
v 0.500000 -0.062500 0.500000
v -0.500000 -0.062500 0.500000
v -0.500000 -0.062500 -0.375000
v 0.500000 -0.062500 -0.437500
v -0.500000 -0.062500 -0.437500
v 0.500000 -0.125000 0.062500
v -0.500000 -0.125000 0.062500
v 0.500000 0.000000 0.062500
v -0.500000 -0.062500 0.062500
v 0.500000 -0.062500 0.062500
v -0.500000 0.187500 0.500000
v -0.500000 0.187500 0.062500
v 0.500000 0.187500 -0.375000
v 0.500000 0.187500 0.500000
v -0.500000 0.187500 -0.375000
v 0.500000 0.187500 0.062500
vt 0.479167 1.000000
vt 0.333333 0.979167
vt 0.479167 0.979167
vt 0.333333 1.000000
vt 0.666667 0.979167
vt 0.520833 1.000000
vt 0.666667 0.979167
vt 0.520833 0.979167
vt 0.645833 0.979167
vt 0.666667 0.958333
vt 0.645833 0.958333
vt 0.333333 0.833333
vt 0.666667 0.687500
vt 0.666667 0.833333
vt 0.666667 0.916667
vt 0.333333 0.854167
vt 0.666667 0.854167
vt 0.520833 0.958333
vt 0.666667 0.895833
vt 0.520833 0.895833
vt 0.333333 0.958333
vt 0.666667 0.895833
vt 0.333333 0.895833
vt 0.479167 0.958333
vt 0.479167 0.895833
vt 0.666667 0.687500
vt 0.333333 0.666667
vt 0.666667 0.666667
vt 0.333333 0.687500
vt 0.666667 0.666667
vt 0.666667 0.687500
vt 0.333333 0.666667
vt 0.333333 0.687500
vt 0.645833 0.937500
vt 0.666667 0.958333
vt 0.645833 0.958333
vt 0.354167 0.937500
vt 0.333333 0.895833
vt 0.354167 0.895833
vt 0.500000 0.937500
vt 0.645833 0.895833
vt 0.500000 0.895833
vt 0.645833 0.937500
vt 0.666667 0.895833
vt 0.479167 1.000000
vt 0.333333 0.958333
vt 0.479167 0.958333
vt 0.645833 0.687500
vt 0.500000 0.666667
vt 0.500000 0.687500
vt 0.354167 1.000000
vt 0.500000 0.979167
vt 0.500000 1.000000
vt 0.666667 0.916667
vt 0.645833 0.895833
vt 0.666667 0.895833
vt 0.458333 0.916667
vt 0.541667 0.895833
vt 0.458333 0.895833
vt 0.645833 0.916667
vt 0.666667 0.895833
vt 0.645833 0.895833
vt 0.541667 0.687500
vt 0.458333 0.666667
vt 0.541667 0.666667
vt 0.541667 0.687500
vt 0.458333 0.687500
vt 0.458333 0.687500
vt 0.541667 0.666667
vt 0.541667 0.687500
vt 0.479167 0.708333
vt 0.333333 0.666667
vt 0.479167 0.666667
vt 0.666667 0.854167
vt 0.645833 0.854167
vt 0.500000 0.854167
vt 0.333333 0.854167
vt 0.354167 0.854167
vt 0.354167 0.895833
vt 0.354167 0.854167
vt 0.666667 0.708333
vt 0.520833 0.666667
vt 0.666667 0.666667
vt 0.645833 0.979167
vt 0.645833 1.000000
vt 0.354167 0.666667
vt 0.354167 0.687500
vt 0.666667 1.000000
vt 0.520833 0.958333
vt 0.666667 0.958333
vt 0.354167 0.937500
vt 0.666667 0.979167
vt 0.645833 0.979167
vt 0.645833 1.000000
vt 0.645833 0.666667
vt 0.666667 0.937500
vt 0.645833 0.937500
vt 0.666667 0.958333
vt 0.666667 0.958333
vt 0.666667 0.979167
vt 0.520833 0.958333
vt 0.666667 0.958333
vt 0.333333 0.979167
vt 0.479167 0.958333
vt 0.333333 0.958333
vt 0.520833 0.895833
vt 0.666667 0.895833
vt 0.479167 0.895833
vt 0.333333 0.895833
vt 0.666667 0.854167
vt 0.666667 1.000000
vt 0.375000 1.000000
vt 0.375000 0.979167
vt 0.666667 1.000000
vt 0.520833 0.979167
vt 0.333333 0.979167
vt 0.479167 1.000000
vt 0.479167 0.979167
vt 0.666667 0.979167
vt 0.333333 1.000000
vt 0.666667 0.979167
vt 0.520833 1.000000
vt 0.520833 0.979167
vt 0.666667 0.958333
vt 0.645833 0.979167
vt 0.645833 0.958333
vt 0.666667 0.687500
vt 0.333333 0.833333
vt 0.666667 0.833333
vt 0.333333 0.666667
vt 0.666667 0.687500
vt 0.666667 0.666667
vt 0.666667 0.666667
vt 0.333333 0.687500
vt 0.333333 0.666667
vt 0.666667 0.687500
vt 0.333333 0.687500
vt 0.666667 0.958333
vt 0.645833 0.937500
vt 0.645833 0.958333
vt 0.666667 0.979167
vt 0.645833 0.979167
vt 0.645833 1.000000
vt 0.645833 0.666667
vt 0.666667 0.937500
vt 0.645833 0.937500
vt 0.520833 0.708333
vt 0.520833 0.687500
vt 0.666667 0.687500
vt 0.333333 0.708333
vt 0.333333 0.687500
vt 0.479167 0.708333
vt 0.479167 0.687500
vt 0.520833 0.687500
vt 0.666667 0.708333
vt 0.666667 0.687500
vt 0.479167 0.687500
vt 0.333333 0.708333
vt 0.333333 0.687500
vt 0.666667 0.854167
vt 0.666667 1.000000
vt 0.375000 1.000000
vt 0.375000 0.979167
vt 0.520833 0.979167
vt 0.666667 1.000000
vt 0.666667 0.979167
vt 0.333333 0.770833
vt 0.479167 0.708333
vt 0.333333 0.708333
vt 0.666667 0.770833
vt 0.520833 0.708333
vt 0.666667 0.708333
vt 0.479167 0.770833
vt 0.333333 0.708333
vt 0.479167 0.708333
vt 0.333333 0.770833
vt 0.666667 0.708333
vt 0.520833 0.770833
vt 0.666667 0.708333
vt 0.520833 0.708333
vt 0.333333 0.833333
vt 0.666667 0.833333
vt 0.666667 1.000000
vt 0.666667 0.979167
vt 0.333333 0.916667
vt 0.333333 0.687500
vt 0.333333 0.666667
vt 0.666667 0.666667
vt 0.666667 0.937500
vt 0.333333 0.937500
vt 0.666667 0.937500
vt 0.333333 1.000000
vt 0.645833 0.666667
vt 0.354167 0.979167
vt 0.645833 0.916667
vt 0.541667 0.916667
vt 0.666667 0.916667
vt 0.458333 0.687500
vt 0.458333 0.666667
vt 0.333333 0.708333
vt 0.520833 0.708333
vt 0.520833 1.000000
vt 0.666667 1.000000
vt 0.479167 0.979167
vt 0.333333 0.854167
vt 0.520833 1.000000
vt 0.666667 1.000000
vt 0.666667 0.979167
vt 0.333333 0.687500
vt 0.333333 0.666667
vt 0.666667 0.666667
vt 0.666667 0.937500
vt 0.666667 1.000000
vt 0.666667 0.708333
vt 0.666667 0.708333
vt 0.520833 0.708333
vt 0.479167 0.708333
vt 0.333333 0.854167
vt 0.520833 1.000000
vt 0.479167 0.770833
vt 0.520833 0.770833
vt 0.666667 0.770833
vt 0.666667 0.770833
vt 0.333333 0.895833
vn 1.0000 0.0000 0.0000
vn 0.0000 0.0000 1.0000
vn -1.0000 0.0000 0.0000
vn 0.0000 1.0000 0.0000
vn 0.0000 0.0000 -1.0000
vn 0.0000 -1.0000 0.0000
g cabinet_half_Cube.049_UV_TEST
s off
f 45/1/1 40/2/1 50/3/1
f 2/4/2 41/5/2 40/2/2
f 46/6/3 42/7/3 49/8/3
f 3/9/3 44/10/3 42/11/3
f 45/12/4 3/13/4 46/14/4
f 8/15/5 77/16/5 79/17/5
f 47/18/3 79/19/3 76/20/3
f 6/21/2 75/22/2 78/23/2
f 48/24/1 78/23/1 80/25/1
f 10/26/5 43/27/5 44/28/5
f 1/29/4 10/30/4 3/13/4
f 8/31/6 11/32/6 5/33/6
f 5/34/1 43/35/1 39/36/1
f 14/37/1 30/38/1 29/39/1
f 34/40/2 31/41/2 38/42/2
f 20/43/3 32/44/3 31/41/3
f 36/45/5 29/46/5 37/47/5
f 19/48/6 35/49/6 33/50/6
f 16/51/4 36/52/4 34/53/4
f 22/54/1 23/55/1 21/56/1
f 24/57/2 27/58/2 23/59/2
f 28/60/3 25/61/3 27/62/3
f 26/63/5 21/64/5 25/65/5
f 27/66/6 21/64/6 23/67/6
f 24/68/4 26/69/4 28/70/4
f 37/71/5 13/72/5 35/73/5
f 31/41/3 17/74/3 19/75/3
f 38/42/2 19/75/2 33/76/2
f 29/39/1 15/77/1 13/78/1
f 30/79/2 33/76/2 15/80/2
f 32/81/5 35/82/5 17/83/5
f 34/53/4 18/84/4 20/85/4
f 33/50/6 13/86/6 15/87/6
f 18/88/5 37/89/5 32/90/5
f 16/91/2 38/42/2 30/79/2
f 39/36/1 9/92/1 1/93/1
f 44/28/5 11/94/5 12/95/5
f 42/11/3 12/96/3 8/97/3
f 49/8/3 8/98/3 47/18/3
f 40/2/2 7/99/2 6/21/2
f 50/3/1 6/21/1 48/24/1
f 39/100/1 48/101/1 5/102/1
f 41/103/3 47/104/3 7/105/3
f 5/102/1 80/106/1 77/107/1
f 7/105/3 76/108/3 75/109/3
f 2/4/4 46/110/4 4/111/4
f 4/112/3 49/8/3 41/113/3
f 1/114/1 50/115/1 39/100/1
f 65/116/1 70/117/1 74/118/1
f 66/119/2 54/120/2 65/116/2
f 67/121/3 71/122/3 73/123/3
f 69/124/3 55/125/3 67/126/3
f 55/127/6 70/128/6 71/129/6
f 68/130/5 61/131/5 69/132/5
f 61/133/6 53/134/6 55/127/6
f 62/135/4 59/136/4 57/137/4
f 68/138/1 57/139/1 64/140/1
f 60/141/1 64/140/1 53/142/1
f 62/143/5 69/132/5 63/144/5
f 63/145/3 67/126/3 59/146/3
f 59/136/3 73/147/3 52/148/3
f 51/149/2 65/150/2 58/151/2
f 58/151/1 74/152/1 72/153/1
f 72/154/1 64/155/1 57/156/1
f 52/157/3 66/158/3 51/159/3
f 71/160/6 54/120/6 56/161/6
f 73/123/3 56/162/3 66/163/3
f 74/164/1 53/165/1 64/166/1
f 75/167/3 52/168/3 51/169/3
f 77/170/1 72/171/1 57/172/1
f 80/173/1 58/174/1 72/175/1
f 78/176/2 51/177/2 58/174/2
f 76/178/3 59/179/3 52/180/3
f 79/19/5 57/181/5 59/182/5
f 45/1/1 2/4/1 40/2/1
f 2/4/2 4/111/2 41/5/2
f 46/6/3 3/183/3 42/7/3
f 3/9/3 10/184/3 44/10/3
f 45/12/4 1/29/4 3/13/4
f 8/15/5 5/185/5 77/16/5
f 47/18/3 8/98/3 79/19/3
f 6/21/2 7/99/2 75/22/2
f 48/24/1 6/21/1 78/23/1
f 10/26/5 9/186/5 43/27/5
f 1/29/4 9/187/4 10/30/4
f 8/31/6 12/188/6 11/32/6
f 5/34/1 11/189/1 43/35/1
f 14/37/1 16/190/1 30/38/1
f 34/40/2 20/43/2 31/41/2
f 20/43/3 18/191/3 32/44/3
f 36/45/5 14/192/5 29/46/5
f 19/48/6 17/193/6 35/49/6
f 16/51/4 14/194/4 36/52/4
f 22/54/1 24/195/1 23/55/1
f 24/57/2 28/196/2 27/58/2
f 28/60/3 26/197/3 25/61/3
f 26/63/5 22/198/5 21/64/5
f 27/66/6 25/65/6 21/64/6
f 24/68/4 22/199/4 26/69/4
f 37/71/5 29/200/5 13/72/5
f 31/41/3 32/44/3 17/74/3
f 38/42/2 31/41/2 19/75/2
f 29/39/1 30/38/1 15/77/1
f 30/79/2 38/42/2 33/76/2
f 32/81/5 37/201/5 35/82/5
f 34/53/4 36/52/4 18/84/4
f 33/50/6 35/49/6 13/86/6
f 18/88/5 36/202/5 37/89/5
f 16/91/2 34/40/2 38/42/2
f 39/36/1 43/35/1 9/92/1
f 44/28/5 43/203/5 11/94/5
f 42/11/3 44/10/3 12/96/3
f 49/8/3 42/7/3 8/98/3
f 40/2/2 41/5/2 7/99/2
f 50/3/1 40/2/1 6/21/1
f 39/100/1 50/115/1 48/101/1
f 41/103/3 49/204/3 47/104/3
f 5/102/1 48/101/1 80/106/1
f 7/105/3 47/104/3 76/108/3
f 2/4/4 45/205/4 46/110/4
f 4/112/3 46/6/3 49/8/3
f 1/114/1 45/206/1 50/115/1
f 65/116/1 54/120/1 70/117/1
f 66/119/2 56/161/2 54/120/2
f 67/121/3 55/207/3 71/122/3
f 69/124/3 61/208/3 55/125/3
f 55/127/6 53/134/6 70/128/6
f 68/130/5 60/209/5 61/131/5
f 61/133/6 60/210/6 53/134/6
f 62/135/4 63/211/4 59/136/4
f 68/138/1 62/212/1 57/139/1
f 60/141/1 68/138/1 64/140/1
f 62/143/5 68/213/5 69/132/5
f 63/145/3 69/124/3 67/126/3
f 59/136/3 67/214/3 73/147/3
f 51/149/2 66/215/2 65/150/2
f 58/151/1 65/150/1 74/152/1
f 72/154/1 74/216/1 64/155/1
f 52/157/3 73/217/3 66/158/3
f 71/160/6 70/218/6 54/120/6
f 73/123/3 71/122/3 56/162/3
f 74/164/1 70/219/1 53/165/1
f 75/167/3 76/220/3 52/168/3
f 77/170/1 80/221/1 72/171/1
f 80/173/1 78/176/1 58/174/1
f 78/176/2 75/222/2 51/177/2
f 76/178/3 79/223/3 59/179/3
f 79/19/5 77/224/5 57/181/5
