# Blender v3.3.0 OBJ File: ''
# www.blender.org
o cabinet_half_Cube.049
v 0.500000 0.500000 0.062500
v 0.500000 0.437500 0.500000
v 0.500000 0.437500 0.062500
v 0.500000 0.500000 0.500000
v -0.500000 0.437500 0.500000
v -0.500000 0.500000 0.062500
v -0.500000 0.437500 -0.375000
v -0.500000 0.437500 0.062500
v -0.500000 0.500000 -0.375000
v -0.500000 0.437500 -0.437500
v -0.500000 0.375000 -0.375000
v 0.500000 0.187500 -0.375000
v -0.500000 0.187500 -0.375000
v -0.500000 0.375000 0.062500
v -0.500000 0.187500 0.062500
v 0.500000 0.375000 0.500000
v -0.500000 0.187500 0.500000
v 0.500000 0.187500 0.500000
v 0.500000 0.375000 0.062500
v 0.500000 0.187500 0.062500
v -0.500000 0.500000 -0.437500
v 0.500000 0.437500 -0.437500
v 0.500000 0.500000 -0.375000
v 0.500000 0.375000 -0.437500
v 0.500000 0.375000 -0.375000
v 0.500000 0.437500 -0.375000
v 0.437500 0.312500 -0.437500
v 0.437500 0.187500 -0.375000
v 0.437500 0.187500 -0.437500
v -0.000000 0.312500 -0.375000
v -0.437500 0.187500 -0.375000
v -0.000000 0.187500 -0.375000
v -0.437500 0.312500 -0.375000
v -0.437500 0.187500 -0.437500
v -0.000000 0.312500 -0.437500
v -0.000000 0.187500 -0.437500
v -0.437500 0.062500 -0.375000
v -0.000000 0.062500 -0.437500
v -0.000000 0.062500 -0.375000
v 0.437500 0.312500 -0.375000
v 0.125000 0.250000 -0.500000
v 0.125000 0.187500 -0.437500
v 0.125000 0.187500 -0.500000
v 0.125000 0.250000 -0.437500
v -0.125000 0.187500 -0.437500
v -0.125000 0.250000 -0.437500
v -0.125000 0.187500 -0.500000
v -0.125000 0.250000 -0.500000
v 0.437500 0.062500 -0.437500
v -0.437500 0.062500 -0.437500
v 0.437500 0.062500 -0.375000
v -0.437500 0.312500 -0.437500
v 0.500000 0.500000 -0.437500
v -0.500000 0.375000 -0.437500
v -0.500000 0.375000 0.500000
v -0.500000 0.500000 0.500000
v 0.500000 -0.062500 0.500000
v 0.500000 -0.125000 0.062500
v 0.500000 -0.062500 0.062500
v -0.500000 -0.062500 0.500000
v 0.500000 -0.125000 0.500000
v -0.500000 -0.062500 -0.375000
v -0.500000 -0.125000 0.062500
v -0.500000 -0.062500 0.062500
v -0.500000 -0.062500 -0.437500
v -0.500000 -0.125000 -0.375000
v 0.500000 -0.062500 -0.437500
v -0.500000 -0.125000 -0.437500
v 0.500000 -0.125000 -0.375000
v 0.500000 0.000000 -0.437500
v -0.500000 0.000000 -0.375000
v 0.500000 0.000000 -0.375000
v 0.500000 -0.062500 -0.375000
v 0.500000 -0.125000 -0.437500
v -0.500000 0.000000 -0.437500
v -0.500000 -0.000000 0.062500
v -0.500000 -0.000000 0.500000
v 0.500000 -0.000000 0.500000
v 0.500000 -0.000000 0.062500
v -0.500000 -0.125000 0.500000
vt 0.437501 1.000000
vt -0.000001 0.937501
vt 0.437501 0.937501
vt -0.000001 1.000000
vt 1.000001 0.937501
vt 0.562499 1.000000
vt 1.000001 0.937501
vt 0.562499 0.937501
vt 0.937499 0.937501
vt 1.000001 0.874999
vt 0.937499 0.874999
vt -0.000001 0.499999
vt 1.000001 0.062500
vt 1.000001 0.499999
vt 1.000001 0.750001
vt -0.000001 0.562501
vt 1.000001 0.562501
vt 0.562499 0.874999
vt 1.000001 0.687499
vt 0.562499 0.687499
vt -0.000001 0.874999
vt 1.000001 0.687499
vt -0.000001 0.687499
vt 0.437501 0.874999
vt 0.437501 0.687499
vt 1.000001 0.062500
vt -0.000001 0.000001
vt 1.000001 0.000001
vt -0.000001 0.062500
vt 1.000001 0.000001
vt 1.000001 0.062500
vt -0.000001 0.000001
vt -0.000001 0.062500
vt 0.937499 0.812500
vt 1.000001 0.874999
vt 0.937499 0.874999
vt 0.062501 0.812500
vt -0.000001 0.687499
vt 0.062501 0.687499
vt 0.500000 0.812500
vt 0.937499 0.687499
vt 0.500000 0.687499
vt 0.937499 0.812500
vt 1.000001 0.687499
vt 0.437501 1.000000
vt -0.000001 0.874999
vt 0.437501 0.874999
vt 0.937499 0.062500
vt 0.500000 0.000001
vt 0.500000 0.062500
vt 0.062501 1.000000
vt 0.500000 0.937501
vt 0.500000 1.000000
vt 1.000001 0.750001
vt 0.937499 0.687499
vt 1.000001 0.687499
vt 0.374999 0.750001
vt 0.625001 0.687499
vt 0.374999 0.687499
vt 0.937499 0.750001
vt 1.000001 0.687499
vt 0.937499 0.687499
vt 0.625001 0.062500
vt 0.374999 0.000001
vt 0.625001 0.000001
vt 0.625001 0.062500
vt 0.374999 0.062500
vt 0.374999 0.062500
vt 0.625001 0.000001
vt 0.625001 0.062500
vt 0.437501 0.124999
vt -0.000001 0.000001
vt 0.437501 0.000001
vt 1.000001 0.562501
vt 0.937499 0.562501
vt 0.500000 0.562501
vt -0.000001 0.562501
vt 0.062501 0.562501
vt 0.062501 0.687499
vt 0.062501 0.562501
vt 1.000001 0.124999
vt 0.562499 0.000001
vt 1.000001 0.000001
vt 0.937499 0.937501
vt 0.937499 1.000000
vt 0.062501 0.000001
vt 0.062501 0.062500
vt 1.000001 1.000000
vt 0.562499 0.874999
vt 1.000001 0.874999
vt 0.062501 0.812500
vt 1.000001 0.937501
vt 0.937499 0.937501
vt 0.937499 1.000000
vt 0.937499 0.000001
vt 1.000001 0.812500
vt 0.937499 0.812500
vt 1.000001 0.874999
vt 1.000001 0.874999
vt 1.000001 0.937501
vt 0.562499 0.874999
vt 1.000001 0.874999
vt -0.000001 0.937501
vt 0.437501 0.874999
vt -0.000001 0.874999
vt 0.562499 0.687499
vt 1.000001 0.687499
vt 0.437501 0.687499
vt -0.000001 0.687499
vt 1.000001 0.562501
vt 1.000001 1.000000
vt 0.125000 1.000000
vt 0.125000 0.937501
vt 1.000001 1.000000
vt 0.562499 0.937501
vt -0.000001 0.937501
vt 0.437501 1.000000
vt 0.437501 0.937501
vt 1.000001 0.937501
vt -0.000001 1.000000
vt 1.000001 0.937501
vt 0.562499 1.000000
vt 0.562499 0.937501
vt 1.000001 0.874999
vt 0.937499 0.937501
vt 0.937499 0.874999
vt 1.000001 0.062500
vt -0.000001 0.499999
vt 1.000001 0.499999
vt -0.000001 0.000001
vt 1.000001 0.062500
vt 1.000001 0.000001
vt 1.000001 0.000001
vt -0.000001 0.062500
vt -0.000001 0.000001
vt 1.000001 0.062500
vt -0.000001 0.062500
vt 1.000001 0.874999
vt 0.937499 0.812500
vt 0.937499 0.874999
vt 1.000001 0.937501
vt 0.937499 0.937501
vt 0.937499 1.000000
vt 0.937499 0.000001
vt 1.000001 0.812500
vt 0.937499 0.812500
vt 0.562499 0.124999
vt 0.562499 0.062500
vt 1.000001 0.062500
vt -0.000001 0.124999
vt -0.000001 0.062500
vt 0.437501 0.124999
vt 0.437501 0.062500
vt 0.562499 0.062500
vt 1.000001 0.124999
vt 1.000001 0.062500
vt 0.437501 0.062500
vt -0.000001 0.124999
vt -0.000001 0.062500
vt 1.000001 0.562501
vt 1.000001 1.000000
vt 0.125000 1.000000
vt 0.125000 0.937501
vt 0.562499 0.937501
vt 1.000001 1.000000
vt 1.000001 0.937501
vt -0.000001 0.312499
vt 0.437501 0.124999
vt -0.000001 0.124999
vt 1.000001 0.312499
vt 0.562499 0.124999
vt 1.000001 0.124999
vt 0.437501 0.312499
vt -0.000001 0.124999
vt 0.437501 0.124999
vt -0.000001 0.312499
vt 1.000001 0.124999
vt 0.562499 0.312499
vt 1.000001 0.124999
vt 0.562499 0.124999
vt -0.000001 0.499999
vt 1.000001 0.499999
vt 1.000001 1.000000
vt 1.000001 0.937501
vt -0.000001 0.750001
vt -0.000001 0.062500
vt -0.000001 0.000001
vt 1.000001 0.000001
vt 1.000001 0.812500
vt -0.000001 0.812500
vt 1.000001 0.812500
vt -0.000001 1.000000
vt 0.937499 0.000001
vt 0.062501 0.937501
vt 0.937499 0.750001
vt 0.625001 0.750001
vt 1.000001 0.750001
vt 0.374999 0.062500
vt 0.374999 0.000001
vt -0.000001 0.124999
vt 0.562499 0.124999
vt 0.562499 1.000000
vt 1.000001 1.000000
vt 0.437501 0.937501
vt -0.000001 0.562501
vt 0.562499 1.000000
vt 1.000001 1.000000
vt 1.000001 0.937501
vt -0.000001 0.062500
vt -0.000001 0.000001
vt 1.000001 0.000001
vt 1.000001 0.812500
vt 1.000001 1.000000
vt 1.000001 0.124999
vt 1.000001 0.124999
vt 0.562499 0.124999
vt 0.437501 0.124999
vt -0.000001 0.562501
vt 0.562499 1.000000
vt 0.437501 0.312499
vt 0.562499 0.312499
vt 1.000001 0.312499
vt 1.000001 0.312499
vt -0.000001 0.687499
vn 1.0000 0.0000 -0.0000
vn 0.0000 0.0000 1.0000
vn -1.0000 -0.0000 0.0000
vn 0.0000 1.0000 0.0000
vn -0.0000 0.0000 -1.0000
vn 0.0000 -1.0000 0.0000
g cabinet_half_Cube.049_cabinet_half_Cube.049_Default_OBJ.008
s 1
f 1/1/1 2/2/1 3/3/1
f 4/4/2 5/5/2 2/2/2
f 6/6/3 7/7/3 8/8/3
f 9/9/3 10/10/3 7/11/3
f 1/12/4 9/13/4 6/14/4
f 11/15/5 12/16/5 13/17/5
f 14/18/3 13/19/3 15/20/3
f 16/21/2 17/22/2 18/23/2
f 19/24/1 18/23/1 20/25/1
f 21/26/5 22/27/5 10/28/5
f 23/29/4 21/30/4 9/13/4
f 11/31/6 24/32/6 25/33/6
f 25/34/1 22/35/1 26/36/1
f 27/37/1 28/38/1 29/39/1
f 30/40/2 31/41/2 32/42/2
f 33/43/3 34/44/3 31/41/3
f 35/45/5 29/46/5 36/47/5
f 37/48/6 38/49/6 39/50/6
f 40/51/4 35/52/4 30/53/4
f 41/54/1 42/55/1 43/56/1
f 44/57/2 45/58/2 42/59/2
f 46/60/3 47/61/3 45/62/3
f 48/63/5 43/64/5 47/65/5
f 45/66/6 43/64/6 42/67/6
f 44/68/4 48/69/4 46/70/4
f 36/71/5 49/72/5 38/73/5
f 31/41/3 50/74/3 37/75/3
f 32/42/2 37/75/2 39/76/2
f 29/39/1 51/77/1 49/78/1
f 28/79/2 39/76/2 51/80/2
f 34/81/5 38/82/5 50/83/5
f 30/53/4 52/84/4 33/85/4
f 39/50/6 49/86/6 51/87/6
f 52/88/5 36/89/5 34/90/5
f 40/91/2 32/42/2 28/79/2
f 26/36/1 53/92/1 23/93/1
f 10/28/5 24/94/5 54/95/5
f 7/11/3 54/96/3 11/97/3
f 8/8/3 11/98/3 14/18/3
f 2/2/2 55/99/2 16/21/2
f 3/3/1 16/21/1 19/24/1
f 26/100/1 19/101/1 25/102/1
f 5/103/3 14/104/3 55/105/3
f 25/102/1 20/106/1 12/107/1
f 55/105/3 15/108/3 17/109/3
f 4/4/4 6/110/4 56/111/4
f 56/112/3 8/8/3 5/113/3
f 23/114/1 3/115/1 26/100/1
f 57/116/1 58/117/1 59/118/1
f 60/119/2 61/120/2 57/116/2
f 62/121/3 63/122/3 64/123/3
f 65/124/3 66/125/3 62/126/3
f 66/127/6 58/128/6 63/129/6
f 67/130/5 68/131/5 65/132/5
f 68/133/6 69/134/6 66/127/6
f 70/135/4 71/136/4 72/137/4
f 67/138/1 72/139/1 73/140/1
f 74/141/1 73/140/1 69/142/1
f 70/143/5 65/132/5 75/144/5
f 75/145/3 62/126/3 71/146/3
f 71/136/3 64/147/3 76/148/3
f 77/149/2 57/150/2 78/151/2
f 78/151/1 59/152/1 79/153/1
f 79/154/1 73/155/1 72/156/1
f 76/157/3 60/158/3 77/159/3
f 63/160/6 61/120/6 80/161/6
f 64/123/3 80/162/3 60/163/3
f 59/164/1 69/165/1 73/166/1
f 17/167/3 76/168/3 77/169/3
f 12/170/1 79/171/1 72/172/1
f 20/173/1 78/174/1 79/175/1
f 18/176/2 77/177/2 78/174/2
f 15/178/3 71/179/3 76/180/3
f 13/19/5 72/181/5 71/182/5
f 1/1/1 4/4/1 2/2/1
f 4/4/2 56/111/2 5/5/2
f 6/6/3 9/183/3 7/7/3
f 9/9/3 21/184/3 10/10/3
f 1/12/4 23/29/4 9/13/4
f 11/15/5 25/185/5 12/16/5
f 14/18/3 11/98/3 13/19/3
f 16/21/2 55/99/2 17/22/2
f 19/24/1 16/21/1 18/23/1
f 21/26/5 53/186/5 22/27/5
f 23/29/4 53/187/4 21/30/4
f 11/31/6 54/188/6 24/32/6
f 25/34/1 24/189/1 22/35/1
f 27/37/1 40/190/1 28/38/1
f 30/40/2 33/43/2 31/41/2
f 33/43/3 52/191/3 34/44/3
f 35/45/5 27/192/5 29/46/5
f 37/48/6 50/193/6 38/49/6
f 40/51/4 27/194/4 35/52/4
f 41/54/1 44/195/1 42/55/1
f 44/57/2 46/196/2 45/58/2
f 46/60/3 48/197/3 47/61/3
f 48/63/5 41/198/5 43/64/5
f 45/66/6 47/65/6 43/64/6
f 44/68/4 41/199/4 48/69/4
f 36/71/5 29/200/5 49/72/5
f 31/41/3 34/44/3 50/74/3
f 32/42/2 31/41/2 37/75/2
f 29/39/1 28/38/1 51/77/1
f 28/79/2 32/42/2 39/76/2
f 34/81/5 36/201/5 38/82/5
f 30/53/4 35/52/4 52/84/4
f 39/50/6 38/49/6 49/86/6
f 52/88/5 35/202/5 36/89/5
f 40/91/2 30/40/2 32/42/2
f 26/36/1 22/35/1 53/92/1
f 10/28/5 22/203/5 24/94/5
f 7/11/3 10/10/3 54/96/3
f 8/8/3 7/7/3 11/98/3
f 2/2/2 5/5/2 55/99/2
f 3/3/1 2/2/1 16/21/1
f 26/100/1 3/115/1 19/101/1
f 5/103/3 8/204/3 14/104/3
f 25/102/1 19/101/1 20/106/1
f 55/105/3 14/104/3 15/108/3
f 4/4/4 1/205/4 6/110/4
f 56/112/3 6/6/3 8/8/3
f 23/114/1 1/206/1 3/115/1
f 57/116/1 61/120/1 58/117/1
f 60/119/2 80/161/2 61/120/2
f 62/121/3 66/207/3 63/122/3
f 65/124/3 68/208/3 66/125/3
f 66/127/6 69/134/6 58/128/6
f 67/130/5 74/209/5 68/131/5
f 68/133/6 74/210/6 69/134/6
f 70/135/4 75/211/4 71/136/4
f 67/138/1 70/212/1 72/139/1
f 74/141/1 67/138/1 73/140/1
f 70/143/5 67/213/5 65/132/5
f 75/145/3 65/124/3 62/126/3
f 71/136/3 62/214/3 64/147/3
f 77/149/2 60/215/2 57/150/2
f 78/151/1 57/150/1 59/152/1
f 79/154/1 59/216/1 73/155/1
f 76/157/3 64/217/3 60/158/3
f 63/160/6 58/218/6 61/120/6
f 64/123/3 63/122/3 80/162/3
f 59/164/1 58/219/1 69/165/1
f 17/167/3 15/220/3 76/168/3
f 12/170/1 20/221/1 79/171/1
f 20/173/1 18/176/1 78/174/1
f 18/176/2 17/222/2 77/177/2
f 15/178/3 13/223/3 71/179/3
f 13/19/5 12/224/5 72/181/5
