# Blender v3.3.0 OBJ File: 'models.blend'
# www.blender.org
o Cube.001_Cube.050
v 0.250000 -0.437500 0.437500
v 0.250000 0.437500 0.437500
v 0.250000 -0.437500 0.500000
v 0.250000 0.437500 0.500000
v -0.250000 -0.437500 0.437500
v -0.250000 0.437500 0.437500
v -0.250000 -0.437500 0.500000
v -0.250000 0.437500 0.500000
v -0.187500 -0.437500 0.500000
v -0.187500 0.437500 0.500000
v -0.187500 -0.437500 0.437500
v -0.187500 0.437500 0.437500
v 0.187500 -0.437500 0.500000
v 0.187500 0.437500 0.437500
v 0.187500 0.437500 0.500000
v 0.187500 -0.437500 0.437500
v 0.250000 -0.375000 0.437500
v 0.250000 -0.375000 0.500000
v -0.250000 -0.375000 0.500000
v -0.250000 -0.375000 0.437500
v -0.187500 -0.375000 0.437500
v -0.187500 -0.375000 0.500000
v 0.187500 -0.375000 0.500000
v 0.187500 -0.375000 0.437500
v 0.250000 0.375000 0.437500
v 0.250000 0.375000 0.500000
v -0.250000 0.375000 0.500000
v -0.250000 0.375000 0.437500
v -0.187500 0.375000 0.437500
v -0.187500 0.375000 0.500000
v 0.187500 0.375000 0.500000
v 0.187500 0.375000 0.437500
v 0.250000 0.375000 0.375000
v 0.250000 0.437500 0.375000
v -0.250000 -0.375000 0.375000
v -0.250000 -0.437500 0.375000
v -0.187500 -0.437500 0.375000
v 0.187500 0.437500 0.375000
v 0.187500 -0.437500 0.375000
v -0.250000 0.437500 0.375000
v -0.187500 0.437500 0.375000
v -0.187500 -0.375000 0.375000
v 0.250000 -0.437500 0.375000
v 0.187500 -0.375000 0.375000
v 0.250000 -0.375000 0.375000
v -0.250000 0.375000 0.375000
v -0.187500 0.375000 0.375000
v 0.187500 0.375000 0.375000
v 0.000000 0.437500 0.500000
v 0.000000 -0.437500 0.437500
v 0.000000 -0.437500 0.500000
v 0.000000 0.437500 0.437500
v 0.000000 -0.375000 0.437500
v 0.000000 -0.375000 0.500000
v 0.000000 0.375000 0.437500
v 0.000000 0.375000 0.500000
v 0.000000 -0.437500 0.375000
v 0.000000 0.437500 0.375000
v 0.000000 -0.375000 0.375000
v 0.000000 0.375000 0.375000
v 0.250000 0.000000 0.500000
v -0.250000 0.000000 0.500000
v -0.250000 0.000000 0.437500
v -0.187500 0.000000 0.437500
v -0.187500 0.000000 0.500000
v 0.187500 0.000000 0.500000
v 0.187500 0.000000 0.437500
v 0.250000 0.000000 0.437500
v -0.250000 0.000000 0.375000
v -0.187500 0.000000 0.375000
v 0.187500 0.000000 0.375000
v 0.250000 0.000000 0.375000
v 0.000000 0.000000 0.437500
v 0.000000 0.000000 0.500000
vt 0.354167 0.979167
vt 0.333333 0.958333
vt 0.354167 0.958333
vt 0.645833 1.000000
vt 0.666667 0.979167
vt 0.645833 0.979167
vt 0.333333 0.979167
vt 0.354167 0.958333
vt 0.333333 0.958333
vt 0.645833 0.979167
vt 0.666667 1.000000
vt 0.645833 1.000000
vt 0.583333 1.000000
vt 0.562500 0.979167
vt 0.562500 1.000000
vt 0.416667 1.000000
vt 0.437500 0.979167
vt 0.437500 1.000000
vt 0.666667 0.979167
vt 0.666667 1.000000
vt 0.500000 0.979167
vt 0.500000 1.000000
vt 0.354167 0.687500
vt 0.333333 0.666667
vt 0.333333 0.687500
vt 0.583333 1.000000
vt 0.583333 0.979167
vt 0.333333 1.000000
vt 0.354167 0.979167
vt 0.333333 0.979167
vt 0.437500 1.000000
vt 0.416667 0.979167
vt 0.416667 1.000000
vt 0.500000 0.979167
vt 0.500000 1.000000
vt 0.645833 0.687500
vt 0.666667 0.666667
vt 0.666667 0.687500
vt 0.562500 0.687500
vt 0.500000 0.666667
vt 0.500000 0.687500
vt 0.333333 0.687500
vt 0.354167 0.666667
vt 0.333333 0.666667
vt 0.583333 0.687500
vt 0.645833 0.666667
vt 0.583333 0.666667
vt 0.645833 0.708333
vt 0.666667 0.833333
vt 0.645833 0.833333
vt 0.562500 0.687500
vt 0.500000 0.666667
vt 0.500000 0.687500
vt 0.333333 0.708333
vt 0.354167 0.687500
vt 0.333333 0.687500
vt 0.645833 0.687500
vt 0.666667 0.666667
vt 0.354167 0.708333
vt 0.333333 0.687500
vt 0.354167 0.687500
vt 0.354167 0.854167
vt 0.333333 0.854167
vt 0.437500 1.000000
vt 0.500000 0.979167
vt 0.500000 1.000000
vt 0.437500 0.687500
vt 0.500000 0.666667
vt 0.500000 0.687500
vt 0.354167 0.833333
vt 0.333333 0.833333
vt 0.666667 0.854167
vt 0.645833 0.854167
vt 0.333333 0.833333
vt 0.354167 0.833333
vt 0.354167 1.000000
vt 0.333333 0.979167
vt 0.354167 0.979167
vt 0.666667 1.000000
vt 0.645833 0.979167
vt 0.666667 0.979167
vt 0.416667 1.000000
vt 0.416667 0.979167
vt 0.416667 0.687500
vt 0.354167 0.666667
vt 0.416667 0.666667
vt 0.666667 0.687500
vt 0.645833 0.666667
vt 0.666667 0.666667
vt 0.354167 0.687500
vt 0.645833 0.854167
vt 0.666667 0.854167
vt 0.333333 0.854167
vt 0.354167 0.854167
vt 0.645833 0.958333
vt 0.666667 0.833333
vt 0.645833 0.833333
vt 0.645833 0.708333
vt 0.666667 0.687500
vt 0.645833 0.687500
vt 0.333333 0.708333
vt 0.354167 0.833333
vt 0.333333 0.833333
vt 0.645833 1.000000
vt 0.645833 0.979167
vt 0.666667 0.687500
vt 0.645833 0.687500
vt 0.333333 0.687500
vt 0.354167 0.666667
vt 0.354167 0.687500
vt 0.645833 0.958333
vt 0.666667 0.833333
vt 0.645833 0.833333
vt 0.645833 0.687500
vt 0.666667 0.708333
vt 0.416667 0.979167
vt 0.416667 0.854167
vt 0.583333 0.854167
vt 0.645833 0.687500
vt 0.583333 0.666667
vt 0.645833 1.000000
vt 0.583333 0.979167
vt 0.562500 0.666667
vt 0.562500 0.687500
vt 0.562500 0.979167
vt 0.562500 1.000000
vt 0.437500 0.666667
vt 0.437500 0.687500
vt 0.354167 0.687500
vt 0.416667 0.666667
vt 0.437500 0.666667
vt 0.437500 0.687500
vt 0.562500 0.979167
vt 0.562500 1.000000
vt 0.354167 1.000000
vt 0.437500 0.979167
vt 0.645833 0.812500
vt 0.416667 0.812500
vt 0.416667 0.687500
vt 0.666667 0.708333
vt 0.645833 0.708333
vt 0.354167 0.958333
vt 0.333333 0.958333
vt 0.666667 0.708333
vt 0.354167 0.812500
vt 0.333333 0.687500
vt 0.666667 0.812500
vt 0.333333 0.708333
vt 0.666667 0.687500
vt 0.354167 0.708333
vt 0.333333 0.812500
vt 0.666667 0.958333
vt 0.645833 0.958333
vt 0.333333 0.979167
vt 0.354167 0.979167
vt 0.666667 0.979167
vt 0.583333 0.979167
vt 0.416667 0.979167
vt 0.645833 0.979167
vt 0.645833 0.666667
vt 0.562500 0.666667
vt 0.562500 0.666667
vt 0.437500 0.979167
vt 0.437500 0.666667
vt 0.333333 1.000000
vt 0.666667 0.958333
vt 0.354167 0.708333
vt 0.333333 0.666667
vt 0.666667 0.958333
vt 0.666667 0.687500
vt 0.583333 0.687500
vt 0.583333 1.000000
vt 0.416667 1.000000
vt 0.583333 0.812500
vt 0.354167 0.812500
vt 0.333333 0.812500
vt 0.645833 0.812500
vt 0.666667 0.812500
vt 0.500000 0.875000
vt 0.312500 0.500000
vt 0.500000 0.500000
vt 0.687500 0.875000
vt 0.687500 0.500000
vt 0.500000 0.125000
vt 0.687500 0.125000
vt 0.312500 0.125000
vt 0.312500 0.875000
vn 1.0000 0.0000 0.0000
vn 0.0000 0.0000 1.0000
vn -1.0000 0.0000 0.0000
vn 0.0000 -1.0000 0.0000
vn 0.0000 1.0000 0.0000
vn 0.0000 0.0000 -1.0000
g Cube.001_Cube.050_UV_TEST
s off
f 2/1/1 26/2/1 25/3/1
f 10/4/2 27/5/2 30/6/2
f 8/7/3 28/8/3 27/9/3
f 25/10/1 34/11/1 2/12/1
f 7/13/4 11/14/4 9/15/4
f 4/16/5 14/17/5 15/18/5
f 10/4/5 6/19/5 8/20/5
f 9/15/4 50/21/4 51/22/4
f 16/23/4 43/24/4 1/25/4
f 49/26/2 30/6/2 56/27/2
f 4/28/2 31/29/2 26/30/2
f 13/31/4 1/32/4 3/33/4
f 15/18/5 52/34/5 49/35/5
f 12/36/5 40/37/5 6/38/5
f 29/39/4 60/40/4 55/41/4
f 18/42/2 13/43/2 3/44/2
f 54/45/2 9/46/2 51/47/2
f 17/48/1 72/49/1 68/50/1
f 11/51/4 57/52/4 50/53/4
f 19/54/3 5/55/3 7/56/3
f 22/57/2 7/58/2 9/46/2
f 17/59/1 3/60/1 1/61/1
f 26/30/2 66/62/2 61/63/2
f 24/64/5 59/65/5 53/66/5
f 14/67/5 58/68/5 52/69/5
f 27/9/3 63/70/3 62/71/3
f 30/6/2 62/72/2 65/73/2
f 25/3/1 61/74/1 68/75/1
f 38/76/6 33/77/6 48/78/6
f 40/79/6 47/80/6 46/81/6
f 58/82/6 48/78/6 60/83/6
f 59/84/6 39/85/6 57/86/6
f 35/87/6 37/88/6 36/89/6
f 44/90/6 43/24/6 39/85/6
f 46/81/6 70/91/6 69/92/6
f 48/78/6 72/93/6 71/94/6
f 28/95/3 69/96/3 63/97/3
f 20/98/3 36/99/3 5/100/3
f 21/101/1 70/102/1 64/103/1
f 6/104/3 46/81/3 28/105/3
f 5/106/4 37/88/4 11/107/4
f 2/108/5 38/109/5 14/110/5
f 32/111/3 71/112/3 67/113/3
f 1/114/1 45/115/1 17/48/1
f 66/62/2 56/116/2 74/117/2
f 74/118/2 30/6/2 65/73/2
f 42/119/6 57/120/6 37/88/6
f 41/121/6 60/122/6 47/80/6
f 52/69/5 41/123/5 12/124/5
f 53/66/5 42/125/5 21/126/5
f 50/53/4 39/127/4 16/128/4
f 23/129/2 51/130/2 13/43/2
f 55/41/4 48/131/4 32/132/4
f 49/35/5 12/133/5 10/134/5
f 15/135/2 56/116/2 31/29/2
f 51/22/4 16/136/4 13/31/4
f 54/45/2 65/137/2 22/57/2
f 23/129/2 74/138/2 54/139/2
f 67/113/3 44/140/3 24/141/3
f 64/103/1 47/142/1 29/143/1
f 63/97/3 35/144/3 20/98/3
f 71/145/6 45/146/6 44/90/6
f 69/147/6 42/119/6 35/87/6
f 68/75/1 18/148/1 17/59/1
f 65/137/2 19/149/2 22/57/2
f 62/71/3 20/150/3 19/54/3
f 61/151/2 23/129/2 18/42/2
f 68/50/1 33/152/1 25/153/1
f 2/1/1 4/154/1 26/2/1
f 10/4/2 8/20/2 27/5/2
f 8/7/3 6/155/3 28/8/3
f 25/10/1 33/156/1 34/11/1
f 7/13/4 5/157/4 11/14/4
f 4/16/5 2/158/5 14/17/5
f 10/4/5 12/159/5 6/19/5
f 9/15/4 11/14/4 50/21/4
f 16/23/4 39/85/4 43/24/4
f 49/26/2 10/4/2 30/6/2
f 4/28/2 15/135/2 31/29/2
f 13/31/4 16/136/4 1/32/4
f 15/18/5 14/17/5 52/34/5
f 12/36/5 41/160/5 40/37/5
f 29/39/4 47/161/4 60/40/4
f 18/42/2 23/129/2 13/43/2
f 54/45/2 22/57/2 9/46/2
f 17/48/1 45/115/1 72/49/1
f 11/51/4 37/162/4 57/52/4
f 19/54/3 20/150/3 5/55/3
f 22/57/2 19/149/2 7/58/2
f 17/59/1 18/148/1 3/60/1
f 26/30/2 31/29/2 66/62/2
f 24/64/5 44/163/5 59/65/5
f 14/67/5 38/164/5 58/68/5
f 27/9/3 28/8/3 63/70/3
f 30/6/2 27/5/2 62/72/2
f 25/3/1 26/2/1 61/74/1
f 38/76/6 34/165/6 33/77/6
f 40/79/6 41/121/6 47/80/6
f 58/82/6 38/76/6 48/78/6
f 59/84/6 44/90/6 39/85/6
f 35/87/6 42/119/6 37/88/6
f 44/90/6 45/146/6 43/24/6
f 46/81/6 47/80/6 70/91/6
f 48/78/6 33/77/6 72/93/6
f 28/95/3 46/166/3 69/96/3
f 20/98/3 35/144/3 36/99/3
f 21/101/1 42/167/1 70/102/1
f 6/104/3 40/79/3 46/81/3
f 5/106/4 36/89/4 37/88/4
f 2/108/5 34/168/5 38/109/5
f 32/111/3 48/169/3 71/112/3
f 1/114/1 43/170/1 45/115/1
f 66/62/2 31/29/2 56/116/2
f 74/118/2 56/27/2 30/6/2
f 42/119/6 59/171/6 57/120/6
f 41/121/6 58/172/6 60/122/6
f 52/69/5 58/68/5 41/123/5
f 53/66/5 59/65/5 42/125/5
f 50/53/4 57/52/4 39/127/4
f 23/129/2 54/139/2 51/130/2
f 55/41/4 60/40/4 48/131/4
f 49/35/5 52/34/5 12/133/5
f 15/135/2 49/173/2 56/116/2
f 51/22/4 50/21/4 16/136/4
f 54/45/2 74/174/2 65/137/2
f 23/129/2 66/175/2 74/138/2
f 67/113/3 71/112/3 44/140/3
f 64/103/1 70/102/1 47/142/1
f 63/97/3 69/96/3 35/144/3
f 71/145/6 72/176/6 45/146/6
f 69/147/6 70/177/6 42/119/6
f 68/75/1 61/74/1 18/148/1
f 65/137/2 62/178/2 19/149/2
f 62/71/3 63/70/3 20/150/3
f 61/151/2 66/175/2 23/129/2
f 68/50/1 72/49/1 33/152/1
g Cube.001_Cube.050_UV_TEST.001
f 55/179/6 67/180/6 73/181/6
f 29/182/6 73/181/6 64/183/6
f 64/183/6 53/184/6 21/185/6
f 73/181/6 24/186/6 53/184/6
f 55/179/6 32/187/6 67/180/6
f 29/182/6 55/179/6 73/181/6
f 64/183/6 73/181/6 53/184/6
f 73/181/6 67/180/6 24/186/6
