# Blender v3.4.0 OBJ File: 'models.blend'
# www.blender.org
o pipe_small_corner_Cube.102
v -0.125000 0.062500 0.062500
v -0.125000 0.062500 0.125000
v -0.125000 -0.062500 0.062500
v -0.125000 -0.062500 0.125000
v -0.500000 0.062500 0.062500
v -0.500000 0.062500 0.125000
v -0.500000 -0.062500 0.062500
v -0.500000 -0.062500 0.125000
v -0.125000 -0.125000 -0.062500
v -0.500000 -0.125000 -0.062500
v -0.500000 -0.125000 0.062500
v -0.125000 -0.125000 0.062500
v -0.125000 0.125000 -0.062500
v -0.500000 0.125000 -0.062500
v -0.500000 0.125000 0.062500
v -0.125000 0.125000 0.062500
v -0.125000 0.062500 -0.125000
v -0.125000 -0.062500 -0.125000
v -0.500000 0.062500 -0.125000
v -0.500000 -0.062500 -0.125000
v -0.500000 -0.062500 -0.062500
v -0.500000 0.062500 -0.062500
v -0.125000 -0.062500 -0.062500
v -0.125000 0.062500 -0.062500
v -0.062500 0.062500 0.062500
v -0.062500 0.062500 0.125000
v -0.062500 -0.062500 0.062500
v -0.062500 -0.062500 0.125000
v -0.062500 -0.125000 -0.062500
v -0.062500 -0.125000 0.062500
v -0.062500 0.125000 -0.062500
v -0.062500 0.125000 0.062500
v -0.062500 -0.062500 -0.062500
v -0.062500 0.062500 -0.062500
v -0.125000 0.062500 -0.500000
v -0.125000 -0.062500 -0.500000
v 0.062500 0.062500 0.062500
v 0.062500 0.062500 0.125000
v 0.062500 -0.062500 0.062500
v 0.062500 -0.062500 0.125000
v 0.062500 -0.125000 -0.062500
v 0.062500 -0.125000 0.062500
v 0.062500 0.125000 -0.062500
v 0.062500 0.125000 0.062500
v -0.062500 -0.125000 -0.125000
v -0.062500 0.125000 -0.125000
v -0.062500 -0.062500 -0.125000
v -0.062500 0.062500 -0.125000
v 0.062500 -0.125000 -0.125000
v 0.062500 0.125000 -0.125000
v -0.062500 -0.125000 -0.500000
v -0.062500 0.125000 -0.500000
v -0.062500 -0.062500 -0.500000
v -0.062500 0.062500 -0.500000
v 0.062500 -0.125000 -0.500000
v 0.062500 0.125000 -0.500000
v 0.062500 0.062500 -0.500000
v 0.125000 0.062500 0.062500
v 0.125000 0.062500 0.125000
v 0.125000 -0.062500 0.062500
v 0.125000 -0.062500 0.125000
v 0.062500 0.062500 -0.062500
v 0.062500 -0.062500 -0.062500
v 0.125000 0.062500 -0.062500
v 0.125000 -0.062500 -0.062500
v 0.062500 0.062500 -0.125000
v 0.062500 -0.062500 -0.125000
v 0.125000 0.062500 -0.125000
v 0.125000 -0.062500 -0.125000
v 0.062500 -0.062500 -0.500000
v 0.125000 0.062500 -0.500000
v 0.125000 -0.062500 -0.500000
vt 0.625000 0.437500
vt 0.562500 0.562500
vt 0.625000 0.562500
vt 0.625000 0.625000
vt 1.000000 0.562500
vt 0.625000 0.562500
vt 1.000000 0.625000
vt 0.625000 0.562500
vt 1.000000 0.562500
vt 1.000000 0.562500
vt 0.625000 0.562500
vt 1.000000 0.437500
vt 1.000000 0.562500
vt 0.625000 0.375000
vt 0.562500 0.437500
vt 0.625000 0.437500
vt 0.625000 0.437500
vt 1.000000 0.375000
vt 1.000000 0.437500
vt 1.000000 0.437500
vt 0.562500 0.437500
vt 0.437500 0.562500
vt 0.562500 0.562500
vt 0.437500 0.437500
vt 0.562500 0.437500
vt 0.562500 0.000000
vt 0.562500 0.375000
vt 0.625000 0.437500
vt 0.562500 0.625000
vt 0.562500 0.375000
vt 0.625000 0.375000
vt 0.625000 0.625000
vt 0.562500 0.562500
vt 0.625000 0.000000
vt 0.437500 0.562500
vt 0.375000 0.625000
vt 0.437500 0.625000
vt 0.562500 0.562500
vt 0.562500 0.625000
vt 0.437500 0.562500
vt 0.437500 0.375000
vt 0.562500 0.000000
vt 0.562500 0.375000
vt 0.437500 0.375000
vt 0.437500 0.437500
vt 0.562500 0.375000
vt 0.437500 0.000000
vt 0.437500 0.625000
vt 0.375000 0.562500
vt 0.375000 0.437500
vt 0.375000 0.562500
vt 0.437500 0.437500
vt 0.375000 0.375000
vt 0.437500 0.437500
vt 0.375000 0.375000
vt 0.437500 0.000000
vt 0.437500 0.375000
vt 0.375000 0.437500
vt 0.437500 0.375000
vt 0.375000 0.000000
vt 1.000000 0.625000
vt 1.000000 0.437500
vt 1.000000 0.375000
vt 0.437500 0.562500
vt 0.625000 0.000000
vt 0.562500 0.437500
vt 0.562500 0.000000
vt 0.437500 0.000000
vt 0.562500 0.000000
vt 0.375000 0.625000
vt 0.375000 0.000000
vt 0.437500 0.000000
vt 0.625000 0.437500
vt 0.562500 0.562500
vt 0.625000 0.562500
vt 1.000000 0.375000
vt 0.375000 0.437500
vt 0.437500 0.562500
vt 0.437500 0.437500
vt 1.000000 0.437500
vt 0.625000 0.375000
vt 0.625000 0.437500
vt 1.000000 0.562500
vt 1.000000 0.437500
vt 1.000000 0.562500
vt 0.625000 0.625000
vt 0.625000 0.562500
vt 1.000000 0.625000
vt 0.562500 0.437500
vt 0.437500 0.375000
vt 1.000000 0.437500
vt 0.625000 0.562500
vt 0.625000 0.437500
vt 0.562500 0.562500
vt 0.625000 0.562500
vt 0.625000 0.437500
vt 0.562500 0.625000
vt 0.562500 0.562500
vt 0.562500 0.437500
vt 0.562500 0.375000
vt 0.437500 0.437500
vt 0.562500 0.437500
vt 0.437500 0.562500
vt 0.562500 0.625000
vt 0.625000 0.625000
vt 0.562500 0.375000
vt 0.625000 0.375000
vt 0.625000 0.562500
vt 0.562500 0.437500
vt 0.625000 0.437500
vt 1.000000 0.562500
vt 1.000000 0.437500
vt 0.562500 0.375000
vt 0.562500 0.437500
vt 0.562500 0.562500
vt 0.437500 0.625000
vt 0.562500 0.625000
vt 0.625000 0.562500
vt 0.625000 0.437500
vt 0.625000 0.625000
vt 0.562500 0.625000
vt 0.625000 0.375000
vt 1.000000 0.437500
vt 0.625000 0.375000
vt 0.562500 0.625000
vt 0.437500 0.562500
vt 0.562500 0.562500
vt 0.437500 0.375000
vt 0.562500 0.375000
vt 0.625000 0.437500
vt 1.000000 0.375000
vt 0.625000 0.562500
vt 1.000000 0.625000
vt 0.625000 0.625000
vt 1.000000 0.562500
vt 0.375000 0.562500
vt 0.437500 0.437500
vt 0.437500 0.562500
vt 0.437500 0.437500
vt 0.562500 0.562500
vt 0.562500 0.437500
vt 0.625000 0.562500
vt 0.375000 0.437500
vt 0.437500 0.437500
vt 0.625000 0.437500
vt 1.000000 0.562500
vt 0.375000 0.562500
vt 1.000000 0.375000
vt 1.000000 0.625000
vt 0.562500 0.375000
vt 1.000000 0.562500
vt 0.437500 0.625000
vt 0.437500 0.375000
vt 1.000000 0.375000
vt 0.437500 0.625000
vt 1.000000 0.437500
vt 1.000000 0.562500
vt 1.000000 0.625000
vt 0.375000 0.437500
vt 0.375000 0.562500
vt 1.000000 0.437500
vn 0.0000 -1.0000 0.0000
vn 0.0000 1.0000 0.0000
vn 0.0000 0.0000 1.0000
vn 0.0000 -0.0000 -1.0000
vn -1.0000 0.0000 0.0000
vn 1.0000 0.0000 0.0000
g pipe_small_corner_Cube.102_UV_base_node
s off
f 9/1/1 30/2/1 12/3/1
f 4/4/1 7/5/1 3/6/1
f 6/7/2 1/8/2 5/9/2
f 11/10/1 9/1/1 12/3/1
f 16/11/2 14/12/2 15/13/2
f 18/14/1 33/15/1 23/16/1
f 24/17/2 19/18/2 22/19/2
f 21/20/1 18/14/1 23/16/1
f 29/21/1 42/22/1 30/2/1
f 32/23/2 43/24/2 31/25/2
f 18/14/1 53/26/1 47/27/1
f 16/11/2 31/25/2 13/28/2
f 3/6/1 28/29/1 4/4/1
f 24/17/2 48/30/2 17/31/2
f 2/32/2 25/33/2 1/8/2
f 48/30/2 35/34/2 17/31/2
f 39/35/1 61/36/1 40/37/1
f 27/38/1 40/37/1 28/29/1
f 26/39/2 37/40/2 25/33/2
f 50/41/2 52/42/2 46/43/2
f 29/21/1 49/44/1 41/45/1
f 43/24/2 46/43/2 31/25/2
f 45/46/1 55/47/1 49/44/1
f 38/48/2 58/49/2 37/40/2
f 39/35/1 65/50/1 60/51/1
f 63/52/1 69/53/1 65/50/1
f 58/49/2 62/54/2 37/40/2
f 68/55/2 57/56/2 66/57/2
f 64/58/2 66/57/2 62/54/2
f 67/59/1 72/60/1 69/53/1
f 9/1/1 29/21/1 30/2/1
f 4/4/1 8/61/1 7/5/1
f 6/7/2 2/32/2 1/8/2
f 11/10/1 10/62/1 9/1/1
f 16/11/2 13/28/2 14/12/2
f 18/14/1 47/27/1 33/15/1
f 24/17/2 17/31/2 19/18/2
f 21/20/1 20/63/1 18/14/1
f 29/21/1 41/45/1 42/22/1
f 32/23/2 44/64/2 43/24/2
f 18/14/1 36/65/1 53/26/1
f 16/11/2 32/23/2 31/25/2
f 3/6/1 27/38/1 28/29/1
f 24/17/2 34/66/2 48/30/2
f 2/32/2 26/39/2 25/33/2
f 48/30/2 54/67/2 35/34/2
f 39/35/1 60/51/1 61/36/1
f 27/38/1 39/35/1 40/37/1
f 26/39/2 38/48/2 37/40/2
f 50/41/2 56/68/2 52/42/2
f 29/21/1 45/46/1 49/44/1
f 43/24/2 50/41/2 46/43/2
f 45/46/1 51/69/1 55/47/1
f 38/48/2 59/70/2 58/49/2
f 39/35/1 63/52/1 65/50/1
f 63/52/1 67/59/1 69/53/1
f 58/49/2 64/58/2 62/54/2
f 68/55/2 71/71/2 57/56/2
f 64/58/2 68/55/2 66/57/2
f 67/59/1 70/72/1 72/60/1
g pipe_small_corner_Cube.102_metal
f 4/73/3 26/74/3 2/75/3
f 23/16/4 10/76/4 21/20/4
f 8/77/5 5/78/5 7/79/5
f 7/80/3 12/81/3 3/82/3
f 4/73/3 6/83/3 8/84/3
f 22/85/4 13/86/4 24/87/4
f 1/8/3 15/88/3 5/9/3
f 21/89/5 11/90/5 7/79/5
f 20/91/4 17/92/4 18/93/4
f 13/86/4 34/94/4 24/87/4
f 21/89/5 19/95/5 20/96/5
f 5/78/5 14/97/5 22/98/5
f 12/81/3 27/99/3 3/82/3
f 30/100/3 39/101/3 27/99/3
f 28/102/3 38/103/3 26/74/3
f 1/8/3 32/104/3 16/105/3
f 23/16/4 29/106/4 9/107/4
f 35/108/4 53/109/4 36/110/4
f 18/93/5 35/111/5 36/112/5
f 39/101/6 41/113/6 63/114/6
f 62/115/6 44/116/6 37/40/6
f 25/33/3 44/116/3 32/104/3
f 31/117/5 48/118/5 34/94/5
f 41/113/6 67/119/6 63/114/6
f 62/115/6 50/120/6 43/121/6
f 49/122/6 70/123/6 67/119/6
f 33/15/5 45/124/5 29/106/5
f 52/125/4 57/126/4 54/127/4
f 53/109/4 55/128/4 51/129/4
f 47/130/5 51/131/5 45/124/5
f 66/132/6 56/133/6 50/120/6
f 46/134/5 54/135/5 48/118/5
f 59/136/6 60/137/6 58/138/6
f 40/139/3 59/136/3 38/103/3
f 60/137/6 64/140/6 58/138/6
f 65/141/6 68/142/6 64/140/6
f 57/126/4 72/143/4 70/144/4
f 69/145/6 71/146/6 68/142/6
f 4/73/3 28/102/3 26/74/3
f 23/16/4 9/107/4 10/76/4
f 8/77/5 6/147/5 5/78/5
f 7/80/3 11/148/3 12/81/3
f 4/73/3 2/75/3 6/83/3
f 22/85/4 14/149/4 13/86/4
f 1/8/3 16/105/3 15/88/3
f 21/89/5 10/150/5 11/90/5
f 20/91/4 19/151/4 17/92/4
f 13/86/4 31/117/4 34/94/4
f 21/89/5 22/98/5 19/95/5
f 5/78/5 15/152/5 14/97/5
f 12/81/3 30/100/3 27/99/3
f 30/100/3 42/153/3 39/101/3
f 28/102/3 40/139/3 38/103/3
f 1/8/3 25/33/3 32/104/3
f 23/16/4 33/15/4 29/106/4
f 35/108/4 54/127/4 53/109/4
f 18/93/5 17/92/5 35/111/5
f 39/101/6 42/153/6 41/113/6
f 62/115/6 43/121/6 44/116/6
f 25/33/3 37/40/3 44/116/3
f 31/117/5 46/134/5 48/118/5
f 41/113/6 49/122/6 67/119/6
f 62/115/6 66/132/6 50/120/6
f 49/122/6 55/154/6 70/123/6
f 33/15/5 47/130/5 45/124/5
f 52/125/4 56/155/4 57/126/4
f 53/109/4 70/144/4 55/128/4
f 47/130/5 53/156/5 51/131/5
f 66/132/6 57/157/6 56/133/6
f 46/134/5 52/158/5 54/135/5
f 59/136/6 61/159/6 60/137/6
f 40/139/3 61/159/3 59/136/3
f 60/137/6 65/141/6 64/140/6
f 65/141/6 69/145/6 68/142/6
f 57/126/4 71/160/4 72/143/4
f 69/145/6 72/161/6 71/146/6
g pipe_small_corner_Cube.102_UV_steel
f 5/78/5 21/89/5 7/79/5
f 54/127/4 70/144/4 53/109/4
f 5/78/5 22/98/5 21/89/5
f 54/127/4 57/126/4 70/144/4
