# Blender v3.4.0 OBJ File: 'models.blend'
# www.blender.org
o pipe_small_Cube.096
v 0.500000 0.062500 0.062500
v 0.500000 0.062500 0.125000
v 0.500000 -0.062500 0.062500
v 0.500000 -0.062500 0.125000
v -0.500000 0.062500 0.062500
v -0.500000 0.062500 0.125000
v -0.500000 -0.062500 0.062500
v -0.500000 -0.062500 0.125000
v 0.500000 -0.125000 -0.062500
v -0.500000 -0.125000 -0.062500
v -0.500000 -0.125000 0.062500
v 0.500000 -0.125000 0.062500
v 0.500000 0.125000 -0.062500
v -0.500000 0.125000 -0.062500
v -0.500000 0.125000 0.062500
v 0.500000 0.125000 0.062500
v 0.500000 0.062500 -0.125000
v 0.500000 -0.062500 -0.125000
v -0.500000 0.062500 -0.125000
v -0.500000 -0.062500 -0.125000
v -0.500000 -0.062500 -0.062500
v -0.500000 0.062500 -0.062500
v 0.500000 -0.062500 -0.062500
v 0.500000 0.062500 -0.062500
vt 0.000000 0.625000
vt 1.000000 0.562500
vt 0.000000 0.562500
vt 1.000000 0.625000
vt 0.000000 0.562500
vt 1.000000 0.562500
vt 1.000000 0.562500
vt 0.000000 0.437500
vt 0.000000 0.562500
vt 0.000000 0.562500
vt 1.000000 0.437500
vt 1.000000 0.562500
vt 0.000000 0.437500
vt 1.000000 0.375000
vt 1.000000 0.437500
vt 1.000000 0.437500
vt 0.000000 0.375000
vt 0.000000 0.437500
vt 1.000000 0.625000
vt 0.000000 0.625000
vt 1.000000 0.437500
vt 0.000000 0.437500
vt 0.000000 0.375000
vt 1.000000 0.375000
vt 0.437500 0.437500
vt 0.562500 0.375000
vt 0.562500 0.437500
vt 1.000000 0.375000
vt 0.375000 0.562500
vt 0.437500 0.562500
vt 0.375000 0.437500
vt 0.437500 0.562500
vt 0.437500 0.437500
vt 1.000000 0.437500
vt 0.000000 0.375000
vt 0.000000 0.437500
vt 0.000000 0.437500
vt 1.000000 0.562500
vt 1.000000 0.437500
vt 1.000000 0.562500
vt 0.000000 0.625000
vt 0.000000 0.562500
vt 1.000000 0.625000
vt 0.562500 0.437500
vt 0.437500 0.375000
vt 0.562500 0.562500
vt 0.437500 0.625000
vt 1.000000 0.437500
vt 0.000000 0.562500
vt 0.000000 0.437500
vt 0.625000 0.562500
vt 0.625000 0.437500
vt 0.562500 0.625000
vt 0.562500 0.562500
vt 0.625000 0.562500
vt 0.437500 0.375000
vt 0.000000 0.375000
vt 0.375000 0.437500
vt 0.375000 0.562500
vt 1.000000 0.375000
vt 0.000000 0.562500
vt 1.000000 0.625000
vt 0.000000 0.625000
vt 0.562500 0.375000
vt 0.562500 0.625000
vt 1.000000 0.562500
vt 0.437500 0.625000
vt 0.625000 0.437500
vn 0.0000 -1.0000 0.0000
vn 0.0000 1.0000 0.0000
vn 1.0000 0.0000 0.0000
vn 0.0000 -0.0000 -1.0000
vn -1.0000 0.0000 0.0000
vn 0.0000 0.0000 1.0000
g pipe_small_Cube.096_UV_base_node
s off
f 4/1/1 7/2/1 3/3/1
f 6/4/2 1/5/2 5/6/2
f 11/7/1 9/8/1 12/9/1
f 16/10/2 14/11/2 15/12/2
f 24/13/2 19/14/2 22/15/2
f 21/16/1 18/17/1 23/18/1
f 4/1/1 8/19/1 7/2/1
f 6/4/2 2/20/2 1/5/2
f 11/7/1 10/21/1 9/8/1
f 16/10/2 13/22/2 14/11/2
f 24/13/2 17/23/2 19/14/2
f 21/16/1 20/24/1 18/17/1
g pipe_small_Cube.096_metal
f 3/25/3 9/26/3 23/27/3
f 23/18/4 10/28/4 21/16/4
f 2/29/3 3/25/3 1/30/3
f 8/31/5 5/32/5 7/33/5
f 7/34/6 12/35/6 3/36/6
f 4/37/6 6/38/6 8/39/6
f 22/40/4 13/41/4 24/42/4
f 1/5/6 15/43/6 5/6/6
f 21/44/5 11/45/5 7/33/5
f 24/46/3 16/47/3 1/30/3
f 20/48/4 17/49/4 18/50/4
f 21/44/5 19/51/5 20/52/5
f 5/32/5 14/53/5 22/54/5
f 23/27/3 17/55/3 24/46/3
f 3/25/3 12/56/3 9/26/3
f 23/18/4 9/57/4 10/28/4
f 2/29/3 4/58/3 3/25/3
f 8/31/5 6/59/5 5/32/5
f 7/34/6 11/60/6 12/35/6
f 4/37/6 2/61/6 6/38/6
f 22/40/4 14/62/4 13/41/4
f 1/5/6 16/63/6 15/43/6
f 21/44/5 10/64/5 11/45/5
f 24/46/3 13/65/3 16/47/3
f 20/48/4 19/66/4 17/49/4
f 21/44/5 22/54/5 19/51/5
f 5/32/5 15/67/5 14/53/5
f 23/27/3 18/68/3 17/55/3
g pipe_small_Cube.096_UV_steel
f 3/25/3 24/46/3 1/30/3
f 5/32/5 21/44/5 7/33/5
f 3/25/3 23/27/3 24/46/3
f 5/32/5 22/54/5 21/44/5
