# Blender v3.1.2 OBJ File: 'models.blend'
# www.blender.org
o small_shelf_Cube.031
v -0.500000 -0.500000 0.000000
v -0.500000 -0.437500 0.000000
v -0.437500 -0.500000 0.000000
v -0.437500 -0.437500 0.000000
v -0.500000 -0.500000 0.437500
v -0.500000 -0.437500 0.437500
v -0.437500 -0.500000 0.437500
v -0.437500 -0.437500 0.437500
v 0.437500 -0.500000 0.000000
v 0.437500 -0.437500 0.000000
v 0.437500 -0.500000 0.437500
v 0.437500 -0.437500 0.437500
v 0.500000 -0.500000 0.000000
v 0.500000 -0.437500 0.000000
v 0.500000 -0.500000 0.437500
v 0.500000 -0.437500 0.437500
v 0.500000 -0.500000 -0.062500
v 0.500000 0.500000 -0.062500
v 0.500000 -0.500000 0.000000
v 0.500000 0.500000 0.000000
v 0.437500 -0.500000 -0.062500
v 0.437500 0.500000 -0.062500
v 0.437500 -0.500000 0.000000
v 0.437500 0.500000 0.000000
v -0.500000 0.437500 0.000000
v -0.437500 0.437500 0.000000
v -0.500000 0.437500 0.437500
v -0.437500 0.437500 0.437500
v -0.500000 0.500000 0.000000
v -0.500000 -0.500000 0.000000
v -0.500000 0.500000 0.000000
v -0.437500 0.500000 0.000000
v -0.500000 0.500000 0.437500
v -0.437500 0.500000 0.437500
v -0.500000 0.500000 -0.062500
v -0.500000 -0.500000 -0.062500
v 0.437500 0.437500 0.000000
v 0.437500 0.437500 0.437500
v 0.500000 0.437500 0.000000
v 0.500000 0.437500 0.437500
v -0.437500 0.500000 0.000000
v -0.437500 -0.500000 0.000000
v 0.437500 0.500000 0.000000
v 0.437500 0.500000 0.437500
v 0.500000 0.500000 0.000000
v 0.500000 0.500000 0.437500
v -0.437500 0.500000 -0.062500
v -0.437500 -0.500000 -0.062500
v -0.437500 0.437500 0.000000
v -0.437500 0.437500 0.437500
v -0.437500 0.500000 0.000000
v -0.437500 0.500000 0.437500
v 0.125000 -0.500000 0.437500
v 0.125000 0.500000 0.437500
v 0.125000 -0.500000 0.500000
v 0.125000 0.500000 0.500000
v -0.125000 -0.500000 0.437500
v -0.125000 0.500000 0.437500
v -0.125000 -0.500000 0.500000
v -0.125000 0.500000 0.500000
v -0.187500 -0.500000 0.437500
v -0.187500 0.500000 0.437500
v -0.187500 -0.500000 0.500000
v -0.187500 0.500000 0.500000
v -0.437500 -0.500000 0.437500
v -0.437500 0.500000 0.437500
v -0.437500 -0.500000 0.500000
v -0.437500 0.500000 0.500000
v 0.437500 -0.500000 0.437500
v 0.437500 0.500000 0.437500
v 0.437500 -0.500000 0.500000
v 0.437500 0.500000 0.500000
v 0.187500 -0.500000 0.437500
v 0.187500 0.500000 0.437500
v 0.187500 -0.500000 0.500000
v 0.187500 0.500000 0.500000
v 0.437500 -0.062500 0.062500
v 0.437500 0.000000 0.062500
v 0.437500 -0.062500 0.437500
v 0.437500 0.000000 0.437500
v -0.437500 -0.062500 0.062500
v -0.437500 0.000000 0.062500
v -0.437500 -0.062500 0.437500
v -0.437500 0.000000 0.437500
v 0.500000 -0.437500 -0.062500
v 0.437500 -0.437500 0.000000
v 0.437500 -0.437500 -0.062500
v 0.500000 -0.437500 0.000000
v 0.437500 0.437500 -0.062500
v 0.437500 0.437500 0.000000
v 0.500000 0.437500 0.000000
v 0.500000 0.437500 -0.062500
v -0.500000 -0.437500 0.000000
v -0.500000 -0.437500 -0.062500
v -0.437500 -0.437500 0.000000
v -0.437500 -0.437500 -0.062500
v -0.437500 0.437500 -0.062500
v -0.500000 0.437500 0.000000
v -0.500000 0.437500 -0.062500
v -0.437500 0.437500 0.000000
v -0.375000 0.500000 0.000000
v -0.375000 0.500000 -0.062500
v -0.375000 0.437500 -0.062500
v -0.375000 0.437500 0.000000
v -0.375000 -0.500000 0.000000
v -0.375000 -0.500000 -0.062500
v -0.375000 -0.437500 0.000000
v -0.375000 -0.437500 -0.062500
v 0.375000 0.500000 -0.062500
v 0.375000 0.500000 0.000000
v 0.375000 0.437500 -0.062500
v 0.375000 0.437500 0.000000
v 0.375000 -0.500000 -0.062500
v 0.375000 -0.500000 0.000000
v 0.375000 -0.437500 0.000000
v 0.375000 -0.437500 -0.062500
v -0.187500 -0.062500 0.437500
v -0.187500 0.000000 0.437500
v -0.187500 -0.062500 0.062500
v -0.187500 0.000000 0.062500
v -0.125000 -0.062500 0.437500
v -0.125000 0.000000 0.062500
v -0.125000 0.000000 0.437500
v -0.125000 -0.062500 0.062500
v -0.187500 -0.437500 0.437500
v -0.187500 -0.437500 0.062500
v -0.125000 -0.437500 0.437500
v -0.125000 -0.437500 0.062500
v 0.125000 -0.062500 0.437500
v 0.125000 0.000000 0.062500
v 0.125000 0.000000 0.437500
v 0.125000 -0.062500 0.062500
v 0.187500 -0.062500 0.437500
v 0.187500 0.000000 0.062500
v 0.187500 0.000000 0.437500
v 0.187500 -0.062500 0.062500
v 0.125000 0.437500 0.062500
v 0.125000 0.437500 0.437500
v 0.187500 0.437500 0.062500
v 0.187500 0.437500 0.437500
vt 0.937500 0.937500
vt 0.062500 0.500000
vt 0.937500 0.500000
vt 0.062500 0.062500
vt 0.000000 0.000000
vt 0.062500 0.000000
vt 0.062500 0.062500
vt 0.500000 0.000000
vt 0.062500 0.000000
vt 0.937500 0.937500
vt 1.000000 0.500000
vt 0.937500 0.500000
vt 0.062500 0.062500
vt 0.937500 0.000000
vt 0.062500 0.000000
vt 0.937500 0.062500
vt 0.062500 0.937500
vt 0.500000 0.062500
vt 0.062500 0.000000
vt 0.500000 0.000000
vt 0.062500 0.062500
vt 0.500000 0.937500
vt 0.500000 0.062500
vt 0.937500 0.000000
vt 1.000000 0.062500
vt 0.062500 0.500000
vt 0.000000 0.937500
vt 0.500000 0.062500
vt 0.062500 0.937500
vt 0.062500 0.937500
vt 0.500000 1.000000
vt 0.500000 0.937500
vt 0.937500 0.937500
vt 1.000000 0.062500
vt 0.937500 0.062500
vt 0.000000 0.937500
vt 0.000000 0.062500
vt 0.500000 0.062500
vt 0.937500 0.500000
vt 1.000000 0.937500
vt 0.937500 0.937500
vt 1.000000 0.000000
vt 0.500000 0.937500
vt 0.062500 1.000000
vt 0.000000 1.000000
vt 0.500000 0.937500
vt 0.062500 1.000000
vt 0.062500 0.937500
vt 0.000000 1.000000
vt 0.062500 0.937500
vt 0.000000 0.937500
vt 0.937500 0.937500
vt 0.062500 0.062500
vt 0.062500 0.937500
vt 0.000000 0.500000
vt 0.062500 0.500000
vt 1.000000 1.000000
vt 0.937500 1.000000
vt 0.000000 0.000000
vt 0.000000 0.062500
vt 1.000000 0.937500
vt 0.937500 1.000000
vt 0.062500 0.937500
vt 0.937500 0.500000
vt 0.062500 0.500000
vt 0.062500 0.937500
vt 0.500000 1.000000
vt 0.500000 0.937500
vt 0.937500 0.937500
vt 0.062500 1.000000
vt 0.437500 0.500000
vt 0.062500 0.437500
vt 0.437500 0.437500
vt 0.312500 0.500000
vt 0.062500 0.437500
vt 0.312500 0.437500
vt 0.062500 0.500000
vt 0.437500 0.437500
vt 0.687500 0.500000
vt 0.937500 0.437500
vt 0.687500 0.437500
vt 0.937500 0.937500
vt 0.687500 0.562500
vt 0.687500 0.937500
vt 0.062500 0.937500
vt 0.312500 0.562500
vt 0.312500 0.937500
vt 0.687500 0.937500
vt 0.937500 0.562500
vt 0.937500 0.937500
vt 0.375000 0.437500
vt 0.312500 0.062500
vt 0.312500 0.437500
vt 0.062500 0.500000
vt 0.062500 0.437500
vt 0.375000 0.500000
vt 0.375000 0.437500
vt 0.625000 0.500000
vt 0.625000 0.437500
vt 0.625000 0.937500
vt 0.375000 0.562500
vt 0.375000 0.937500
vt 0.625000 0.937500
vt 0.687500 0.562500
vt 0.312500 0.500000
vt 0.687500 0.937500
vt 0.625000 0.562500
vt 0.625000 0.937500
vt 0.062500 0.437500
vt 0.437500 0.062500
vt 0.437500 0.437500
vt 0.437500 0.437500
vt 0.062500 0.062500
vt 0.062500 0.437500
vt 0.375000 0.062500
vt 0.312500 0.562500
vt 0.312500 0.937500
vt 0.687500 0.500000
vt 0.687500 0.437500
vt 0.375000 0.937500
vt 0.625000 0.562500
vt 0.375000 0.500000
vt 0.625000 0.437500
vt 0.937500 0.500000
vt 0.937500 0.437500
vt 0.062500 0.562500
vt 0.062500 0.937500
vt 0.625000 0.500000
vt 0.687500 0.937500
vt 0.312500 0.937500
vt 0.375000 0.562500
vt 0.375000 0.937500
vt 0.437500 0.500000
vt 0.062500 0.937500
vt 0.062500 0.500000
vt 0.062500 0.500000
vt 0.437500 0.937500
vt 0.437500 0.500000
vt 0.625000 0.937500
vt 0.062500 0.937500
vt 1.000000 0.937500
vt 1.000000 0.000000
vt 0.000000 0.500000
vt 0.062500 1.000000
vt 1.000000 0.937500
vt 1.000000 0.500000
vt 0.500000 1.000000
vt 0.500000 1.000000
vt 0.000000 0.937500
vt 1.000000 1.000000
vt 0.937500 0.937500
vt 0.062500 1.000000
vt 0.937500 0.500000
vt 0.062500 0.500000
vt 0.437500 0.500000
vt 0.937500 0.500000
vt 0.937500 0.562500
vt 0.062500 0.562500
vt 0.375000 0.062500
vt 0.625000 0.562500
vt 0.687500 0.562500
vt 0.062500 0.062500
vt 0.437500 0.062500
vt 0.312500 0.062500
vt 0.375000 0.562500
vt 0.625000 0.937500
vt 0.312500 0.562500
vt 0.437500 0.937500
vt 0.062500 0.937500
vt 0.687500 0.937500
vt 0.000000 1.000000
vt 0.062500 0.937500
vt 0.000000 0.937500
vt 0.937500 0.500000
vt 1.000000 0.437500
vt 1.000000 0.500000
vt 0.062500 0.500000
vt 0.000000 0.437500
vt 0.000000 0.500000
vt 0.937500 0.062500
vt 1.000000 0.000000
vt 0.937500 0.000000
vt 0.562500 0.062500
vt 0.500000 0.000000
vt 0.562500 0.000000
vt 0.125000 0.437500
vt 0.062500 0.437500
vt 0.562500 1.000000
vt 0.500000 0.937500
vt 0.562500 0.937500
vt 0.000000 0.500000
vt 0.062500 0.437500
vt 0.062500 0.500000
vt 0.937500 1.000000
vt 1.000000 0.937500
vt 0.937500 0.937500
vt 0.875000 1.000000
vt 0.500000 1.000000
vt 0.562500 0.937500
vt 0.500000 0.937500
vt 1.000000 0.500000
vt 0.937500 0.437500
vt 0.937500 0.500000
vt 0.875000 0.437500
vt 0.937500 0.437500
vt 0.062500 1.000000
vt 0.000000 0.937500
vt 0.062500 0.937500
vt 1.000000 0.062500
vt 0.937500 0.000000
vt 1.000000 0.000000
vt 1.000000 1.000000
vt 0.937500 0.937500
vt 1.000000 0.937500
vt 0.062500 1.000000
vt 0.000000 0.000000
vt 0.062500 0.000000
vt 0.625000 1.000000
vt 0.375000 0.000000
vt 0.625000 0.000000
vt 0.000000 1.000000
vt 0.062500 0.000000
vt 0.000000 0.000000
vt 0.375000 1.000000
vt 0.625000 0.000000
vt 0.375000 0.000000
vt 0.625000 1.000000
vt 0.375000 0.937500
vt 0.375000 1.000000
vt 0.375000 1.000000
vt 0.625000 0.937500
vt 0.625000 1.000000
vt 0.062500 1.000000
vt 0.000000 0.000000
vt 0.062500 0.000000
vt 0.312500 1.000000
vt 0.062500 0.000000
vt 0.312500 0.000000
vt 0.000000 1.000000
vt 0.062500 0.000000
vt 0.000000 0.000000
vt 0.062500 1.000000
vt 0.312500 0.000000
vt 0.937500 1.000000
vt 0.687500 0.937500
vt 0.687500 1.000000
vt 0.687500 1.000000
vt 0.937500 0.937500
vt 0.937500 1.000000
vt 0.062500 1.000000
vt 0.000000 0.000000
vt 0.062500 0.000000
vt 0.937500 1.000000
vt 0.687500 0.000000
vt 0.937500 0.000000
vt 0.000000 1.000000
vt 0.062500 0.000000
vt 0.000000 0.000000
vt 0.687500 1.000000
vt 0.937500 0.000000
vt 0.687500 0.000000
vt 0.312500 1.000000
vt 0.062500 0.937500
vt 0.062500 1.000000
vt 0.062500 1.000000
vt 0.312500 0.937500
vt 0.312500 1.000000
vt 0.937500 0.062500
vt 0.500000 0.937500
vt 0.562500 0.062500
vt 0.500000 0.062500
vt 1.000000 0.062500
vt 0.500000 0.062500
vt 0.062500 0.062500
vt 0.000000 0.000000
vt 0.062500 0.000000
vt 0.937500 0.500000
vt 0.875000 0.437500
vt 0.937500 0.437500
vt 0.500000 0.062500
vt 0.562500 0.000000
vt 0.500000 0.000000
vt 0.000000 0.062500
vt 0.062500 0.000000
vt 0.000000 0.000000
vt 0.000000 0.062500
vt 0.562500 0.937500
vt 0.500000 0.062500
vt 0.562500 0.062500
vt 0.562500 0.062500
vt 0.062500 0.062500
vt 0.562500 1.000000
vt 0.500000 0.937500
vt 0.562500 0.937500
vt 0.062500 1.000000
vt 0.125000 0.937500
vt 0.937500 0.437500
vt 0.875000 0.500000
vt 0.937500 0.500000
vt 0.125000 1.000000
vt 0.562500 0.062500
vt 0.500000 0.000000
vt 0.562500 0.000000
vt 0.125000 0.062500
vt 0.125000 0.000000
vt 0.875000 0.500000
vt 0.500000 1.000000
vt 0.562500 0.937500
vt 0.500000 0.937500
vt 0.125000 0.500000
vt 0.062500 0.500000
vt 0.125000 0.437500
vt 0.062500 0.437500
vt 0.937500 1.000000
vt 0.875000 0.937500
vt 0.500000 0.062500
vt 0.562500 0.000000
vt 0.500000 0.000000
vt 0.875000 0.062500
vt 0.062500 0.437500
vt 0.125000 0.500000
vt 0.062500 0.500000
vt 0.875000 0.000000
vt 0.125000 0.500000
vt 0.500000 1.000000
vt 0.000000 0.437500
vt 1.000000 1.000000
vt 0.875000 0.937500
vt 0.562500 1.000000
vt 1.000000 0.437500
vt 0.875000 0.500000
vt 0.000000 1.000000
vt 0.000000 1.000000
vt 0.375000 1.000000
vt 0.062500 1.000000
vt 0.625000 1.000000
vt 0.625000 0.937500
vt 0.375000 0.937500
vt 0.000000 1.000000
vt 0.062500 1.000000
vt 0.312500 1.000000
vt 0.937500 0.937500
vt 0.687500 0.937500
vt 0.000000 1.000000
vt 0.687500 1.000000
vt 0.062500 1.000000
vt 0.937500 1.000000
vt 0.312500 0.937500
vt 0.062500 0.937500
vt 0.562500 0.937500
vt 0.875000 0.500000
vt 0.500000 0.937500
vt 0.500000 1.000000
vt 0.125000 1.000000
vt 0.875000 0.437500
vt 0.125000 0.937500
vt 0.500000 0.062500
vt 0.125000 0.000000
vt 0.125000 0.062500
vt 0.875000 0.437500
vt 0.562500 1.000000
vt 0.125000 0.437500
vt 0.125000 0.500000
vt 0.875000 1.000000
vt 0.562500 0.062500
vt 0.875000 0.000000
vt 0.125000 0.437500
vt 0.875000 0.062500
vn 0.0000 1.0000 0.0000
vn 0.0000 0.0000 1.0000
vn -1.0000 0.0000 0.0000
vn 0.0000 -1.0000 0.0000
vn 0.0000 0.0000 -1.0000
vn 1.0000 0.0000 0.0000
g small_shelf_Cube.031_metal
s off
f 8/1/1 10/2/1 4/3/1
f 8/4/2 5/5/2 7/6/2
f 6/7/3 1/8/3 5/9/3
f 7/10/4 1/11/4 3/12/4
f 4/13/5 9/14/5 3/15/5
f 7/6/2 12/16/2 8/4/2
f 3/12/4 11/17/4 7/10/4
f 14/18/6 15/19/6 13/20/6
f 12/21/3 37/22/3 10/23/3
f 11/24/2 16/25/2 12/16/2
f 9/26/4 15/27/4 11/17/4
f 4/28/6 28/29/6 8/4/6
f 27/30/3 31/31/3 25/32/3
f 37/33/5 14/34/5 10/35/5
f 8/4/2 27/36/2 6/37/2
f 6/7/3 25/32/3 2/38/3
f 32/39/1 33/40/1 34/41/1
f 10/35/5 13/42/5 9/14/5
f 26/43/6 34/44/6 28/29/6
f 28/29/2 33/45/2 27/36/2
f 39/46/6 46/47/6 40/48/6
f 31/49/5 49/50/5 25/51/5
f 16/25/2 38/52/2 12/16/2
f 14/18/6 40/48/6 16/53/6
f 44/54/1 45/55/1 43/56/1
f 45/57/5 37/33/5 43/58/5
f 1/59/5 4/13/5 3/15/5
f 49/50/5 2/60/5 25/51/5
f 40/61/2 44/62/2 38/52/2
f 38/63/4 49/64/4 37/65/4
f 50/66/3 51/67/3 49/68/3
f 43/56/1 52/69/1 44/54/1
f 44/62/2 50/66/2 38/52/2
f 37/33/5 51/70/5 43/58/5
f 78/71/6 79/72/6 77/73/6
f 118/74/2 83/75/2 117/76/2
f 84/77/3 81/78/3 83/75/3
f 134/79/5 77/80/5 136/81/5
f 83/82/4 119/83/4 117/84/4
f 80/85/1 134/86/1 135/87/1
f 118/88/1 82/89/1 84/90/1
f 124/91/5 126/92/5 119/93/5
f 82/94/5 119/93/5 81/95/5
f 123/96/2 117/76/2 121/97/2
f 131/98/2 121/97/2 129/99/2
f 121/100/4 132/101/4 129/102/4
f 123/103/1 120/104/1 118/88/1
f 120/105/5 124/91/5 119/93/5
f 125/106/4 128/107/4 127/108/4
f 121/109/6 128/110/6 124/111/6
f 119/112/3 125/113/3 117/114/3
f 117/76/2 127/115/2 121/97/2
f 129/102/4 136/116/4 133/117/4
f 135/118/2 129/99/2 133/119/2
f 131/120/1 122/121/1 123/103/1
f 122/122/5 132/123/5 124/91/5
f 80/124/2 133/119/2 79/125/2
f 133/117/4 77/126/4 79/127/4
f 130/128/5 139/129/5 134/79/5
f 130/128/5 136/81/5 132/123/5
f 140/130/1 137/131/1 138/132/1
f 134/133/6 140/134/6 135/135/6
f 131/136/3 137/137/3 130/138/3
f 135/118/2 138/139/2 131/98/2
f 8/1/1 12/140/1 10/2/1
f 8/4/2 6/37/2 5/5/2
f 6/7/3 2/38/3 1/8/3
f 7/10/4 5/141/4 1/11/4
f 4/13/5 10/35/5 9/14/5
f 7/6/2 11/24/2 12/16/2
f 3/12/4 9/26/4 11/17/4
f 14/18/6 16/53/6 15/19/6
f 12/21/3 38/63/3 37/22/3
f 11/24/2 15/142/2 16/25/2
f 9/26/4 13/143/4 15/27/4
f 4/28/6 26/43/6 28/29/6
f 27/30/3 33/144/3 31/31/3
f 37/33/5 39/145/5 14/34/5
f 8/4/2 28/29/2 27/36/2
f 6/7/3 27/30/3 25/32/3
f 32/39/1 31/146/1 33/40/1
f 10/35/5 14/34/5 13/42/5
f 26/43/6 32/147/6 34/44/6
f 28/29/2 34/44/2 33/45/2
f 39/46/6 45/148/6 46/47/6
f 31/49/5 51/70/5 49/50/5
f 16/25/2 40/61/2 38/52/2
f 14/18/6 39/46/6 40/48/6
f 44/54/1 46/149/1 45/55/1
f 45/57/5 39/145/5 37/33/5
f 1/59/5 2/60/5 4/13/5
f 49/50/5 4/13/5 2/60/5
f 40/61/2 46/150/2 44/62/2
f 38/63/4 50/151/4 49/64/4
f 50/66/3 52/152/3 51/67/3
f 43/56/1 51/153/1 52/69/1
f 44/62/2 52/152/2 50/66/2
f 37/33/5 49/50/5 51/70/5
f 78/71/6 80/154/6 79/72/6
f 118/74/2 84/77/2 83/75/2
f 84/77/3 82/155/3 81/78/3
f 134/79/5 78/156/5 77/80/5
f 83/82/4 81/157/4 119/83/4
f 80/85/1 78/158/1 134/86/1
f 118/88/1 120/104/1 82/89/1
f 124/91/5 128/159/5 126/92/5
f 82/94/5 120/105/5 119/93/5
f 123/96/2 118/74/2 117/76/2
f 131/98/2 123/96/2 121/97/2
f 121/100/4 124/160/4 132/101/4
f 123/103/1 122/121/1 120/104/1
f 120/105/5 122/122/5 124/91/5
f 125/106/4 126/161/4 128/107/4
f 121/109/6 127/162/6 128/110/6
f 119/112/3 126/163/3 125/113/3
f 117/76/2 125/164/2 127/115/2
f 129/102/4 132/101/4 136/116/4
f 135/118/2 131/98/2 129/99/2
f 131/120/1 130/165/1 122/121/1
f 122/122/5 130/128/5 132/123/5
f 80/124/2 135/118/2 133/119/2
f 133/117/4 136/116/4 77/126/4
f 130/128/5 137/166/5 139/129/5
f 130/128/5 134/79/5 136/81/5
f 140/130/1 139/167/1 137/131/1
f 134/133/6 139/168/6 140/134/6
f 131/136/3 138/169/3 137/137/3
f 135/118/2 140/170/2 138/139/2
g small_shelf_Cube.031_pot
f 35/171/5 97/172/5 99/173/5
f 41/174/1 35/175/1 29/176/1
f 23/177/4 17/178/4 19/179/4
f 87/180/5 17/181/5 21/182/5
f 85/183/6 19/184/6 17/185/6
f 23/177/4 113/186/4 21/187/4
f 18/188/6 91/189/6 92/190/6
f 20/191/1 22/192/1 24/193/1
f 22/194/5 92/195/5 89/196/5
f 89/196/5 109/197/5 22/194/5
f 29/198/3 99/199/3 98/200/3
f 30/201/4 48/202/4 42/203/4
f 41/174/1 102/204/1 47/205/1
f 41/206/2 98/207/2 100/208/2
f 88/209/2 23/210/2 19/211/2
f 20/212/2 90/213/2 91/214/2
f 54/215/6 55/216/6 53/217/6
f 56/218/2 59/219/2 55/220/2
f 60/221/3 57/222/3 59/223/3
f 58/224/5 53/225/5 57/226/5
f 59/227/4 53/228/4 55/229/4
f 56/230/1 58/231/1 60/232/1
f 62/233/6 63/234/6 61/235/6
f 64/236/2 67/237/2 63/238/2
f 68/239/3 65/240/3 67/241/3
f 66/242/5 61/243/5 65/240/5
f 67/244/4 61/245/4 63/246/4
f 64/247/1 66/248/1 68/249/1
f 70/250/6 71/251/6 69/252/6
f 72/253/2 75/254/2 71/255/2
f 76/256/3 73/257/3 75/258/3
f 74/259/5 69/260/5 73/261/5
f 75/262/4 69/263/4 71/264/4
f 72/265/1 74/266/1 76/267/1
f 91/214/2 86/268/2 88/209/2
f 90/269/3 87/270/3 86/271/3
f 89/196/5 85/272/5 87/180/5
f 92/190/6 88/273/6 85/183/6
f 95/274/2 30/275/2 42/276/2
f 95/277/1 108/278/1 96/279/1
f 93/280/3 36/281/3 30/282/3
f 94/283/5 48/284/5 36/285/5
f 100/208/2 93/286/2 95/274/2
f 97/287/6 95/288/6 96/289/6
f 98/200/3 94/290/3 93/280/3
f 99/173/5 96/291/5 94/283/5
f 102/292/6 104/293/6 103/294/6
f 47/295/5 103/296/5 97/172/5
f 97/297/4 104/298/4 100/299/4
f 100/208/2 101/300/2 41/206/2
f 108/301/6 105/302/6 106/303/6
f 42/276/2 107/304/2 95/274/2
f 96/291/5 106/305/5 48/284/5
f 48/202/4 105/306/4 42/203/4
f 110/307/3 111/308/3 112/309/3
f 22/192/1 110/310/1 24/193/1
f 90/311/4 111/312/4 89/313/4
f 24/314/2 112/315/2 90/213/2
f 115/316/3 113/317/3 114/318/3
f 21/182/5 116/319/5 87/180/5
f 87/320/1 115/321/1 86/322/1
f 86/268/2 114/323/2 23/210/2
f 35/171/5 47/295/5 97/172/5
f 41/174/1 47/205/1 35/175/1
f 23/177/4 21/187/4 17/178/4
f 87/180/5 85/272/5 17/181/5
f 85/183/6 88/273/6 19/184/6
f 23/177/4 114/324/4 113/186/4
f 18/188/6 20/325/6 91/189/6
f 20/191/1 18/326/1 22/192/1
f 22/194/5 18/327/5 92/195/5
f 89/196/5 111/328/5 109/197/5
f 29/198/3 35/329/3 99/199/3
f 30/201/4 36/330/4 48/202/4
f 41/174/1 101/331/1 102/204/1
f 41/206/2 29/332/2 98/207/2
f 88/209/2 86/268/2 23/210/2
f 20/212/2 24/314/2 90/213/2
f 54/215/6 56/333/6 55/216/6
f 56/218/2 60/334/2 59/219/2
f 60/221/3 58/335/3 57/222/3
f 58/224/5 54/336/5 53/225/5
f 59/227/4 57/337/4 53/228/4
f 56/230/1 54/338/1 58/231/1
f 62/233/6 64/339/6 63/234/6
f 64/236/2 68/340/2 67/237/2
f 68/239/3 66/242/3 65/240/3
f 66/242/5 62/341/5 61/243/5
f 67/244/4 65/342/4 61/245/4
f 64/247/1 62/343/1 66/248/1
f 70/250/6 72/344/6 71/251/6
f 72/253/2 76/345/2 75/254/2
f 76/256/3 74/346/3 73/257/3
f 74/259/5 70/347/5 69/260/5
f 75/262/4 73/348/4 69/263/4
f 72/265/1 70/349/1 74/266/1
f 91/214/2 90/213/2 86/268/2
f 90/269/3 89/350/3 87/270/3
f 89/196/5 92/195/5 85/272/5
f 92/190/6 91/189/6 88/273/6
f 95/274/2 93/286/2 30/275/2
f 95/277/1 107/351/1 108/278/1
f 93/280/3 94/290/3 36/281/3
f 94/283/5 96/291/5 48/284/5
f 100/208/2 98/207/2 93/286/2
f 97/287/6 100/352/6 95/288/6
f 98/200/3 99/199/3 94/290/3
f 99/173/5 97/172/5 96/291/5
f 102/292/6 101/353/6 104/293/6
f 47/295/5 102/354/5 103/296/5
f 97/297/4 103/355/4 104/298/4
f 100/208/2 104/356/2 101/300/2
f 108/301/6 107/357/6 105/302/6
f 42/276/2 105/358/2 107/304/2
f 96/291/5 108/359/5 106/305/5
f 48/202/4 106/360/4 105/306/4
f 110/307/3 109/361/3 111/308/3
f 22/192/1 109/362/1 110/310/1
f 90/311/4 112/363/4 111/312/4
f 24/314/2 110/364/2 112/315/2
f 115/316/3 116/365/3 113/317/3
f 21/182/5 113/366/5 116/319/5
f 87/320/1 116/367/1 115/321/1
f 86/268/2 115/368/2 114/323/2
