# Blender v3.0.0 Release Candidate OBJ File: 'models.blend'
# www.blender.org
o shelves_Cube.005
v 0.500000 -0.500000 -0.062500
v 0.500000 -0.437500 -0.062500
v -0.500000 -0.500000 -0.062500
v -0.500000 -0.437500 -0.062500
v -0.437500 -0.500000 0.437500
v -0.375000 -0.500000 0.437500
v -0.250000 -0.500000 0.437500
v -0.187500 -0.500000 0.437500
v -0.062500 -0.500000 0.437500
v 0.062500 -0.500000 0.437500
v 0.187500 -0.500000 0.437500
v 0.250000 -0.500000 0.437500
v 0.375000 -0.500000 0.437500
v 0.437500 -0.500000 0.437500
v 0.437500 -0.437500 0.437500
v 0.375000 -0.437500 0.437500
v 0.250000 -0.437500 0.437500
v 0.187500 -0.437500 0.437500
v 0.062500 -0.437500 0.437500
v -0.062500 -0.437500 0.437500
v -0.187500 -0.437500 0.437500
v -0.250000 -0.437500 0.437500
v -0.375000 -0.437500 0.437500
v -0.437500 -0.437500 0.437500
v 0.500000 -0.437500 0.000000
v -0.500000 -0.437500 0.000000
v -0.437500 -0.437500 0.000000
v 0.437500 -0.437500 0.000000
v 0.500000 0.437500 0.000000
v -0.500000 0.437500 0.000000
v -0.437500 0.437500 0.000000
v 0.437500 0.437500 0.000000
v 0.437500 -0.062500 0.062500
v 0.437500 0.000000 0.062500
v 0.437500 -0.062500 0.437500
v 0.437500 0.000000 0.437500
v -0.437500 -0.062500 0.062500
v -0.437500 0.000000 0.062500
v -0.437500 -0.062500 0.437500
v -0.437500 0.000000 0.437500
v 0.500000 0.437500 -0.062500
v 0.500000 0.500000 -0.062500
v 0.500000 0.437500 0.500000
v 0.500000 0.500000 0.500000
v -0.500000 0.437500 -0.062500
v -0.500000 0.500000 -0.062500
v -0.500000 0.437500 0.500000
v -0.500000 0.500000 0.500000
v 0.500000 -0.500000 0.500000
v 0.437500 -0.500000 0.500000
v -0.500000 -0.500000 0.500000
v -0.437500 -0.500000 0.500000
v -0.437500 0.437500 0.500000
v -0.500000 0.437500 0.500000
v 0.500000 0.437500 0.500000
v 0.437500 0.437500 0.500000
v -0.375000 -0.500000 0.500000
v -0.250000 -0.500000 0.500000
v -0.187500 -0.500000 0.500000
v -0.062500 -0.500000 0.500000
v 0.062500 -0.500000 0.500000
v 0.187500 -0.500000 0.500000
v 0.250000 -0.500000 0.500000
v 0.375000 -0.500000 0.500000
v 0.375000 0.437500 0.437500
v 0.250000 0.437500 0.437500
v 0.187500 0.437500 0.437500
v 0.062500 0.437500 0.437500
v -0.062500 0.437500 0.437500
v -0.187500 0.437500 0.437500
v -0.250000 0.437500 0.437500
v -0.375000 0.437500 0.437500
v -0.062500 0.437500 0.500000
v 0.375000 0.437500 0.500000
v 0.250000 0.437500 0.500000
v 0.187500 0.437500 0.500000
v 0.062500 0.437500 0.500000
v -0.187500 0.437500 0.500000
v -0.250000 0.437500 0.500000
v -0.375000 0.437500 0.500000
vt 0.000000 0.000000
vt 0.062500 0.062500
vt 0.000000 0.937500
vt 0.437500 0.937500
vt 0.312500 0.000000
vt 0.437500 0.000000
vt 0.000000 0.000000
vt 0.062500 0.062500
vt 0.000000 0.937500
vt 0.125000 0.937500
vt 0.250000 0.000000
vt 0.250000 0.937500
vt 0.875000 0.062500
vt 0.750000 0.000000
vt 0.750000 0.062500
vt 0.437500 0.062500
vt 0.312500 0.062500
vt 0.062500 0.500000
vt 0.062500 0.937500
vt 0.000000 0.000000
vt 0.062500 0.000000
vt 0.875000 0.937500
vt 0.750000 0.000000
vt 0.875000 0.000000
vt 0.500000 0.937500
vt 0.500000 0.062500
vt 0.062500 0.062500
vt 1.000000 0.000000
vt 0.937500 0.500000
vt 1.000000 0.500000
vt 0.500000 0.062500
vt 0.562500 0.000000
vt 1.000000 0.062500
vt 0.000000 0.000000
vt 0.000000 0.062500
vt 0.937500 0.062500
vt 0.875000 0.000000
vt 0.937500 0.000000
vt 0.312500 0.062500
vt 0.437500 0.937500
vt 0.437500 0.062500
vt 0.750000 0.062500
vt 0.687500 0.000000
vt 0.750000 0.000000
vt 1.000000 0.937500
vt 0.937500 0.000000
vt 1.000000 0.000000
vt 0.250000 0.000000
vt 0.312500 0.000000
vt 0.125000 0.062500
vt 0.062500 0.000000
vt 0.125000 0.000000
vt 0.562500 0.937500
vt 0.687500 0.000000
vt 0.687500 0.937500
vt 0.000000 0.937500
vt 0.062500 0.937500
vt 0.062500 0.062500
vt 0.250000 0.937500
vt 0.250000 0.062500
vt 0.250000 0.062500
vt 0.125000 0.000000
vt 0.125000 0.062500
vt 0.000000 0.500000
vt 0.062500 0.000000
vt 0.000000 0.000000
vt 0.687500 0.062500
vt 0.562500 0.000000
vt 0.562500 0.062500
vt 0.000000 0.000000
vt 0.500000 0.062500
vt 0.000000 0.937500
vt 0.000000 0.062500
vt 0.062500 0.937500
vt 0.062500 0.062500
vt 0.937500 0.062500
vt 1.000000 0.937500
vt 1.000000 0.062500
vt 0.437500 0.500000
vt 0.062500 0.437500
vt 0.437500 0.437500
vt 0.937500 0.500000
vt 0.062500 0.437500
vt 0.937500 0.437500
vt 0.062500 0.500000
vt 0.437500 0.437500
vt 0.062500 0.500000
vt 0.937500 0.437500
vt 0.062500 0.437500
vt 0.937500 0.062500
vt 0.062500 0.437500
vt 0.062500 0.062500
vt 0.062500 0.062500
vt 0.937500 0.437500
vt 0.937500 0.062500
vt 0.562500 1.000000
vt 0.000000 0.937500
vt 0.562500 0.937500
vt 1.000000 1.000000
vt 0.000000 0.937500
vt 1.000000 0.937500
vt 0.000000 1.000000
vt 0.562500 0.937500
vt 0.000000 1.000000
vt 1.000000 0.937500
vt 0.000000 0.937500
vt 1.000000 0.000000
vt 0.000000 0.562500
vt 0.000000 0.000000
vt 0.000000 0.000000
vt 1.000000 0.562500
vt 1.000000 0.000000
vt 0.000000 0.000000
vt 0.062500 0.062500
vt 1.000000 0.562500
vt 0.562500 0.062500
vt 0.687500 0.062500
vt 0.562500 0.000000
vt 0.562500 0.062500
vt 0.000000 0.000000
vt 0.062500 0.062500
vt 0.000000 0.937500
vt 0.000000 0.937500
vt 0.062500 0.937500
vt 0.062500 0.062500
vt 0.875000 0.937500
vt 0.875000 0.062500
vt 0.000000 0.937500
vt 0.062500 0.937500
vt 0.062500 0.062500
vt 0.000000 0.937500
vt 0.062500 0.062500
vt 0.000000 0.000000
vt 0.437500 0.062500
vt 0.312500 0.000000
vt 0.312500 0.062500
vt 0.062500 0.062500
vt 0.000000 0.937500
vt 0.000000 0.000000
vt 0.687500 0.937500
vt 0.687500 0.062500
vt 0.062500 0.000000
vt 0.062500 0.937500
vt 0.312500 0.937500
vt 0.062500 0.000000
vt 0.062500 0.937500
vt 0.125000 0.000000
vt 0.875000 0.000000
vt 0.000000 0.500000
vt 0.000000 0.562500
vt 1.000000 0.562500
vt 0.937500 0.500000
vt 1.000000 0.500000
vt 0.937500 0.062500
vt 0.875000 0.062500
vt 0.125000 0.062500
vt 0.750000 0.062500
vt 0.687500 0.062500
vt 0.562500 0.062500
vt 0.250000 0.062500
vt 0.000000 0.937500
vt 0.750000 0.937500
vt 0.062500 0.000000
vt 0.000000 0.000000
vt 0.000000 0.937500
vt 0.937500 0.000000
vt 0.500000 0.937500
vt 0.562500 0.062500
vt 1.000000 0.000000
vt 0.312500 0.937500
vt 0.937500 0.937500
vt 0.562500 0.000000
vt 0.062500 0.000000
vt 0.000000 0.000000
vt 0.125000 0.937500
vt 0.250000 0.000000
vt 0.062500 0.500000
vt 0.687500 0.000000
vt 0.562500 0.000000
vt 0.562500 0.062500
vt 0.500000 0.937500
vt 0.000000 0.937500
vt 0.937500 0.937500
vt 0.062500 0.500000
vt 0.437500 0.500000
vt 0.937500 0.500000
vt 0.937500 0.437500
vt 0.062500 0.437500
vt 0.000000 1.000000
vt 0.562500 1.000000
vt 1.000000 1.000000
vt 1.000000 0.562500
vt 0.000000 0.562500
vt 0.500000 0.062500
vt 0.500000 0.937500
vt 0.000000 0.937500
vt 0.937500 0.062500
vt 0.937500 0.000000
vt 1.000000 0.000000
vt 0.000000 0.562500
vt 0.062500 0.062500
vt 0.062500 0.000000
vt 0.750000 0.000000
vt 0.875000 0.000000
vt 0.875000 0.062500
vt 0.437500 0.062500
vt 0.125000 0.062500
vt 0.125000 0.000000
vt 0.250000 0.000000
vt 0.250000 0.062500
vt 0.750000 0.062500
vt 0.312500 0.062500
vt 0.312500 0.000000
vt 0.437500 0.000000
vt 0.562500 0.000000
vt 0.687500 0.000000
vt 0.437500 0.000000
vt 0.062500 0.000000
vt 0.062500 0.937500
vt 0.062500 0.000000
vt 0.000000 0.000000
vt 0.750000 0.937500
vt 0.062500 0.000000
vt 0.000000 0.000000
vt 0.062500 0.937500
vt 0.062500 0.000000
vt 0.437500 0.000000
vt 0.062500 0.000000
vt 0.062500 0.937500
vt 0.562500 0.937500
vn 1.0000 0.0000 0.0000
vn 0.0000 0.0000 1.0000
vn 0.0000 1.0000 0.0000
vn -1.0000 0.0000 0.0000
vn 0.0000 0.0000 -1.0000
vn 0.0000 -1.0000 0.0000
g shelves_Cube.005_None
s off
f 64/1/1 16/2/1 74/3/1
f 73/4/2 59/5/2 60/6/2
f 60/7/1 20/8/1 73/9/1
f 80/10/2 58/11/2 79/12/2
f 72/13/3 79/14/3 71/15/3
f 19/16/3 18/17/3 28/18/3
f 53/19/2 51/20/2 52/21/2
f 74/22/2 63/23/2 64/24/2
f 32/25/4 28/26/4 15/27/4
f 54/28/3 31/29/3 30/30/3
f 26/31/4 3/32/4 51/20/4
f 2/33/5 3/34/5 4/35/5
f 15/36/2 13/37/2 14/38/2
f 21/39/5 69/40/5 20/41/5
f 17/42/2 11/43/2 12/44/2
f 55/45/2 50/46/2 49/47/2
f 21/39/2 7/48/2 8/49/2
f 23/50/2 5/51/2 6/52/2
f 77/53/2 62/54/2 76/55/2
f 78/56/4 70/57/4 21/58/4
f 23/50/5 71/59/5 22/60/5
f 66/61/3 74/62/3 65/63/3
f 29/64/3 56/65/3 55/66/3
f 70/67/3 73/68/3 69/69/3
f 49/70/1 25/71/1 55/72/1
f 26/73/5 31/74/5 27/75/5
f 28/76/5 29/77/5 25/78/5
f 34/79/1 35/80/1 33/81/1
f 36/82/2 39/83/2 35/84/2
f 40/85/4 37/86/4 39/83/4
f 38/87/5 33/88/5 37/89/5
f 39/90/6 33/91/6 35/92/6
f 36/93/3 38/94/3 40/95/3
f 42/96/1 43/97/1 41/98/1
f 44/99/2 47/100/2 43/101/2
f 48/102/4 45/103/4 47/100/4
f 46/104/5 41/105/5 45/106/5
f 47/107/6 41/108/6 43/109/6
f 44/110/3 46/111/3 48/112/3
f 52/113/1 5/51/1 24/114/1
f 3/115/6 9/116/6 8/117/6
f 20/41/2 10/118/2 19/119/2
f 58/120/1 22/121/1 79/122/1
f 75/123/4 66/124/4 17/125/4
f 17/42/5 65/126/5 16/127/5
f 77/128/4 68/129/4 19/130/4
f 80/131/4 23/132/4 57/133/4
f 68/134/3 76/135/3 67/136/3
f 18/137/1 76/138/1 62/139/1
f 19/119/5 67/140/5 18/141/5
f 13/142/1 16/2/1 64/1/1
f 16/2/1 65/143/1 74/3/1
f 73/4/2 78/144/2 59/5/2
f 9/145/1 20/8/1 60/7/1
f 20/8/1 69/146/1 73/9/1
f 80/10/2 57/147/2 58/11/2
f 72/13/3 80/148/3 79/14/3
f 28/18/3 25/149/3 2/150/3
f 2/150/3 4/151/3 27/152/3
f 4/151/3 26/153/3 27/152/3
f 27/152/3 24/154/3 23/155/3
f 16/156/3 15/27/3 28/18/3
f 28/18/3 2/150/3 27/152/3
f 27/152/3 23/155/3 22/157/3
f 21/158/3 20/159/3 27/152/3
f 20/159/3 19/16/3 27/152/3
f 27/152/3 22/157/3 21/158/3
f 16/156/3 28/18/3 17/160/3
f 28/18/3 27/152/3 19/16/3
f 17/160/3 28/18/3 18/17/3
f 53/19/2 54/161/2 51/20/2
f 74/22/2 75/162/2 63/23/2
f 15/27/4 14/163/4 50/164/4
f 50/164/4 56/165/4 15/27/4
f 56/165/4 32/25/4 15/27/4
f 54/28/3 53/166/3 31/29/3
f 54/161/4 30/167/4 26/31/4
f 26/31/4 4/168/4 3/32/4
f 51/20/4 54/161/4 26/31/4
f 2/33/5 1/169/5 3/34/5
f 15/36/2 16/127/2 13/37/2
f 21/39/5 70/170/5 69/40/5
f 17/42/2 18/141/2 11/43/2
f 55/45/2 56/171/2 50/46/2
f 21/39/2 22/60/2 7/48/2
f 23/50/2 24/114/2 5/51/2
f 77/53/2 61/172/2 62/54/2
f 8/173/4 59/174/4 21/58/4
f 59/174/4 78/56/4 21/58/4
f 23/50/5 72/175/5 71/59/5
f 66/61/3 75/176/3 74/62/3
f 29/64/3 32/177/3 56/65/3
f 70/67/3 78/178/3 73/68/3
f 49/70/1 1/179/1 25/71/1
f 1/179/1 2/180/1 25/71/1
f 25/71/1 29/181/1 55/72/1
f 26/73/5 30/182/5 31/74/5
f 28/76/5 32/183/5 29/77/5
f 34/79/1 36/184/1 35/80/1
f 36/82/2 40/85/2 39/83/2
f 40/85/4 38/185/4 37/86/4
f 38/87/5 34/186/5 33/88/5
f 39/90/6 37/187/6 33/91/6
f 36/93/3 34/188/3 38/94/3
f 42/96/1 44/189/1 43/97/1
f 44/99/2 48/102/2 47/100/2
f 48/102/4 46/190/4 45/103/4
f 46/104/5 42/191/5 41/105/5
f 47/107/6 45/192/6 41/108/6
f 44/110/3 42/193/3 46/111/3
f 27/194/1 31/195/1 24/114/1
f 31/195/1 53/196/1 24/114/1
f 53/196/1 52/113/1 24/114/1
f 5/197/6 52/198/6 51/199/6
f 1/200/6 49/70/6 14/201/6
f 49/70/6 50/202/6 14/201/6
f 5/197/6 51/199/6 3/115/6
f 58/203/6 57/204/6 6/205/6
f 6/205/6 5/197/6 3/115/6
f 3/115/6 1/200/6 10/206/6
f 1/200/6 14/201/6 13/207/6
f 13/207/6 64/208/6 63/209/6
f 1/200/6 13/207/6 12/210/6
f 58/203/6 6/205/6 7/211/6
f 6/205/6 3/115/6 7/211/6
f 13/207/6 63/209/6 12/210/6
f 11/212/6 62/213/6 61/214/6
f 1/200/6 12/210/6 11/212/6
f 11/212/6 61/214/6 10/206/6
f 1/200/6 11/212/6 10/206/6
f 8/117/6 7/211/6 3/115/6
f 60/215/6 59/216/6 8/117/6
f 10/206/6 9/116/6 3/115/6
f 9/116/6 60/215/6 8/117/6
f 20/41/2 9/217/2 10/118/2
f 7/218/1 22/121/1 58/120/1
f 22/121/1 71/219/1 79/122/1
f 12/220/4 63/221/4 17/125/4
f 63/221/4 75/123/4 17/125/4
f 17/42/5 66/222/5 65/126/5
f 10/223/4 61/224/4 19/130/4
f 61/224/4 77/128/4 19/130/4
f 72/225/4 23/132/4 80/131/4
f 23/132/4 6/226/4 57/133/4
f 68/134/3 77/227/3 76/135/3
f 62/139/1 11/228/1 18/137/1
f 18/137/1 67/229/1 76/138/1
f 19/119/5 68/230/5 67/140/5
