# Blender v3.5.0 OBJ File: 'models.blend'
# www.blender.org
o showerhead_Cube.147
v 0.062500 0.312500 0.062500
v 0.062500 0.375000 0.062500
v 0.062500 0.312500 0.500000
v 0.062500 0.375000 0.500000
v -0.062500 0.312500 0.062500
v -0.062500 0.375000 0.062500
v -0.062500 0.312500 0.500000
v -0.062500 0.375000 0.500000
v 0.062500 0.312500 0.000000
v 0.062500 0.375000 0.000000
v -0.062500 0.312500 0.000000
v -0.062500 0.375000 0.000000
v 0.062500 0.250000 0.062500
v -0.062500 0.250000 0.062500
v 0.062500 0.250000 0.000000
v -0.062500 0.250000 0.000000
v 0.062500 0.187500 0.062500
v -0.062500 0.187500 0.062500
v 0.062500 0.187500 0.000000
v -0.062500 0.187500 0.000000
v 0.062500 0.250000 0.125000
v -0.062500 0.250000 0.125000
v 0.062500 0.187500 0.125000
v -0.062500 0.187500 0.125000
v 0.062500 0.250000 -0.062500
v -0.062500 0.250000 -0.062500
v 0.062500 0.187500 -0.062500
v -0.062500 0.187500 -0.062500
v -0.125000 0.250000 0.062500
v -0.125000 0.250000 0.000000
v -0.125000 0.187500 0.062500
v -0.125000 0.187500 0.000000
v -0.125000 0.250000 0.125000
v -0.125000 0.187500 0.125000
v -0.125000 0.250000 -0.062500
v -0.125000 0.187500 -0.062500
v 0.125000 0.250000 0.062500
v 0.125000 0.250000 0.000000
v 0.125000 0.187500 0.062500
v 0.125000 0.187500 0.000000
v 0.125000 0.250000 0.125000
v 0.125000 0.187500 0.125000
v 0.125000 0.250000 -0.062500
v 0.125000 0.187500 -0.062500
vt -0.437500 0.000000
vt 0.000000 -0.062500
vt -0.437500 -0.062500
vt 0.062500 0.000000
vt 0.187500 -0.062500
vt 0.062500 -0.062500
vt 0.000000 0.000000
vt -0.437500 -0.062500
vt 0.000000 -0.062500
vt 0.062500 0.312500
vt 0.187500 0.250000
vt 0.187500 0.312500
vt 0.187500 0.750000
vt 0.062500 0.312500
vt 0.062500 0.750000
vt 0.062500 0.750000
vt 0.187500 0.750000
vt 0.187500 0.000000
vt 0.062500 -0.062500
vt 0.187500 -0.062500
vt -0.437500 0.000000
vt -0.500000 -0.062500
vt -0.500000 0.000000
vt -0.500000 0.000000
vt -0.437500 -0.062500
vt -0.437500 0.000000
vt -0.062500 0.000000
vt 0.000000 0.062500
vt -0.062500 0.062500
vt 0.062500 0.000000
vt 0.187500 -0.062500
vt 0.187500 0.000000
vt 0.187500 0.000000
vt 0.062500 -0.062500
vt 0.062500 0.000000
vt -0.437500 0.000000
vt -0.500000 -0.062500
vt -0.500000 0.000000
vt 0.062500 0.062500
vt -0.062500 0.000000
vt -0.062500 0.062500
vt -0.062500 -0.500000
vt 0.000000 -0.437500
vt -0.062500 -0.437500
vt 0.062500 0.000000
vt 0.000000 -0.062500
vt 0.062500 -0.125000
vt 0.000000 -0.062500
vt 0.062500 -0.062500
vt 0.187500 -0.125000
vt 0.062500 -0.187500
vt 0.062500 -0.125000
vt 0.187500 -0.062500
vt 0.062500 0.000000
vt 0.000000 0.062500
vt 0.062500 0.062500
vt 0.187500 0.000000
vt 0.187500 -0.062500
vt 0.062500 0.000000
vt 0.187500 -0.062500
vt 0.187500 0.000000
vt 0.187500 0.062500
vt 0.062500 0.062500
vt 0.187500 0.062500
vt -0.062500 -0.187500
vt 0.000000 -0.125000
vt -0.062500 -0.125000
vt -0.500000 -0.125000
vt -0.437500 -0.187500
vt -0.437500 -0.125000
vt -0.375000 -0.125000
vt 0.062500 -0.125000
vt 0.000000 -0.187500
vt 0.062500 -0.187500
vt -0.062500 -0.375000
vt 0.000000 -0.437500
vt -0.062500 -0.437500
vt -0.062500 -0.125000
vt 0.000000 -0.187500
vt -0.062500 -0.187500
vt 0.000000 -0.375000
vt -0.062500 -0.375000
vt 0.000000 -0.500000
vt -0.062500 -0.500000
vt -0.062500 0.062500
vt 0.000000 0.000000
vt -0.062500 0.000000
vt -0.437500 -0.125000
vt -0.500000 -0.187500
vt -0.500000 -0.125000
vt 0.062500 -0.187500
vt 0.000000 -0.125000
vt 0.062500 -0.125000
vt -0.375000 -0.187500
vt -0.437500 -0.187500
vt 0.000000 0.000000
vt 0.062500 -0.125000
vt 0.000000 -0.187500
vt 0.062500 -0.187500
vt 0.000000 -0.125000
vt 0.062500 -0.125000
vt 0.000000 0.000000
vt 0.062500 0.000000
vt 0.000000 -0.125000
vt 0.000000 0.000000
vt 0.187500 0.000000
vt 0.062500 0.250000
vt 0.187500 0.312500
vt 0.062500 0.000000
vt -0.500000 0.000000
vt -0.500000 -0.062500
vt -0.500000 -0.062500
vt 0.000000 0.000000
vt 0.062500 -0.062500
vt -0.437500 -0.062500
vt 0.062500 0.000000
vt 0.000000 -0.500000
vt 0.000000 0.000000
vt 0.000000 -0.125000
vt 0.187500 -0.187500
vt 0.187500 0.000000
vt 0.000000 0.000000
vt 0.062500 -0.062500
vt 0.187500 0.000000
vt -0.500000 -0.187500
vt -0.375000 -0.187500
vt 0.000000 -0.375000
vt 0.000000 -0.125000
vt 0.000000 0.062500
vt -0.375000 -0.125000
vt 0.000000 0.062500
vt 0.000000 -0.187500
vn 1.0000 0.0000 0.0000
vn 0.0000 0.0000 1.0000
vn -1.0000 0.0000 0.0000
vn 0.0000 1.0000 0.0000
vn 0.0000 -1.0000 0.0000
vn 0.0000 0.0000 -1.0000
g showerhead_Cube.147_UV_steel
s off
f 2/1/1 3/2/1 1/3/1
f 4/4/2 7/5/2 3/6/2
f 8/7/3 5/8/3 7/9/3
f 2/10/4 12/11/4 6/12/4
f 7/13/5 1/14/5 3/15/5
f 4/16/4 6/12/4 8/17/4
f 12/18/6 9/19/6 11/20/6
f 6/21/3 11/22/3 5/8/3
f 1/3/1 10/23/1 2/1/1
f 11/24/3 14/25/3 5/26/3
f 26/27/4 30/28/4 16/29/4
f 9/30/6 16/31/6 11/32/6
f 5/33/2 13/34/2 1/35/2
f 1/36/1 15/37/1 9/38/1
f 18/39/5 19/40/5 17/41/5
f 16/42/4 29/43/4 14/44/4
f 21/45/4 37/46/4 13/34/4
f 19/47/5 39/48/5 17/49/5
f 22/50/2 23/51/2 21/52/2
f 14/53/4 21/45/4 13/34/4
f 27/54/5 40/55/5 19/56/5
f 17/49/5 24/57/5 18/58/5
f 25/59/6 28/60/6 26/61/6
f 20/62/5 27/54/5 19/56/5
f 15/63/4 26/61/4 16/64/4
f 28/65/6 35/66/6 26/67/6
f 30/68/3 31/69/3 29/70/3
f 31/69/3 33/71/3 29/70/3
f 30/72/3 36/73/3 32/74/3
f 24/75/5 31/76/5 18/77/5
f 22/78/2 34/79/2 24/80/2
f 14/44/4 33/81/4 22/82/4
f 18/77/5 32/83/5 20/84/5
f 20/85/5 36/86/5 28/87/5
f 37/88/1 40/89/1 38/90/1
f 40/91/1 43/92/1 38/93/1
f 37/88/1 42/94/1 39/95/1
f 15/63/4 43/96/4 25/59/4
f 25/97/6 44/98/6 27/99/6
f 13/34/4 38/100/4 15/101/4
f 17/49/5 42/102/5 23/103/5
f 23/51/2 41/104/2 21/52/2
f 2/1/1 4/105/1 3/2/1
f 4/4/2 8/106/2 7/5/2
f 8/7/3 6/21/3 5/8/3
f 2/10/4 10/107/4 12/11/4
f 7/13/5 5/108/5 1/14/5
f 4/16/4 2/10/4 6/12/4
f 12/18/6 10/109/6 9/19/6
f 6/21/3 12/110/3 11/22/3
f 1/3/1 9/111/1 10/23/1
f 11/24/3 16/112/3 14/25/3
f 26/27/4 35/113/4 30/28/4
f 9/30/6 15/114/6 16/31/6
f 5/33/2 14/53/2 13/34/2
f 1/36/1 13/115/1 15/37/1
f 18/39/5 20/116/5 19/40/5
f 16/42/4 30/117/4 29/43/4
f 21/45/4 41/118/4 37/46/4
f 19/47/5 40/119/5 39/48/5
f 22/50/2 24/120/2 23/51/2
f 14/53/4 22/121/4 21/45/4
f 27/54/5 44/122/5 40/55/5
f 17/49/5 23/103/5 24/57/5
f 25/59/6 27/123/6 28/60/6
f 20/62/5 28/124/5 27/54/5
f 15/63/4 25/59/4 26/61/4
f 28/65/6 36/73/6 35/66/6
f 30/68/3 32/125/3 31/69/3
f 31/69/3 34/126/3 33/71/3
f 30/72/3 35/66/3 36/73/3
f 24/75/5 34/127/5 31/76/5
f 22/78/2 33/128/2 34/79/2
f 14/44/4 29/43/4 33/81/4
f 18/77/5 31/76/5 32/83/5
f 20/85/5 32/129/5 36/86/5
f 37/88/1 39/95/1 40/89/1
f 40/91/1 44/98/1 43/92/1
f 37/88/1 41/130/1 42/94/1
f 15/63/4 38/131/4 43/96/4
f 25/97/6 43/92/6 44/98/6
f 13/34/4 37/46/4 38/100/4
f 17/49/5 39/48/5 42/102/5
f 23/51/2 42/132/2 41/104/2
