# Blender v3.0.0 Beta OBJ File: 'models.blend'
# www.blender.org
mtllib signpost.mtl
o signpost_Cube.001
v -0.062500 -0.500000 -0.062500
v -0.062500 0.375000 -0.062500
v 0.062500 -0.500000 -0.062500
v 0.062500 0.375000 -0.062500
v -0.062500 -0.500000 0.062500
v -0.062500 0.375000 0.062500
v 0.062500 -0.500000 0.062500
v 0.062500 0.375000 0.062500
v -0.125000 0.000000 -0.187500
v -0.125000 0.312500 -0.187500
v -0.062500 0.000000 -0.187500
v -0.062500 0.312500 -0.187500
v -0.125000 0.000000 0.187500
v -0.125000 0.312500 0.187500
v -0.062500 0.000000 0.187500
v -0.062500 0.312500 0.187500
v -0.125000 0.062500 -0.187500
v -0.125000 0.125000 -0.187500
v -0.125000 0.187500 -0.187500
v -0.125000 0.250000 -0.187500
v -0.062500 0.250000 -0.187500
v -0.062500 0.187500 -0.187500
v -0.062500 0.125000 -0.187500
v -0.062500 0.062500 -0.187500
v -0.062500 0.250000 0.187500
v -0.062500 0.187500 0.187500
v -0.062500 0.125000 0.187500
v -0.062500 0.062500 0.187500
v -0.125000 0.250000 0.187500
v -0.125000 0.187500 0.187500
v -0.125000 0.125000 0.187500
v -0.125000 0.062500 0.187500
v -0.125000 0.062500 -0.250000
v -0.125000 0.125000 -0.250000
v -0.125000 0.187500 -0.250000
v -0.125000 0.250000 -0.250000
v -0.062500 0.250000 -0.250000
v -0.062500 0.187500 -0.250000
v -0.062500 0.125000 -0.250000
v -0.062500 0.062500 -0.250000
v -0.125000 0.125000 -0.312500
v -0.125000 0.187500 -0.312500
v -0.062500 0.187500 -0.312500
v -0.062500 0.125000 -0.312500
v -0.062500 0.250000 0.250000
v -0.062500 0.187500 0.250000
v -0.062500 0.125000 0.250000
v -0.062500 0.062500 0.250000
v -0.125000 0.250000 0.250000
v -0.125000 0.187500 0.250000
v -0.125000 0.125000 0.250000
v -0.125000 0.062500 0.250000
vt -0.000000 0.625000
vt 0.875000 0.625000
vt 0.875000 0.750000
vt 0.000000 0.750000
vt 0.000000 0.500000
vt 0.875000 0.500000
vt 0.875000 0.625000
vt 0.000000 0.625000
vt 0.875000 0.875000
vt -0.000000 0.875000
vt -0.000000 0.750000
vt 0.875000 0.750000
vt -0.000000 0.875000
vt 0.875000 0.875000
vt 0.875000 1.000000
vt 0.000000 1.000000
vt 0.750000 0.750000
vt 0.750000 0.625000
vt 0.875000 0.625000
vt 0.875000 0.750000
vt 0.750000 0.875000
vt 0.750000 0.750000
vt 0.875000 0.750000
vt 0.187500 0.375000
vt 0.187500 0.437500
vt 0.250000 0.437500
vt 0.250000 0.375000
vt 0.687500 0.375000
vt 0.687500 0.437500
vt 0.312500 0.437500
vt 0.312500 0.375000
vt 0.250000 0.375000
vt 0.250000 0.437500
vt 0.187500 0.437500
vt 0.187500 0.375000
vt 0.312500 0.187500
vt 0.312500 0.125000
vt 0.687500 0.125000
vt 0.687500 0.187500
vt 0.625000 0.062500
vt 0.312500 0.062500
vt 0.312500 0.125000
vt 0.625000 0.125000
vt 0.312500 0.062500
vt 0.625000 0.062500
vt 0.625000 0.125000
vt 0.312500 0.437500
vt 0.312500 0.375000
vt 0.687500 0.375000
vt 0.687500 0.437500
vt 0.312500 0.312500
vt 0.687500 0.312500
vt 0.312500 0.250000
vt 0.687500 0.250000
vt 0.250000 0.125000
vt 0.250000 0.187500
vt 0.187500 0.187500
vt 0.187500 0.125000
vt 0.250000 0.375000
vt 0.250000 0.312500
vt 0.312500 0.250000
vt 0.312500 0.312500
vt 0.250000 0.312500
vt 0.250000 0.250000
vt 0.312500 0.062500
vt 0.312500 0.125000
vt 0.250000 0.125000
vt 0.250000 0.062500
vt 0.687500 0.125000
vt 0.687500 0.187500
vt 0.312500 0.187500
vt 0.312500 0.125000
vt 0.687500 0.250000
vt 0.687500 0.312500
vt 0.187500 0.125000
vt 0.187500 0.187500
vt 0.250000 0.187500
vt 0.250000 0.125000
vt 0.750000 0.187500
vt 0.750000 0.250000
vt 0.625000 0.125000
vt 0.625000 0.062500
vt 0.687500 0.062500
vt 0.687500 0.125000
vt 0.750000 0.250000
vt 0.750000 0.312500
vt 0.187500 0.187500
vt 0.187500 0.250000
vt 0.250000 0.250000
vt 0.250000 0.187500
vt 0.812500 0.250000
vt 0.812500 0.312500
vt 0.187500 0.312500
vt 0.187500 0.375000
vt 0.250000 0.375000
vt 0.250000 0.312500
vt 0.750000 0.312500
vt 0.750000 0.375000
vt 0.750000 0.187500
vt 0.750000 0.375000
vt 0.625000 0.062500
vt 0.625000 0.125000
vt 0.687500 0.125000
vt 0.687500 0.062500
vt 0.187500 0.250000
vt 0.187500 0.312500
vt 0.250000 0.312500
vt 0.250000 0.250000
vt 0.687500 0.125000
vt 0.687500 0.062500
vt 0.750000 0.062500
vt 0.750000 0.125000
vt 0.812500 0.250000
vt 0.812500 0.312500
vt 0.687500 0.062500
vt 0.687500 0.125000
vt 0.750000 0.125000
vt 0.750000 0.062500
vt 0.250000 0.187500
vt 0.187500 0.250000
vt 0.187500 0.187500
vt 0.187500 0.312500
vt 0.250000 0.375000
vt 0.187500 0.375000
vt 0.250000 0.250000
vt 0.250000 0.187500
vt 0.250000 0.062500
vt 0.312500 0.062500
vt 0.312500 0.125000
vt 0.250000 0.125000
vn 0.0000 0.0000 -1.0000
vn 1.0000 0.0000 0.0000
vn 0.0000 0.0000 1.0000
vn -1.0000 0.0000 0.0000
vn 0.0000 -1.0000 0.0000
vn 0.0000 1.0000 0.0000
usemtl None
s off
f 1/1/1 2/2/1 4/3/1 3/4/1
f 3/5/2 4/6/2 8/7/2 7/8/2
f 7/9/3 8/10/3 6/11/3 5/12/3
f 5/13/4 6/14/4 2/15/4 1/16/4
f 3/17/5 7/18/5 5/19/5 1/20/5
f 8/21/6 4/22/6 2/23/6 6/14/6
f 20/24/1 10/25/1 12/26/1 21/27/1
f 21/28/2 12/29/2 16/30/2 25/31/2
f 25/32/3 16/33/3 14/34/3 29/35/3
f 29/36/4 14/37/4 10/38/4 20/39/4
f 11/40/5 15/41/5 13/42/5 9/43/5
f 16/44/6 12/45/6 10/46/6 14/37/6
f 13/47/4 32/48/4 17/49/4 9/50/4
f 32/48/4 31/51/4 18/52/4 17/49/4
f 31/51/4 30/53/4 19/54/4 18/52/4
f 30/53/4 29/36/4 20/39/4 19/54/4
f 15/55/3 28/56/3 32/57/3 13/58/3
f 31/51/4 32/48/4 52/59/4 51/60/4
f 27/61/2 26/62/2 46/63/2 47/64/2
f 25/65/6 29/66/6 49/67/6 45/68/6
f 11/69/2 24/70/2 28/71/2 15/72/2
f 24/70/2 23/73/2 27/61/2 28/71/2
f 23/73/2 22/74/2 26/62/2 27/61/2
f 22/74/2 21/28/2 25/31/2 26/62/2
f 9/75/1 17/76/1 24/77/1 11/78/1
f 23/73/2 24/70/2 40/79/2 39/80/2
f 20/81/6 21/82/6 37/83/6 36/84/6
f 18/52/4 19/54/4 35/85/4 34/86/4
f 33/87/1 34/88/1 39/89/1 40/90/1
f 34/86/4 35/85/4 42/91/4 41/92/4
f 35/93/1 36/94/1 37/95/1 38/96/1
f 21/28/2 22/74/2 38/97/2 37/98/2
f 19/54/4 20/39/4 36/99/4 35/85/4
f 17/49/4 18/52/4 34/86/4 33/100/4
f 24/101/5 17/102/5 33/103/5 40/104/5
f 22/74/2 23/73/2 39/80/2 38/97/2
f 41/105/1 42/106/1 43/107/1 44/108/1
f 35/109/6 38/110/6 43/111/6 42/112/6
f 38/97/2 39/80/2 44/113/2 43/114/2
f 39/115/5 34/116/5 41/117/5 44/118/5
f 48/119/3 47/64/3 51/120/3 52/121/3
f 47/64/3 46/63/3 50/122/3 51/120/3
f 46/63/3 45/123/3 49/124/3 50/122/3
f 29/36/4 30/53/4 50/125/4 49/126/4
f 28/71/2 27/61/2 47/64/2 48/119/2
f 32/127/5 28/128/5 48/129/5 52/130/5
f 26/62/2 25/31/2 45/123/2 46/63/2
f 30/53/4 31/51/4 51/60/4 50/125/4
