# Blender v3.3.0 OBJ File: ''
# www.blender.org
o table_small_square_spliced_Cube.039
v 0.312500 -0.000000 0.250000
v 0.312500 -0.125000 0.312500
v 0.312500 -0.125000 0.250000
v 0.312500 -0.000000 0.312500
v 0.250000 -0.125000 0.312500
v 0.250000 -0.000000 0.312500
v 0.250000 -0.125000 0.250000
v 0.250000 -0.000000 0.250000
v 0.250000 -0.500000 0.312500
v 0.312500 -0.500000 0.250000
v 0.312500 -0.500000 0.312500
v 0.250000 -0.250000 0.250000
v 0.250000 -0.500000 0.250000
v 0.250000 -0.250000 0.312500
v 0.312500 -0.250000 0.312500
v 0.312500 -0.250000 0.250000
v 0.250000 -0.187500 -0.250000
v 0.250000 -0.187500 0.250000
v -0.250000 -0.125000 0.312500
v 0.250000 -0.187500 0.312500
v 0.312500 -0.187500 0.312500
v 0.312500 -0.187500 0.250000
v -0.250000 -0.125000 0.250000
v -0.250000 -0.000000 0.312500
v -0.250000 -0.187500 0.250000
v -0.250000 -0.187500 0.312500
v -0.312500 -0.125000 0.312500
v -0.312500 -0.187500 0.250000
v -0.312500 -0.187500 0.312500
v -0.312500 -0.500000 0.312500
v -0.312500 -0.125000 -0.250000
v -0.312500 -0.125000 0.250000
v -0.250000 -0.500000 0.312500
v -0.312500 -0.500000 0.250000
v -0.250000 -0.500000 0.250000
v -0.250000 -0.000000 0.250000
v -0.312500 -0.000000 0.312500
v -0.312500 -0.000000 0.250000
v -0.312500 -0.187500 -0.312500
v -0.312500 -0.187500 -0.250000
v -0.250000 -0.187500 -0.250000
v -0.250000 -0.125000 -0.250000
v -0.250000 -0.187500 -0.312500
v -0.312500 -0.125000 -0.312500
v -0.250000 -0.125000 -0.312500
v -0.312500 0.000000 -0.312500
v -0.250000 -0.500000 -0.312500
v -0.312500 -0.500000 -0.250000
v -0.250000 -0.500000 -0.250000
v -0.312500 -0.500000 -0.312500
v -0.250000 0.000000 -0.250000
v -0.312500 0.000000 -0.250000
v -0.250000 0.000000 -0.312500
v 0.250000 -0.125000 -0.250000
v 0.312500 -0.187500 -0.250000
v 0.312500 -0.125000 -0.250000
v 0.250000 -0.125000 -0.312500
v 0.312500 -0.187500 -0.312500
v 0.250000 -0.187500 -0.312500
v 0.312500 -0.125000 -0.312500
v 0.250000 -0.500000 -0.250000
v 0.312500 0.000000 -0.312500
v 0.312500 0.000000 -0.250000
v 0.250000 0.000000 -0.312500
v 0.250000 0.000000 -0.250000
v 0.312500 -0.500000 -0.312500
v 0.312500 -0.500000 -0.250000
v 0.250000 -0.500000 -0.312500
v 0.375000 0.062500 -0.000000
v 0.375000 -0.000000 0.375000
v 0.375000 0.000000 -0.000000
v 0.000000 0.062500 0.375000
v -0.375000 -0.000000 0.375000
v 0.000000 -0.000000 0.375000
v -0.375000 0.062500 0.000000
v -0.375000 0.000000 -0.375000
v -0.375000 0.000000 0.000000
v -0.000000 0.062500 -0.375000
v 0.375000 0.000000 -0.375000
v -0.000000 0.000000 -0.375000
v 0.000000 0.000000 0.000000
v 0.375000 0.125000 0.500000
v 0.500000 0.125000 0.375000
v 0.375000 0.125000 0.375000
v 0.375000 0.125000 -0.000000
v -0.000000 0.125000 -0.375000
v 0.000000 0.125000 0.000000
v 0.375000 0.125000 -0.375000
v -0.000000 0.125000 -0.500000
v 0.375000 0.062500 -0.375000
v 0.500000 0.062500 -0.000000
v -0.375000 0.062500 -0.500000
v -0.500000 0.125000 -0.500000
v -0.375000 0.125000 -0.500000
v 0.375000 0.062500 0.500000
v 0.000000 0.125000 0.500000
v 0.000000 0.062500 0.500000
v -0.375000 0.125000 0.375000
v 0.000000 0.125000 0.375000
v 0.375000 0.062500 0.375000
v -0.500000 0.125000 -0.375000
v -0.375000 0.125000 -0.375000
v -0.000000 0.062500 -0.500000
v -0.375000 0.062500 -0.375000
v -0.500000 0.125000 0.500000
v -0.375000 0.125000 0.500000
v 0.375000 0.062500 -0.500000
v 0.500000 0.062500 -0.375000
v -0.500000 0.062500 0.375000
v -0.500000 0.125000 0.000000
v -0.500000 0.062500 0.000000
v -0.500000 0.125000 0.375000
v -0.500000 0.062500 -0.500000
v -0.500000 0.062500 -0.375000
v -0.375000 0.062500 0.500000
v -0.375000 0.062500 0.375000
v -0.375000 0.125000 0.000000
v -0.500000 0.062500 0.500000
v 0.500000 0.125000 -0.000000
v 0.500000 0.062500 0.500000
v 0.500000 0.062500 0.375000
v 0.500000 0.125000 -0.500000
v 0.500000 0.125000 -0.375000
v 0.500000 0.125000 0.500000
v 0.375000 0.125000 -0.500000
v 0.500000 0.062500 -0.500000
vt 0.937499 0.625000
vt 1.000001 0.499999
vt 0.937499 0.499999
vt 1.000001 0.625000
vt 0.937499 0.499999
vt 1.000001 0.625000
vt 0.937499 0.499999
vt 1.000001 0.499999
vt 0.937499 0.625000
vt 1.000001 0.499999
vt 0.749999 0.062500
vt 0.687500 0.000001
vt 0.749999 0.000001
vt 0.187499 -0.812501
vt 0.250001 -0.749999
vt 0.250001 -0.812501
vt 0.937499 0.375001
vt 1.000001 0.124999
vt 0.937499 0.124999
vt 1.000001 0.375001
vt 1.000001 0.124999
vt 1.000001 0.375001
vt 0.937499 0.124999
vt 1.000001 0.124999
vt 0.937499 0.375001
vt 0.937499 0.124999
vt 0.749999 0.062500
vt 0.250001 0.000001
vt 0.749999 0.000001
vt 1.000001 0.874999
vt 0.937499 0.375001
vt 0.937499 0.874999
vt 0.937499 0.437500
vt 1.000001 0.437500
vt 0.937499 0.437500
vt 0.937499 0.375001
vt 1.000001 0.437500
vt 0.937499 0.437500
vt 1.000001 0.375001
vt 0.937499 0.499999
vt 1.000001 0.625000
vt 1.000001 0.499999
vt 0.937499 0.874999
vt 1.000001 0.375001
vt 1.000001 0.874999
vt 0.250001 0.062500
vt 1.000001 0.187501
vt 0.937499 0.687499
vt 0.937499 0.187501
vt 1.000001 0.499999
vt 0.937499 0.437500
vt 1.000001 0.437500
vt 1.000001 0.124999
vt 0.562499 0.062500
vt 0.625001 0.000001
vt 0.625001 0.062500
vt 0.562499 0.000001
vt 0.062501 0.062500
vt 0.562499 0.062500
vt 0.937499 0.312499
vt 1.000001 0.375001
vt 0.937499 0.375001
vt 1.000001 0.437500
vt 0.937499 0.124999
vt 0.937499 0.437500
vt 0.937499 0.062500
vt 0.625001 0.062500
vt 0.937499 0.000001
vt 0.625001 0.000001
vt 0.749999 -0.749999
vt 0.812501 -0.812501
vt 0.749999 -0.812501
vt 0.562499 0.000001
vt 0.437501 0.062500
vt 0.562499 0.062500
vt 0.937499 0.625000
vt 0.937499 0.499999
vt 0.437501 0.000001
vt 0.562499 0.000001
vt 0.562499 0.062500
vt 0.625001 0.000001
vt 0.625001 0.062500
vt 1.000001 0.187501
vt 0.937499 0.687499
vt 0.937499 0.187501
vt 0.562499 0.062500
vt 0.062501 0.000001
vt 0.562499 0.000001
vt 0.937499 0.187501
vt 1.000001 0.687499
vt 1.000001 0.187501
vt 0.625001 0.062500
vt 0.562499 0.000001
vt 0.562499 0.062500
vt 0.437501 0.000001
vt 0.625001 0.062500
vt 0.937499 0.000001
vt 0.625001 0.000001
vt 1.000001 0.874999
vt 0.937499 0.937501
vt 0.937499 0.874999
vt 0.937499 0.062500
vt 0.937499 0.000001
vt 0.625001 0.000001
vt 0.937499 0.062500
vt 0.749999 -0.250001
vt 0.812501 -0.187499
vt 0.812501 -0.250001
vt 0.437501 0.062500
vt 0.562499 0.062500
vt 0.437501 0.000001
vt 0.562499 0.000001
vt 0.562499 0.000001
vt 0.437501 0.062500
vt 1.000001 0.187501
vt 0.937499 0.687499
vt 0.937499 0.187501
vt 0.937499 0.250000
vt 1.000001 0.750001
vt 1.000001 0.250000
vt 1.000001 0.250000
vt 0.937499 0.750001
vt 0.937499 0.250000
vt 0.749999 0.000001
vt 0.250001 0.062500
vt 0.749999 0.062500
vt 0.937499 0.499999
vt 1.000001 0.437500
vt 0.937499 0.437500
vt 0.625001 0.062500
vt 0.562499 0.000001
vt 0.562499 0.062500
vt 0.625001 0.000001
vt 0.937499 0.062500
vt 0.625001 0.062500
vt 1.000001 0.625000
vt 1.000001 0.499999
vt 0.187499 -0.250001
vt 0.250001 -0.187499
vt 0.250001 -0.250001
vt 1.000001 0.499999
vt 0.937499 0.625000
vt 0.937499 0.499999
vt 0.562499 0.062500
vt 0.437501 0.000001
vt 0.562499 0.000001
vt 0.437501 0.062500
vt 0.187499 0.062500
vt 0.125000 0.000001
vt 0.187499 0.000001
vt 0.937499 0.124999
vt 0.937499 0.437500
vt 1.000001 0.124999
vt 1.000001 0.437500
vt 0.937499 0.000001
vt 0.625001 0.000001
vt 0.125000 0.000001
vt 0.125000 0.062500
vt 0.125000 0.062500
vt 0.625001 0.000001
vt 0.125000 0.000001
vt 0.937499 0.187501
vt 1.000001 0.687499
vt 1.000001 0.187501
vt 0.062501 0.437500
vt -0.000001 0.062500
vt -0.000001 0.437500
vt 0.625001 0.937501
vt 1.000001 1.000000
vt 0.625001 1.000000
vt 0.937499 0.375001
vt 1.000001 0.000001
vt 1.000001 0.375001
vt 0.374999 0.000001
vt -0.000001 0.062500
vt 0.374999 0.062500
vt 1.625000 0.000001
vt 2.000000 0.375001
vt 1.625000 0.375001
vt -0.000001 0.874999
vt 0.125000 1.000000
vt 0.125000 0.874999
vt 0.500000 0.874999
vt 0.875000 0.499999
vt 0.500000 0.499999
vt 0.875000 0.874999
vt 1.000001 0.499999
vt 0.875000 0.874999
vt 0.500000 1.000000
vt 0.500000 0.874999
vt 0.875000 0.062500
vt 1.000001 0.000001
vt 0.875000 0.000001
vt -0.000001 0.124999
vt 0.062501 0.499999
vt -0.000001 0.499999
vt 0.125000 0.124999
vt -0.000001 0.499999
vt 0.125000 0.499999
vt 0.125000 0.874999
vt 0.125000 0.499999
vt 1.000001 0.124999
vt 0.875000 0.000001
vt 0.875000 0.124999
vt 0.500000 0.000001
vt 0.500000 0.062500
vt 0.875000 0.124999
vt 1.000001 0.499999
vt 0.875000 0.499999
vt -0.000001 0.000001
vt -0.000001 0.124999
vt 1.000001 0.874999
vt 0.875000 1.000000
vt 1.000001 0.874999
vt 0.937499 0.499999
vt 1.000001 0.499999
vt 0.937499 1.000000
vt 0.937499 0.874999
vt 0.937499 0.124999
vt 1.000001 0.000001
vt 1.000001 0.124999
vt -0.000001 0.124999
vt 0.125000 0.000001
vt 0.125000 0.124999
vt 0.500000 0.000001
vt 0.500000 0.124999
vt 1.000001 0.124999
vt 0.062501 0.874999
vt -0.000001 1.000000
vt -0.000001 0.874999
vt 0.500000 0.000001
vt 0.500000 0.124999
vt 0.125000 0.937501
vt 0.500000 1.000000
vt 0.500000 0.937501
vt 0.875000 1.000000
vt 1.000001 0.937501
vt 0.875000 0.937501
vt -0.000001 1.000000
vt 0.125000 1.000000
vt 0.062501 0.000001
vt 0.062501 0.124999
vt -0.000001 1.000000
vt -0.000001 0.874999
vt 1.000001 1.000000
vt 1.000001 0.874999
vt 0.125000 0.000001
vt -0.000001 0.062500
vt 0.125000 0.062500
vt 0.875000 1.000000
vt 0.875000 0.000001
vt 0.125000 0.000001
vt 0.125000 1.000000
vt 1.000001 0.000001
vt 1.375001 0.375001
vt 1.000001 0.375001
vt 0.937499 1.000000
vt 1.000001 0.625000
vt 0.062501 1.000000
vt -0.000001 0.625000
vt -0.000001 1.000000
vt 1.000001 0.625000
vt 1.375001 1.000000
vt 1.000001 1.000000
vt 1.625000 0.625000
vt 2.000000 1.000000
vt 1.625000 1.000000
vt 1.000001 0.000001
vt 0.625001 0.062500
vt 1.000001 0.062500
vt -0.000001 0.937501
vt 0.374999 1.000000
vt -0.000001 1.000000
vt 0.937499 0.625000
vt 1.000001 0.625000
vt 0.687500 0.062500
vt 0.187499 -0.749999
vt 0.250001 0.062500
vt 1.000001 0.375001
vt 1.000001 0.437500
vt 0.937499 0.625000
vt 0.937499 0.375001
vt 0.250001 0.000001
vt 1.000001 0.687499
vt 0.937499 0.124999
vt 0.062501 0.000001
vt 1.000001 0.312499
vt 1.000001 0.124999
vt 0.937499 0.000001
vt 0.937499 0.062500
vt 0.812501 -0.749999
vt 0.437501 0.000001
vt 1.000001 0.625000
vt 0.437501 0.062500
vt 1.000001 0.687499
vt 0.062501 0.062500
vt 0.437501 0.062500
vt 1.000001 0.937501
vt 0.937499 0.062500
vt 0.937499 0.000001
vt 0.749999 -0.187499
vt 0.437501 0.000001
vt 0.937499 0.750001
vt 1.000001 0.750001
vt 0.250001 0.000001
vt 0.937499 0.000001
vt 0.937499 0.625000
vt 0.187499 -0.187499
vt 1.000001 0.625000
vt 0.437501 0.062500
vt 0.437501 0.000001
vt 0.125000 0.062500
vt 1.000001 0.124999
vt 0.937499 0.124999
vt 0.937499 0.062500
vt 0.625001 0.000001
vt 0.625001 0.062500
vt 0.937499 0.687499
vt 0.062501 0.062500
vt 1.000001 0.937501
vt 0.937499 0.000001
vt -0.000001 0.000001
vt 2.000000 0.000001
vt -0.000001 1.000000
vt 1.000001 0.062500
vt 1.000001 1.000000
vt 1.000001 1.000000
vt 0.937499 0.000001
vt -0.000001 0.000001
vt 0.062501 1.000000
vt 1.000001 1.000000
vt -0.000001 0.937501
vt -0.000001 0.000001
vt -0.000001 0.000001
vt 1.375001 0.000001
vt 0.937499 0.625000
vt 0.062501 0.625000
vt 1.375001 0.625000
vt 2.000000 0.625000
vt 0.625001 0.000001
vt 0.374999 0.937501
vn 1.0000 0.0000 0.0000
vn 0.0000 0.0000 1.0000
vn -1.0000 0.0000 0.0000
vn 0.0000 0.0000 -1.0000
vn 0.0000 -1.0000 0.0000
vn 0.0000 1.0000 0.0000
g table_small_square_spliced_Cube.039_table_small_square_spliced_Cube.039_Default_OBJ.017
s 1
f 1/1/1 2/2/1 3/3/1
f 4/4/2 5/5/2 2/2/2
f 6/6/3 7/7/3 5/8/3
f 8/9/4 3/10/4 7/7/4
f 9/11/5 10/12/5 11/13/5
f 4/14/6 8/15/6 6/16/6
f 12/17/4 10/18/4 13/19/4
f 14/20/3 13/19/3 9/21/3
f 15/22/2 9/23/2 11/24/2
f 16/25/1 11/24/1 10/26/1
f 7/27/3 17/28/3 18/29/3
f 7/30/6 19/31/6 5/32/6
f 2/2/2 20/33/2 21/34/2
f 3/3/1 21/34/1 22/35/1
f 22/35/1 15/22/1 16/25/1
f 21/34/2 14/36/2 15/22/2
f 20/37/3 12/17/3 14/20/3
f 18/38/4 16/39/4 12/17/4
f 23/40/1 24/41/1 19/42/1
f 20/43/5 25/44/5 18/45/5
f 18/29/4 23/46/4 7/27/4
f 5/47/2 26/48/2 20/49/2
f 27/50/3 28/51/3 29/52/3
f 28/51/3 30/53/3 29/52/3
f 19/54/2 29/55/2 26/56/2
f 23/57/6 31/58/6 32/59/6
f 33/60/5 34/61/5 35/62/5
f 26/63/1 35/64/1 25/65/1
f 29/55/2 33/66/2 26/56/2
f 25/67/4 34/68/4 28/69/4
f 36/70/6 37/71/6 24/72/6
f 32/73/4 36/74/4 23/75/4
f 27/50/3 38/76/3 32/77/3
f 19/54/2 37/78/2 27/79/2
f 31/80/3 39/81/3 40/82/3
f 32/83/3 40/84/3 28/85/3
f 28/86/5 41/87/5 25/88/5
f 25/89/1 42/90/1 23/91/1
f 43/92/4 44/93/4 45/94/4
f 31/80/3 46/95/3 44/93/3
f 41/96/1 47/97/1 43/98/1
f 48/99/5 47/100/5 49/101/5
f 39/81/3 48/102/3 40/82/3
f 43/92/4 50/103/4 39/81/4
f 40/104/2 49/105/2 41/96/2
f 51/106/6 46/107/6 52/108/6
f 44/93/4 53/109/4 45/94/4
f 42/110/2 52/111/2 31/112/2
f 45/113/1 51/114/1 42/110/1
f 54/115/2 41/116/2 17/117/2
f 3/118/6 54/119/6 7/120/6
f 18/121/5 55/122/5 22/123/5
f 22/124/1 56/125/1 3/126/1
f 57/127/4 58/128/4 59/129/4
f 55/130/1 60/131/1 56/132/1
f 59/133/3 61/134/3 17/135/3
f 57/127/4 62/136/4 60/137/4
f 63/138/6 64/139/6 65/140/6
f 56/141/2 65/142/2 54/143/2
f 54/144/3 64/145/3 57/146/3
f 60/131/1 63/147/1 56/132/1
f 61/148/5 66/149/5 67/150/5
f 58/128/4 68/151/4 59/129/4
f 17/152/2 67/153/2 55/154/2
f 55/130/1 66/155/1 58/156/1
f 17/157/5 43/92/5 59/158/5
f 57/159/6 42/160/6 54/161/6
f 59/162/4 45/163/4 57/164/4
f 69/165/1 70/166/1 71/167/1
f 72/168/2 73/169/2 74/170/2
f 75/171/3 76/172/3 77/173/3
f 78/174/4 79/175/4 80/176/4
f 77/177/5 80/178/5 81/179/5
f 82/180/6 83/181/6 84/182/6
f 85/183/6 86/184/6 87/185/6
f 88/186/6 89/187/6 86/184/6
f 90/188/5 91/189/5 69/190/5
f 92/191/4 93/192/4 94/193/4
f 95/194/2 96/195/2 97/196/2
f 98/197/6 96/198/6 99/199/6
f 100/200/5 97/196/5 72/201/5
f 94/202/6 101/203/6 102/204/6
f 92/191/4 89/205/4 103/206/4
f 104/207/5 103/208/5 78/209/5
f 98/197/6 105/210/6 106/211/6
f 107/212/5 108/213/5 90/188/5
f 109/214/3 110/215/3 111/216/3
f 109/214/3 105/217/3 112/218/3
f 101/219/3 113/220/3 114/221/3
f 115/222/5 109/223/5 116/224/5
f 102/204/6 110/225/6 117/226/6
f 104/207/5 113/220/5 92/227/5
f 106/228/2 118/229/2 115/230/2
f 116/224/5 111/231/5 75/232/5
f 108/233/1 119/234/1 91/235/1
f 83/236/1 120/237/1 121/238/1
f 108/233/1 122/239/1 123/240/1
f 95/194/2 124/241/2 82/242/2
f 100/200/5 120/243/5 95/244/5
f 84/182/6 119/234/6 85/183/6
f 88/186/6 122/245/6 125/246/6
f 125/247/4 126/248/4 107/249/4
f 85/183/6 123/250/6 88/186/6
f 91/235/1 83/236/1 121/238/1
f 75/232/5 114/251/5 104/207/5
f 117/226/6 112/252/6 98/197/6
f 111/216/3 101/219/3 114/221/3
f 69/190/5 121/253/5 100/200/5
f 84/182/6 87/185/6 99/199/6
f 73/254/5 81/255/5 74/256/5
f 116/257/3 77/258/3 73/169/3
f 90/259/1 71/260/1 79/261/1
f 74/262/5 71/263/5 70/264/5
f 99/199/6 117/226/6 98/197/6
f 78/209/5 107/212/5 90/188/5
f 103/206/4 125/247/4 107/249/4
f 72/201/5 115/222/5 116/224/5
f 99/199/6 82/180/6 84/182/6
f 97/196/2 106/228/2 115/230/2
f 86/184/6 94/202/6 102/204/6
f 87/185/6 102/204/6 117/226/6
f 81/265/5 79/266/5 71/267/5
f 104/268/4 80/269/4 76/270/4
f 100/271/2 74/272/2 70/273/2
f 1/1/1 4/4/1 2/2/1
f 4/4/2 6/274/2 5/5/2
f 6/6/3 8/9/3 7/7/3
f 8/9/4 1/275/4 3/10/4
f 9/11/5 13/276/5 10/12/5
f 4/14/6 1/277/6 8/15/6
f 12/17/4 16/39/4 10/18/4
f 14/20/3 12/17/3 13/19/3
f 15/22/2 14/36/2 9/23/2
f 16/25/1 15/22/1 11/24/1
f 7/27/3 54/278/3 17/28/3
f 7/30/6 23/279/6 19/31/6
f 2/2/2 5/5/2 20/33/2
f 3/3/1 2/2/1 21/34/1
f 22/35/1 21/34/1 15/22/1
f 21/34/2 20/33/2 14/36/2
f 20/37/3 18/38/3 12/17/3
f 18/38/4 22/280/4 16/39/4
f 23/40/1 36/281/1 24/41/1
f 20/43/5 26/282/5 25/44/5
f 18/29/4 25/283/4 23/46/4
f 5/47/2 19/284/2 26/48/2
f 27/50/3 32/77/3 28/51/3
f 28/51/3 34/285/3 30/53/3
f 19/54/2 27/79/2 29/55/2
f 23/57/6 42/286/6 31/58/6
f 33/60/5 30/287/5 34/61/5
f 26/63/1 33/288/1 35/64/1
f 29/55/2 30/289/2 33/66/2
f 25/67/4 35/290/4 34/68/4
f 36/70/6 38/291/6 37/71/6
f 32/73/4 38/292/4 36/74/4
f 27/50/3 37/293/3 38/76/3
f 19/54/2 24/294/2 37/78/2
f 31/80/3 44/93/3 39/81/3
f 32/83/3 31/295/3 40/84/3
f 28/86/5 40/296/5 41/87/5
f 25/89/1 41/116/1 42/90/1
f 43/92/4 39/81/4 44/93/4
f 31/80/3 52/297/3 46/95/3
f 41/96/1 49/105/1 47/97/1
f 48/99/5 50/298/5 47/100/5
f 39/81/3 50/103/3 48/102/3
f 43/92/4 47/299/4 50/103/4
f 40/104/2 48/300/2 49/105/2
f 51/106/6 53/301/6 46/107/6
f 44/93/4 46/95/4 53/109/4
f 42/110/2 51/114/2 52/111/2
f 45/113/1 53/302/1 51/114/1
f 54/115/2 42/90/2 41/116/2
f 3/118/6 56/303/6 54/119/6
f 18/121/5 17/304/5 55/122/5
f 22/124/1 55/305/1 56/125/1
f 57/127/4 60/137/4 58/128/4
f 55/130/1 58/156/1 60/131/1
f 59/133/3 68/306/3 61/134/3
f 57/127/4 64/307/4 62/136/4
f 63/138/6 62/308/6 64/139/6
f 56/141/2 63/309/2 65/142/2
f 54/144/3 65/310/3 64/145/3
f 60/131/1 62/311/1 63/147/1
f 61/148/5 68/312/5 66/149/5
f 58/128/4 66/313/4 68/151/4
f 17/152/2 61/314/2 67/153/2
f 55/130/1 67/315/1 66/155/1
f 17/157/5 41/316/5 43/92/5
f 57/159/6 45/317/6 42/160/6
f 59/162/4 43/318/4 45/163/4
f 69/165/1 100/319/1 70/166/1
f 72/168/2 116/320/2 73/169/2
f 75/171/3 104/321/3 76/172/3
f 78/174/4 90/322/4 79/175/4
f 77/177/5 76/323/5 80/178/5
f 82/180/6 124/324/6 83/181/6
f 85/183/6 88/186/6 86/184/6
f 88/186/6 125/246/6 89/187/6
f 90/188/5 108/213/5 91/189/5
f 92/191/4 113/325/4 93/192/4
f 95/194/2 82/242/2 96/195/2
f 98/197/6 106/211/6 96/198/6
f 100/200/5 95/244/5 97/196/5
f 94/202/6 93/192/6 101/203/6
f 92/191/4 94/193/4 89/205/4
f 104/207/5 92/227/5 103/208/5
f 98/197/6 112/252/6 105/210/6
f 107/212/5 126/326/5 108/213/5
f 109/214/3 112/218/3 110/215/3
f 109/214/3 118/327/3 105/217/3
f 101/219/3 93/328/3 113/220/3
f 115/222/5 118/329/5 109/223/5
f 102/204/6 101/203/6 110/225/6
f 104/207/5 114/251/5 113/220/5
f 106/228/2 105/330/2 118/229/2
f 116/224/5 109/223/5 111/231/5
f 108/233/1 123/240/1 119/234/1
f 83/236/1 124/331/1 120/237/1
f 108/233/1 126/332/1 122/239/1
f 95/194/2 120/333/2 124/241/2
f 100/200/5 121/253/5 120/243/5
f 84/182/6 83/181/6 119/234/6
f 88/186/6 123/250/6 122/245/6
f 125/247/4 122/334/4 126/248/4
f 85/183/6 119/234/6 123/250/6
f 91/235/1 119/234/1 83/236/1
f 75/232/5 111/231/5 114/251/5
f 117/226/6 110/225/6 112/252/6
f 111/216/3 110/215/3 101/219/3
f 69/190/5 91/189/5 121/253/5
f 84/182/6 85/183/6 87/185/6
f 73/254/5 77/335/5 81/255/5
f 116/257/3 75/336/3 77/258/3
f 90/259/1 69/337/1 71/260/1
f 74/262/5 81/338/5 71/263/5
f 99/199/6 87/185/6 117/226/6
f 78/209/5 103/208/5 107/212/5
f 103/206/4 89/205/4 125/247/4
f 72/201/5 97/196/5 115/222/5
f 99/199/6 96/198/6 82/180/6
f 97/196/2 96/195/2 106/228/2
f 86/184/6 89/187/6 94/202/6
f 87/185/6 86/184/6 102/204/6
f 81/265/5 80/339/5 79/266/5
f 104/268/4 78/340/4 80/269/4
f 100/271/2 72/341/2 74/272/2
