# Blender v3.3.1 OBJ File: 'models.blend'
# www.blender.org
o table_small_glass_Plane.015
v 0.500000 0.125000 -0.500000
v -0.500000 0.125000 -0.500000
v 0.500000 0.125000 0.500000
v -0.500000 0.125000 0.500000
v 0.312500 0.062500 0.000000
v 0.312500 0.000000 0.000000
v 0.312500 -0.187500 0.000000
v 0.312500 0.125000 0.000000
v 0.000000 0.125000 0.000000
v -0.250000 -0.500000 0.000000
v -0.250000 0.125000 0.000000
v 0.250000 0.125000 0.000000
v 0.250000 -0.500000 0.000000
v 0.312500 -0.500000 0.000000
v -0.312500 0.000000 0.000000
v -0.312500 -0.500000 0.000000
v -0.250000 -0.187500 0.000000
v 0.250000 -0.187500 0.000000
v -0.375000 -0.500000 0.000000
v -0.375000 0.125000 0.000000
v -0.375000 -0.187500 0.000000
v 0.375000 0.125000 0.000000
v 0.375000 -0.500000 0.000000
v 0.375000 -0.187500 0.000000
v -0.312500 -0.187500 0.000000
v 0.000000 0.000000 0.000000
v -0.250000 0.000000 0.000000
v 0.250000 0.000000 0.000000
v -0.312500 0.125000 0.000000
v -0.375000 0.000000 0.000000
v 0.375000 0.000000 0.000000
v 0.000000 0.062500 0.000000
v -0.250000 0.062500 0.000000
v 0.250000 0.062500 0.000000
v -0.375000 0.062500 0.000000
v -0.312500 0.062500 0.000000
v 0.375000 0.062500 0.000000
v 0.000000 0.062500 0.312500
v 0.000000 0.000000 0.312500
v 0.000000 -0.187500 0.312500
v 0.000000 0.125000 0.312500
v 0.000000 0.125000 0.000000
v -0.000000 -0.500000 -0.250000
v -0.000000 0.125000 -0.250000
v 0.000000 0.125000 0.250000
v 0.000000 -0.500000 0.250000
v 0.000000 -0.500000 0.312500
v -0.000000 0.000000 -0.312500
v -0.000000 -0.500000 -0.312500
v -0.000000 -0.187500 -0.250000
v 0.000000 -0.187500 0.250000
v -0.000000 -0.500000 -0.375000
v -0.000000 0.125000 -0.375000
v -0.000000 -0.187500 -0.375000
v 0.000000 0.125000 0.375000
v 0.000000 -0.500000 0.375000
v 0.000000 -0.187500 0.375000
v -0.000000 -0.187500 -0.312500
v 0.000000 0.000000 0.000000
v -0.000000 0.000000 -0.250000
v 0.000000 0.000000 0.250000
v -0.000000 0.125000 -0.312500
v -0.000000 0.000000 -0.375000
v 0.000000 0.000000 0.375000
v 0.000000 0.062500 0.000000
v -0.000000 0.062500 -0.250000
v 0.000000 0.062500 0.250000
v -0.000000 0.062500 -0.375000
v -0.000000 0.062500 -0.312500
v 0.000000 0.062500 0.375000
vt 1.000000 0.000000
vt 0.000000 1.000000
vt 0.000000 0.000000
vt 0.062500 0.875000
vt -0.000000 0.937500
vt -0.000000 0.875000
vt 0.500000 0.937500
vt 0.250000 1.000000
vt 0.250000 0.937500
vt 0.750000 0.937500
vt 0.500000 1.000000
vt 0.187500 1.000000
vt 0.187500 0.937500
vt 1.000000 0.000000
vt 0.937500 0.312500
vt 0.937500 0.000000
vt 0.062500 0.875000
vt -0.000000 0.937500
vt -0.000000 0.875000
vt 1.000000 0.000000
vt 0.937500 0.312500
vt 0.937500 0.000000
vt 1.000000 0.937500
vt 0.937500 1.000000
vt 0.937500 0.937500
vt 0.062500 0.937500
vt -0.000000 1.000000
vt 0.062500 0.000000
vt -0.000000 0.312500
vt -0.000000 0.000000
vt 0.062500 0.312500
vt -0.000000 0.500000
vt 1.000000 0.312500
vt 0.937500 0.500000
vt 1.000000 0.312500
vt 0.937500 0.500000
vt 0.062500 0.000000
vt -0.000000 0.312500
vt -0.000000 0.000000
vt 0.812500 0.937500
vt 0.750000 1.000000
vt 0.062500 0.312500
vt -0.000000 0.500000
vt 1.000000 0.875000
vt 0.937500 0.875000
vt 1.000000 0.937500
vt 0.937500 1.000000
vt 0.937500 0.937500
vt 0.750000 0.000000
vt 0.500000 0.062500
vt 0.500000 0.000000
vt 0.250000 0.062500
vt 0.250000 0.000000
vt 0.062500 0.875000
vt -0.000000 0.937500
vt -0.000000 0.875000
vt 0.500000 0.937500
vt 0.250000 1.000000
vt 0.250000 0.937500
vt 0.750000 0.937500
vt 0.500000 1.000000
vt 0.187500 1.000000
vt 0.187500 0.937500
vt 1.000000 0.000000
vt 0.937500 0.312500
vt 0.937500 0.000000
vt 0.062500 0.875000
vt -0.000000 0.937500
vt -0.000000 0.875000
vt 1.000000 0.000000
vt 0.937500 0.312500
vt 0.937500 0.000000
vt 1.000000 0.937500
vt 0.937500 1.000000
vt 0.937500 0.937500
vt 0.062500 0.937500
vt -0.000000 1.000000
vt 0.062500 0.000000
vt -0.000000 0.312500
vt -0.000000 0.000000
vt 0.062500 0.312500
vt -0.000000 0.500000
vt 1.000000 0.312500
vt 0.937500 0.500000
vt 1.000000 0.312500
vt 0.937500 0.500000
vt 0.062500 0.000000
vt -0.000000 0.312500
vt -0.000000 0.000000
vt 0.812500 0.937500
vt 0.750000 1.000000
vt 0.062500 0.312500
vt -0.000000 0.500000
vt 1.000000 0.875000
vt 0.937500 0.875000
vt 1.000000 0.937500
vt 0.937500 1.000000
vt 0.937500 0.937500
vt 0.750000 0.000000
vt 0.500000 0.062500
vt 0.500000 0.000000
vt 0.250000 0.062500
vt 0.250000 0.000000
vt 1.000000 1.000000
vt 0.062500 0.937500
vt 1.000000 1.000000
vt 0.062500 1.000000
vt 0.062500 0.500000
vt 1.000000 0.500000
vt 1.000000 0.500000
vt 0.812500 1.000000
vt 0.062500 0.500000
vt 1.000000 1.000000
vt 0.750000 0.062500
vt 0.062500 0.937500
vt 1.000000 1.000000
vt 0.062500 1.000000
vt 0.062500 0.500000
vt 1.000000 0.500000
vt 1.000000 0.500000
vt 0.812500 1.000000
vt 0.062500 0.500000
vt 1.000000 1.000000
vt 0.750000 0.062500
vn 0.0000 1.0000 0.0000
vn 0.0000 0.0000 -1.0000
vn 1.0000 0.0000 0.0000
g table_small_glass_Plane.015_UV_TEST3
s off
f 2/1/1 3/2/1 1/3/1
f 6/4/2 37/5/2 31/6/2
f 32/7/2 12/8/2 34/9/2
f 33/10/2 9/11/2 32/7/2
f 34/9/2 8/12/2 5/13/2
f 13/14/2 7/15/2 14/16/2
f 15/17/2 33/18/2 27/19/2
f 19/20/2 25/21/2 16/22/2
f 35/23/2 29/24/2 36/25/2
f 5/26/2 22/27/2 37/5/2
f 14/28/2 24/29/2 23/30/2
f 7/31/2 31/32/2 24/29/2
f 21/33/2 15/34/2 25/21/2
f 18/35/2 6/36/2 7/15/2
f 16/37/2 17/38/2 10/39/2
f 36/40/2 11/41/2 33/10/2
f 25/42/2 27/43/2 17/38/2
f 30/44/2 36/25/2 15/45/2
f 28/46/2 5/47/2 6/48/2
f 27/49/2 32/50/2 26/51/2
f 26/51/2 34/52/2 28/53/2
f 39/54/3 70/55/3 64/56/3
f 65/57/3 45/58/3 67/59/3
f 66/60/3 42/61/3 65/57/3
f 67/59/3 41/62/3 38/63/3
f 46/64/3 40/65/3 47/66/3
f 48/67/3 66/68/3 60/69/3
f 52/70/3 58/71/3 49/72/3
f 68/73/3 62/74/3 69/75/3
f 38/76/3 55/77/3 70/55/3
f 47/78/3 57/79/3 56/80/3
f 40/81/3 64/82/3 57/79/3
f 54/83/3 48/84/3 58/71/3
f 51/85/3 39/86/3 40/65/3
f 49/87/3 50/88/3 43/89/3
f 69/90/3 44/91/3 66/60/3
f 58/92/3 60/93/3 50/88/3
f 63/94/3 69/75/3 48/95/3
f 61/96/3 38/97/3 39/98/3
f 60/99/3 65/100/3 59/101/3
f 59/101/3 67/102/3 61/103/3
f 2/1/1 4/104/1 3/2/1
f 6/4/2 5/26/2 37/5/2
f 32/7/2 9/11/2 12/8/2
f 33/10/2 11/41/2 9/11/2
f 34/9/2 12/8/2 8/12/2
f 13/14/2 18/35/2 7/15/2
f 15/17/2 36/105/2 33/18/2
f 19/20/2 21/33/2 25/21/2
f 35/23/2 20/106/2 29/24/2
f 5/26/2 8/107/2 22/27/2
f 14/28/2 7/31/2 24/29/2
f 7/31/2 6/108/2 31/32/2
f 21/33/2 30/109/2 15/34/2
f 18/35/2 28/110/2 6/36/2
f 16/37/2 25/42/2 17/38/2
f 36/40/2 29/111/2 11/41/2
f 25/42/2 15/112/2 27/43/2
f 30/44/2 35/23/2 36/25/2
f 28/46/2 34/113/2 5/47/2
f 27/49/2 33/114/2 32/50/2
f 26/51/2 32/50/2 34/52/2
f 39/54/3 38/76/3 70/55/3
f 65/57/3 42/61/3 45/58/3
f 66/60/3 44/91/3 42/61/3
f 67/59/3 45/58/3 41/62/3
f 46/64/3 51/85/3 40/65/3
f 48/67/3 69/115/3 66/68/3
f 52/70/3 54/83/3 58/71/3
f 68/73/3 53/116/3 62/74/3
f 38/76/3 41/117/3 55/77/3
f 47/78/3 40/81/3 57/79/3
f 40/81/3 39/118/3 64/82/3
f 54/83/3 63/119/3 48/84/3
f 51/85/3 61/120/3 39/86/3
f 49/87/3 58/92/3 50/88/3
f 69/90/3 62/121/3 44/91/3
f 58/92/3 48/122/3 60/93/3
f 63/94/3 68/73/3 69/75/3
f 61/96/3 67/123/3 38/97/3
f 60/99/3 66/124/3 65/100/3
f 59/101/3 65/100/3 67/102/3
