# Blender v3.5.0 OBJ File: 'models.blend'
# www.blender.org
o Toaster_Cube.136
v 0.250000 -0.437500 -0.062500
v 0.250000 -0.125000 -0.062500
v 0.250000 -0.437500 0.062500
v 0.250000 -0.125000 0.062500
v -0.250000 -0.437500 -0.062500
v -0.250000 -0.125000 -0.062500
v -0.250000 -0.437500 0.062500
v -0.250000 -0.125000 0.062500
v 0.250000 -0.187500 -0.062500
v 0.250000 -0.187500 0.062500
v -0.250000 -0.187500 0.062500
v -0.250000 -0.187500 -0.062500
v -0.312500 -0.437500 -0.062500
v -0.312500 -0.437500 0.062500
v -0.312500 -0.187500 0.062500
v -0.312500 -0.187500 -0.062500
v 0.312500 -0.437500 -0.062500
v 0.312500 -0.437500 0.062500
v 0.312500 -0.187500 -0.062500
v 0.312500 -0.187500 0.062500
v 0.250000 -0.500000 -0.062500
v 0.250000 -0.500000 0.062500
v -0.250000 -0.500000 -0.062500
v -0.250000 -0.500000 0.062500
v -0.312500 -0.500000 -0.062500
v -0.312500 -0.500000 0.062500
v 0.312500 -0.500000 -0.062500
v 0.312500 -0.500000 0.062500
v 0.250000 -0.500000 0.125000
v 0.250000 -0.125000 0.187500
v 0.250000 -0.125000 0.125000
v -0.250000 -0.437500 0.125000
v -0.250000 -0.187500 0.125000
v -0.250000 -0.500000 0.125000
v -0.312500 -0.187500 0.125000
v -0.312500 -0.437500 0.125000
v 0.312500 -0.187500 0.125000
v 0.312500 -0.437500 0.125000
v -0.312500 -0.500000 0.125000
v 0.312500 -0.500000 0.125000
v 0.250000 -0.500000 0.187500
v -0.250000 -0.125000 0.187500
v -0.250000 -0.125000 0.125000
v -0.250000 -0.437500 0.187500
v -0.250000 -0.187500 0.187500
v -0.250000 -0.500000 0.187500
v -0.312500 -0.187500 0.187500
v -0.312500 -0.437500 0.187500
v 0.312500 -0.187500 0.187500
v 0.312500 -0.437500 0.187500
v -0.312500 -0.500000 0.187500
v 0.312500 -0.500000 0.187500
v 0.250000 -0.187500 0.125000
v 0.250000 -0.437500 0.125000
v 0.250000 -0.187500 0.187500
v 0.250000 -0.437500 0.187500
v -0.250000 -0.187500 -0.125000
v -0.250000 -0.437500 -0.125000
v -0.250000 -0.125000 -0.125000
v 0.250000 -0.187500 -0.125000
v -0.312500 -0.187500 -0.125000
v -0.312500 -0.437500 -0.125000
v 0.312500 -0.437500 -0.125000
v 0.312500 -0.187500 -0.125000
v 0.250000 -0.500000 -0.125000
v -0.250000 -0.500000 -0.125000
v -0.312500 -0.500000 -0.125000
v 0.312500 -0.500000 -0.125000
v -0.250000 -0.187500 -0.187500
v -0.312500 -0.187500 -0.187500
v -0.312500 -0.437500 -0.187500
v -0.250000 -0.437500 -0.187500
v -0.250000 -0.125000 -0.187500
v 0.250000 -0.187500 -0.187500
v 0.312500 -0.437500 -0.187500
v 0.312500 -0.187500 -0.187500
v 0.250000 -0.500000 -0.187500
v -0.250000 -0.500000 -0.187500
v -0.312500 -0.500000 -0.187500
v 0.312500 -0.500000 -0.187500
v 0.250000 -0.125000 -0.187500
v 0.250000 -0.437500 -0.125000
v 0.250000 -0.125000 -0.125000
v 0.250000 -0.437500 -0.187500
v -0.375000 -0.250000 -0.062500
v -0.375000 -0.312500 -0.062500
v -0.375000 -0.250000 -0.125000
v -0.375000 -0.312500 -0.125000
v -0.312500 -0.250000 -0.062500
v -0.312500 -0.312500 -0.062500
v -0.312500 -0.250000 -0.125000
v -0.312500 -0.312500 -0.125000
v -0.437500 -0.250000 -0.062500
v -0.437500 -0.312500 -0.062500
v -0.437500 -0.250000 -0.125000
v -0.437500 -0.312500 -0.125000
v -0.375000 -0.250000 0.062500
v -0.375000 -0.312500 0.062500
v -0.437500 -0.250000 0.062500
v -0.437500 -0.312500 0.062500
v -0.375000 -0.250000 0.125000
v -0.375000 -0.312500 0.125000
v -0.437500 -0.250000 0.125000
v -0.437500 -0.312500 0.125000
v -0.312500 -0.250000 0.062500
v -0.312500 -0.312500 0.062500
v -0.312500 -0.250000 0.125000
v -0.312500 -0.312500 0.125000
v -0.375000 -0.250000 -0.187500
v -0.375000 -0.312500 -0.187500
v -0.437500 -0.250000 -0.187500
v -0.437500 -0.312500 -0.187500
v -0.375000 -0.250000 0.187500
v -0.375000 -0.312500 0.187500
v -0.437500 -0.250000 0.187500
v -0.437500 -0.312500 0.187500
vt 0.125000 0.000000
vt 0.250000 -0.062500
vt 0.125000 -0.062500
vt 0.062500 0.000000
vt 0.562500 -0.062500
vt 0.062500 -0.062500
vt 0.250000 0.000000
vt 0.125000 -0.062500
vt 0.250000 -0.062500
vt 0.562500 0.000000
vt 0.062500 -0.062500
vt 0.562500 -0.062500
vt -0.062500 0.062500
vt 0.000000 0.312500
vt -0.062500 0.312500
vt 0.187500 0.500000
vt 0.687500 0.375000
vt 0.687500 0.500000
vt 0.812500 0.562500
vt 0.312500 0.312500
vt 0.812500 0.312500
vt 0.062500 0.062500
vt 0.000000 0.312500
vt 0.062500 0.312500
vt 0.312500 0.562500
vt 0.812500 0.312500
vt 0.312500 0.312500
vt -0.062500 0.312500
vt 0.000000 0.062500
vt -0.062500 0.062500
vt 0.750000 1.000000
vt 0.625000 0.750000
vt 0.750000 0.750000
vt 0.062500 0.125000
vt 0.000000 0.187500
vt 0.000000 0.125000
vt -0.062500 0.125000
vt 0.000000 0.250000
vt -0.062500 0.250000
vt 0.062500 0.312500
vt 0.000000 0.062500
vt 0.062500 0.062500
vt 0.625000 0.000000
vt 0.750000 -0.250000
vt 0.625000 -0.250000
vt 0.125000 0.000000
vt 0.062500 0.062500
vt 0.125000 0.062500
vt 0.062500 0.500000
vt 0.000000 0.375000
vt 0.062500 0.375000
vt 0.000000 -0.125000
vt -0.062500 -0.062500
vt -0.062500 -0.125000
vt 0.812500 0.750000
vt 0.312500 0.625000
vt 0.312500 0.750000
vt -0.062500 0.250000
vt 0.000000 0.125000
vt -0.062500 0.125000
vt 0.062500 0.125000
vt 0.000000 0.250000
vt 0.062500 0.250000
vt 0.000000 -0.250000
vt -0.062500 -0.500000
vt 0.000000 -0.500000
vt 0.375000 0.000000
vt 0.437500 -0.250000
vt 0.375000 -0.250000
vt 0.812500 0.625000
vt 0.312500 0.562500
vt 0.125000 0.062500
vt 0.250000 0.000000
vt 0.250000 0.062500
vt 0.250000 0.062500
vt -0.062500 0.062500
vt 0.000000 0.312500
vt -0.062500 0.312500
vt -0.062500 0.062500
vt 0.000000 0.000000
vt -0.062500 0.000000
vt -0.062500 0.312500
vt 0.000000 0.062500
vt 0.062500 -0.062500
vt 0.562500 0.000000
vt 0.562500 -0.062500
vt 0.062500 -0.062500
vt 0.562500 0.000000
vt 0.562500 -0.062500
vt -0.062500 -0.250000
vt 0.000000 0.000000
vt -0.062500 0.000000
vt 0.312500 0.375000
vt 0.812500 0.437500
vt 0.812500 0.375000
vt 0.000000 -0.125000
vt 0.062500 -0.125000
vt -0.125000 0.062500
vt -0.125000 0.000000
vt -0.062500 -0.125000
vt 0.000000 -0.062500
vt 0.000000 -0.125000
vt -0.125000 0.000000
vt -0.125000 0.062500
vt 0.562500 -0.125000
vt 0.062500 -0.062500
vt 0.062500 -0.125000
vt -0.125000 0.062500
vt -0.187500 0.000000
vt -0.187500 0.062500
vt 0.062500 0.062500
vt 0.000000 0.312500
vt 0.062500 0.312500
vt -0.062500 0.312500
vt 0.000000 0.062500
vt -0.062500 0.062500
vt 0.562500 0.062500
vt 0.062500 0.000000
vt -0.187500 -0.062500
vt -0.125000 0.000000
vt -0.125000 -0.062500
vt 0.562500 -0.062500
vt 0.062500 0.000000
vt 0.062500 -0.062500
vt 0.000000 -0.062500
vt 0.750000 0.062500
vt 0.250000 0.312500
vt 0.750000 0.312500
vt 0.062500 0.187500
vt 0.000000 0.250000
vt -0.125000 -0.062500
vt -0.187500 0.000000
vt -0.187500 -0.062500
vt -0.062500 0.000000
vt 0.500000 -0.062500
vt 0.437500 0.000000
vt 0.437500 -0.062500
vt 0.812500 0.562500
vt 0.312500 0.312500
vt 0.812500 0.312500
vt 0.437500 -0.062500
vt 0.500000 0.000000
vt 0.500000 -0.062500
vt 0.062500 -0.062500
vt 0.562500 -0.062500
vt 0.062500 0.312500
vt 0.000000 0.062500
vt 0.062500 0.062500
vt 0.000000 0.312500
vt 0.062500 0.250000
vt 0.062500 0.312500
vt -0.125000 0.062500
vt -0.187500 0.000000
vt -0.187500 0.062500
vt 0.000000 0.312500
vt 0.062500 0.312500
vt 0.562500 -0.062500
vt 0.062500 0.000000
vt 0.062500 -0.062500
vt 0.062500 0.000000
vt 0.125000 0.000000
vt 0.562500 0.000000
vt 0.062500 0.125000
vt 0.562500 0.062500
vt 0.562500 0.125000
vt 0.000000 0.062500
vt 0.000000 0.125000
vt 0.000000 0.062500
vt 0.000000 0.125000
vt -0.062500 0.062500
vt 0.000000 0.062500
vt 0.062500 0.000000
vt 0.062500 0.062500
vt -0.062500 0.062500
vt 0.000000 0.312500
vt -0.062500 0.312500
vt 0.062500 0.312500
vt -0.187500 0.062500
vt -0.125000 0.000000
vt -0.125000 0.062500
vt 0.562500 0.000000
vt 0.562500 0.062500
vt 0.062500 0.062500
vt 0.000000 0.000000
vt 0.812500 0.312500
vt 0.312500 0.562500
vt 0.812500 0.562500
vt 0.000000 0.000000
vt 0.062500 -0.062500
vt 0.000000 0.000000
vt 0.000000 -0.062500
vt 0.062500 0.000000
vt -0.187500 0.062500
vt -0.125000 0.000000
vt -0.125000 0.062500
vt 0.562500 0.062500
vt 0.000000 -0.062500
vt 0.062500 0.000000
vt 0.062500 -0.062500
vt 0.562500 0.000000
vt 0.062500 -0.062500
vt 0.562500 -0.062500
vt 0.750000 0.312500
vt 0.250000 0.062500
vt 0.750000 0.062500
vt 0.562500 -0.062500
vt -0.062500 0.125000
vt 0.000000 0.062500
vt 0.000000 0.125000
vt 0.000000 0.125000
vt -0.062500 0.062500
vt -0.062500 0.125000
vt -0.062500 0.000000
vt 0.000000 0.000000
vt -0.062500 0.062500
vt 0.000000 0.125000
vt -0.062500 0.125000
vt -0.062500 0.062500
vt 0.000000 0.000000
vt -0.062500 0.000000
vt 0.062500 0.062500
vt 0.125000 0.000000
vt 0.062500 0.000000
vt 0.125000 0.062500
vt 0.062500 0.000000
vt 0.125000 0.000000
vt -0.062500 0.125000
vt 0.000000 0.250000
vt 0.000000 0.125000
vt 0.000000 0.000000
vt 0.000000 0.062500
vt 0.000000 0.062500
vt -0.062500 0.062500
vt -0.062500 -0.125000
vt 0.000000 -0.062500
vt 0.000000 -0.125000
vt 0.125000 0.062500
vt 0.250000 0.000000
vt 0.125000 0.000000
vt -0.062500 0.250000
vt 0.250000 0.062500
vt -0.062500 0.000000
vt 0.000000 0.062500
vt -0.062500 0.062500
vt -0.125000 0.000000
vt -0.125000 0.062500
vt 0.000000 -0.125000
vt -0.062500 -0.062500
vt -0.062500 -0.125000
vt 0.000000 -0.125000
vt -0.062500 -0.062500
vt 0.000000 -0.062500
vt -0.125000 0.062500
vt -0.062500 0.000000
vt -0.125000 0.000000
vt 0.000000 0.000000
vt -0.062500 0.062500
vt 0.000000 0.062500
vt 0.000000 -0.062500
vt -0.062500 -0.125000
vt 0.000000 -0.125000
vt 0.000000 0.062500
vt -0.062500 0.000000
vt 0.000000 0.000000
vt -0.062500 0.000000
vt 0.000000 0.062500
vt -0.062500 0.062500
vt 0.062500 0.000000
vt 0.000000 0.062500
vt 0.062500 0.062500
vt 0.062500 0.062500
vt 0.000000 0.000000
vt -0.062500 0.062500
vt 0.000000 0.000000
vt -0.062500 0.000000
vt 0.000000 -0.062500
vt -0.062500 0.000000
vt -0.062500 0.062500
vt 0.000000 0.000000
vt -0.062500 0.000000
vt -0.062500 -0.062500
vt 0.250000 0.000000
vt 0.562500 0.000000
vt 0.125000 0.000000
vt 0.062500 0.000000
vt 0.000000 0.062500
vt 0.187500 0.375000
vt 0.312500 0.562500
vt 0.000000 0.062500
vt 0.812500 0.562500
vt 0.000000 0.312500
vt 0.625000 1.000000
vt 0.000000 0.312500
vt 0.750000 0.000000
vt 0.000000 0.500000
vt 0.000000 -0.062500
vt 0.000000 0.250000
vt -0.062500 -0.250000
vt 0.437500 0.000000
vt 0.812500 0.562500
vt 0.250000 0.000000
vt 0.062500 0.000000
vt 0.000000 -0.250000
vt 0.312500 0.437500
vt -0.062500 -0.062500
vt 0.562500 -0.062500
vt 0.562500 0.000000
vt 0.250000 0.062500
vt 0.062500 0.250000
vt -0.125000 0.000000
vt 0.000000 0.000000
vt 0.500000 0.000000
vt 0.312500 0.562500
vt 0.437500 0.000000
vt 0.000000 0.250000
vt 0.562500 0.000000
vt 0.562500 -0.250000
vt 0.062500 0.062500
vt -0.062500 0.062500
vt 0.000000 0.062500
vt 0.312500 0.312500
vt 0.062500 0.000000
vt -0.187500 0.000000
vt 0.000000 0.000000
vt 0.250000 0.312500
vt -0.062500 0.062500
vt 0.000000 0.062500
vt 0.000000 0.062500
vt 0.125000 0.062500
vt -0.062500 0.250000
vt -0.062500 0.000000
vt 0.250000 0.062500
vt 0.000000 0.250000
vt 0.250000 0.000000
vt -0.062500 -0.125000
vt -0.062500 -0.062500
vt -0.062500 0.062500
vt 0.000000 0.000000
vt 0.000000 0.000000
vt 0.000000 0.062500
vn 1.0000 0.0000 0.0000
vn 0.0000 0.0000 1.0000
vn -1.0000 0.0000 0.0000
vn 0.0000 0.0000 -1.0000
vn 0.0000 1.0000 0.0000
vn 0.0000 -1.0000 0.0000
g Toaster_Cube.136_UV_steel
s off
f 2/1/1 10/2/1 9/3/1
f 4/4/2 11/5/2 10/6/2
f 8/7/3 12/8/3 11/9/3
f 6/10/4 9/11/4 12/12/4
f 3/13/3 53/14/3 10/15/3
f 4/16/5 6/17/5 8/18/5
f 12/19/4 1/20/4 5/21/4
f 5/22/1 57/23/1 12/24/1
f 10/25/2 7/26/2 3/27/2
f 11/28/1 32/29/1 7/30/1
f 15/31/3 13/32/3 14/33/3
f 10/34/5 37/35/5 20/36/5
f 12/37/5 15/38/5 11/39/5
f 9/40/3 82/41/3 1/42/3
f 19/43/1 18/44/1 17/45/1
f 27/46/1 63/47/1 17/48/1
f 10/49/5 19/50/5 9/51/5
f 15/52/5 33/53/5 11/54/5
f 24/55/6 21/56/6 22/57/6
f 24/58/6 25/59/6 23/60/6
f 21/61/6 28/62/6 22/63/6
f 16/64/3 62/65/3 13/66/3
f 20/67/1 38/68/1 18/69/1
f 23/70/6 65/71/6 21/56/6
f 13/72/3 26/73/3 14/74/3
f 18/75/1 27/46/1 17/48/1
f 36/76/3 47/77/3 35/78/3
f 38/79/1 52/80/1 40/81/1
f 37/82/1 50/83/1 38/79/1
f 55/84/2 42/85/2 45/86/2
f 29/87/6 46/88/6 34/89/6
f 14/90/3 35/91/3 15/92/3
f 22/93/6 34/94/6 24/95/6
f 28/96/6 29/87/6 22/97/6
f 18/98/1 40/81/1 28/99/1
f 24/100/6 39/101/6 26/102/6
f 26/103/3 36/76/3 14/104/3
f 7/105/5 54/106/5 3/107/5
f 48/108/2 46/109/2 44/110/2
f 56/111/2 49/112/2 55/113/2
f 45/114/2 48/115/2 44/116/2
f 44/117/2 41/118/2 56/111/2
f 56/111/2 52/80/2 50/83/2
f 34/119/6 51/120/6 39/121/6
f 33/122/4 31/123/4 53/124/4
f 40/125/6 41/118/6 29/87/6
f 44/126/2 55/127/2 45/128/2
f 53/129/5 49/130/5 37/35/5
f 35/131/5 45/132/5 33/133/5
f 39/134/3 48/115/3 36/76/3
f 45/135/3 43/136/3 33/137/3
f 33/138/4 54/139/4 32/140/4
f 53/141/1 30/142/1 55/143/1
f 42/85/5 31/144/5 43/145/5
f 61/146/3 71/147/3 62/148/3
f 64/149/5 74/150/5 60/151/5
f 67/152/6 78/153/6 66/154/6
f 63/47/1 76/155/1 64/156/1
f 69/157/4 81/158/4 74/159/4
f 13/72/3 67/160/3 25/161/3
f 17/45/1 64/162/1 19/43/1
f 1/163/5 58/164/5 5/165/5
f 12/37/5 61/166/5 16/167/5
f 19/50/5 60/151/5 9/51/5
f 21/61/6 68/168/6 27/169/6
f 25/59/6 66/170/6 23/60/6
f 75/171/4 77/172/4 84/173/4
f 72/174/4 70/175/4 69/176/4
f 74/177/4 75/171/4 84/173/4
f 72/178/4 79/179/4 71/180/4
f 84/173/4 78/181/4 72/182/4
f 65/183/6 80/184/6 68/168/6
f 58/185/2 60/186/2 57/187/2
f 62/148/3 79/188/3 67/160/3
f 57/189/3 73/190/3 69/191/3
f 68/192/1 75/171/1 63/47/1
f 57/193/5 70/194/5 61/195/5
f 66/196/6 77/172/6 65/183/6
f 74/197/1 83/198/1 60/199/1
f 59/200/5 81/201/5 73/202/5
f 69/203/4 84/204/4 72/205/4
f 60/199/2 59/200/2 57/206/2
f 89/207/5 87/208/5 85/209/5
f 86/210/6 92/211/6 90/212/6
f 87/208/4 92/213/4 88/214/4
f 87/215/5 93/216/5 85/217/5
f 89/218/2 86/219/2 90/220/2
f 91/221/1 90/222/1 92/223/1
f 93/224/3 96/225/3 94/226/3
f 86/227/6 100/228/6 94/229/6
f 87/215/5 111/230/5 95/231/5
f 86/227/6 96/232/6 88/233/6
f 98/234/6 104/235/6 100/236/6
f 85/237/1 98/238/1 86/239/1
f 93/216/5 97/240/5 85/217/5
f 94/226/3 99/241/3 93/224/3
f 104/242/3 115/243/3 103/244/3
f 100/245/3 103/244/3 99/246/3
f 99/247/5 101/248/5 97/249/5
f 98/250/6 108/251/6 102/252/6
f 105/253/1 108/254/1 106/255/1
f 102/256/2 107/257/2 101/258/2
f 101/259/5 105/260/5 97/261/5
f 97/262/4 106/263/4 98/264/4
f 110/265/4 111/266/4 109/267/4
f 88/268/1 109/269/1 87/270/1
f 95/271/3 112/272/3 96/225/3
f 96/232/6 110/265/6 88/233/6
f 113/273/2 116/274/2 114/275/2
f 103/276/5 113/277/5 101/248/5
f 101/278/1 114/279/1 102/280/1
f 102/281/6 116/274/6 104/235/6
f 2/1/1 4/282/1 10/2/1
f 4/4/2 8/283/2 11/5/2
f 8/7/3 6/284/3 12/8/3
f 6/10/4 2/285/4 9/11/4
f 3/13/3 54/286/3 53/14/3
f 4/16/5 2/287/5 6/17/5
f 12/19/4 9/288/4 1/20/4
f 5/22/1 58/289/1 57/23/1
f 10/25/2 11/290/2 7/26/2
f 11/28/1 33/291/1 32/29/1
f 15/31/3 16/292/3 13/32/3
f 10/34/5 53/129/5 37/35/5
f 12/37/5 16/167/5 15/38/5
f 9/40/3 60/293/3 82/41/3
f 19/43/1 20/294/1 18/44/1
f 27/46/1 68/192/1 63/47/1
f 10/49/5 20/295/5 19/50/5
f 15/52/5 35/296/5 33/53/5
f 24/55/6 23/70/6 21/56/6
f 24/58/6 26/297/6 25/59/6
f 21/61/6 27/169/6 28/62/6
f 16/64/3 61/298/3 62/65/3
f 20/67/1 37/299/1 38/68/1
f 23/70/6 66/300/6 65/71/6
f 13/72/3 25/161/3 26/73/3
f 18/75/1 28/301/1 27/46/1
f 36/76/3 48/115/3 47/77/3
f 38/79/1 50/83/1 52/80/1
f 37/82/1 49/112/1 50/83/1
f 55/84/2 30/302/2 42/85/2
f 29/87/6 41/118/6 46/88/6
f 14/90/3 36/303/3 35/91/3
f 22/93/6 29/304/6 34/94/6
f 28/96/6 40/125/6 29/87/6
f 18/98/1 38/79/1 40/81/1
f 24/100/6 34/305/6 39/101/6
f 26/103/3 39/134/3 36/76/3
f 7/105/5 32/306/5 54/106/5
f 48/108/2 51/120/2 46/109/2
f 56/111/2 50/83/2 49/112/2
f 45/114/2 47/77/2 48/115/2
f 44/117/2 46/88/2 41/118/2
f 56/111/2 41/118/2 52/80/2
f 34/119/6 46/109/6 51/120/6
f 33/122/4 43/307/4 31/123/4
f 40/125/6 52/80/6 41/118/6
f 44/126/2 56/308/2 55/127/2
f 53/129/5 55/309/5 49/130/5
f 35/131/5 47/310/5 45/132/5
f 39/134/3 51/311/3 48/115/3
f 45/135/3 42/312/3 43/136/3
f 33/138/4 53/313/4 54/139/4
f 53/141/1 31/314/1 30/142/1
f 42/85/5 30/302/5 31/144/5
f 61/146/3 70/175/3 71/147/3
f 64/149/5 76/315/5 74/150/5
f 67/152/6 79/179/6 78/153/6
f 63/47/1 75/171/1 76/155/1
f 69/157/4 73/316/4 81/158/4
f 13/72/3 62/148/3 67/160/3
f 17/45/1 63/317/1 64/162/1
f 1/163/5 82/318/5 58/164/5
f 12/37/5 57/319/5 61/166/5
f 19/50/5 64/149/5 60/151/5
f 21/61/6 65/183/6 68/168/6
f 25/59/6 67/320/6 66/170/6
f 75/171/4 80/184/4 77/172/4
f 72/174/4 71/147/4 70/175/4
f 74/177/4 76/155/4 75/171/4
f 72/178/4 78/153/4 79/179/4
f 84/173/4 77/172/4 78/181/4
f 65/183/6 77/172/6 80/184/6
f 58/185/2 82/321/2 60/186/2
f 62/148/3 71/147/3 79/188/3
f 57/189/3 59/322/3 73/190/3
f 68/192/1 80/184/1 75/171/1
f 57/193/5 69/323/5 70/194/5
f 66/196/6 78/181/6 77/172/6
f 74/197/1 81/324/1 83/198/1
f 59/200/5 83/198/5 81/201/5
f 69/203/4 74/325/4 84/204/4
f 60/199/2 83/198/2 59/200/2
f 89/207/5 91/326/5 87/208/5
f 86/210/6 88/327/6 92/211/6
f 87/208/4 91/326/4 92/213/4
f 87/215/5 95/231/5 93/216/5
f 89/218/2 85/328/2 86/219/2
f 91/221/1 89/329/1 90/222/1
f 93/224/3 95/271/3 96/225/3
f 86/227/6 98/330/6 100/228/6
f 87/215/5 109/331/5 111/230/5
f 86/227/6 94/229/6 96/232/6
f 98/234/6 102/281/6 104/235/6
f 85/237/1 97/332/1 98/238/1
f 93/216/5 99/333/5 97/240/5
f 94/226/3 100/334/3 99/241/3
f 104/242/3 116/274/3 115/243/3
f 100/245/3 104/242/3 103/244/3
f 99/247/5 103/276/5 101/248/5
f 98/250/6 106/335/6 108/251/6
f 105/253/1 107/257/1 108/254/1
f 102/256/2 108/254/2 107/257/2
f 101/259/5 107/336/5 105/260/5
f 97/262/4 105/337/4 106/263/4
f 110/265/4 112/272/4 111/266/4
f 88/268/1 110/338/1 109/269/1
f 95/271/3 111/266/3 112/272/3
f 96/232/6 112/272/6 110/265/6
f 113/273/2 115/243/2 116/274/2
f 103/276/5 115/339/5 113/277/5
f 101/278/1 113/340/1 114/279/1
f 102/281/6 114/275/6 116/274/6
