# Blender v3.5.0 OBJ File: 'models.blend'
# www.blender.org
o toilet_paper_Cube.146
v 0.125000 -0.187500 0.312500
v 0.125000 -0.125000 0.312500
v 0.125000 -0.187500 0.375000
v 0.125000 -0.125000 0.375000
v -0.125000 -0.187500 0.312500
v -0.125000 -0.125000 0.312500
v -0.125000 -0.187500 0.375000
v -0.125000 -0.125000 0.375000
v 0.187500 -0.187500 0.312500
v 0.187500 -0.125000 0.312500
v 0.187500 -0.187500 0.375000
v 0.187500 -0.125000 0.375000
v -0.187500 -0.187500 0.312500
v -0.187500 -0.125000 0.312500
v -0.187500 -0.187500 0.375000
v -0.187500 -0.125000 0.375000
v -0.125000 -0.187500 0.500000
v -0.125000 -0.125000 0.500000
v -0.187500 -0.187500 0.500000
v -0.187500 -0.125000 0.500000
v 0.125000 -0.187500 0.500000
v 0.125000 -0.125000 0.500000
v 0.187500 -0.187500 0.500000
v 0.187500 -0.125000 0.500000
v 0.125000 -0.250000 0.250000
v 0.125000 -0.062500 0.250000
v 0.125000 -0.250000 0.437500
v 0.125000 -0.062500 0.437500
v -0.125000 -0.250000 0.250000
v -0.125000 -0.062500 0.250000
v -0.125000 -0.250000 0.437500
v -0.125000 -0.062500 0.437500
vt 0.000000 -0.125000
vt -0.062500 -0.187500
vt 0.000000 -0.187500
vt 0.062500 0.062500
vt 0.312500 0.000000
vt 0.062500 0.000000
vt -0.125000 0.062500
vt 0.000000 0.000000
vt -0.125000 0.000000
vt 0.312500 0.062500
vt 0.062500 0.000000
vt 0.312500 0.000000
vt 0.312500 -0.125000
vt 0.062500 -0.187500
vt 0.062500 -0.125000
vt 0.062500 -0.125000
vt 0.312500 -0.187500
vt 0.312500 -0.125000
vt -0.187500 0.062500
vt -0.125000 0.000000
vt -0.187500 0.000000
vt 0.000000 -0.187500
vt -0.062500 -0.125000
vt 0.000000 -0.125000
vt -0.125000 0.062500
vt 0.000000 0.000000
vt 0.062500 0.062500
vt 0.000000 0.000000
vt -0.125000 0.062500
vt -0.187500 0.000000
vt -0.125000 0.000000
vt -0.062500 0.000000
vt 0.000000 0.062500
vt -0.062500 0.062500
vt -0.062500 -0.125000
vt 0.000000 -0.187500
vt -0.062500 -0.187500
vt -0.062500 -0.187500
vt 0.000000 -0.125000
vt -0.062500 -0.125000
vt -0.062500 0.062500
vt 0.000000 0.000000
vt -0.062500 0.000000
vt -0.062500 0.000000
vt 0.000000 0.062500
vt 0.000000 -0.125000
vt 0.062500 0.000000
vt 0.000000 0.062500
vt 0.062500 0.062500
vt -0.062500 0.000000
vt -0.062500 -0.125000
vt -0.125000 0.000000
vt 0.000000 0.062500
vt -0.125000 0.062500
vt 0.000000 0.000000
vt 0.312500 0.062500
vt 0.000000 0.062500
vt 0.312500 -0.187500
vt 0.062500 -0.187500
vt -0.062500 -0.187500
vt 0.000000 0.062500
vt -0.187500 0.062500
vt 0.000000 0.000000
vt 0.000000 -0.187500
vt 0.000000 0.000000
vt 0.000000 0.000000
vt -0.062500 0.000000
vt -0.250000 0.187500
vt -0.062500 0.000000
vt -0.250000 0.000000
vt 0.062500 0.187500
vt 0.312500 0.000000
vt 0.062500 0.000000
vt -0.062500 0.187500
vt -0.250000 0.000000
vt -0.062500 0.000000
vt 0.312500 0.187500
vt 0.062500 0.000000
vt 0.312500 0.000000
vt 0.312500 -0.062500
vt 0.062500 -0.250000
vt 0.062500 -0.062500
vt 0.062500 -0.062500
vt 0.312500 -0.250000
vt 0.312500 -0.062500
vt -0.062500 0.187500
vt 0.312500 0.187500
vt -0.250000 0.187500
vt 0.062500 0.187500
vt 0.312500 -0.250000
vt 0.062500 -0.250000
vn 0.0000 1.0000 0.0000
vn 0.0000 0.0000 1.0000
vn 1.0000 0.0000 0.0000
vn 0.0000 0.0000 -1.0000
vn 0.0000 -1.0000 0.0000
vn -1.0000 0.0000 0.0000
g toilet_paper_Cube.146_UV_steel
s off
f 4/1/1 10/2/1 2/3/1
f 4/4/2 7/5/2 3/6/2
f 8/7/3 17/8/3 7/9/3
f 6/10/4 1/11/4 5/12/4
f 7/13/5 1/14/5 3/15/5
f 4/16/1 6/17/1 8/18/1
f 10/19/3 11/20/3 9/21/3
f 1/22/5 11/23/5 3/24/5
f 12/25/3 23/26/3 11/20/3
f 2/27/4 9/28/4 1/11/4
f 16/29/6 13/30/6 15/31/6
f 5/32/4 14/33/4 6/34/4
f 7/35/5 13/36/5 5/37/5
f 6/38/1 16/39/1 8/40/1
f 18/41/2 19/42/2 17/43/2
f 16/39/1 18/44/1 8/40/1
f 15/31/6 20/45/6 16/29/6
f 7/35/5 19/42/5 15/46/5
f 21/47/2 24/48/2 22/49/2
f 4/1/1 24/50/1 12/51/1
f 3/52/6 22/53/6 4/54/6
f 11/23/5 21/55/5 3/24/5
f 4/1/1 12/51/1 10/2/1
f 4/4/2 8/56/2 7/5/2
f 8/7/3 18/57/3 17/8/3
f 6/10/4 2/27/4 1/11/4
f 7/13/5 5/58/5 1/14/5
f 4/16/1 2/59/1 6/17/1
f 10/19/3 12/25/3 11/20/3
f 1/22/5 9/60/5 11/23/5
f 12/25/3 24/48/3 23/26/3
f 2/27/4 10/61/4 9/28/4
f 16/29/6 14/62/6 13/30/6
f 5/32/4 13/63/4 14/33/4
f 7/35/5 15/46/5 13/36/5
f 6/38/1 14/64/1 16/39/1
f 18/41/2 20/45/2 19/42/2
f 16/39/1 20/65/1 18/44/1
f 15/31/6 19/42/6 20/45/6
f 7/35/5 17/43/5 19/42/5
f 21/47/2 23/26/2 24/48/2
f 4/1/1 22/66/1 24/50/1
f 3/52/6 21/55/6 22/53/6
f 11/23/5 23/67/5 21/55/5
g toilet_paper_Cube.146_UV_special1
f 26/68/3 27/69/3 25/70/3
f 28/71/2 31/72/2 27/73/2
f 32/74/6 29/75/6 31/76/6
f 30/77/4 25/78/4 29/79/4
f 31/80/5 25/81/5 27/82/5
f 28/83/1 30/84/1 32/85/1
f 26/68/3 28/86/3 27/69/3
f 28/71/2 32/87/2 31/72/2
f 32/74/6 30/88/6 29/75/6
f 30/77/4 26/89/4 25/78/4
f 31/80/5 29/90/5 25/81/5
f 28/83/1 26/91/1 30/84/1
