# Blender v3.3.0 OBJ File: ''
# www.blender.org
o wardrobe_spliced_Cube.051
v 0.500000 0.500000 0.062500
v 0.500000 0.062500 0.500000
v 0.500000 0.062500 0.062500
v 0.500000 0.500000 0.500000
v -0.500000 0.062500 0.500000
v -0.500000 0.500000 0.062500
v -0.500000 0.062500 -0.375000
v -0.500000 0.062500 0.062500
v -0.500000 0.500000 -0.375000
v 0.500000 0.062500 -0.375000
v -0.500000 -0.437500 0.062500
v 0.500000 -0.437500 -0.375000
v 0.500000 -0.437500 0.062500
v -0.500000 0.875000 0.500000
v -0.500000 1.500000 0.062500
v -0.500000 0.875000 0.062500
v 0.500000 1.500000 0.062500
v -0.500000 1.500000 -0.375000
v 0.500000 0.875000 -0.375000
v 0.500000 0.875000 0.062500
v -0.500000 0.875000 -0.375000
v 0.500000 1.500000 -0.375000
v 0.500000 0.875000 0.500000
v -0.500000 1.500000 0.500000
v -0.062500 1.437500 -0.437500
v -0.062500 0.937500 -0.375000
v -0.062500 0.937500 -0.437500
v -0.250000 1.437500 -0.375000
v -0.437500 0.937500 -0.375000
v -0.250000 0.937500 -0.375000
v -0.437500 1.437500 -0.375000
v -0.437500 0.937500 -0.437500
v -0.250000 1.437500 -0.437500
v -0.250000 0.937500 -0.437500
v -0.437500 0.125000 -0.375000
v -0.250000 0.125000 -0.437500
v -0.250000 0.125000 -0.375000
v -0.062500 1.437500 -0.375000
v 0.437500 1.437500 -0.437500
v 0.437500 0.937500 -0.375000
v 0.437500 0.937500 -0.437500
v 0.250000 1.437500 -0.375000
v 0.062500 0.937500 -0.375000
v 0.250000 0.937500 -0.375000
v 0.062500 1.437500 -0.375000
v 0.062500 0.937500 -0.437500
v 0.250000 1.437500 -0.437500
v 0.250000 0.937500 -0.437500
v 0.062500 0.125000 -0.375000
v 0.250000 0.125000 -0.437500
v 0.250000 0.125000 -0.375000
v 0.437500 1.437500 -0.375000
v 0.437500 -0.062500 -0.437500
v 0.437500 -0.250000 -0.375000
v 0.437500 -0.250000 -0.437500
v -0.000000 -0.062500 -0.375000
v -0.437500 -0.250000 -0.375000
v -0.000000 -0.250000 -0.375000
v -0.437500 -0.062500 -0.375000
v -0.437500 -0.250000 -0.437500
v -0.000000 -0.062500 -0.437500
v -0.000000 -0.250000 -0.437500
v -0.437500 -0.375000 -0.375000
v -0.000000 -0.375000 -0.437500
v -0.000000 -0.375000 -0.375000
v 0.437500 -0.062500 -0.375000
v -0.500000 0.000000 -0.375000
v 0.500000 -0.187500 -0.375000
v -0.500000 -0.187500 -0.375000
v -0.500000 -0.000000 0.062500
v -0.500000 -0.187500 0.062500
v 0.500000 -0.000000 0.500000
v -0.500000 -0.187500 0.500000
v 0.500000 -0.187500 0.500000
v 0.500000 -0.000000 0.062500
v 0.500000 -0.187500 0.062500
v -0.500000 0.000000 -0.437500
v -0.500000 -0.000000 0.500000
v -0.500000 0.062500 -0.437500
v 0.500000 0.000000 -0.437500
v 0.500000 0.000000 -0.375000
v 0.500000 0.062500 -0.437500
v 0.125000 -0.125000 -0.500000
v 0.125000 -0.187500 -0.437500
v 0.125000 -0.187500 -0.500000
v 0.125000 -0.125000 -0.437500
v -0.125000 -0.187500 -0.437500
v -0.125000 -0.125000 -0.437500
v -0.125000 -0.187500 -0.500000
v -0.125000 -0.125000 -0.500000
v 0.187500 0.875000 -0.500000
v 0.187500 0.625000 -0.437500
v 0.187500 0.625000 -0.500000
v 0.187500 0.875000 -0.437500
v 0.125000 0.625000 -0.437500
v 0.125000 0.875000 -0.437500
v 0.125000 0.625000 -0.500000
v 0.125000 0.875000 -0.500000
v -0.125000 0.875000 -0.500000
v -0.125000 0.625000 -0.437500
v -0.125000 0.625000 -0.500000
v -0.125000 0.875000 -0.437500
v -0.187500 0.625000 -0.437500
v -0.187500 0.875000 -0.437500
v -0.187500 0.625000 -0.500000
v -0.187500 0.875000 -0.500000
v 0.500000 1.500000 0.500000
v -0.500000 -0.437500 0.500000
v 0.500000 -0.437500 0.500000
v -0.500000 0.500000 0.500000
v 0.500000 0.500000 -0.375000
v -0.250000 0.500000 -0.437500
v -0.062500 0.125000 -0.437500
v -0.437500 0.500000 -0.375000
v -0.437500 0.125000 -0.437500
v -0.250000 0.500000 -0.375000
v -0.062500 0.500000 -0.437500
v -0.062500 0.125000 -0.375000
v 0.250000 0.500000 -0.437500
v 0.437500 0.125000 -0.437500
v 0.062500 0.500000 -0.375000
v 0.062500 0.125000 -0.437500
v 0.250000 0.500000 -0.375000
v 0.437500 0.500000 -0.437500
v 0.437500 0.125000 -0.375000
v -0.437500 0.500000 -0.437500
v -0.062500 0.500000 -0.375000
v 0.062500 0.500000 -0.437500
v 0.437500 0.500000 -0.375000
v 0.062500 1.437500 -0.437500
v -0.437500 1.437500 -0.437500
v 0.437500 -0.375000 -0.437500
v -0.437500 -0.375000 -0.437500
v 0.437500 -0.375000 -0.375000
v -0.437500 -0.062500 -0.437500
v -0.312500 -0.437500 -0.312500
v -0.312500 -0.500000 -0.187500
v -0.312500 -0.500000 -0.312500
v -0.312500 -0.437500 -0.187500
v -0.437500 -0.500000 -0.187500
v -0.437500 -0.437500 -0.187500
v -0.437500 -0.500000 -0.312500
v -0.437500 -0.437500 -0.312500
v -0.312500 -0.437500 0.312500
v -0.312500 -0.500000 0.437500
v -0.312500 -0.500000 0.312500
v -0.312500 -0.437500 0.437500
v -0.437500 -0.500000 0.437500
v -0.437500 -0.437500 0.437500
v -0.437500 -0.500000 0.312500
v -0.437500 -0.437500 0.312500
v 0.437500 -0.437500 -0.312500
v 0.437500 -0.500000 -0.187500
v 0.437500 -0.500000 -0.312500
v 0.437500 -0.437500 -0.187500
v 0.312500 -0.500000 -0.187500
v 0.312500 -0.437500 -0.187500
v 0.312500 -0.500000 -0.312500
v 0.312500 -0.437500 -0.312500
v 0.437500 -0.437500 0.312500
v 0.437500 -0.500000 0.437500
v 0.437500 -0.500000 0.312500
v 0.437500 -0.437500 0.437500
v 0.312500 -0.500000 0.437500
v 0.312500 -0.437500 0.437500
v 0.312500 -0.500000 0.312500
v 0.312500 -0.437500 0.312500
v -0.500000 -0.437500 -0.375000
vt 0.437501 0.437501
vt -0.000001 0.000002
vt 0.437501 0.000002
vt -0.000001 0.437501
vt 1.000001 0.000002
vt 0.562499 0.437501
vt 1.000001 0.000002
vt 0.562499 0.000002
vt 1.000001 0.437501
vt -0.000001 0.000002
vt 1.000001 0.437501
vt -0.000001 0.000002
vt -0.000001 0.437501
vt -0.000001 0.375002
vt 0.437501 1.000001
vt 0.437501 0.375002
vt -0.000001 0.437501
vt 1.000001 0.000002
vt 1.000001 0.437501
vt 1.000001 0.375002
vt 0.562499 1.000001
vt 0.562499 0.375002
vt 1.000001 0.375002
vt -0.000001 1.000001
vt -0.000001 0.375002
vt -0.000001 0.375002
vt 1.000001 1.000001
vt 1.000001 0.375002
vt 0.062501 0.937502
vt -0.000001 0.437501
vt 0.062501 0.437501
vt 0.749999 0.937502
vt 0.937499 0.437501
vt 0.749999 0.437501
vt 0.937499 0.937502
vt 1.000001 0.437501
vt 0.187499 1.000001
vt -0.000001 0.500000
vt 0.187499 0.500000
vt 0.937499 0.062501
vt 0.749999 0.000002
vt 0.749999 0.062501
vt 0.562499 1.000001
vt 0.749999 0.937502
vt 0.749999 1.000001
vt 0.062501 0.937502
vt -0.000001 0.437501
vt 0.062501 0.437501
vt 0.250001 0.937502
vt 0.437501 0.437501
vt 0.250001 0.437501
vt 0.937499 0.937502
vt 1.000001 0.437501
vt 0.937499 0.437501
vt 0.187499 1.000001
vt -0.000001 0.500000
vt 0.187499 0.500000
vt 0.437501 0.062501
vt 0.250001 0.000002
vt 0.250001 0.062501
vt 0.062501 1.000001
vt 0.250001 0.937502
vt 0.250001 1.000001
vt 0.062501 0.437501
vt -0.000001 0.250001
vt 0.062501 0.250001
vt 0.500000 0.437501
vt 0.937499 0.250001
vt 0.500000 0.250001
vt 0.937499 0.437501
vt 1.000001 0.250001
vt 0.437501 1.000001
vt -0.000001 0.812501
vt 0.437501 0.812501
vt 0.937499 0.062501
vt 0.500000 0.000002
vt 0.500000 0.062501
vt 0.062501 1.000001
vt 0.500000 0.937502
vt 0.500000 1.000001
vt 1.000001 1.000001
vt -0.000001 0.812501
vt 1.000001 0.812501
vt 0.562499 1.000001
vt 0.562499 0.812501
vt -0.000001 1.000001
vt 1.000001 0.812501
vt -0.000001 0.812501
vt 0.437501 1.000001
vt 0.437501 0.812501
vt 0.875000 0.062501
vt 0.937499 0.000002
vt 0.875000 0.000002
vt 0.437501 0.062501
vt 0.437501 0.000002
vt -0.000001 0.062501
vt 1.000001 0.000002
vt -0.000001 0.000002
vt 0.437501 0.062501
vt 0.437501 0.000002
vt 1.000001 0.062501
vt -0.000001 0.000002
vt 1.000001 0.000002
vt -0.000001 0.062501
vt 1.000001 0.000002
vt 1.000001 0.062501
vt 0.875000 0.000002
vt 0.937499 0.062501
vt 0.875000 0.062501
vt 1.000001 0.062501
vt -0.000001 0.062501
vt 1.000001 0.375002
vt 0.937499 0.312500
vt 1.000001 0.312500
vt 0.374999 0.375002
vt 0.625001 0.312500
vt 0.374999 0.312500
vt 0.937499 0.375002
vt 1.000001 0.312500
vt 0.937499 0.312500
vt 0.625001 0.062501
vt 0.374999 0.000002
vt 0.625001 0.000002
vt 0.625001 0.062501
vt 0.374999 0.062501
vt 0.374999 0.062501
vt 0.625001 0.000002
vt 0.625001 0.062501
vt 1.000001 0.375002
vt 0.937499 0.125000
vt 1.000001 0.125000
vt 0.312500 0.375002
vt 0.374999 0.125000
vt 0.312500 0.125000
vt 0.937499 0.375002
vt 1.000001 0.125000
vt 0.937499 0.125000
vt 1.000001 0.500000
vt 0.937499 0.250001
vt 1.000001 0.250001
vt 0.374999 0.062501
vt 0.312500 0.000002
vt 0.312500 0.062501
vt 0.312500 0.062501
vt 0.374999 0.000002
vt 0.374999 0.062501
vt 1.000001 0.375002
vt 0.937499 0.125000
vt 1.000001 0.125000
vt 0.625001 0.375002
vt 0.687500 0.125000
vt 0.625001 0.125000
vt 0.937499 0.375002
vt 1.000001 0.125000
vt 0.937499 0.125000
vt 1.000001 0.375002
vt 0.937499 0.125000
vt 0.687500 0.062501
vt 0.625001 0.000002
vt 0.625001 0.062501
vt 0.625001 0.062501
vt 0.687500 0.000002
vt 0.687500 0.062501
vt -0.000001 0.062501
vt -0.000001 0.000002
vt 1.000001 1.000001
vt 0.562499 0.812501
vt 1.000001 0.812501
vt -0.000001 1.000001
vt 0.437501 0.812501
vt -0.000001 0.812501
vt 0.437501 0.375002
vt -0.000001 1.000001
vt 1.000001 0.562502
vt 0.562499 0.375002
vt 1.000001 1.000001
vt 1.000001 1.000001
vt -0.000001 0.562502
vt -0.000001 1.000001
vt -0.000001 0.437501
vt 0.437501 0.000002
vt -0.000001 0.000002
vt 1.000001 0.437501
vt 0.562499 0.000002
vt 1.000001 0.000002
vt 0.562499 0.250001
vt 1.000001 0.625001
vt 1.000001 0.250001
vt 0.437501 0.250001
vt -0.000001 0.625001
vt -0.000001 0.250001
vt 1.000001 0.625001
vt 1.000001 0.250001
vt 1.000001 0.375002
vt -0.000001 0.750002
vt -0.000001 0.375002
vt 1.000001 0.250001
vt 0.562499 0.625001
vt 0.562499 0.250001
vt -0.000001 0.250001
vt 0.437501 0.625001
vt 0.437501 0.250001
vt 0.187499 0.375002
vt -0.000001 0.000002
vt 0.187499 0.000002
vt 0.937499 0.875000
vt 1.000001 0.500000
vt 0.937499 0.500000
vt 0.749999 1.000001
vt 0.937499 0.625001
vt 0.749999 0.625001
vt 0.062501 0.875000
vt -0.000001 0.500000
vt 0.062501 0.500000
vt 0.187499 0.375002
vt -0.000001 0.000002
vt 0.187499 0.000002
vt 0.937499 0.875000
vt 1.000001 0.500000
vt 0.937499 0.500000
vt 0.250001 1.000001
vt 0.437501 0.625001
vt 0.250001 0.625001
vt 0.062501 0.875000
vt -0.000001 0.500000
vt 0.062501 0.500000
vt 0.187499 0.687500
vt -0.000001 0.250001
vt 0.187499 0.250001
vt 0.937499 0.562502
vt 1.000001 0.125000
vt 0.937499 0.125000
vt 0.937499 0.000002
vt 0.749999 0.000002
vt 0.062501 0.562502
vt -0.000001 0.125000
vt 0.062501 0.125000
vt 0.187499 0.687500
vt -0.000001 0.250001
vt 0.187499 0.250001
vt 0.937499 0.562502
vt 1.000001 0.125000
vt 0.937499 0.125000
vt 0.437501 0.000002
vt 0.250001 0.000002
vt 0.062501 0.562502
vt -0.000001 0.125000
vt 0.062501 0.125000
vt 0.062501 0.437501
vt 0.062501 0.000002
vt 1.000001 0.687500
vt 0.812501 0.250001
vt 1.000001 0.250001
vt 0.062501 1.000001
vt 0.062501 0.625001
vt 1.000001 0.375002
vt 0.812501 0.000002
vt 1.000001 0.000002
vt 0.437501 0.937502
vt 0.437501 1.000001
vt 0.062501 0.000002
vt 0.062501 0.062501
vt 1.000001 1.000001
vt 0.812501 0.500000
vt 1.000001 0.500000
vt 0.062501 0.937502
vt 0.562499 0.437501
vt 0.562499 0.000002
vt 1.000001 0.687500
vt 0.812501 0.250001
vt 1.000001 0.250001
vt 0.562499 1.000001
vt 0.562499 0.625001
vt 1.000001 0.375002
vt 0.812501 0.000002
vt 1.000001 0.000002
vt 0.937499 0.937502
vt 0.937499 1.000001
vt 0.562499 0.000002
vt 0.562499 0.062501
vt 1.000001 1.000001
vt 0.812501 0.500000
vt 1.000001 0.500000
vt 0.562499 0.937502
vt 0.437501 0.125000
vt -0.000001 0.000002
vt 0.437501 0.000002
vt 1.000001 0.125000
vt 0.937499 0.125000
vt 0.500000 0.125000
vt -0.000001 0.125000
vt 0.062501 0.125000
vt 0.062501 0.250001
vt 0.062501 0.125000
vt 1.000001 0.125000
vt 0.562499 0.000002
vt 1.000001 0.000002
vt 0.937499 0.937502
vt 0.937499 1.000001
vt 0.062501 0.000002
vt 0.062501 0.062501
vt 1.000001 1.000001
vt 0.562499 0.812501
vt 1.000001 0.812501
vt 0.062501 0.437501
vt 0.812501 0.062501
vt 0.687500 0.000002
vt 0.812501 0.000002
vt 0.812501 0.062501
vt 0.937499 0.000002
vt 0.812501 0.000002
vt 0.687500 0.062501
vt 0.812501 0.000002
vt 0.687500 0.000002
vt 0.937499 0.062501
vt 0.937499 0.000002
vt 1.062500 0.062501
vt 0.937499 -0.062500
vt 0.937499 0.062501
vt 0.812501 0.312500
vt 0.937499 0.187502
vt 0.937499 0.312500
vt 0.187499 0.062501
vt 0.062501 0.000002
vt 0.187499 0.000002
vt 0.812501 0.062501
vt 0.937499 0.000002
vt 0.812501 0.000002
vt 0.062501 0.062501
vt 0.187499 0.000002
vt 0.062501 0.000002
vt 0.937499 0.062501
vt 0.812501 0.000002
vt 0.937499 0.000002
vt 1.062500 1.062500
vt 0.937499 0.937502
vt 0.937499 1.062500
vt 0.812501 0.937502
vt 0.937499 0.812501
vt 0.937499 0.937502
vt 0.812501 0.062501
vt 0.687500 0.000002
vt 0.812501 0.000002
vt 0.062501 0.062501
vt 0.187499 0.000002
vt 0.062501 0.000002
vt 0.687500 0.062501
vt 0.812501 0.000002
vt 0.687500 0.000002
vt 0.187499 0.062501
vt 0.062501 0.000002
vt 0.187499 0.000002
vt 0.062501 0.062501
vt -0.062500 -0.062500
vt -0.062500 0.062501
vt 0.062501 0.312500
vt 0.187499 0.187502
vt 0.187499 0.312500
vt 0.187499 0.062501
vt 0.062501 0.000002
vt 0.187499 0.000002
vt 0.062501 0.062501
vt 0.187499 0.000002
vt 0.062501 0.062501
vt 0.187499 0.000002
vt 0.062501 0.000002
vt 0.187499 0.062501
vt 0.062501 0.000002
vt 0.062501 1.062500
vt -0.062500 0.937502
vt -0.062500 1.062500
vt 0.062501 0.937502
vt 0.187499 0.812501
vt 0.187499 0.937502
vt -0.000001 0.250001
vt 0.437501 0.000002
vt -0.000001 0.000002
vt 1.000001 0.250001
vt 0.562499 0.000002
vt 1.000001 0.000002
vt 0.437501 0.250001
vt -0.000001 0.000002
vt 0.437501 0.000002
vt -0.000001 0.250001
vt 1.000001 0.000002
vt 0.562499 0.250001
vt 1.000001 0.000002
vt 0.562499 0.000002
vt 1.000001 0.250001
vt 1.000001 0.437501
vt -0.000001 0.437501
vt -0.000001 1.000001
vt -0.000001 0.000002
vt 1.000001 1.000001
vt -0.000001 0.937502
vt 1.000001 0.937502
vt -0.000001 1.000001
vt 0.937499 0.000002
vt 0.562499 0.937502
vt -0.000001 0.937502
vt 0.437501 0.937502
vt 1.000001 0.937502
vt -0.000001 1.000001
vt 0.437501 0.000002
vt -0.000001 0.437501
vt 1.000001 0.437501
vt -0.000001 1.000001
vt 0.937499 0.000002
vt 0.062501 0.937502
vt -0.000001 1.000001
vt 1.000001 1.000001
vt 0.937499 0.062501
vt 1.000001 0.062501
vt -0.000001 0.062501
vt -0.000001 0.000002
vt 0.937499 0.000002
vt 0.937499 0.375002
vt 0.625001 0.375002
vt 1.000001 0.375002
vt 0.374999 0.062501
vt 0.374999 0.000002
vt 0.937499 0.375002
vt 0.374999 0.375002
vt 1.000001 0.375002
vt 0.937499 0.500000
vt 0.374999 0.000002
vt 0.312500 0.000002
vt 0.937499 0.375002
vt 0.687500 0.375002
vt 0.937499 0.375002
vt 0.687500 0.000002
vt 0.625001 0.000002
vt 0.562499 1.000001
vt 0.437501 1.000001
vt 0.437501 1.000001
vt -0.000001 0.562502
vt 0.562499 1.000001
vt 1.000001 0.562502
vt 0.437501 0.437501
vt 0.562499 0.437501
vt 0.562499 0.625001
vt 0.437501 0.625001
vt 1.000001 0.750002
vt 1.000001 0.625001
vt -0.000001 0.625001
vt -0.000001 0.375002
vt 1.000001 0.875000
vt 0.937499 1.000001
vt -0.000001 0.875000
vt -0.000001 0.375002
vt 1.000001 0.875000
vt 0.437501 1.000001
vt -0.000001 0.875000
vt -0.000001 0.687500
vt 1.000001 0.562502
vt -0.000001 0.562502
vt -0.000001 0.687500
vt 1.000001 0.562502
vt -0.000001 0.562502
vt 0.812501 0.687500
vt 0.812501 0.375002
vt 0.812501 1.000001
vt 0.812501 0.687500
vt 0.812501 0.375002
vt 0.812501 1.000001
vt -0.000001 0.125000
vt 0.562499 0.125000
vt 0.562499 1.000001
vt 0.687500 0.062501
vt 0.937499 0.062501
vt 0.812501 0.062501
vt 1.062500 -0.062500
vt 0.812501 0.187502
vt 0.062501 0.062501
vt 0.937499 0.062501
vt 0.187499 0.062501
vt 0.812501 0.062501
vt 1.062500 0.937502
vt 0.812501 0.812501
vt 0.687500 0.062501
vt 0.187499 0.062501
vt 0.812501 0.062501
vt 0.062501 0.062501
vt 0.062501 -0.062500
vt 0.062501 0.187502
vt 0.187499 0.062501
vt 0.062501 0.062501
vt 0.062501 0.937502
vt 0.062501 0.812501
vt 0.437501 0.250001
vt 0.562499 0.250001
vt 1.000001 0.250001
vt -0.000001 0.250001
vn 1.0000 -0.0000 -0.0000
vn 0.0000 -0.0000 1.0000
vn -1.0000 0.0000 0.0000
vn -0.0000 0.0000 -1.0000
vn -0.0000 -1.0000 -0.0000
vn 0.0000 1.0000 0.0000
g wardrobe_spliced_Cube.051_wardrobe_spliced_Cube.051_Default_OBJ.019
s 1
f 1/1/1 2/2/1 3/3/1
f 4/4/2 5/5/2 2/2/2
f 6/6/3 7/7/3 8/8/3
f 9/9/4 10/10/4 7/7/4
f 11/11/5 12/12/5 13/13/5
f 14/14/3 15/15/3 16/16/3
f 17/17/6 18/18/6 15/19/6
f 19/20/1 17/21/1 20/22/1
f 21/23/4 22/24/4 19/25/4
f 23/26/2 24/27/2 14/28/2
f 25/29/1 26/30/1 27/31/1
f 28/32/2 29/33/2 30/34/2
f 31/35/3 32/36/3 29/33/3
f 33/37/4 27/38/4 34/39/4
f 35/40/5 36/41/5 37/42/5
f 38/43/6 33/44/6 28/45/6
f 39/46/1 40/47/1 41/48/1
f 42/49/2 43/50/2 44/51/2
f 45/52/3 46/53/3 43/54/3
f 47/55/4 41/56/4 48/57/4
f 49/58/5 50/59/5 51/60/5
f 52/61/6 47/62/6 42/63/6
f 53/64/1 54/65/1 55/66/1
f 56/67/2 57/68/2 58/69/2
f 59/70/3 60/71/3 57/68/3
f 61/72/4 55/73/4 62/74/4
f 63/75/5 64/76/5 65/77/5
f 66/78/6 61/79/6 56/80/6
f 67/81/4 68/82/4 69/83/4
f 70/84/3 69/83/3 71/85/3
f 72/86/2 73/87/2 74/88/2
f 75/89/1 74/88/1 76/90/1
f 7/91/3 77/92/3 67/93/3
f 8/94/3 67/93/3 70/95/3
f 2/96/2 78/97/2 72/98/2
f 3/99/1 72/98/1 75/100/1
f 79/101/4 80/102/4 77/103/4
f 10/104/6 79/105/6 7/106/6
f 81/107/1 82/108/1 10/109/1
f 67/110/5 80/102/5 81/111/5
f 83/112/1 84/113/1 85/114/1
f 86/115/2 87/116/2 84/117/2
f 88/118/3 89/119/3 87/120/3
f 90/121/4 85/122/4 89/123/4
f 87/124/5 85/122/5 84/125/5
f 86/126/6 90/127/6 88/128/6
f 91/129/1 92/130/1 93/131/1
f 94/132/2 95/133/2 92/134/2
f 96/135/3 97/136/3 95/137/3
f 98/138/4 93/139/4 97/140/4
f 95/141/5 93/142/5 92/143/5
f 94/144/6 98/145/6 96/146/6
f 99/147/1 100/148/1 101/149/1
f 102/150/2 103/151/2 100/152/2
f 104/153/3 105/154/3 103/155/3
f 106/156/4 101/157/4 105/154/4
f 103/158/5 101/159/5 100/160/5
f 102/161/6 106/162/6 104/163/6
f 10/109/1 75/100/1 81/107/1
f 5/164/3 70/95/3 78/165/3
f 81/166/1 76/167/1 68/168/1
f 78/169/3 71/170/3 73/171/3
f 20/172/1 107/173/1 23/26/1
f 107/173/6 15/174/6 24/27/6
f 16/175/3 18/176/3 21/23/3
f 108/177/5 13/178/5 109/179/5
f 110/180/3 8/181/3 5/182/3
f 111/183/1 3/184/1 10/185/1
f 6/186/3 21/187/3 9/188/3
f 1/189/1 23/190/1 4/191/1
f 4/191/2 14/192/2 110/193/2
f 9/194/4 19/195/4 111/196/4
f 111/197/1 20/198/1 1/199/1
f 110/200/3 16/201/3 6/202/3
f 112/203/4 113/204/4 36/205/4
f 114/206/3 115/207/3 35/208/3
f 116/209/2 35/210/2 37/211/2
f 117/212/1 118/213/1 113/214/1
f 119/215/4 120/216/4 50/217/4
f 121/218/3 122/219/3 49/220/3
f 123/221/2 49/222/2 51/223/2
f 124/224/1 125/225/1 120/226/1
f 34/227/4 117/228/4 112/229/4
f 29/230/3 126/231/3 114/232/3
f 30/34/2 114/233/2 116/234/2
f 27/235/1 127/236/1 117/237/1
f 48/238/4 124/239/4 119/240/4
f 43/241/3 128/242/3 121/243/3
f 44/51/2 121/244/2 123/245/2
f 41/246/1 129/247/1 124/248/1
f 40/249/2 123/245/2 129/250/2
f 46/251/4 119/252/4 128/253/4
f 129/254/2 51/223/2 125/255/2
f 128/256/4 50/257/4 122/258/4
f 42/63/6 130/259/6 45/260/6
f 51/60/5 120/261/5 125/262/5
f 130/263/4 48/264/4 46/265/4
f 52/266/2 44/51/2 40/249/2
f 26/267/2 116/234/2 127/268/2
f 32/269/4 112/270/4 126/271/4
f 127/272/2 37/211/2 118/273/2
f 126/274/4 36/275/4 115/276/4
f 28/45/6 131/277/6 31/278/6
f 37/42/5 113/279/5 118/280/5
f 131/281/4 34/282/4 32/283/4
f 38/284/2 30/34/2 26/267/2
f 62/285/4 132/286/4 64/287/4
f 57/68/3 133/288/3 63/289/3
f 58/69/2 63/289/2 65/290/2
f 55/66/1 134/291/1 132/292/1
f 54/293/2 65/290/2 134/294/2
f 60/295/4 64/296/4 133/297/4
f 56/80/6 135/298/6 59/299/6
f 65/77/5 132/300/5 134/301/5
f 135/302/4 62/303/4 60/304/4
f 66/305/2 58/69/2 54/293/2
f 136/306/1 137/307/1 138/308/1
f 139/309/2 140/310/2 137/311/2
f 141/312/3 142/313/3 140/314/3
f 143/315/4 138/308/4 142/316/4
f 140/317/5 138/318/5 137/319/5
f 139/320/6 143/321/6 141/322/6
f 144/323/1 145/324/1 146/325/1
f 147/326/2 148/327/2 145/328/2
f 149/329/3 150/330/3 148/331/3
f 151/332/4 146/333/4 150/334/4
f 148/335/5 146/336/5 145/337/5
f 147/338/6 151/339/6 149/340/6
f 152/341/1 153/342/1 154/343/1
f 155/344/2 156/345/2 153/346/2
f 157/347/3 158/348/3 156/349/3
f 159/350/4 154/351/4 158/352/4
f 156/353/5 154/354/5 153/355/5
f 155/356/6 159/357/6 157/358/6
f 160/359/1 161/360/1 162/361/1
f 163/362/2 164/363/2 161/360/2
f 165/364/3 166/365/3 164/366/3
f 167/367/4 162/368/4 166/365/4
f 164/369/5 162/370/5 161/371/5
f 163/372/6 167/373/6 165/374/6
f 73/375/3 11/376/3 108/377/3
f 68/378/1 13/379/1 12/380/1
f 76/381/1 109/382/1 13/383/1
f 74/384/2 108/385/2 109/382/2
f 71/386/3 168/387/3 11/388/3
f 69/389/4 12/12/4 168/387/4
f 1/1/1 4/4/1 2/2/1
f 4/4/2 110/390/2 5/5/2
f 6/6/3 9/9/3 7/7/3
f 9/9/4 111/391/4 10/10/4
f 11/11/5 168/387/5 12/12/5
f 14/14/3 24/392/3 15/15/3
f 17/17/6 22/393/6 18/18/6
f 19/20/1 22/394/1 17/21/1
f 21/23/4 18/176/4 22/24/4
f 23/26/2 107/173/2 24/27/2
f 25/29/1 38/395/1 26/30/1
f 28/32/2 31/35/2 29/33/2
f 31/35/3 131/396/3 32/36/3
f 33/37/4 25/397/4 27/38/4
f 35/40/5 115/398/5 36/41/5
f 38/43/6 25/399/6 33/44/6
f 39/46/1 52/400/1 40/47/1
f 42/49/2 45/401/2 43/50/2
f 45/52/3 130/402/3 46/53/3
f 47/55/4 39/403/4 41/56/4
f 49/58/5 122/404/5 50/59/5
f 52/61/6 39/46/6 47/62/6
f 53/64/1 66/405/1 54/65/1
f 56/67/2 59/70/2 57/68/2
f 59/70/3 135/406/3 60/71/3
f 61/72/4 53/407/4 55/73/4
f 63/75/5 133/408/5 64/76/5
f 66/78/6 53/409/6 61/79/6
f 67/81/4 81/410/4 68/82/4
f 70/84/3 67/81/3 69/83/3
f 72/86/2 78/411/2 73/87/2
f 75/89/1 72/86/1 74/88/1
f 7/91/3 79/412/3 77/92/3
f 8/94/3 7/91/3 67/93/3
f 2/96/2 5/413/2 78/97/2
f 3/99/1 2/96/1 72/98/1
f 79/101/4 82/414/4 80/102/4
f 10/104/6 82/415/6 79/105/6
f 81/107/1 80/416/1 82/108/1
f 67/110/5 77/103/5 80/102/5
f 83/112/1 86/417/1 84/113/1
f 86/115/2 88/418/2 87/116/2
f 88/118/3 90/419/3 89/119/3
f 90/121/4 83/420/4 85/122/4
f 87/124/5 89/123/5 85/122/5
f 86/126/6 83/421/6 90/127/6
f 91/129/1 94/422/1 92/130/1
f 94/132/2 96/423/2 95/133/2
f 96/135/3 98/424/3 97/136/3
f 98/138/4 91/425/4 93/139/4
f 95/141/5 97/426/5 93/142/5
f 94/144/6 91/427/6 98/145/6
f 99/147/1 102/428/1 100/148/1
f 102/150/2 104/429/2 103/151/2
f 104/153/3 106/156/3 105/154/3
f 106/156/4 99/430/4 101/157/4
f 103/158/5 105/431/5 101/159/5
f 102/161/6 99/432/6 106/162/6
f 10/109/1 3/99/1 75/100/1
f 5/164/3 8/94/3 70/95/3
f 81/166/1 75/433/1 76/167/1
f 78/169/3 70/434/3 71/170/3
f 20/172/1 17/435/1 107/173/1
f 107/173/6 17/436/6 15/174/6
f 16/175/3 15/437/3 18/176/3
f 108/177/5 11/438/5 13/178/5
f 110/180/3 6/439/3 8/181/3
f 111/183/1 1/440/1 3/184/1
f 6/186/3 16/441/3 21/187/3
f 1/189/1 20/442/1 23/190/1
f 4/191/2 23/190/2 14/192/2
f 9/194/4 21/443/4 19/195/4
f 111/197/1 19/444/1 20/198/1
f 110/200/3 14/445/3 16/201/3
f 112/203/4 117/446/4 113/204/4
f 114/206/3 126/447/3 115/207/3
f 116/209/2 114/448/2 35/210/2
f 117/212/1 127/449/1 118/213/1
f 119/215/4 124/450/4 120/216/4
f 121/218/3 128/451/3 122/219/3
f 123/221/2 121/452/2 49/222/2
f 124/224/1 129/453/1 125/225/1
f 34/227/4 27/454/4 117/228/4
f 29/230/3 32/455/3 126/231/3
f 30/34/2 29/33/2 114/233/2
f 27/235/1 26/456/1 127/236/1
f 48/238/4 41/457/4 124/239/4
f 43/241/3 46/458/3 128/242/3
f 44/51/2 43/50/2 121/244/2
f 41/246/1 40/459/1 129/247/1
f 40/249/2 44/51/2 123/245/2
f 46/251/4 48/460/4 119/252/4
f 129/254/2 123/221/2 51/223/2
f 128/256/4 119/461/4 50/257/4
f 42/63/6 47/62/6 130/259/6
f 51/60/5 50/59/5 120/261/5
f 130/263/4 47/462/4 48/264/4
f 52/266/2 42/49/2 44/51/2
f 26/267/2 30/34/2 116/234/2
f 32/269/4 34/463/4 112/270/4
f 127/272/2 116/209/2 37/211/2
f 126/274/4 112/464/4 36/275/4
f 28/45/6 33/44/6 131/277/6
f 37/42/5 36/41/5 113/279/5
f 131/281/4 33/465/4 34/282/4
f 38/284/2 28/32/2 30/34/2
f 62/285/4 55/466/4 132/286/4
f 57/68/3 60/71/3 133/288/3
f 58/69/2 57/68/2 63/289/2
f 55/66/1 54/65/1 134/291/1
f 54/293/2 58/69/2 65/290/2
f 60/295/4 62/467/4 64/296/4
f 56/80/6 61/79/6 135/298/6
f 65/77/5 64/76/5 132/300/5
f 135/302/4 61/468/4 62/303/4
f 66/305/2 56/67/2 58/69/2
f 136/306/1 139/469/1 137/307/1
f 139/309/2 141/470/2 140/310/2
f 141/312/3 143/471/3 142/313/3
f 143/315/4 136/306/4 138/308/4
f 140/317/5 142/472/5 138/318/5
f 139/320/6 136/473/6 143/321/6
f 144/323/1 147/474/1 145/324/1
f 147/326/2 149/475/2 148/327/2
f 149/329/3 151/476/3 150/330/3
f 151/332/4 144/477/4 146/333/4
f 148/335/5 150/478/5 146/336/5
f 147/338/6 144/479/6 151/339/6
f 152/341/1 155/480/1 153/342/1
f 155/344/2 157/481/2 156/345/2
f 157/347/3 159/482/3 158/348/3
f 159/350/4 152/483/4 154/351/4
f 156/353/5 158/484/5 154/354/5
f 155/356/6 152/485/6 159/357/6
f 160/359/1 163/362/1 161/360/1
f 163/362/2 165/486/2 164/363/2
f 165/364/3 167/367/3 166/365/3
f 167/367/4 160/487/4 162/368/4
f 164/369/5 166/488/5 162/370/5
f 163/372/6 160/489/6 167/373/6
f 73/375/3 71/490/3 11/376/3
f 68/378/1 76/491/1 13/379/1
f 76/381/1 74/384/1 109/382/1
f 74/384/2 73/492/2 108/385/2
f 71/386/3 69/389/3 168/387/3
f 69/389/4 68/493/4 12/12/4
