# Blender v3.1.2 OBJ File: 'models.blend'
# www.blender.org
o window_plain_Plane.003
v 0.375000 -0.375000 -0.000000
v -0.375000 -0.375000 -0.000000
v 0.375000 0.375000 0.000000
v -0.375000 0.375000 0.000000
v 0.375000 -0.500000 -0.125000
v 0.375000 -0.375000 -0.125000
v 0.375000 -0.500000 0.125000
v 0.375000 -0.375000 0.125000
v -0.375000 -0.500000 -0.125000
v -0.375000 -0.375000 -0.125000
v -0.375000 -0.500000 0.125000
v -0.375000 -0.375000 0.125000
v 0.500000 -0.500000 0.125000
v 0.500000 -0.500000 -0.125000
v 0.500000 -0.375000 -0.125000
v 0.500000 -0.375000 0.125000
v -0.500000 -0.500000 0.125000
v -0.500000 -0.500000 -0.125000
v 0.375000 0.375000 -0.125000
v 0.375000 0.375000 0.125000
v 0.500000 0.375000 -0.125000
v 0.500000 0.375000 0.125000
v 0.375000 0.500000 -0.125000
v 0.375000 0.500000 0.125000
v 0.500000 0.500000 -0.125000
v 0.500000 0.500000 0.125000
v -0.375000 0.375000 -0.125000
v -0.375000 0.375000 0.125000
v -0.375000 0.500000 -0.125000
v -0.375000 0.500000 0.125000
v -0.500000 0.375000 -0.125000
v -0.500000 0.375000 0.125000
v -0.500000 0.500000 -0.125000
v -0.500000 0.500000 0.125000
v -0.500000 -0.375000 -0.125000
v -0.500000 -0.375000 0.125000
vt 0.125000 0.125000
vt 0.875000 0.875000
vt 0.875000 0.125000
vt 0.125000 0.875000
vt 0.125000 0.125000
vt 0.000000 0.875000
vt 0.000000 0.125000
vt 0.125000 0.125000
vt 0.875000 0.000000
vt 0.125000 0.000000
vt 0.875000 0.125000
vt 0.125000 0.000000
vt 0.875000 0.000000
vt 0.875000 0.625000
vt 0.125000 0.375000
vt 0.125000 0.625000
vt 0.125000 0.625000
vt 0.875000 0.375000
vt 0.875000 0.625000
vt 0.375000 0.125000
vt 0.625000 0.000000
vt 0.375000 0.000000
vt 0.000000 0.625000
vt 0.000000 0.125000
vt 0.000000 0.000000
vt 0.625000 0.125000
vt 0.375000 0.000000
vt 0.625000 0.000000
vt 0.875000 0.125000
vt 1.000000 0.000000
vt 1.000000 0.125000
vt 1.000000 0.375000
vt 0.875000 0.375000
vt 0.000000 0.875000
vt 0.125000 1.000000
vt 0.125000 0.875000
vt 0.625000 0.125000
vt 0.375000 0.875000
vt 0.375000 0.125000
vt 0.625000 0.875000
vt 0.625000 0.125000
vt 0.125000 0.625000
vt 0.000000 0.375000
vt 0.125000 0.375000
vt 0.875000 0.875000
vt 0.125000 0.875000
vt 0.000000 1.000000
vt 0.375000 0.875000
vt 0.625000 1.000000
vt 0.875000 1.000000
vt 1.000000 0.875000
vt 0.125000 0.625000
vt 0.875000 0.375000
vt 0.125000 0.375000
vt 0.875000 1.000000
vt 0.125000 1.000000
vt 0.875000 0.625000
vt 0.375000 0.875000
vt 0.625000 1.000000
vt 0.375000 1.000000
vt 0.625000 0.875000
vt 0.875000 0.875000
vt 1.000000 1.000000
vt 0.875000 0.375000
vt 1.000000 0.625000
vt 0.625000 0.875000
vt 0.375000 0.125000
vt 0.375000 0.875000
vt 1.000000 0.875000
vt 0.125000 0.375000
vt 0.000000 0.375000
vt 0.000000 0.000000
vt 0.375000 0.125000
vt 1.000000 0.125000
vt 1.000000 0.000000
vt 1.000000 0.625000
vt 0.000000 1.000000
vt 0.625000 0.875000
vt 0.000000 0.625000
vt 0.375000 1.000000
vt 1.000000 1.000000
vt 0.875000 0.625000
vt 1.000000 0.375000
vt 0.625000 0.125000
vn 0.0000 0.0000 -1.0000
vn 0.0000 -0.0000 1.0000
vn 0.0000 -1.0000 0.0000
vn 0.0000 1.0000 0.0000
vn 1.0000 0.0000 0.0000
vn -1.0000 0.0000 0.0000
g window_plain_Plane.003_metal
s off
f 2/1/1 3/2/1 1/3/1
f 2/1/1 4/4/1 3/2/1
g window_plain_Plane.003_pot
f 6/5/1 21/6/1 15/7/1
f 8/8/2 11/9/2 7/10/2
f 10/11/1 5/12/1 9/13/1
f 11/14/3 5/15/3 7/16/3
f 8/17/4 10/18/4 12/19/4
f 15/20/5 13/21/5 14/22/5
f 5/15/3 13/23/3 7/16/3
f 7/10/2 16/24/2 8/8/2
f 6/5/1 14/25/1 5/12/1
f 36/26/6 18/27/6 17/28/6
f 12/29/2 17/30/2 11/9/2
f 9/13/1 35/31/1 10/11/1
f 11/14/3 18/32/3 9/33/3
f 22/34/2 24/35/2 20/36/2
f 8/37/6 19/38/6 6/39/6
f 16/24/2 20/36/2 8/8/2
f 15/20/5 22/40/5 16/41/5
f 24/42/4 25/43/4 23/44/4
f 24/35/2 28/45/2 20/36/2
f 19/46/1 25/47/1 21/6/1
f 21/48/5 26/49/5 22/40/5
f 30/50/2 32/51/2 28/45/2
f 20/52/3 27/53/3 19/54/3
f 19/46/1 29/55/1 23/56/1
f 23/44/4 30/57/4 24/42/4
f 31/58/6 34/59/6 33/60/6
f 31/58/6 36/26/6 32/61/6
f 27/62/1 33/63/1 29/55/1
f 29/64/4 34/65/4 30/57/4
f 32/51/2 12/29/2 28/45/2
f 28/66/5 10/67/5 27/68/5
f 27/62/1 35/31/1 31/69/1
f 6/5/1 19/46/1 21/6/1
f 8/8/2 12/29/2 11/9/2
f 10/11/1 6/5/1 5/12/1
f 11/14/3 9/33/3 5/15/3
f 8/17/4 6/70/4 10/18/4
f 15/20/5 16/41/5 13/21/5
f 5/15/3 14/71/3 13/23/3
f 7/10/2 13/72/2 16/24/2
f 6/5/1 15/7/1 14/25/1
f 36/26/6 35/73/6 18/27/6
f 12/29/2 36/74/2 17/30/2
f 9/13/1 18/75/1 35/31/1
f 11/14/3 17/76/3 18/32/3
f 22/34/2 26/77/2 24/35/2
f 8/37/6 20/78/6 19/38/6
f 16/24/2 22/34/2 20/36/2
f 15/20/5 21/48/5 22/40/5
f 24/42/4 26/79/4 25/43/4
f 24/35/2 30/50/2 28/45/2
f 19/46/1 23/56/1 25/47/1
f 21/48/5 25/80/5 26/49/5
f 30/50/2 34/81/2 32/51/2
f 20/52/3 28/82/3 27/53/3
f 19/46/1 27/62/1 29/55/1
f 23/44/4 29/64/4 30/57/4
f 31/58/6 32/61/6 34/59/6
f 31/58/6 35/73/6 36/26/6
f 27/62/1 31/69/1 33/63/1
f 29/64/4 33/83/4 34/65/4
f 32/51/2 36/74/2 12/29/2
f 28/66/5 12/84/5 10/67/5
f 27/62/1 10/11/1 35/31/1
