# Blender v3.4.1 OBJ File: 'models.blend'
# www.blender.org
o gas_street_pole_star_Cube.129
v 0.062500 0.062500 -0.062500
v 0.062500 0.062500 0.062500
v -0.062500 0.062500 -0.062500
v -0.062500 0.062500 0.062500
v 0.062500 0.500000 -0.062500
v 0.062500 0.500000 0.062500
v -0.062500 0.500000 -0.062500
v -0.062500 0.500000 0.062500
v 0.000000 0.062500 0.062500
v 0.000000 0.062500 -0.062500
v 0.000000 0.500000 0.062500
v 0.000000 0.500000 -0.062500
v 0.062500 0.062500 0.000000
v -0.062500 0.062500 0.000000
v 0.062500 0.500000 0.000000
v -0.062500 0.500000 0.000000
v 0.000000 0.500000 0.000000
v 0.062500 -0.500000 -0.062500
v 0.062500 -0.500000 0.062500
v -0.062500 -0.500000 0.062500
v -0.062500 -0.500000 -0.062500
v 0.000000 -0.500000 -0.062500
v 0.000000 -0.500000 0.062500
v -0.062500 -0.500000 0.000000
v 0.062500 -0.500000 0.000000
v 0.000000 -0.500000 0.000000
v 0.062500 -0.062500 -0.062500
v 0.062500 -0.062500 0.062500
v -0.062500 -0.062500 0.062500
v -0.062500 -0.062500 -0.062500
v 0.000000 -0.062500 -0.062500
v 0.000000 -0.062500 0.062500
v -0.062500 -0.062500 0.000000
v 0.062500 -0.062500 0.000000
v -0.500000 0.062500 -0.062500
v -0.500000 0.062500 0.062500
v -0.500000 0.062500 0.000000
v -0.500000 -0.062500 0.062500
v -0.500000 -0.062500 -0.062500
v -0.500000 -0.062500 0.000000
v 0.500000 0.062500 -0.062500
v 0.500000 0.062500 0.062500
v 0.500000 0.062500 0.000000
v 0.500000 -0.062500 -0.062500
v 0.500000 -0.062500 0.062500
v 0.500000 -0.062500 0.000000
v 0.062500 0.000000 -0.062500
v 0.062500 0.000000 0.062500
v -0.062500 0.000000 0.062500
v -0.062500 0.000000 -0.062500
v -0.500000 0.000000 0.062500
v -0.500000 0.000000 -0.062500
v -0.500000 0.000000 0.000000
v 0.500000 0.000000 -0.062500
v 0.500000 0.000000 0.062500
v 0.500000 0.000000 0.000000
v 0.062500 0.000000 -0.500000
v 0.062500 0.062500 -0.500000
v 0.000000 0.062500 -0.500000
v -0.062500 0.062500 -0.500000
v -0.062500 0.000000 -0.500000
v -0.062500 -0.062500 -0.500000
v 0.000000 0.000000 -0.500000
v 0.000000 -0.062500 -0.500000
v 0.062500 -0.062500 -0.500000
v 0.000000 0.062500 0.500000
v -0.062500 0.062500 0.500000
v 0.062500 0.062500 0.500000
v 0.062500 0.000000 0.500000
v 0.062500 -0.062500 0.500000
v -0.062500 0.000000 0.500000
v -0.062500 -0.062500 0.500000
v 0.000000 0.000000 0.500000
v 0.000000 -0.062500 0.500000
vt 0.437500 1.000000
vt 0.000000 0.937500
vt 0.437500 0.937500
vt 1.000000 0.562500
vt 0.937500 1.000000
vt 0.937500 0.562500
vt 0.562500 1.000000
vt 1.000000 0.937500
vt 0.562500 0.937500
vt -0.000000 0.437500
vt 0.062500 0.000000
vt 0.062500 0.437500
vt 0.000000 0.312500
vt 0.062500 0.750000
vt 0.062500 0.312500
vt -0.000000 0.062500
vt 0.062500 -0.000000
vt 0.062500 0.062500
vt 0.000000 0.312500
vt 0.062500 0.750000
vt 0.062500 0.312500
vt 1.000000 0.312500
vt 0.937500 0.750000
vt 0.937500 0.312500
vt 1.000000 0.312500
vt 0.937500 0.750000
vt 0.937500 0.312500
vt 0.062500 0.312500
vt 0.000000 0.750000
vt 0.000000 0.312500
vt 0.937500 0.062500
vt 1.000000 -0.000000
vt 1.000000 0.062500
vt 0.937500 0.312500
vt 1.000000 0.750000
vt 1.000000 0.312500
vt 0.562500 1.000000
vt 1.000000 0.937500
vt 0.562500 0.937500
vt 0.937500 1.000000
vt 0.500000 0.937500
vt 0.937500 0.937500
vt 0.937500 1.000000
vt 1.000000 0.937500
vt 1.000000 1.000000
vt 0.062500 0.312500
vt 0.000000 0.750000
vt 0.937500 0.312500
vt 1.000000 0.750000
vt -0.000000 1.000000
vt 0.062500 0.937500
vt 0.062500 1.000000
vt 0.562500 0.062500
vt 1.000000 -0.000000
vt 0.562500 -0.000000
vt 0.437500 -0.000000
vt 0.000000 0.062500
vt 0.437500 0.062500
vt 0.000000 0.000000
vt 0.000000 0.000000
vt 0.000000 0.000000
vt 0.937500 0.937500
vt 1.000000 1.000000
vt 1.000000 0.937500
vt 0.062500 1.000000
vt -0.000000 0.937500
vt -0.000000 1.000000
vt -0.000000 -0.000000
vt 0.062500 0.062500
vt 0.062500 -0.000000
vt 1.000000 -0.000000
vt 0.937500 0.062500
vt 1.000000 0.062500
vt 1.000000 0.437500
vt 0.937500 0.000000
vt 1.000000 0.000000
vt 0.000000 0.437500
vt 0.062500 0.000000
vt 0.000000 0.000000
vt 0.000000 0.437500
vt 0.062500 0.000000
vt 0.000000 0.000000
vt 1.000000 0.437500
vt 0.937500 0.000000
vt 0.062500 0.437500
vt 0.937500 0.437500
vt 0.937500 0.000000
vt 0.937500 0.437500
vt 1.000000 0.000000
vt 0.937500 0.000000
vt 0.062500 0.437500
vt 0.062500 0.000000
vt 0.937500 1.000000
vt 1.000000 0.937500
vt 0.937500 0.937500
vt 0.000000 1.000000
vt 0.062500 0.937500
vt 0.000000 0.937500
vt 0.562500 1.000000
vt 1.000000 0.937500
vt 0.562500 0.937500
vt 0.562500 -0.000000
vt 1.000000 0.062500
vt 0.562500 0.062500
vt 0.562500 0.937500
vt 1.000000 1.000000
vt 1.000000 0.062500
vt 0.562500 0.062500
vt 0.062500 1.000000
vt 0.000000 0.937500
vt 0.062500 0.937500
vt 1.000000 1.000000
vt 0.937500 0.937500
vt 1.000000 0.937500
vt 0.437500 0.937500
vt 0.000000 1.000000
vt 0.437500 1.000000
vt 0.437500 0.062500
vt 0.000000 -0.000000
vt 0.437500 -0.000000
vt 0.437500 1.000000
vt 0.000000 0.937500
vt 0.437500 0.937500
vt 0.437500 -0.000000
vt 0.000000 0.062500
vt 0.437500 0.062500
vt 0.437500 0.937500
vt 0.000000 1.000000
vt 1.000000 0.062500
vt 0.937500 0.000000
vt 1.000000 0.000000
vt 0.062500 0.062500
vt 0.000000 0.000000
vt 0.062500 0.000000
vt 1.000000 1.000000
vt 0.000000 0.062500
vt 0.062500 0.000000
vt 0.000000 0.000000
vt 0.937500 0.062500
vt 0.937500 0.000000
vt -0.000000 0.062500
vt 0.062500 0.500000
vt 0.062500 0.062500
vt -0.000000 0.000000
vt -0.000000 0.437500
vt 1.000000 -0.000000
vt 0.562500 0.062500
vt 1.000000 -0.000000
vt 0.562500 -0.000000
vt 0.000000 -0.000000
vt 0.437500 0.062500
vt 0.000000 -0.000000
vt 0.062500 1.000000
vt 0.000000 0.937500
vt 0.062500 0.937500
vt 1.000000 1.000000
vt 0.937500 0.937500
vt 1.000000 0.062500
vt 0.937500 -0.000000
vt 0.062500 0.062500
vt 0.062500 -0.000000
vt 0.562500 0.937500
vt 1.000000 1.000000
vt 0.562500 1.000000
vt 0.937500 0.437500
vt 0.937500 0.437500
vt 1.000000 0.000000
vt 1.000000 0.437500
vt 0.562500 -0.000000
vt 1.000000 0.062500
vt 0.562500 0.062500
vt 1.000000 0.937500
vt 0.937500 0.937500
vt 0.000000 1.000000
vt 0.062500 0.937500
vt 0.000000 0.937500
vt 0.000000 0.062500
vt 0.062500 -0.000000
vt 0.937500 0.062500
vt 1.000000 -0.000000
vt 0.937500 -0.000000
vt 0.062500 0.062500
vt -0.000000 0.500000
vt -0.000000 0.062500
vt 0.437500 -0.000000
vt 0.000000 0.062500
vt 0.437500 0.062500
vt 0.937500 0.937500
vt 0.500000 1.000000
vt 0.937500 1.000000
vt 0.937500 0.562500
vt 1.000000 1.000000
vt 1.000000 0.562500
vt 0.000000 1.000000
vt 1.000000 1.000000
vt -0.000000 0.000000
vt -0.000000 -0.000000
vt 0.000000 0.750000
vt 1.000000 0.750000
vt 0.062500 0.750000
vt 0.937500 -0.000000
vt 0.937500 0.750000
vt 0.500000 1.000000
vt 0.937500 0.937500
vt 0.062500 0.750000
vt 0.937500 0.750000
vt -0.000000 0.937500
vt 1.000000 0.062500
vt 0.937500 1.000000
vt 0.062500 0.937500
vt -0.000000 0.062500
vt 0.937500 0.437500
vt 0.062500 0.437500
vt 0.062500 0.437500
vt 1.000000 0.437500
vt 0.062500 1.000000
vt 1.000000 1.000000
vt 1.000000 -0.000000
vt 1.000000 0.937500
vt 0.937500 1.000000
vt 0.000000 0.937500
vt 0.000000 0.062500
vt 0.937500 0.062500
vt 0.062500 0.062500
vt -0.000000 0.500000
vt 1.000000 0.062500
vt 0.000000 0.062500
vt 0.000000 1.000000
vt 0.937500 1.000000
vt 0.937500 0.062500
vt 0.000000 0.062500
vt 1.000000 0.937500
vt 0.937500 0.000000
vt 1.000000 -0.000000
vt 0.062500 1.000000
vt 0.062500 0.062500
vt 1.000000 0.062500
vt 0.062500 0.500000
vt 0.000000 -0.000000
vt 0.500000 0.937500
vt 0.937500 1.000000
vn 0.0000 0.0000 -1.0000
vn 0.0000 1.0000 0.0000
vn 0.0000 0.0000 1.0000
vn -1.0000 0.0000 0.0000
vn 1.0000 0.0000 0.0000
vn 0.0000 -1.0000 0.0000
g gas_street_pole_star_Cube.129_UV_steel
s off
f 1/1/1 54/2/1 47/3/1
f 4/4/2 66/5/2 9/6/2
f 4/7/3 51/8/3 49/9/3
f 1/10/2 59/11/2 10/12/2
f 2/13/3 11/14/3 9/15/3
f 15/16/2 12/17/2 17/18/2
f 4/19/4 16/20/4 14/21/4
f 1/22/5 15/23/5 13/24/5
f 3/25/1 12/26/1 10/27/1
f 10/28/1 5/29/1 1/30/1
f 17/31/2 7/32/2 16/33/2
f 9/34/3 8/35/3 4/36/3
f 3/37/4 61/38/4 50/39/4
f 2/40/5 69/41/5 48/42/5
f 11/43/2 16/44/2 8/45/2
f 13/46/5 6/47/5 2/13/5
f 14/48/4 7/49/4 3/25/4
f 6/50/2 17/51/2 11/52/2
f 33/53/6 39/54/6 30/55/6
f 27/56/6 46/57/6 34/58/6
f 26/59/3 24/60/3 25/61/3
f 26/62/6 20/63/6 24/64/6
f 23/65/6 25/66/6 19/67/6
f 18/68/6 26/69/6 22/70/6
f 21/71/6 26/72/6 24/73/6
f 27/74/5 25/75/5 18/76/5
f 29/77/4 24/78/4 20/79/4
f 28/80/3 23/81/3 19/82/3
f 30/83/1 22/84/1 21/71/1
f 31/85/1 18/68/1 22/70/1
f 33/86/4 21/71/4 24/87/4
f 32/88/3 20/89/3 23/90/3
f 34/91/5 19/82/5 25/92/5
f 37/93/4 52/94/4 53/95/4
f 36/96/4 53/97/4 51/98/4
f 29/99/6 40/100/6 33/101/6
f 3/102/2 37/103/2 14/104/2
f 14/105/2 36/106/2 4/7/2
f 30/55/1 52/107/1 50/108/1
f 43/109/5 55/110/5 56/111/5
f 41/112/5 56/113/5 54/114/5
f 34/115/6 45/116/6 28/117/6
f 13/118/2 41/119/2 1/120/2
f 2/121/2 43/122/2 13/123/2
f 28/124/3 55/125/3 48/126/3
f 48/127/3 42/128/3 2/121/3
f 54/129/5 46/130/5 44/131/5
f 56/132/5 45/133/5 46/134/5
f 50/39/1 35/135/1 3/37/1
f 51/136/4 40/137/4 38/138/4
f 53/139/4 39/54/4 40/140/4
f 28/141/6 74/142/6 32/143/6
f 31/85/6 65/144/6 27/145/6
f 50/108/4 62/146/4 30/55/4
f 49/147/3 38/148/3 29/149/3
f 48/126/5 70/150/5 28/124/5
f 47/151/1 44/152/1 27/56/1
f 59/153/1 57/154/1 63/155/1
f 60/156/1 63/157/1 61/38/1
f 61/158/1 64/159/1 62/146/1
f 63/160/1 65/144/1 64/161/1
f 47/162/5 58/163/5 1/164/5
f 30/83/6 64/159/6 31/165/6
f 10/166/2 60/167/2 3/168/2
f 27/169/5 57/170/5 47/171/5
f 66/5/3 71/172/3 73/173/3
f 68/174/3 73/175/3 69/176/3
f 69/177/3 74/178/3 70/150/3
f 73/179/3 72/180/3 74/181/3
f 9/182/2 68/183/2 2/184/2
f 29/185/4 71/186/4 49/187/4
f 49/188/4 67/189/4 4/190/4
f 32/191/6 72/192/6 29/193/6
f 1/1/1 41/194/1 54/2/1
f 4/4/2 67/195/2 66/5/2
f 4/7/3 36/106/3 51/8/3
f 1/10/2 58/196/2 59/11/2
f 2/13/3 6/47/3 11/14/3
f 15/16/2 5/197/2 12/17/2
f 4/19/4 8/198/4 16/20/4
f 1/22/5 5/199/5 15/23/5
f 3/25/1 7/49/1 12/26/1
f 10/28/1 12/200/1 5/29/1
f 17/31/2 12/201/2 7/32/2
f 9/34/3 11/202/3 8/35/3
f 3/37/4 60/156/4 61/38/4
f 2/40/5 68/203/5 69/41/5
f 11/43/2 17/204/2 16/44/2
f 13/46/5 15/205/5 6/47/5
f 14/48/4 16/206/4 7/49/4
f 6/50/2 15/207/2 17/51/2
f 33/53/6 40/208/6 39/54/6
f 27/56/6 44/152/6 46/57/6
f 26/62/6 23/209/6 20/63/6
f 23/65/6 26/210/6 25/66/6
f 18/68/6 25/211/6 26/69/6
f 21/71/6 22/84/6 26/72/6
f 27/74/5 34/212/5 25/75/5
f 29/77/4 33/213/4 24/78/4
f 28/80/3 32/214/3 23/81/3
f 30/83/1 31/165/1 22/84/1
f 31/85/1 27/145/1 18/68/1
f 33/86/4 30/83/4 21/71/4
f 32/88/3 29/215/3 20/89/3
f 34/91/5 28/80/5 19/82/5
f 37/93/4 35/135/4 52/94/4
f 36/96/4 37/216/4 53/97/4
f 29/99/6 38/217/6 40/100/6
f 3/102/2 35/218/2 37/103/2
f 14/105/2 37/219/2 36/106/2
f 30/55/1 39/54/1 52/107/1
f 43/109/5 42/128/5 55/110/5
f 41/112/5 43/220/5 56/113/5
f 34/115/6 46/221/6 45/116/6
f 13/118/2 43/222/2 41/119/2
f 2/121/2 42/128/2 43/122/2
f 28/124/3 45/133/3 55/125/3
f 48/127/3 55/110/3 42/128/3
f 54/129/5 56/223/5 46/130/5
f 56/132/5 55/125/5 45/133/5
f 50/39/1 52/94/1 35/135/1
f 51/136/4 53/224/4 40/137/4
f 53/139/4 52/107/4 39/54/4
f 28/141/6 70/225/6 74/142/6
f 31/85/6 64/161/6 65/144/6
f 50/108/4 61/158/4 62/146/4
f 49/147/3 51/226/3 38/148/3
f 48/126/5 69/177/5 70/150/5
f 47/151/1 54/227/1 44/152/1
f 59/153/1 58/228/1 57/154/1
f 60/156/1 59/229/1 63/157/1
f 61/158/1 63/230/1 64/159/1
f 63/160/1 57/231/1 65/144/1
f 47/162/5 57/232/5 58/163/5
f 30/83/6 62/146/6 64/159/6
f 10/166/2 59/233/2 60/167/2
f 27/169/5 65/234/5 57/170/5
f 66/5/3 67/195/3 71/172/3
f 68/174/3 66/235/3 73/175/3
f 69/177/3 73/236/3 74/178/3
f 73/179/3 71/237/3 72/180/3
f 9/182/2 66/238/2 68/183/2
f 29/185/4 72/239/4 71/186/4
f 49/188/4 71/240/4 67/189/4
f 32/191/6 74/241/6 72/192/6
