# Blender v3.2.2 OBJ File: 'models.blend'
# www.blender.org
o Plane_Plane.006
v -2.000000 -0.750000 0.000000
v 2.000000 -0.750000 0.000000
v -2.000000 3.250000 -0.000000
v 2.000000 3.250000 -0.000000
v -0.000000 -0.750000 2.000000
v 0.000000 -0.750000 -2.000000
v -0.000000 3.250000 2.000000
v 0.000000 3.250000 -2.000000
v -1.414214 -0.750000 -1.414213
v 1.414214 -0.750000 1.414214
v -1.414214 3.250000 -1.414214
v 1.414214 3.250000 1.414214
v -1.414214 -0.750000 1.414214
v 1.414214 -0.750000 -1.414213
v -1.414214 3.250000 1.414213
v 1.414214 3.250000 -1.414214
vt 1.000000 0.000000
vt 0.000000 1.000000
vt 0.000000 0.000000
vt 1.000000 0.000000
vt 0.000000 1.000000
vt 0.000000 0.000000
vt 0.000000 0.000000
vt 1.000000 1.000000
vt 0.000000 1.000000
vt 1.000000 0.000000
vt 0.000000 1.000000
vt 0.000000 0.000000
vt 1.000000 1.000000
vt 1.000000 1.000000
vt 1.000000 0.000000
vt 1.000000 1.000000
vn 0.0000 0.0000 1.0000
vn 1.0000 0.0000 0.0000
vn -0.7071 0.0000 0.7071
vn 0.7071 0.0000 0.7071
s off
f 2/1/1 3/2/1 1/3/1
f 6/4/2 7/5/2 5/6/2
f 9/7/3 12/8/3 11/9/3
f 14/10/4 15/11/4 13/12/4
f 2/1/1 4/13/1 3/2/1
f 6/4/2 8/14/2 7/5/2
f 9/7/3 10/15/3 12/8/3
f 14/10/4 16/16/4 15/11/4
