# Blender v2.93.5 OBJ File: 'workbench2.blend'
# www.blender.org
o workbench_Cube.025
v 0.000000 0.812500 0.187500
v 0.000000 0.750000 0.187500
v 0.062500 0.812500 0.187500
v 0.062500 0.750000 0.250000
v 0.000000 0.687500 0.187500
v 0.000000 0.687500 0.250000
v 0.000000 0.875000 0.250000
v 0.062500 0.812500 0.250000
v 0.000000 0.875000 0.187500
v 0.000000 0.750000 0.250000
v 0.000000 0.812500 0.250000
v 0.062500 0.875000 0.250000
v 0.062500 0.687500 0.187500
v 0.062500 0.875000 0.187500
v 0.062500 0.687500 0.250000
v 0.062500 0.750000 0.187500
v 0.125000 0.687500 0.187500
v 0.125000 0.687500 0.250000
v 0.125000 0.750000 0.250000
v 0.125000 0.750000 0.187500
v 0.125000 0.812500 0.250000
v 0.125000 0.875000 0.250000
v 0.125000 0.875000 0.187500
v 0.125000 0.812500 0.187500
v -0.375000 0.750000 0.187500
v -0.375000 0.812500 0.187500
v -0.375000 0.812500 0.250000
v -0.375000 0.750000 0.250000
v -0.250000 1.000000 0.250000
v -0.250000 0.937500 0.250000
v -0.312500 1.000000 0.250000
v -0.312500 0.937500 0.187500
v -0.250000 0.875000 0.250000
v -0.250000 0.875000 0.187500
v -0.250000 1.062500 0.187500
v -0.312500 1.000000 0.187500
v -0.250000 1.062500 0.250000
v -0.250000 0.937500 0.187500
v -0.250000 1.000000 0.187500
v -0.312500 0.875000 0.187500
v -0.312500 1.062500 0.187500
v -0.312500 1.062500 0.250000
v -0.312500 0.875000 0.250000
v -0.312500 0.937500 0.250000
v -0.375000 0.875000 0.250000
v -0.375000 0.875000 0.187500
v -0.375000 0.937500 0.187500
v -0.375000 0.937500 0.250000
v -0.375000 1.000000 0.187500
v -0.375000 1.062500 0.187500
v -0.375000 1.062500 0.250000
v -0.375000 1.000000 0.250000
v 0.125000 0.937500 0.250000
v 0.125000 1.000000 0.250000
v 0.125000 1.000000 0.187500
v 0.125000 0.937500 0.187500
v 0.312500 0.750000 0.250000
v 0.312500 1.187500 0.250000
v 0.312500 0.750000 0.187500
v 0.312500 1.187500 0.187500
v 0.375000 0.750000 0.250000
v 0.375000 1.187500 0.250000
v 0.375000 0.750000 0.187500
v 0.375000 1.187500 0.187500
v 0.062500 1.250000 0.250000
v 0.062500 1.375000 0.250000
v 0.062500 1.250000 0.125000
v 0.062500 1.375000 0.125000
v 0.375000 1.250000 0.250000
v 0.375000 1.375000 0.250000
v 0.375000 1.250000 0.125000
v 0.375000 1.375000 0.125000
v 0.187500 0.812500 0.250000
v 0.187500 1.250000 0.250000
v 0.187500 0.812500 0.187500
v 0.187500 1.250000 0.187500
v 0.250000 0.812500 0.250000
v 0.250000 1.250000 0.250000
v 0.250000 0.812500 0.187500
v 0.250000 1.250000 0.187500
v -0.125000 1.125000 0.250000
v -0.125000 1.375000 0.250000
v -0.125000 1.125000 0.187500
v -0.125000 1.375000 0.187500
v -0.062500 1.125000 0.250000
v -0.062500 1.375000 0.250000
v -0.062500 1.125000 0.187500
v -0.062500 1.375000 0.187500
v -0.250000 1.125000 0.250000
v -0.250000 1.375000 0.250000
v -0.250000 1.125000 0.187500
v -0.250000 1.375000 0.187500
v -0.187500 1.125000 0.250000
v -0.187500 1.375000 0.250000
v -0.187500 1.125000 0.187500
v -0.187500 1.375000 0.187500
v -0.375000 1.125000 0.250000
v -0.375000 1.375000 0.250000
v -0.375000 1.125000 0.187500
v -0.375000 1.375000 0.187500
v -0.312500 1.125000 0.250000
v -0.312500 1.375000 0.250000
v -0.312500 1.125000 0.187500
v -0.312500 1.375000 0.187500
v 0.000000 1.062500 0.250000
v 0.000000 1.187500 0.250000
v 0.000000 1.062500 0.187500
v 0.000000 1.187500 0.187500
v 0.125000 1.062500 0.250000
v 0.125000 1.187500 0.250000
v 0.125000 1.062500 0.187500
v 0.125000 1.187500 0.187500
v -0.436247 0.562500 0.051940
v -0.182101 0.562500 -0.378652
v -0.113303 0.562500 0.242550
v 0.140843 0.562500 -0.188042
v -0.182101 0.500000 -0.378652
v -0.436247 0.500000 0.051940
v 0.140843 0.500000 -0.188042
v -0.113303 0.500000 0.242550
v -0.437500 0.625000 0.312500
v -0.437500 1.500000 0.312500
v -0.437500 0.625000 0.250000
v -0.437500 1.500000 0.250000
v 0.437500 0.625000 0.312500
v 0.437500 1.500000 0.312500
v 0.437500 0.625000 0.250000
v 0.437500 1.500000 0.250000
v 0.312500 -0.500000 -0.312500
v 0.312500 0.375000 -0.312500
v 0.312500 -0.500000 -0.437500
v 0.312500 0.375000 -0.437500
v 0.437500 -0.500000 -0.312500
v 0.437500 0.375000 -0.312500
v 0.437500 -0.500000 -0.437500
v 0.437500 0.375000 -0.437500
v -0.437500 -0.500000 -0.312500
v -0.437500 0.375000 -0.312500
v -0.437500 -0.500000 -0.437500
v -0.437500 0.375000 -0.437500
v -0.312500 -0.500000 -0.312500
v -0.312500 0.375000 -0.312500
v -0.312500 -0.500000 -0.437500
v -0.312500 0.375000 -0.437500
v 0.312500 -0.500000 0.437500
v 0.312500 1.500000 0.437500
v 0.312500 -0.500000 0.312500
v 0.312500 1.500000 0.312500
v 0.437500 -0.500000 0.437500
v 0.437500 1.500000 0.437500
v 0.437500 -0.500000 0.312500
v -0.437500 -0.500000 0.437500
v -0.437500 1.500000 0.437500
v -0.437500 -0.500000 0.312500
v -0.312500 -0.500000 0.437500
v -0.312500 1.500000 0.437500
v -0.312500 -0.500000 0.312500
v -0.312500 1.500000 0.312500
v -0.500000 0.500000 0.500000
v -0.500000 0.500000 -0.500000
v 0.500000 0.500000 0.500000
v 0.500000 0.500000 -0.500000
v -0.500000 0.375000 -0.500000
v -0.500000 0.375000 0.500000
v 0.500000 0.375000 -0.500000
v 0.500000 0.375000 0.500000
v 0.312500 -0.062500 -0.312500
v 0.312500 0.062500 -0.312500
v 0.437500 -0.062500 0.312500
v 0.437500 0.062500 0.312500
v 0.437500 -0.062500 -0.312500
v 0.437500 0.062500 -0.312500
v -0.437500 -0.062500 0.312500
v -0.437500 0.062500 0.312500
v -0.437500 -0.062500 -0.312500
v -0.437500 0.062500 -0.312500
v -0.312500 -0.062500 -0.312500
v -0.312500 0.062500 -0.312500
v 0.312500 -0.062500 0.437500
v 0.312500 0.062500 0.437500
v -0.312500 -0.062500 0.437500
v -0.312500 0.062500 0.437500
v 0.312500 -0.062500 0.312500
v 0.312500 0.062500 0.312500
v -0.312500 -0.062500 0.312500
v -0.312500 0.062500 0.312500
v 0.312500 0.000000 0.312500
v -0.312500 0.000000 0.312500
v 0.312500 -0.062500 -0.250000
v 0.312500 0.000000 -0.250000
v -0.312500 -0.062500 -0.250000
v -0.312500 0.000000 -0.250000
v 0.269565 0.687500 0.202260
v 0.235240 0.687500 0.082065
v 0.389760 0.687500 0.167935
v 0.355435 0.687500 0.047740
v 0.235240 0.500000 0.082065
v 0.269565 0.500000 0.202260
v 0.355435 0.500000 0.047740
v 0.389760 0.500000 0.167935
v 0.250000 0.000000 0.250000
v 0.250000 0.187500 0.250000
v -0.250000 0.000000 0.250000
v -0.250000 0.187500 0.250000
v 0.250000 0.000000 -0.000000
v 0.250000 0.187500 -0.000000
v -0.250000 0.000000 0.000000
v -0.250000 0.187500 0.000000
v -0.304960 0.625000 -0.198130
v -0.069019 0.625000 -0.280783
v -0.180981 0.625000 0.155783
v 0.054960 0.625000 0.073130
v -0.069019 0.562500 -0.280783
v -0.304960 0.562500 -0.198130
v 0.054960 0.562500 0.073130
v -0.180981 0.562500 0.155783
vt 0.846154 0.687500
vt 0.923077 0.687500
vt 0.923077 0.718750
vt 0.846154 0.718750
vt 0.820513 0.906250
vt 0.846154 0.906250
vt 0.846154 0.968750
vt 0.820513 0.968750
vt 0.923077 0.906250
vt 0.923077 0.937500
vt 0.846154 0.937500
vt 0.948718 0.906250
vt 0.948718 0.968750
vt 0.923077 0.968750
vt 0.897436 0.968750
vt 0.897436 1.000000
vt 0.871795 1.000000
vt 0.871795 0.968750
vt 0.948718 0.937500
vt 0.948718 0.968750
vt 0.923077 0.968750
vt 0.923077 0.937500
vt 0.846154 1.000000
vt 0.871795 0.968750
vt 0.871795 1.000000
vt 0.871795 0.937500
vt 0.923077 1.000000
vt 0.897436 1.000000
vt 0.897436 0.968750
vt 0.820513 0.937500
vt 0.846154 0.937500
vt 0.846154 0.968750
vt 0.820513 0.968750
vt 0.897436 0.937500
vt -0.153846 -0.093750
vt -0.128205 -0.093750
vt -0.128205 -0.125000
vt -0.153846 -0.125000
vt 0.871795 0.718750
vt 0.871795 0.687500
vt 0.897436 0.687500
vt 0.897436 0.718750
vt 0.897436 0.906250
vt 0.871795 0.906250
vt 0.948718 0.906250
vt 0.923077 0.906250
vt 0.923077 0.718750
vt 0.948718 0.718750
vt 0.846154 0.906250
vt 0.820513 0.906250
vt 0.820513 0.718750
vt 0.846154 0.718750
vt 0.846154 0.937500
vt 0.871795 0.937500
vt 0.871795 0.968750
vt 0.846154 0.968750
vt 0.923077 0.718750
vt 0.846154 0.718750
vt 0.846154 0.687500
vt 0.923077 0.687500
vt 0.923077 0.906250
vt 0.923077 0.937500
vt 0.846154 0.906250
vt 0.948718 0.906250
vt 0.948718 0.968750
vt 0.923077 0.968750
vt 0.820513 0.906250
vt 0.820513 0.968750
vt 0.871795 1.000000
vt 0.871795 0.968750
vt 0.897436 0.968750
vt 0.897436 1.000000
vt 0.846154 0.937500
vt 0.846154 0.968750
vt 0.820513 0.968750
vt 0.820513 0.937500
vt 0.923077 1.000000
vt 0.923077 0.968750
vt 0.897436 0.968750
vt 0.897436 1.000000
vt 0.897436 0.968750
vt 0.897436 0.937500
vt 0.846154 1.000000
vt 0.871795 1.000000
vt 0.923077 0.937500
vt 0.948718 0.937500
vt 0.948718 0.968750
vt 0.923077 0.968750
vt 0.897436 0.718750
vt 0.897436 0.687500
vt 0.871795 0.687500
vt 0.871795 0.718750
vt 0.846154 0.906250
vt 0.820513 0.906250
vt 0.820513 0.718750
vt 0.846154 0.718750
vt 0.897436 0.906250
vt 0.871795 0.906250
vt 0.871795 0.718750
vt 0.897436 0.718750
vt 0.948718 0.906250
vt 0.923077 0.906250
vt 0.923077 0.718750
vt 0.948718 0.718750
vt 1.000000 0.031250
vt 1.000000 0.250000
vt 0.974359 0.250000
vt 0.974359 0.031250
vt 0.948718 0.250000
vt 0.948718 0.031250
vt 0.923077 0.250000
vt 0.923077 0.031250
vt 0.948718 0.000000
vt 0.974359 0.000000
vt 0.974359 0.281250
vt 0.948718 0.281250
vt 1.000000 0.312500
vt 1.000000 0.375000
vt 0.948718 0.375000
vt 0.948718 0.312500
vt 0.820513 0.375000
vt 0.820513 0.312500
vt 0.769231 0.375000
vt 0.769231 0.312500
vt 0.820513 0.250000
vt 0.948718 0.250000
vt 0.948718 0.437500
vt 0.820513 0.437500
vt 0.923077 0.031250
vt 0.923077 0.250000
vt 0.897436 0.250000
vt 0.897436 0.031250
vt 0.871795 0.250000
vt 0.871795 0.031250
vt 0.846154 0.250000
vt 0.846154 0.031250
vt 0.871795 0.000000
vt 0.897436 0.000000
vt 0.641026 0.031250
vt 0.641026 0.156250
vt 0.615385 0.156250
vt 0.615385 0.031250
vt 0.589744 0.156250
vt 0.589744 0.031250
vt 0.564103 0.156250
vt 0.564103 0.031250
vt 0.589744 0.000000
vt 0.615385 0.000000
vt 0.615385 0.187500
vt 0.589744 0.187500
vt 0.717949 0.031250
vt 0.717949 0.156250
vt 0.692308 0.156250
vt 0.692308 0.031250
vt 0.666667 0.156250
vt 0.666667 0.031250
vt 0.641026 0.156250
vt 0.641026 0.031250
vt 0.666667 0.000000
vt 0.692308 0.000000
vt 0.692308 0.187500
vt 0.666667 0.187500
vt 0.794872 0.031250
vt 0.794872 0.156250
vt 0.769231 0.156250
vt 0.769231 0.031250
vt 0.743590 0.156250
vt 0.743590 0.031250
vt 0.717949 0.156250
vt 0.717949 0.031250
vt 0.743590 0.000000
vt 0.769231 0.000000
vt 0.769231 0.187500
vt 0.743590 0.187500
vt 0.923077 0.468750
vt 0.923077 0.531250
vt 0.897436 0.531250
vt 0.897436 0.468750
vt 0.846154 0.531250
vt 0.846154 0.468750
vt 0.820513 0.531250
vt 0.820513 0.468750
vt 0.846154 0.437500
vt 0.897436 0.437500
vt 0.897436 0.562500
vt 0.846154 0.562500
vt 0.384615 0.781250
vt 0.230769 0.781250
vt 0.230769 0.531250
vt 0.384615 0.531250
vt 0.205128 0.781250
vt 0.205128 0.531250
vt 0.410256 0.531250
vt 0.410256 0.781250
vt 0.384615 0.812500
vt 0.384615 0.781250
vt 0.230769 0.781250
vt 0.230769 0.812500
vt 0.230769 0.500000
vt 0.384615 0.500000
vt 0.820513 0.531250
vt 0.820513 0.968750
vt 0.794872 0.968750
vt 0.794872 0.531250
vt 0.435897 0.968750
vt 0.435897 0.531250
vt 0.410256 0.968750
vt 0.410256 0.531250
vt 0.435897 0.531250
vt 0.435897 0.968750
vt 0.794872 0.968750
vt 0.794872 0.531250
vt 0.435897 0.500000
vt 0.794872 0.500000
vt 0.794872 1.000000
vt 0.435897 1.000000
vt 0.102564 0.000000
vt 0.102564 0.437500
vt 0.051282 0.437500
vt 0.051282 0.000000
vt 0.000000 0.437500
vt 0.000000 0.000000
vt 0.205128 0.000000
vt 0.205128 0.437500
vt 0.153846 0.437500
vt 0.153846 0.000000
vt 0.000000 0.000000
vt 0.000000 0.062500
vt 0.051282 0.062500
vt 0.051282 0.000000
vt 0.102564 0.000000
vt 0.102564 0.437500
vt 0.051282 0.437500
vt 0.051282 0.000000
vt 0.000000 0.437500
vt 0.000000 0.000000
vt 0.205128 0.000000
vt 0.205128 0.437500
vt 0.153846 0.437500
vt 0.153846 0.000000
vt 0.000000 0.000000
vt 0.000000 0.062500
vt 0.051282 0.062500
vt 0.051282 0.000000
vt 0.102564 0.000000
vt 0.102564 1.000000
vt 0.051282 1.000000
vt 0.051282 0.000000
vt 0.000000 1.000000
vt 0.000000 0.000000
vt 0.205128 0.000000
vt 0.205128 1.000000
vt 0.153846 1.000000
vt 0.153846 0.000000
vt 0.000000 0.062500
vt 0.051282 0.062500
vt 0.051282 0.000000
vt 0.000000 0.000000
vt 0.205128 0.937500
vt 0.256410 0.937500
vt 0.256410 1.000000
vt 0.205128 1.000000
vt 0.102564 0.000000
vt 0.102564 1.000000
vt 0.051282 1.000000
vt 0.051282 0.000000
vt 0.000000 1.000000
vt 0.000000 0.000000
vt 0.205128 0.000000
vt 0.205128 1.000000
vt 0.153846 1.000000
vt 0.153846 0.000000
vt 0.051282 0.062500
vt 0.051282 0.000000
vt 0.000000 0.000000
vt 0.000000 0.062500
vt 0.205128 0.937500
vt 0.256410 0.937500
vt 0.256410 1.000000
vt 0.205128 1.000000
vt 0.410256 0.500000
vt 0.000000 0.500000
vt 0.000000 0.000000
vt 0.410256 0.000000
vt 0.410256 0.000000
vt 0.410256 0.500000
vt 0.000000 0.500000
vt 0.000000 0.000000
vt 0.000000 0.250000
vt 0.000000 0.187500
vt 0.410256 0.187500
vt 0.410256 0.250000
vt 0.000000 0.125000
vt 0.000000 0.062500
vt 0.410256 0.062500
vt 0.410256 0.125000
vt 0.000000 0.187500
vt 0.000000 0.125000
vt 0.410256 0.125000
vt 0.410256 0.187500
vt 0.000000 0.062500
vt 0.000000 0.000000
vt 0.410256 0.000000
vt 0.410256 0.062500
vt 0.256410 0.125000
vt 0.256410 0.187500
vt 0.000000 0.187500
vt 0.000000 0.125000
vt 0.256410 0.000000
vt 0.256410 0.062500
vt 0.000000 0.062500
vt 0.000000 0.000000
vt 0.256410 0.187500
vt 0.256410 0.250000
vt 0.000000 0.250000
vt 0.000000 0.187500
vt 0.256410 0.125000
vt 0.000000 0.125000
vt 0.256410 0.000000
vt 0.256410 0.062500
vt 0.000000 0.062500
vt 0.000000 0.000000
vt 0.256410 0.125000
vt 0.256410 0.187500
vt 0.000000 0.187500
vt 0.000000 0.125000
vt 0.256410 0.187500
vt 0.256410 0.250000
vt 0.000000 0.250000
vt 0.000000 0.187500
vt 0.000000 0.125000
vt 0.256410 0.125000
vt 0.256410 0.000000
vt 0.256410 0.062500
vt 0.000000 0.062500
vt 0.000000 0.000000
vt 0.256410 0.125000
vt 0.256410 0.187500
vt 0.000000 0.187500
vt 0.000000 0.125000
vt 0.000000 0.250000
vt 0.000000 0.187500
vt 0.256410 0.187500
vt 0.256410 0.250000
vt 0.256410 0.062500
vt 0.256410 0.125000
vt 0.000000 0.125000
vt 0.000000 0.062500
vt 0.256410 0.000000
vt 0.256410 0.031250
vt 0.000000 0.031250
vt 0.000000 0.000000
vt 0.256410 0.031250
vt 0.256410 0.312500
vt 0.000000 0.312500
vt 0.000000 0.031250
vt 0.256410 0.312500
vt 0.000000 0.312500
vt 0.307692 1.000000
vt 0.256410 1.000000
vt 0.256410 0.937500
vt 0.307692 0.937500
vt 0.205128 0.937500
vt 0.205128 0.843750
vt 0.256410 0.843750
vt 0.307692 0.843750
vt 0.358974 0.843750
vt 0.358974 0.937500
vt 0.410256 0.843750
vt 0.410256 0.937500
vt 0.717949 0.406250
vt 0.717949 0.500000
vt 0.512821 0.500000
vt 0.512821 0.406250
vt 0.820513 0.406250
vt 0.820513 0.500000
vt 0.717949 0.500000
vt 0.717949 0.406250
vt 0.512821 0.500000
vt 0.512821 0.406250
vt 0.410256 0.500000
vt 0.410256 0.406250
vt 0.717949 0.281250
vt 0.717949 0.406250
vt 0.512821 0.406250
vt 0.512821 0.281250
vt 0.538462 0.031250
vt 0.538462 0.218750
vt 0.435897 0.218750
vt 0.435897 0.031250
vt 0.538462 0.031250
vt 0.435897 0.031250
vt 0.435897 0.218750
vt 0.538462 0.218750
vt 0.538462 0.250000
vt 0.435897 0.250000
vt 0.435897 0.000000
vt 0.538462 0.000000
vt 0.564103 0.031250
vt 0.564103 0.218750
vt 0.410256 0.218750
vt 0.410256 0.031250
vn -1.0000 0.0000 -0.0000
vn 0.0000 -1.0000 -0.0000
vn 0.0000 0.0000 -1.0000
vn 0.0000 1.0000 0.0000
vn 1.0000 0.0000 0.0000
vn 0.8612 0.0000 0.5083
vn -0.8612 0.0000 -0.5083
vn -0.5083 0.0000 0.8612
vn 0.5083 0.0000 -0.8612
vn -0.0000 0.0000 1.0000
vn 0.9616 0.0000 -0.2746
vn -0.9616 0.0000 0.2746
vn 0.2746 0.0000 0.9616
vn -0.2746 0.0000 -0.9616
vn 0.3306 0.0000 0.9438
vn -0.3306 0.0000 -0.9438
vn -0.9438 0.0000 0.3306
vn 0.9438 0.0000 -0.3306
s off
f 6/1/1 7/2/1 9/3/1 5/4/1
f 6/5/2 5/6/2 17/7/2 18/8/2
f 9/9/3 14/10/3 13/11/3 5/6/3
f 9/9/4 7/12/4 22/13/4 23/14/4
f 3/15/5 8/16/5 4/17/5 16/18/5
f 4/19/4 19/20/4 20/21/4 16/22/4
f 18/23/5 17/7/5 20/24/5 19/25/5
f 16/26/3 20/24/3 17/7/3 13/11/3
f 23/14/5 22/27/5 21/28/5 24/29/5
f 8/30/2 3/31/2 24/32/2 21/33/2
f 3/34/3 14/10/3 23/14/3 24/29/3
f 2/35/5 1/36/5 11/37/5 10/38/5
f 25/39/1 28/40/1 27/41/1 26/42/1
f 1/43/3 2/44/3 25/39/3 26/42/3
f 11/45/4 1/46/4 26/47/4 27/48/4
f 2/49/2 10/50/2 28/51/2 25/52/2
f 41/53/3 36/54/3 49/55/3 50/56/3
f 34/57/5 35/58/5 37/59/5 33/60/5
f 34/61/3 40/62/3 41/53/3 35/63/3
f 34/61/2 33/64/2 45/65/2 46/66/2
f 37/67/4 35/63/4 50/56/4 51/68/4
f 31/69/1 36/70/1 32/71/1 44/72/1
f 32/73/4 47/74/4 48/75/4 44/76/4
f 46/77/1 45/78/1 48/79/1 47/80/1
f 40/62/3 46/66/3 47/81/3 32/82/3
f 51/83/1 50/56/1 49/55/1 52/84/1
f 36/85/2 31/86/2 52/87/2 49/88/2
f 53/89/5 56/90/5 55/91/5 54/92/5
f 39/93/4 29/94/4 54/95/4 55/96/4
f 38/97/3 39/98/3 55/99/3 56/100/3
f 30/101/2 38/102/2 56/103/2 53/104/2
f 57/105/1 58/106/1 60/107/1 59/108/1
f 59/108/3 60/107/3 64/109/3 63/110/3
f 63/110/5 64/109/5 62/111/5 61/112/5
f 59/108/2 63/110/2 61/113/2 57/114/2
f 64/109/4 60/107/4 58/115/4 62/116/4
f 65/117/1 66/118/1 68/119/1 67/120/1
f 67/120/3 68/119/3 72/121/3 71/122/3
f 71/122/5 72/121/5 70/123/5 69/124/5
f 67/120/2 71/122/2 69/125/2 65/126/2
f 72/121/4 68/119/4 66/127/4 70/128/4
f 73/129/1 74/130/1 76/131/1 75/132/1
f 75/132/3 76/131/3 80/133/3 79/134/3
f 79/134/5 80/133/5 78/135/5 77/136/5
f 75/132/2 79/134/2 77/137/2 73/138/2
f 81/139/1 82/140/1 84/141/1 83/142/1
f 83/142/3 84/141/3 88/143/3 87/144/3
f 87/144/5 88/143/5 86/145/5 85/146/5
f 83/142/2 87/144/2 85/147/2 81/148/2
f 88/143/4 84/141/4 82/149/4 86/150/4
f 89/151/1 90/152/1 92/153/1 91/154/1
f 91/154/3 92/153/3 96/155/3 95/156/3
f 95/156/5 96/155/5 94/157/5 93/158/5
f 91/154/2 95/156/2 93/159/2 89/160/2
f 96/155/4 92/153/4 90/161/4 94/162/4
f 97/163/1 98/164/1 100/165/1 99/166/1
f 99/166/3 100/165/3 104/167/3 103/168/3
f 103/168/5 104/167/5 102/169/5 101/170/5
f 99/166/2 103/168/2 101/171/2 97/172/2
f 104/167/4 100/165/4 98/173/4 102/174/4
f 105/175/1 106/176/1 108/177/1 107/178/1
f 107/178/3 108/177/3 112/179/3 111/180/3
f 111/180/5 112/179/5 110/181/5 109/182/5
f 107/178/2 111/180/2 109/183/2 105/184/2
f 112/179/4 108/177/4 106/185/4 110/186/4
f 113/187/4 115/188/4 116/189/4 114/190/4
f 115/188/6 120/191/6 119/192/6 116/189/6
f 114/190/7 117/193/7 118/194/7 113/187/7
f 113/195/8 118/196/8 120/197/8 115/198/8
f 116/189/9 119/199/9 117/200/9 114/190/9
f 121/201/1 122/202/1 124/203/1 123/204/1
f 123/204/3 124/203/3 128/205/3 127/206/3
f 127/206/5 128/205/5 126/207/5 125/208/5
f 125/209/10 126/210/10 122/211/10 121/212/10
f 123/204/2 127/206/2 125/213/2 121/214/2
f 128/205/4 124/203/4 122/215/4 126/216/4
f 129/217/1 130/218/1 132/219/1 131/220/1
f 131/220/3 132/219/3 136/221/3 135/222/3
f 135/223/5 136/224/5 134/225/5 133/226/5
f 133/226/10 134/225/10 130/218/10 129/217/10
f 131/227/2 135/228/2 133/229/2 129/230/2
f 137/231/1 138/232/1 140/233/1 139/234/1
f 139/234/3 140/233/3 144/235/3 143/236/3
f 143/237/5 144/238/5 142/239/5 141/240/5
f 141/240/10 142/239/10 138/232/10 137/231/10
f 139/241/2 143/242/2 141/243/2 137/244/2
f 145/245/1 146/246/1 148/247/1 147/248/1
f 147/248/3 148/247/3 126/249/3 151/250/3
f 151/251/5 126/252/5 150/253/5 149/254/5
f 149/254/10 150/253/10 146/246/10 145/245/10
f 147/255/2 151/256/2 149/257/2 145/258/2
f 126/259/4 148/260/4 146/261/4 150/262/4
f 152/263/1 153/264/1 122/265/1 154/266/1
f 154/266/3 122/265/3 158/267/3 157/268/3
f 157/269/5 158/270/5 156/271/5 155/272/5
f 155/272/10 156/271/10 153/264/10 152/263/10
f 154/273/2 157/274/2 155/275/2 152/276/2
f 158/277/4 122/278/4 153/279/4 156/280/4
f 159/281/4 161/282/4 162/283/4 160/284/4
f 164/285/2 163/286/2 165/287/2 166/288/2
f 161/289/5 166/290/5 165/291/5 162/292/5
f 160/293/1 163/294/1 164/295/1 159/296/1
f 159/297/10 164/298/10 166/299/10 161/300/10
f 162/301/3 165/302/3 163/303/3 160/304/3
f 183/305/1 184/306/1 168/307/1 167/308/1
f 171/309/5 172/310/5 170/311/5 169/312/5
f 167/313/2 171/314/2 169/315/2 183/316/2
f 172/310/4 168/317/4 184/318/4 170/311/4
f 173/319/1 174/320/1 176/321/1 175/322/1
f 177/323/5 178/324/5 186/325/5 185/326/5
f 175/327/2 177/328/2 185/329/2 173/330/2
f 178/331/4 176/321/4 174/320/4 186/332/4
f 179/333/10 180/334/10 182/335/10 181/336/10
f 185/337/3 186/338/3 184/339/3 183/340/3
f 181/341/2 185/342/2 183/343/2 179/344/2
f 186/345/4 182/346/4 180/347/4 184/348/4
f 191/349/3 192/350/3 190/351/3 189/352/3
f 185/353/2 191/354/2 189/355/2 183/356/2
f 192/350/4 188/357/4 187/358/4 190/351/4
f 193/359/4 195/360/4 196/361/4 194/362/4
f 195/363/11 200/364/11 199/365/11 196/361/11
f 194/362/12 197/366/12 198/367/12 193/368/12
f 193/368/13 198/367/13 200/369/13 195/370/13
f 196/361/14 199/365/14 197/366/14 194/362/14
f 201/371/10 202/372/10 204/373/10 203/374/10
f 203/375/1 204/376/1 208/377/1 207/378/1
f 207/378/3 208/377/3 206/379/3 205/380/3
f 205/380/5 206/379/5 202/381/5 201/382/5
f 208/383/4 204/384/4 202/385/4 206/386/4
f 209/387/4 211/388/4 212/389/4 210/390/4
f 214/391/2 213/392/2 215/393/2 216/394/2
f 211/395/15 216/394/15 215/393/15 212/396/15
f 210/390/16 213/397/16 214/398/16 209/387/16
f 209/387/17 214/399/17 216/400/17 211/388/17
f 212/389/18 215/401/18 213/402/18 210/390/18
l 9 1
l 7 11
l 37 29
l 35 39
