# Blender v2.93.5 OBJ File: 'furnace.blend'
# www.blender.org
o furnace_Cube.001
v -0.437500 -0.500000 0.437500
v -0.437500 0.375000 0.437500
v -0.437500 -0.500000 -0.437500
v -0.437500 0.375000 -0.437500
v 0.437500 -0.500000 0.437500
v 0.437500 0.375000 0.437500
v 0.437500 -0.500000 -0.437500
v 0.437500 0.375000 -0.437500
v -0.312500 0.375000 0.312500
v -0.312500 0.937500 0.312500
v -0.312500 0.375000 -0.312500
v -0.312500 0.937500 -0.312500
v 0.312500 0.375000 0.312500
v 0.312500 0.937500 0.312500
v 0.312500 0.375000 -0.312500
v 0.312500 0.937500 -0.312500
v -0.250000 0.937500 0.250000
v -0.250000 1.375000 0.250000
v -0.250000 0.937500 -0.250000
v -0.250000 1.375000 -0.250000
v 0.250000 0.937500 0.250000
v 0.250000 1.375000 0.250000
v 0.250000 0.937500 -0.250000
v 0.250000 1.375000 -0.250000
v -0.312500 1.375000 0.312500
v -0.312500 1.500000 0.312500
v -0.312500 1.375000 -0.312500
v -0.312500 1.500000 -0.312500
v 0.312500 1.375000 0.312500
v 0.312500 1.500000 0.312500
v 0.312500 1.375000 -0.312500
v 0.312500 1.500000 -0.312500
v -0.187500 1.500000 0.187500
v -0.187500 1.500000 -0.187500
v 0.187500 1.500000 -0.187500
v 0.187500 1.500000 0.187500
v -0.187500 1.437500 0.187500
v -0.187500 1.437500 -0.187500
v 0.187500 1.437500 -0.187500
v 0.187500 1.437500 0.187500
v -0.312500 -0.500000 -0.437500
v -0.312500 0.250000 -0.437500
v 0.312500 -0.500000 -0.437500
v 0.312500 0.250000 -0.437500
v -0.187500 -0.500000 -0.437500
v -0.312500 0.250000 -0.500000
v -0.312500 -0.500000 -0.500000
v -0.187500 -0.500000 -0.500000
v 0.312500 0.250000 -0.500000
v 0.312500 -0.500000 -0.500000
v 0.187500 -0.500000 -0.500000
v 0.187500 0.125000 -0.437500
v -0.187500 0.125000 -0.437500
v 0.187500 0.125000 -0.500000
v -0.187500 0.125000 -0.500000
v 0.187500 -0.500000 -0.437500
v -0.187500 0.125000 0.187500
v 0.187500 0.125000 0.187500
v 0.187500 -0.437500 -0.437500
v -0.187500 -0.437500 -0.437500
v 0.187500 -0.437500 0.187500
v -0.187500 -0.437500 0.187500
v -0.176777 -0.437500 0.176777
v 0.176777 -0.437500 -0.176777
v -0.176777 0.125000 0.176777
v 0.176777 0.125000 -0.176776
v 0.176777 -0.437500 0.176777
v -0.176777 -0.437500 -0.176776
v 0.176777 0.125000 0.176777
v -0.176777 0.125000 -0.176777
v -0.187500 0.125000 -0.187500
v 0.187500 0.125000 -0.187500
v -0.187500 0.250000 0.187500
v 0.187500 0.250000 0.187500
v -0.187500 0.250000 -0.187500
v 0.187500 0.250000 -0.187500
v 0.312500 0.125000 -0.500000
v -0.312500 0.125000 -0.500000
vt 0.400000 0.000000
vt 0.400000 0.241379
vt 0.200000 0.241379
vt 0.200000 0.000000
vt 0.800000 0.000000
vt 0.800000 0.241379
vt 0.600000 0.241379
vt 0.600000 0.000000
vt 0.400000 0.000000
vt 0.400000 0.241379
vt 0.600000 0.241379
vt 0.600000 0.000000
vt 1.000000 0.241379
vt 1.000000 0.482759
vt 0.800000 0.482759
vt 0.371429 0.241379
vt 0.371429 0.396552
vt 0.228571 0.396552
vt 0.228571 0.241379
vt 0.171429 0.241379
vt 0.171429 0.396552
vt 0.028571 0.396552
vt 0.028571 0.241379
vt 0.771429 0.241379
vt 0.771429 0.396552
vt 0.628571 0.396552
vt 0.628571 0.241379
vt 0.571429 0.241379
vt 0.571429 0.396552
vt 0.428571 0.396552
vt 0.428571 0.241379
vt 0.828571 0.482759
vt 0.971429 0.482759
vt 0.971429 0.655172
vt 0.828571 0.655172
vt 0.357143 0.396552
vt 0.357143 0.517241
vt 0.242857 0.517241
vt 0.242857 0.396552
vt 0.157143 0.396552
vt 0.157143 0.517241
vt 0.042857 0.517241
vt 0.042857 0.396552
vt 0.757143 0.396552
vt 0.757143 0.517241
vt 0.642857 0.517241
vt 0.642857 0.396552
vt 0.557143 0.396552
vt 0.557143 0.517241
vt 0.442857 0.517241
vt 0.442857 0.396552
vt 0.371429 0.517241
vt 0.371429 0.551724
vt 0.228571 0.551724
vt 0.228571 0.517241
vt 0.171429 0.517241
vt 0.171429 0.551724
vt 0.028571 0.551724
vt 0.028571 0.517241
vt 0.771429 0.517241
vt 0.771429 0.551724
vt 0.628571 0.551724
vt 0.628571 0.517241
vt 0.571429 0.517241
vt 0.571429 0.551724
vt 0.428571 0.551724
vt 0.428571 0.517241
vt 0.971429 0.655172
vt 0.828571 0.655172
vt 0.828571 0.827586
vt 0.971429 0.827586
vt 0.828571 1.000000
vt 0.828571 0.827586
vt 0.857143 0.862069
vt 0.857143 0.965517
vt 0.814286 0.862069
vt 0.814286 0.965517
vt 0.800000 0.965517
vt 0.800000 0.862069
vt 0.971429 0.827586
vt 0.942857 0.862069
vt 0.971429 1.000000
vt 0.942857 0.965517
vt 0.857143 0.862069
vt 0.942857 0.862069
vt 0.942857 0.965517
vt 0.857143 0.965517
vt 0.800000 0.982759
vt 0.714286 0.982759
vt 0.714286 0.965517
vt 0.714286 0.844828
vt 0.800000 0.844828
vt 0.714286 0.862069
vt 0.700000 0.965517
vt 0.700000 0.862069
vt 0.014286 0.551724
vt 0.014286 0.568965
vt 0.042857 0.568965
vt 0.042857 0.551724
vt 0.171429 0.775862
vt 0.028571 0.775862
vt 0.028571 0.758621
vt 0.171429 0.758621
vt 0.200000 0.551724
vt 0.185714 0.551724
vt 0.185714 0.758621
vt 0.200000 0.758621
vt 0.142857 0.551724
vt 0.142857 0.724138
vt 0.157143 0.724138
vt 0.157143 0.551724
vt -0.000000 0.758621
vt 0.014286 0.758621
vt 0.014286 0.551724
vt -0.000000 0.551724
vt 0.157143 0.551724
vt 0.157143 0.568965
vt 0.185714 0.568965
vt 0.185714 0.551724
vt 0.042857 0.551724
vt 0.042857 0.724138
vt 0.057143 0.724138
vt 0.057143 0.551724
vt 0.028571 0.206897
vt 0.171429 0.206897
vt 0.171429 0.172414
vt 0.142857 0.172414
vt 0.057143 0.172414
vt 0.028571 0.172414
vt 1.000000 0.241379
vt 0.800000 0.241379
vt 0.800000 0.000000
vt 1.000000 0.000000
vt -0.000000 0.000000
vt 0.142857 0.000000
vt 0.057143 0.000000
vt 0.057143 0.724138
vt 0.142857 0.724138
vt 0.142857 0.741379
vt 0.057143 0.741379
vt 0.357143 0.603448
vt 0.442857 0.603448
vt 0.442857 0.775862
vt 0.357143 0.775862
vt 0.142857 0.017241
vt 0.057143 0.017241
vt 0.057143 0.172414
vt -0.000000 0.241379
vt 0.442857 0.931035
vt 0.357143 0.931035
vt 0.214286 0.931035
vt 0.214286 0.775862
vt 0.585714 0.775862
vt 0.585714 0.931035
vt 0.442857 0.931035
vt 0.442857 1.000000
vt 0.357143 1.000000
vt 0.357143 0.931035
vt 0.157143 0.775862
vt 0.042857 0.775862
vt 0.042857 0.931035
vt 0.157143 0.931035
vt 0.042857 0.775862
vt 0.157143 0.775862
vt 0.157143 0.931035
vt 0.042857 0.931035
vt 0.785714 0.741379
vt 0.700000 0.741379
vt 0.700000 0.706897
vt 0.785714 0.706897
vt 0.700000 0.603448
vt 0.785714 0.603448
vt 0.671429 0.706897
vt 0.671429 0.603448
vt 0.700000 0.603448
vt 0.700000 0.568965
vt 0.785714 0.568965
vt 0.785714 0.603448
vt 0.814286 0.603448
vt 0.814286 0.706897
vt 0.785714 0.706897
vt 0.171429 0.000000
vt 0.142857 0.000000
vt 0.028571 0.000000
vt 0.057143 0.000000
vt 0.142857 0.172414
vn -1.0000 0.0000 0.0000
vn 1.0000 0.0000 0.0000
vn 0.0000 0.0000 1.0000
vn 0.0000 1.0000 0.0000
vn 0.0000 0.0000 -1.0000
vn 0.0000 -1.0000 0.0000
vn 0.7071 -0.0000 0.7071
vn 0.7071 -0.0000 -0.7071
s off
f 1/1/1 2/2/1 4/3/1 3/4/1
f 7/5/2 8/6/2 6/7/2 5/8/2
f 5/9/3 6/10/3 2/11/3 1/12/3
f 8/6/4 4/13/4 2/14/4 6/15/4
f 9/16/1 10/17/1 12/18/1 11/19/1
f 11/20/5 12/21/5 16/22/5 15/23/5
f 15/24/2 16/25/2 14/26/2 13/27/2
f 13/28/3 14/29/3 10/30/3 9/31/3
f 16/32/4 12/33/4 10/34/4 14/35/4
f 17/36/1 18/37/1 20/38/1 19/39/1
f 19/40/5 20/41/5 24/42/5 23/43/5
f 23/44/2 24/45/2 22/46/2 21/47/2
f 21/48/3 22/49/3 18/50/3 17/51/3
f 25/52/1 26/53/1 28/54/1 27/55/1
f 27/56/5 28/57/5 32/58/5 31/59/5
f 31/60/2 32/61/2 30/62/2 29/63/2
f 29/64/3 30/65/3 26/66/3 25/67/3
f 27/68/6 31/69/6 29/70/6 25/71/6
f 28/72/4 26/73/4 33/74/4 34/75/4
f 34/76/2 33/77/2 37/78/2 38/79/2
f 26/73/4 30/80/4 36/81/4 33/74/4
f 32/82/4 28/72/4 34/75/4 35/83/4
f 30/80/4 32/82/4 35/83/4 36/81/4
f 39/84/4 38/85/4 37/86/4 40/87/4
f 33/88/5 36/89/5 40/90/5 37/78/5
f 35/91/3 34/92/3 38/79/3 39/93/3
f 36/94/1 35/95/1 39/93/1 40/90/1
f 43/96/4 50/97/4 51/98/4 56/99/4
f 42/100/4 44/101/4 49/102/4 46/103/4
f 41/104/2 47/105/2 46/106/2 42/107/2
f 45/108/1 53/109/1 55/110/1 48/111/1
f 44/112/1 49/113/1 50/114/1 43/115/1
f 45/116/4 48/117/4 47/118/4 41/119/4
f 51/120/2 54/121/2 52/122/2 56/123/2
f 49/124/3 46/125/3 78/126/3 55/127/3 54/128/3 77/129/3
f 3/130/6 7/131/6 5/132/6 1/133/6
f 7/134/3 3/4/3 45/135/3 56/136/3
f 54/137/4 55/138/4 53/139/4 52/140/4
f 59/141/4 60/142/4 62/143/4 61/144/4
f 56/136/5 45/135/5 60/145/5 59/146/5
f 7/134/5 56/136/5 52/147/5 8/148/5
f 57/149/5 58/150/5 61/144/5 62/143/5
f 58/150/1 52/151/1 59/152/1 61/144/1
f 57/149/2 62/143/2 60/153/2 53/154/2
f 53/155/4 71/156/4 72/157/4 52/158/4
f 63/159/7 64/160/7 66/161/7 65/162/7
f 67/163/8 68/164/8 70/165/8 69/166/8
f 57/167/3 58/168/3 74/169/3 73/170/3
f 73/170/4 74/169/4 76/171/4 75/172/4
f 58/173/1 74/169/1 76/171/1 72/174/1
f 72/175/3 76/176/3 75/177/3 71/178/3
f 71/178/2 75/179/2 73/180/2 57/181/2
f 47/182/3 48/183/3 55/127/3 78/126/3
f 50/184/3 77/129/3 54/128/3 51/185/3
f 53/186/5 45/135/5 3/4/5 4/3/5
f 4/3/5 8/148/5 52/147/5 53/186/5
