# Blender v3.1.2 OBJ File: 'models.blend'
# www.blender.org
o Plane_Plane.001
v 0.707107 -0.500000 -0.707107
v -0.707107 -0.500000 0.707107
v 0.707107 0.500000 -0.707107
v -0.707107 0.500000 0.707107
v 0.707107 -0.500000 0.707107
v -0.707107 -0.500000 -0.707107
v 0.707107 0.500000 0.707107
v -0.707107 0.500000 -0.707107
v 0.792322 -0.062500 -1.499429
v 0.179950 0.437500 -0.887057
v 1.499429 -0.062500 -0.792322
v 0.887056 0.437500 -0.179950
v -0.571351 -0.312500 1.278458
v 0.041021 0.187500 0.666086
v -1.278458 -0.312500 0.571351
v -0.666085 0.187500 -0.041021
v 1.278458 -0.312500 0.571351
v 0.666086 0.187500 -0.041021
v 0.571351 -0.312500 1.278458
v -0.041021 0.187500 0.666086
v -1.499429 -0.312500 -0.792322
v -0.887056 0.187500 -0.179950
v -0.792322 -0.312500 -1.499429
v -0.179950 0.187500 -0.887057
vt 0.000000 0.000000
vt 1.000000 0.500000
vt 0.000000 0.500000
vt 1.000000 0.500000
vt 0.000000 1.000000
vt 0.000000 0.500000
vt 1.000000 0.000000
vt 1.000000 1.000000
vt 0.000000 -0.000000
vt 1.000000 1.000000
vt -0.000000 1.000000
vt 0.000000 -0.000000
vt 1.000000 1.000000
vt -0.000000 1.000000
vt 0.000000 -0.000000
vt 1.000000 1.000000
vt -0.000000 1.000000
vt -0.000000 1.000000
vt 1.000000 0.000000
vt 1.000000 1.000000
vt 1.000000 0.000000
vt 1.000000 0.000000
vt 1.000000 0.000000
vt 0.000000 -0.000000
vn -0.7071 0.0000 -0.7071
vn 0.7071 0.0000 -0.7071
vn 0.3536 0.8660 -0.3536
vn -0.3536 0.8660 0.3536
vn 0.3536 0.8660 0.3536
vn -0.3536 0.8660 -0.3536
g Plane_Plane.001_metal
s off
f 1/1/1 4/2/1 3/3/1
f 6/4/2 7/5/2 5/6/2
f 1/1/1 2/7/1 4/2/1
f 6/4/2 8/8/2 7/5/2
g Plane_Plane.001_pot
f 10/9/3 11/10/3 9/11/3
f 14/12/4 15/13/4 13/14/4
f 18/15/5 19/16/5 17/17/5
f 21/18/6 24/19/6 23/20/6
f 10/9/3 12/21/3 11/10/3
f 14/12/4 16/22/4 15/13/4
f 18/15/5 20/23/5 19/16/5
f 21/18/6 22/24/6 24/19/6
