# Blender 3.6.0
# www.blender.org
g cilia_small_Mesh
v 0.353553 -1.500000 0.353553
v -0.353553 -1.500000 -0.353553
v 0.353553 0.500000 0.353553
v -0.353553 0.500000 -0.353553
v -0.353553 0.500000 0.353553
v 0.353553 0.500000 -0.353553
v -0.353553 -1.500000 0.353553
v 0.353553 -1.500000 -0.353553
vn 0.7071 -0.0000 -0.7071
vn -0.7071 -0.0000 -0.7071
vt 1.000000 0.000000
vt 0.000000 1.000000
vt 0.000000 0.000000
vt 1.000000 1.000000
s 0
f 2/1/1 3/2/1 1/3/1
f 7/1/2 6/2/2 8/3/2
f 2/1/1 4/4/1 3/2/1
f 7/1/2 5/4/2 6/2/2
