# Blender v3.6.4 OBJ File: 'models.blend'
# www.blender.org
o amber_shroom_medium_Plane.025
v 0.707107 -0.500000 0.707107
v -0.707107 -0.500000 -0.707107
v 0.707107 1.500000 0.707107
v -0.707107 1.500000 -0.707107
v -0.707107 -0.500000 0.707107
v 0.707107 -0.500000 -0.707107
v -0.707107 1.500000 0.707107
v 0.707107 1.500000 -0.707107
v 1.000000 1.062500 -1.000000
v -1.000000 1.062500 -1.000000
v 1.000000 1.062500 1.000000
v -1.000000 1.062500 1.000000
v -1.000000 1.000000 0.870513
v 1.000000 1.000000 0.870513
v -1.000000 1.500000 0.004487
v 1.000000 1.500000 0.004487
v 0.004487 1.500000 -1.000000
v 0.004487 1.500000 1.000000
v 0.870513 1.000000 -1.000000
v 0.870512 1.000000 1.000000
v -0.870513 1.000000 -1.000000
v -0.870513 1.000000 1.000000
v -0.004487 1.500000 -1.000000
v -0.004487 1.500000 1.000000
v -1.000000 1.500000 -0.004487
v 1.000000 1.500000 -0.004487
v -1.000000 1.000000 -0.870513
v 1.000000 1.000000 -0.870513
vt 1.000000 0.000000
vt 0.000000 1.000000
vt 0.000000 0.000000
vt 1.000000 0.000000
vt 0.000000 1.000000
vt 0.000000 0.000000
vt 1.000000 1.000000
vt 1.000000 1.000000
vt 0.000000 0.000000
vt 1.000000 1.000000
vt 0.000000 1.000000
vt 1.000000 0.000000
vt 0.000000 1.000000
vt 0.000000 0.000000
vt 1.000000 0.000000
vt 0.000000 1.000000
vt 0.000000 0.000000
vt 1.000000 0.000000
vt 0.000000 1.000000
vt 0.000000 0.000000
vt 1.000000 0.000000
vt 1.000000 1.000000
vt 1.000000 1.000000
vt 1.000000 1.000000
vt 1.000000 0.000000
vt 0.000000 1.000000
vt 0.000000 0.000000
vt 1.000000 1.000000
vn 0.7071 -0.0000 -0.7071
vn 0.7071 -0.0000 0.7071
vn -0.0000 0.8660 0.5000
vn 0.5000 0.8660 0.0000
vn -0.5000 0.8660 0.0000
vn 0.0000 0.8660 -0.5000
vn 0.0000 1.0000 0.0000
g amber_shroom_medium_Plane.025_mat1
s off
f 2/1/1 3/2/1 1/3/1
f 6/4/2 7/5/2 5/6/2
f 2/1/1 4/7/1 3/2/1
f 6/4/2 8/8/2 7/5/2
g amber_shroom_medium_Plane.025_mat2
f 13/9/3 16/10/3 15/11/3
f 19/12/4 18/13/4 20/14/4
f 22/15/5 23/16/5 21/17/5
f 27/18/6 26/19/6 28/20/6
f 13/9/3 14/21/3 16/10/3
f 19/12/4 17/22/4 18/13/4
f 22/15/5 24/23/5 23/16/5
f 27/18/6 25/24/6 26/19/6
g amber_shroom_medium_Plane.025_mat3
f 10/25/7 11/26/7 9/27/7
f 10/25/7 12/28/7 11/26/7
